<?xml version="1.0" encoding="utf-8"?>
<!-- Generator: Adobe Illustrator 15.1.0, SVG Export Plug-In . SVG Version: 6.00 Build 0)  -->
<!DOCTYPE svg PUBLIC "-//W3C//DTD SVG 1.1//EN" "http://www.w3.org/Graphics/SVG/1.1/DTD/svg11.dtd">
<svg version="1.1" id="Layer_1" xmlns="http://www.w3.org/2000/svg" xmlns:xlink="http://www.w3.org/1999/xlink" x="0px" y="0px"
	 width="1080px" height="1340px" viewBox="0 0 1080 1340" enable-background="new 0 0 1080 1340" xml:space="preserve">
<g id="Layer_2">
	<path fill="#33322F" d="M228.168,976.862c13.714,36.683-8.732,67.079-10.204,140.057c-1.209,60.022,85.324,24.493,106.328,32.164
		c21.003,7.671-38.195,24.872-88.413,16.196c-42.146-7.283-69.029,15.338-56.772,34.573c11.222,17.609,48.707,21.134,48.707,21.134
		s-11.754,2.836-32.583-20.958c-20.829-23.794,98.163,4.069,134.695-8.721c53.038-18.567,43.55-53.87,10.72-68.244
		c-32.831-14.374-77.147,18.858-79.172-21.644c-1.563-31.266,54.003-100.29,26.946-178.73
		c-17.947-52.027-77.395-41.498-85.258-25.289c-0.685,1.412-7.223,9.191-5.673,17.092c1.033,5.271,9.945,10.884,10.874,13.642
		C215.989,950.791,228.168,976.862,228.168,976.862z"/>
	<path fill="#F2E178" d="M229.353,980.296c0,0,2.244,38.482-0.886,54.508c-4.372,22.388,28.521,17.554,48.566-0.104
		c14.826-13.061,18.019-34.504,17.863-50.027c-0.367-36.513-27.937-19.353-37.505-37.386c-9.568-18.032-17.824-22.199-25.894-14.157
		c-8.07,8.041-21.242,10.213-3.33,43.733"/>
	<path fill="#F2E178" d="M256.562,1078.299c3.629,1.463,4.258,8.444,4.793,14.52c0.989,11.208-11.142,24.902-9.661,34.347
		c1.628,10.381,11.585,16.078,20.687,19.783c9.605,3.912,20.771,3.081,30.481,0.066c1.231,7.894-17.937,3.916-23.099,4.483
		c-15.895,1.747-18.017,2.706-34.313-0.851c-11.09-2.421-17.478-7.564-21.754-17.79c-3.812-9.113-2.759-16.854-2.9-26.326
		c-0.134-8.933,1.525-7.099,2.341-15.871c0.338-3.638-2.399-8.516-0.125-11.849c3.95-5.787,10.366,3.08,15.25,4.258
		C243.849,1084.416,251.833,1076.393,256.562,1078.299z"/>
	<path fill="none" stroke="#000000" stroke-width="10" stroke-linecap="round" stroke-linejoin="round" stroke-miterlimit="10" d="
		M228.168,976.862c13.714,36.683-8.732,67.079-10.204,140.057c-1.209,60.022,85.324,24.493,106.328,32.164
		c21.003,7.671-38.195,24.872-88.413,16.196c-42.146-7.283-69.029,15.338-56.772,34.573c11.222,17.609,48.707,21.134,48.707,21.134
		s-11.754,2.836-32.583-20.958c-20.829-23.794,98.163,4.069,134.695-8.721c53.038-18.567,43.55-53.87,10.72-68.244
		c-32.831-14.374-77.147,18.858-79.172-21.644c-1.563-31.266,54.003-100.29,26.946-178.73
		c-17.947-52.027-77.395-41.498-85.258-25.289c-0.685,1.412-9.304,20.054-7.767,27.966c0.531,2.737,5.459,9.652,7.892,10.283
		c7.864,2.04,10.658,7.219,12.998,13.982C219.535,959.025,224.707,967.606,228.168,976.862z"/>
	<path fill="#F2E178" d="M192.846,924.721c-5.412,8.408-4.053,25.598,3.326,31.467c7.379,5.869,32.858-19.807,32.858-19.807
		c3.179-5.517-5.799-7.457-15.022-13.137C207.244,919.08,200.307,913.125,192.846,924.721z"/>
	<path fill="none" stroke="#000000" stroke-width="10" stroke-linecap="round" stroke-linejoin="round" stroke-miterlimit="10" d="
		M203.162,897.4c-15.307,25.803-11.157,49.463-11.157,49.463s-2.152,32.993,47.074-21.933"/>
	
		<ellipse fill="#9B927B" stroke="#000000" stroke-width="10" stroke-linecap="round" stroke-linejoin="round" stroke-miterlimit="10" cx="223.914" cy="932.315" rx="0" ry="1.667"/>
	
		<ellipse transform="matrix(-0.9268 0.3756 -0.3756 -0.9268 726.8748 1707.7395)" fill="#9B927B" stroke="#000000" stroke-width="10" stroke-linecap="round" stroke-linejoin="round" stroke-miterlimit="10" cx="196.987" cy="924.717" rx="1.719" ry="0.061"/>
</g>
</svg>
