<?xml version="1.0" encoding="utf-8"?>
<!-- Generator: Adobe Illustrator 15.1.0, SVG Export Plug-In . SVG Version: 6.00 Build 0)  -->
<!DOCTYPE svg PUBLIC "-//W3C//DTD SVG 1.1//EN" "http://www.w3.org/Graphics/SVG/1.1/DTD/svg11.dtd">
<svg version="1.1" id="Layer_1" xmlns="http://www.w3.org/2000/svg" xmlns:xlink="http://www.w3.org/1999/xlink" x="0px" y="0px"
	 width="1080px" height="1340px" viewBox="0 0 1080 1340" enable-background="new 0 0 1080 1340" xml:space="preserve">
<g id="Layer_4" display="none">
	<rect x="-4.5" y="-295.326" display="inline" fill="#FFE9AB" width="1080" height="1920"/>
</g>
<ellipse fill="#9B907E" cx="540.083" cy="1245" rx="242.387" ry="31"/>
<path fill="#FBF5B9" stroke="#000000" stroke-width="10" stroke-linecap="round" stroke-linejoin="round" stroke-miterlimit="10" d="
	M804.641,574.384c-4.313,7.374-29.315,48.174-55.113,86.674C705,727.5,677,688,664.765,648.374
	c-14.646-47.441-26.978-93.163-26.978-93.163L653.573,761l-10.089,440.5c0,0,57.694,20.166,60.779,40.061
	c3.087,19.896-27.482,18.107-43.97,16.562S583.382,1233,583.382,1233l-0.17-334.281c0-30.77-14.092-65.719-42.925-65.719
	c-28.834,0-42.801,34.949-42.801,65.719L497.44,1233c0,0-60.438,23.566-76.917,25.117c-16.482,1.551-47.06,3.338-43.975-16.562
	c3.085-19.895,60.784-40.061,60.784-40.061L427.125,761l15.662-205.789c0,0-57.147,181.772-75.845,244.389
	c0,0,23.308,47.9,11.308,49.9s-11.835-31-18.835-28s-5.967,16.816-2.001,34c3,13-15.999,39-35.746,5.902
	c-16.54-27.725,5.473-74.824,5.473-74.824c17.041-61.859,58.59-219.858,66.014-251.22c8.31-35.115,34.722-53.751,60.384-62.75
	c12.34-4.327,26.81-4.902,38.979-5.608C504.689,466.293,509,452,509,448.5s0-19.5,0-19.5h64c0,0,0,16,0,19.5
	s5.098,17.793,17.271,18.5c12.172,0.707,24.938,1.281,37.278,5.608c25.662,8.999,51.816,27.635,60.127,62.75
	C691.572,551.805,713,634,713,634s42.067-52.93,57-77.5"/>
<path fill="#FBF5B9" stroke="#000000" stroke-width="10" stroke-linecap="round" stroke-linejoin="round" stroke-miterlimit="10" d="
	M770,556.5c0,0-22.833-64-5.08-64.215c14.14-0.171,4.006,38.039,16.039,31.761c8.457-3.634,15.996-40.642,15.996-40.642
	s3.502-16.733,12.9-15.344c9.396,1.393,3.373,18.188,3.373,18.188s-10.714,30.154-4.563,27.915
	c6.149-2.239,23.128-45.566,34.779-37.141c11.721,8.475-12.113,29.308-15.113,48.475c11.211,1.659,23.5-29.167,33.089-19.918
	c7.88,7.6-14.146,27.036-22.591,40.916c-8.44,13.88-22.869,32.476-41.481,27.173"/>
<g>
	<path fill="#FBF5B9" stroke="#000000" stroke-width="10" stroke-miterlimit="10" d="M636.75,259.036
		c0-48.345-37.412-87.036-97.566-87.036C479.027,172,443,210,443,259.036v68.43c0,48.702,37.029,108.036,95.279,108.036
		c58.248,0,97.505-59.691,97.505-108.036L636.75,259.036z"/>
	<g>
		<path fill="#FBF5B9" stroke="#000000" stroke-width="10" stroke-miterlimit="10" d="M637,338.595
			c14,0,24.418-10.933,24.418-24.418c0-13.486-10.418-24.419-24.418-24.419V338.595z"/>
		<path fill="#FBF5B9" stroke="#000000" stroke-width="10" stroke-miterlimit="10" d="M441,289.758
			c-14,0-24.418,10.933-24.418,24.418c0,13.486,10.418,24.419,24.418,24.419V289.758z"/>
	</g>
</g>
</svg>
