<?xml version="1.0" encoding="utf-8"?>
<!-- Generator: Adobe Illustrator 15.1.0, SVG Export Plug-In . SVG Version: 6.00 Build 0)  -->
<!DOCTYPE svg PUBLIC "-//W3C//DTD SVG 1.1//EN" "http://www.w3.org/Graphics/SVG/1.1/DTD/svg11.dtd">
<svg version="1.1" id="Layer_1" xmlns="http://www.w3.org/2000/svg" xmlns:xlink="http://www.w3.org/1999/xlink" x="0px" y="0px"
	 width="1080px" height="1340px" viewBox="0 0 1080 1340" enable-background="new 0 0 1080 1340" xml:space="preserve">
<ellipse fill="#9B907E" cx="540.083" cy="1245" rx="242.387" ry="31"/>
<path fill="#FBF5B9" d="M804.641,574.384c-4.313,7.374-29.314,48.174-55.112,86.674C705,727.5,677,688,664.765,648.374
	c-14.646-47.441-26.978-93.163-26.978-93.163L653.573,761l-10.089,440.5c0,0,57.693,20.166,60.778,40.063
	c3.087,19.896-27.481,18.105-43.97,16.561S583.382,1233,583.382,1233l-0.17-334.281c0-30.77-14.092-65.719-42.925-65.719
	c-28.834,0-42.801,34.949-42.801,65.719L497.44,1233c0,0-60.438,23.566-76.917,25.117c-16.482,1.551-47.06,3.338-43.975-16.563
	c3.085-19.895,60.784-40.061,60.784-40.061L427.125,761l15.662-205.789c0,0-57.147,181.772-75.845,244.389l-39.802-13.021
	c17.041-61.859,58.592-219.858,66.014-251.22c8.31-35.115,34.722-53.751,60.384-62.75c12.34-4.327,26.81-4.902,38.979-5.608
	C504.689,466.293,509,452,509,448.5s0-19.5,0-19.5h64c0,0,0,16,0,19.5s5.098,17.793,17.271,18.5s24.938,1.281,37.278,5.608
	c25.662,8.999,51.816,27.635,60.127,62.75C691.572,551.805,713,634,713,634s42.067-52.93,57-77.5"/>
<path fill="none" stroke="#000000" stroke-width="10" stroke-linecap="round" stroke-linejoin="round" stroke-miterlimit="10" d="
	M327.141,786.578c17.041-61.859,58.592-219.858,66.014-251.22c8.31-35.115,34.722-53.751,60.384-62.75
	c12.34-4.327,26.81-4.902,38.979-5.608C504.689,466.293,509,452,509,448.5s0-19.5,0-19.5h64c0,0,0,16,0,19.5
	s5.098,17.793,17.271,18.5s24.938,1.281,37.278,5.608c25.662,8.999,51.816,27.635,60.127,62.75C691.572,551.805,713,634,713,634
	s42.067-52.93,57-77.5"/>
<g id="gatki">
	<path fill="#FFFFFF" d="M540.287,833c0,0,16.213-3.371,35.88,23.564l72.667-4.397l2.666-67l-222.193,1.411l2.527,65.589
		l77.333,4.397C509.167,856.564,518.074,832.167,540.287,833z"/>
	
		<line fill="#FFFFFF" stroke="#000000" stroke-width="10" stroke-miterlimit="10" x1="429.307" y1="855.148" x2="506.178" y2="857.979"/>
	
		<line fill="none" stroke="#000000" stroke-width="10" stroke-linecap="round" stroke-linejoin="round" stroke-miterlimit="10" x1="651.5" y1="855.148" x2="574.467" y2="857.979"/>
	
		<line fill="#FFFFFF" stroke="#000000" stroke-width="10" stroke-miterlimit="10" x1="653.05" y1="783.853" x2="427.654" y2="783.853"/>
</g>
<path fill="none" stroke="#000000" stroke-width="10" stroke-linecap="round" stroke-linejoin="round" stroke-miterlimit="10" d="
	M804.641,574.384c-4.313,7.374-29.314,48.174-55.112,86.674C705,727.5,677,688,664.765,648.374
	c-14.646-47.441-26.978-93.163-26.978-93.163L653.573,761l-10.089,440.5c0,0,57.693,20.166,60.778,40.063
	c3.087,19.896-27.481,18.105-43.97,16.561S583.382,1233,583.382,1233l-0.17-334.281c0-30.77-14.092-65.719-42.925-65.719
	c-28.834,0-42.801,34.949-42.801,65.719L497.44,1233c0,0-60.438,23.566-76.917,25.117c-16.482,1.551-47.06,3.338-43.975-16.563
	c3.085-19.895,60.784-40.061,60.784-40.061L427.125,761l15.662-205.789c0,0-57.147,181.772-75.845,244.389"/>
<g>
	<path fill="#FBF5B9" stroke="#000000" stroke-width="10" stroke-miterlimit="10" d="M636.75,259.036
		c0-48.345-37.412-87.036-97.566-87.036C479.027,172,443,210,443,259.036v68.43c0,48.702,37.029,108.036,95.279,108.036
		c58.248,0,97.505-59.691,97.505-108.036L636.75,259.036z"/>
	<g>
		<path fill="#FBF5B9" stroke="#000000" stroke-width="10" stroke-miterlimit="10" d="M637,338.595
			c14,0,24.418-10.933,24.418-24.418S651,289.758,637,289.758V338.595z"/>
		<path fill="#FBF5B9" stroke="#000000" stroke-width="10" stroke-miterlimit="10" d="M441,289.758
			c-14,0-24.418,10.934-24.418,24.418c0,13.486,10.418,24.419,24.418,24.419V289.758z"/>
	</g>
</g>
</svg>
