<?xml version="1.0" encoding="utf-8"?>
<!-- Generator: Adobe Illustrator 15.1.0, SVG Export Plug-In . SVG Version: 6.00 Build 0)  -->
<!DOCTYPE svg PUBLIC "-//W3C//DTD SVG 1.1//EN" "http://www.w3.org/Graphics/SVG/1.1/DTD/svg11.dtd">
<svg version="1.1" id="Layer_1" xmlns="http://www.w3.org/2000/svg" xmlns:xlink="http://www.w3.org/1999/xlink" x="0px" y="0px"
	 width="1080px" height="1340px" viewBox="0 0 1080 1340" enable-background="new 0 0 1080 1340" xml:space="preserve">
<path fill="#754C24" stroke="#000000" stroke-width="10" stroke-linecap="round" stroke-linejoin="round" stroke-miterlimit="10" d="
	M540,153.902c0,0-109.745-27.902-130.83,89.598c-7.956,57.483-3.85,95.738-6,121c-2.667,31.333-4.5,41.333-17.166,61.889
	c0,0-15.334,18.778-6.001,46.111c0,0,11.749,19.259-6.937,42.586c0,0-21.063,17.458-7.729,40.125c0,0,15.334,23.289-10,44.623
	c0,0-24.667,15.333-11.334,45.333c0,0,18,19.333-8,40c0,0-20.091,12.667-8,36.667c0,0,20.667,28.333-11.333,37.333
	c0,0-23.333,1-16.333-21c0,0-23,55.667,44.666,38.667c0,0,23.334-9.667,114.334-12h159.496c91,2.333,114.334,12,114.334,12
	c67.666,17,44.666-38.667,44.666-38.667c7,22-16.333,21-16.333,21c-32-9-11.333-37.333-11.333-37.333c12.091-24-8-36.667-8-36.667
	c-26-20.667-8-40-8-40c13.333-30-11.334-45.333-11.334-45.333c-25.334-21.333-10-44.623-10-44.623
	c13.334-22.667-7.729-40.125-7.729-40.125c-18.686-23.327-6.937-42.586-6.937-42.586c9.333-27.333-6.001-46.111-6.001-46.111
	C679.5,405.833,677.667,395.833,675,364.5c-2.15-25.262,1.956-63.517-6-121C647.915,126,540,153.902,540,153.902"/>
</svg>
