<?xml version="1.0" encoding="utf-8"?>
<!-- Generator: Adobe Illustrator 15.1.0, SVG Export Plug-In . SVG Version: 6.00 Build 0)  -->
<!DOCTYPE svg PUBLIC "-//W3C//DTD SVG 1.1//EN" "http://www.w3.org/Graphics/SVG/1.1/DTD/svg11.dtd">
<svg version="1.1" id="Layer_1" xmlns="http://www.w3.org/2000/svg" xmlns:xlink="http://www.w3.org/1999/xlink" x="0px" y="0px"
	 width="1080px" height="1340px" viewBox="0 0 1080 1340" enable-background="new 0 0 1080 1340" xml:space="preserve">
<g id="Layer_1_2_">
	
		<path fill="#754C24" stroke="#000000" stroke-width="10" stroke-linecap="round" stroke-linejoin="round" stroke-miterlimit="10" d="
		M644.166,270c-0.572,10.187-8.79,41.882-1.969,77.167c2.705,13.995,5.666,68.667-29.666,75.333c0,0,21-28,11.298-67.262
		c0,0-8.499-31.071-5.065-78.071l1.069-13.5c-39.526-5.769-113.535-8.436-159.696,0l0.797,13.5c3.435,47-5.064,78.071-5.064,78.071
		c-9.702,39.262,11.298,67.262,11.298,67.262c-35.333-6.667-32.372-61.338-29.667-75.333c6.821-35.285-1.396-66.98-1.969-77.167
		c-0.573-10.187-10.214-84.688,54.021-105.279c7.44-2.385,24.01-4.806,30.293-5.259c20.029-2.294,40.091,0,40.091,0
		c12.095,1.07,22.854,2.874,30.293,5.259c56.63,18.153,55.805,83.771,54.455,101.128c-0.181,2.332-0.37,3.792-0.434,4.15"/>
</g>
</svg>
