<?xml version="1.0" encoding="utf-8"?>
<!-- Generator: Adobe Illustrator 15.1.0, SVG Export Plug-In . SVG Version: 6.00 Build 0)  -->
<!DOCTYPE svg PUBLIC "-//W3C//DTD SVG 1.1//EN" "http://www.w3.org/Graphics/SVG/1.1/DTD/svg11.dtd">
<svg version="1.1" id="Layer_1" xmlns="http://www.w3.org/2000/svg" xmlns:xlink="http://www.w3.org/1999/xlink" x="0px" y="0px"
	 width="640px" height="640px" viewBox="219.698 -39.832 640 640" enable-background="new 219.698 -39.832 640 640"
	 xml:space="preserve">
<ellipse display="none" fill="#9B907E" cx="540.083" cy="1245" rx="242.387" ry="31"/>
<g display="none">
	
		<path id="NOWE" display="inline" fill="#FBF5B9" stroke="#000000" stroke-width="10" stroke-linecap="round" stroke-linejoin="round" stroke-miterlimit="10" d="
		M753.495,786.578c-17.041-61.859-58.589-219.858-66.009-251.22c-8.311-35.115-34.723-53.751-60.385-62.75
		c-12.34-4.327-26.128-4.902-38.3-5.608C576.629,466.293,570,452,570,448.5s0-20.5,0-20.5h-61c0,0,0,17,0,20.5
		s-5.779,17.793-17.953,18.5c-12.172,0.707-25.285,1.281-37.625,5.608c-25.662,8.999-51.986,27.635-60.297,62.75
		c-7.42,31.36-48.924,189.359-65.965,251.22c0,0-21.991,47.104-5.452,74.824c19.747,33.098,38.757,7.098,35.757-5.902
		c-3.966-17.184-4.994-31,2.006-34s6.838,30,18.838,28s-11.306-49.9-11.306-49.9c18.697-62.615,75.845-244.389,75.845-244.389
		L427.188,761l10,436l60.119,25l0.242-323.281c0-30.77,13.967-65.719,42.801-65.719s42.802,34.949,42.802,65.719L583.393,1222
		l60.119-25l10-436L637.85,555.211c0,0,57.147,181.772,75.846,244.389c0,0-23.309,47.9-11.309,49.9s11.835-31,18.835-28
		s5.968,16.816,2.001,34c-3,13,15.999,39,35.746,5.902C775.508,833.682,753.495,786.578,753.495,786.578z"/>
	<g display="inline">
		
			<path fill="#FBF5B9" stroke="#000000" stroke-width="10" stroke-linecap="round" stroke-linejoin="round" stroke-miterlimit="10" d="
			M583,1192v41.001c0,0,60.631,23.564,77.113,25.116c16.481,1.551,47.055,3.338,43.97-16.558
			c-3.085-19.895-60.998-39.56-60.998-39.56l1.206-35"/>
		
			<path fill="#FBF5B9" stroke="#000000" stroke-width="10" stroke-linecap="round" stroke-linejoin="round" stroke-miterlimit="10" d="
			M497,1192v41.001c0,0-60.48,23.564-76.963,25.116c-16.483,1.551-46.98,3.338-43.896-16.558
			c3.084-19.895,61.037-39.56,61.037-39.56l-1.338-35"/>
	</g>
</g>
<path display="none" fill="#754C24" stroke="#000000" stroke-width="10" stroke-linecap="round" stroke-linejoin="round" stroke-miterlimit="10" d="
	M677.012,161.667"/>
<path display="none" fill="#754C24" stroke="#000000" stroke-width="10" stroke-linecap="round" stroke-linejoin="round" stroke-miterlimit="10" d="
	M755.679,136.333"/>
<path display="none" fill="#754C24" stroke="#000000" stroke-width="10" stroke-linecap="round" stroke-linejoin="round" stroke-miterlimit="10" d="
	M669,138.731c-12-6.231-15.011,22.908,5.5,25.269s25-9,22.818-22.197c-2.542-15.378-18.014-28.095-21.645-29.456
	c-23.984-8.993-31.018-1.598-37.51,3.469C610,137.799,655.499,190.375,676,192c74.271,14.156,42.5-70,42.5-70
	c-18.98-41.537-69-40-69-40c-66-0.191-50.861,56.731-50.861,56.731c5.572,12.383,21.845,9.028,30.652,23.379"/>
<path display="none" fill="#754C24" stroke="#000000" stroke-width="10" stroke-linecap="round" stroke-linejoin="round" stroke-miterlimit="10" d="
	M408.395,137.731c12-6.231,15.012,22.908-5.5,25.269c-20.511,2.361-25-9-22.817-22.197c2.542-15.378,18.013-28.095,21.644-29.456
	c23.985-8.993,31.019-1.598,37.511,3.469c28.165,21.982-17.334,74.559-37.835,76.184c-74.271,14.156-42.5-70-42.5-70
	c18.979-41.537,69-40,69-40c66-0.191,50.86,56.731,50.86,56.731c-5.572,12.383-21.844,9.028-30.651,23.379"/>
<path display="none" fill="#754C24" stroke="#000000" stroke-width="10" stroke-linecap="round" stroke-linejoin="round" stroke-miterlimit="10" d="
	M596.563,379.304C668,365,673.346,277.056,673.346,277.056C686.5,192.604,640,145,610.334,155.667
	C612.5,143.5,600.5,125.25,532,128.012c0,0-62.333,0.321-91,22.321c0,0-49.5,29.667-38,125.723c0,0,13.582,100.444,80.639,103.248"
	/>
<g display="none">
	
		<path display="inline" fill="#754C24" stroke="#000000" stroke-width="10" stroke-linecap="round" stroke-linejoin="round" stroke-miterlimit="10" d="
		M649.227,396.005c4.086-10.052-20.008-9.917-20.207,6.549c-0.198,16.464,9.476,19.041,20.089,16.17
		c12.365-3.347,21.463-16.713,22.268-19.709c5.334-19.793-1.311-24.729-6.006-29.438c-20.362-20.428-59.532,20.195-59.131,36.588
		c-5.309,60.108,60.856,27.639,60.856,27.639c32.381-18.641,26.897-58.166,26.897-58.166c-5.419-52.342-50.709-35.415-50.709-35.415
		c-9.66,5.489-5.541,18.101-16.537,26.324"/>
	
		<path display="inline" fill="#754C24" stroke="#000000" stroke-width="10" stroke-linecap="round" stroke-linejoin="round" stroke-miterlimit="10" d="
		M423.053,396.005c-4.085-10.052,20.008-9.917,20.207,6.549c0.199,16.464-9.475,19.041-20.088,16.17
		c-12.366-3.347-21.463-16.713-22.268-19.709c-5.334-19.793,1.311-24.729,6.006-29.438c20.362-20.428,59.532,20.195,59.131,36.588
		c5.308,60.108-60.857,27.639-60.857,27.639c-32.38-18.641-26.896-58.166-26.896-58.166c5.419-52.342,50.709-35.415,50.709-35.415
		c9.66,5.489,5.541,18.101,16.537,26.324"/>
	
		<path display="inline" fill="#754C24" stroke="#000000" stroke-width="10" stroke-linecap="round" stroke-linejoin="round" stroke-miterlimit="10" d="
		M596.563,379.304c79.074-2.971,76.783-102.248,76.783-102.248C677.012,187.667,640,145,610.334,155.667
		C612.5,143.5,600.5,125.25,532,128.012c0,0-62.333,0.321-91,22.321c0,0-44.667,26-38,125.723c0,0,1.333,103.248,80.639,103.248"/>
</g>
<g display="none">
	
		<path display="inline" fill="#754C24" stroke="#000000" stroke-width="10" stroke-linecap="round" stroke-linejoin="round" stroke-miterlimit="10" d="
		M596.563,379.304C668,365,673.346,277.056,673.346,277.056C686.5,192.604,640,145,610.334,155.667
		C612.5,143.5,600.5,125.25,532,128.012c0,0-62.333,0.321-91,22.321c0,0-49.5,29.667-38,125.723c0,0,13.582,100.444,80.639,103.248"
		/>
	
		<path display="inline" fill="#754C24" stroke="#000000" stroke-width="10" stroke-linecap="round" stroke-linejoin="round" stroke-miterlimit="10" d="
		M667.331,368c-8.12,8.56-18.808-15.36-2.592-22.954c16.216-7.593,23.11,0.83,25.035,12.629c2.24,13.749-6.909,28.762-9.515,30.906
		c-17.206,14.172-25.078,9.809-31.85,7.276c-29.377-10.989-6.743-68.026,9.671-74.992c57.139-32.256,54.706,47.852,54.706,47.852
		c-3.916,40.438-45.518,52.763-45.518,52.763c-54.27,18.146-57.85-34.309-57.85-34.309c1.096-12.032,15.436-13.617,18.641-28.201"/>
</g>
<g>
	
		<path fill="#754C24" stroke="#000000" stroke-width="10" stroke-linecap="round" stroke-linejoin="round" stroke-miterlimit="10" d="
		M670,374.866c-12,6.231-15.011-22.908,5.5-25.269c20.511-2.361,25,9,22.818,22.197c-2.542,15.378-18.014,28.095-21.645,29.456
		c-23.984,8.993-31.018,1.598-37.51-3.469C611,375.799,656.499,323.222,677,321.598c74.271-14.156,42.5,70,42.5,70
		c-18.98,41.537-69,40-69,40c-66,0.191-50.861-56.73-50.861-56.73c5.572-12.383,21.845-9.028,30.652-23.379"/>
	
		<path fill="#754C24" stroke="#000000" stroke-width="10" stroke-linecap="round" stroke-linejoin="round" stroke-miterlimit="10" d="
		M409.395,375.866c12,6.231,15.012-22.908-5.5-25.269c-20.511-2.361-25,9-22.817,22.197c2.542,15.378,18.013,28.095,21.644,29.456
		c23.985,8.993,31.019,1.598,37.511-3.469c28.165-21.982-17.334-74.559-37.835-76.184c-74.271-14.156-42.5,70-42.5,70
		c18.979,41.537,69,40,69,40c66,0.191,50.86-56.73,50.86-56.73c-5.572-12.383-21.844-9.028-30.651-23.379"/>
	
		<path fill="#754C24" stroke="#000000" stroke-width="10" stroke-linecap="round" stroke-linejoin="round" stroke-miterlimit="10" d="
		M546.167,375.799c84.216,1.733,119.383-62.805,119.383-62.805c6.809-19.675,7.796-35.938,7.796-35.938
		C686.5,192.604,640,145,610.334,155.667C612.5,143.5,600.5,125.25,532,128.012c0,0-62.333,0.321-91,22.321
		c0,0-49.5,29.667-38,125.723c0,0,2.855,21.115,12.411,44.253C462.5,375.799,466.833,374.167,546.167,375.799z"/>
</g>
</svg>
