<?xml version="1.0" encoding="utf-8"?>
<!-- Generator: Adobe Illustrator 15.1.0, SVG Export Plug-In . SVG Version: 6.00 Build 0)  -->
<!DOCTYPE svg PUBLIC "-//W3C//DTD SVG 1.1//EN" "http://www.w3.org/Graphics/SVG/1.1/DTD/svg11.dtd">
<svg version="1.1" id="Layer_1" xmlns="http://www.w3.org/2000/svg" xmlns:xlink="http://www.w3.org/1999/xlink" x="0px" y="0px"
	 width="1080px" height="1340px" viewBox="0 0 1080 1340" enable-background="new 0 0 1080 1340" xml:space="preserve">
<g>
	
		<path fill="#754C24" stroke="#000000" stroke-width="10" stroke-linecap="round" stroke-linejoin="round" stroke-miterlimit="10" d="
		M649.227,396.005c4.086-10.052-20.008-9.917-20.207,6.549c-0.198,16.464,9.476,19.041,20.089,16.17
		c12.365-3.347,21.463-16.713,22.268-19.709c5.334-19.793-1.311-24.729-6.006-29.438c-20.362-20.428-59.532,20.195-59.131,36.588
		c-5.309,60.108,60.856,27.639,60.856,27.639c32.381-18.641,26.897-58.166,26.897-58.166c-5.419-52.342-50.709-35.415-50.709-35.415
		c-9.66,5.489-5.541,18.101-16.537,26.324"/>
	
		<path fill="#754C24" stroke="#000000" stroke-width="10" stroke-linecap="round" stroke-linejoin="round" stroke-miterlimit="10" d="
		M423.053,396.005c-4.085-10.052,20.008-9.917,20.207,6.549c0.199,16.464-9.475,19.041-20.088,16.17
		c-12.366-3.347-21.463-16.713-22.268-19.709c-5.334-19.793,1.311-24.729,6.006-29.438c20.362-20.428,59.532,20.195,59.131,36.588
		c5.308,60.108-60.857,27.639-60.857,27.639c-32.38-18.641-26.896-58.166-26.896-58.166c5.419-52.342,50.709-35.415,50.709-35.415
		c9.66,5.489,5.541,18.101,16.537,26.324"/>
	
		<path fill="#754C24" stroke="#000000" stroke-width="10" stroke-linecap="round" stroke-linejoin="round" stroke-miterlimit="10" d="
		M596.563,379.304c79.074-2.971,76.783-102.248,76.783-102.248C677.012,187.667,640,145,610.334,155.667
		C612.5,143.5,600.5,125.25,532,128.012c0,0-62.333,0.321-91,22.321c0,0-44.667,26-38,125.723c0,0,1.333,103.248,80.639,103.248"/>
</g>
</svg>
