<?xml version="1.0" encoding="utf-8"?>
<!-- Generator: Adobe Illustrator 15.1.0, SVG Export Plug-In . SVG Version: 6.00 Build 0)  -->
<!DOCTYPE svg PUBLIC "-//W3C//DTD SVG 1.1//EN" "http://www.w3.org/Graphics/SVG/1.1/DTD/svg11.dtd">
<svg version="1.1" id="Layer_1" xmlns="http://www.w3.org/2000/svg" xmlns:xlink="http://www.w3.org/1999/xlink" x="0px" y="0px"
	 width="1080px" height="1340px" viewBox="0 0 1080 1340" enable-background="new 0 0 1080 1340" xml:space="preserve">
<path fill="#754C24" stroke="#000000" stroke-width="10" stroke-linecap="round" stroke-linejoin="round" stroke-miterlimit="10" d="
	M495,162.157c31.125-4.194,95.667-4.823,104.677,22.753c21.667-12.667,35.034,7.486,43.319,27.142
	c6.275,14.888,14.534,44.188-5.95,52.742c-16.373,6.838-24.779-1.988-25.046-16.503c-0.234-12.748-18.205-23.6-30.399-9.29
	c-19.601,23-59.646,17.887-33.624,0.943C574,223,520.621,223.567,510.994,238.246c-5.438,8.291-15.704,24.363-27.842,21.603
	c-0.17-11.817,5.395-22.6,8.924-33.649c2.673-8.369-33.295,35.596-50.742,36.801c-20.789,1.436,11.464-41.9,11.464-41.9
	S419.34,266,422.17,232c1.34-16.099,10.926-41.167,27.164-53.333C467.389,165.138,492.327,162.517,495,162.157z"/>
</svg>
