<?xml version="1.0" encoding="utf-8"?>
<!-- Generator: Adobe Illustrator 15.1.0, SVG Export Plug-In . SVG Version: 6.00 Build 0)  -->
<!DOCTYPE svg PUBLIC "-//W3C//DTD SVG 1.1//EN" "http://www.w3.org/Graphics/SVG/1.1/DTD/svg11.dtd">
<svg version="1.1" id="Layer_1" xmlns="http://www.w3.org/2000/svg" xmlns:xlink="http://www.w3.org/1999/xlink" x="0px" y="0px"
	 width="1080px" height="1340px" viewBox="0 0 1080 1340" enable-background="new 0 0 1080 1340" xml:space="preserve">
<g>
	
		<path fill="#754C24" stroke="#000000" stroke-width="10" stroke-linecap="round" stroke-linejoin="round" stroke-miterlimit="10" d="
		M668.261,374.866c-12,6.231-15.011-22.908,5.5-25.269c20.511-2.361,25,9,22.818,22.196c-2.542,15.378-18.015,28.095-21.646,29.456
		c-23.983,8.993-31.018,1.598-37.51-3.469c-28.163-21.982,17.336-74.559,37.837-76.184c74.271-14.156,42.5,70,42.5,70
		c-18.98,41.537-69,40-69,40c-66,0.191-50.861-56.729-50.861-56.729c5.572-12.384,21.846-9.028,30.652-23.38"/>
	
		<path fill="#754C24" stroke="#000000" stroke-width="10" stroke-linecap="round" stroke-linejoin="round" stroke-miterlimit="10" d="
		M407.655,375.866c12,6.231,15.013-22.908-5.5-25.269c-20.511-2.361-25,9-22.816,22.196c2.542,15.378,18.013,28.095,21.644,29.456
		c23.985,8.993,31.02,1.598,37.512-3.469c28.165-21.982-17.334-74.559-37.835-76.184c-74.271-14.157-42.5,70-42.5,70
		c18.979,41.536,69,39.999,69,39.999c66,0.191,50.859-56.729,50.859-56.729c-5.571-12.383-21.844-9.028-30.65-23.379"/>
	
		<path fill="#754C24" stroke="#000000" stroke-width="10" stroke-linecap="round" stroke-linejoin="round" stroke-miterlimit="10" d="
		M544.428,375.799c84.216,1.733,119.383-62.805,119.383-62.805c6.81-19.675,7.796-35.938,7.796-35.938
		c13.154-84.452-33.346-132.056-63.012-121.389c2.166-12.167-9.834-30.417-78.334-27.655c0,0-62.333,0.321-91,22.321
		c0,0-49.5,29.667-38,125.723c0,0,2.855,21.115,12.411,44.253C460.761,375.799,465.094,374.167,544.428,375.799z"/>
</g>
</svg>
