<?xml version="1.0" encoding="utf-8"?>
<!-- Generator: Adobe Illustrator 15.1.0, SVG Export Plug-In . SVG Version: 6.00 Build 0)  -->
<!DOCTYPE svg PUBLIC "-//W3C//DTD SVG 1.1//EN" "http://www.w3.org/Graphics/SVG/1.1/DTD/svg11.dtd">
<svg version="1.1" id="Layer_1" xmlns="http://www.w3.org/2000/svg" xmlns:xlink="http://www.w3.org/1999/xlink" x="0px" y="0px"
	 width="383.112px" height="314.873px" viewBox="348.142 122.731 383.112 314.873"
	 enable-background="new 348.142 122.731 383.112 314.873" xml:space="preserve">
<g>
	
		<path fill="#754C24" stroke="#000000" stroke-width="10" stroke-linecap="round" stroke-linejoin="round" stroke-miterlimit="10" d="
		M670,374.866c-12,6.231-15.011-22.908,5.5-25.269c20.511-2.361,25,9,22.818,22.197c-2.542,15.378-18.014,28.095-21.645,29.456
		c-23.984,8.993-31.018,1.598-37.51-3.469C611,375.799,656.499,323.222,677,321.598c74.271-14.156,42.5,70,42.5,70
		c-18.98,41.537-69,40-69,40c-66,0.191-50.861-56.73-50.861-56.73c5.572-12.383,21.845-9.028,30.652-23.379"/>
	
		<path fill="#754C24" stroke="#000000" stroke-width="10" stroke-linecap="round" stroke-linejoin="round" stroke-miterlimit="10" d="
		M409.395,375.866c12,6.231,15.012-22.908-5.5-25.269c-20.511-2.361-25,9-22.817,22.197c2.542,15.378,18.013,28.095,21.644,29.456
		c23.985,8.993,31.019,1.598,37.511-3.469c28.165-21.982-17.334-74.559-37.835-76.184c-74.271-14.156-42.5,70-42.5,70
		c18.979,41.537,69,40,69,40c66,0.191,50.86-56.73,50.86-56.73c-5.572-12.383-21.844-9.028-30.651-23.379"/>
	
		<path fill="#754C24" stroke="#000000" stroke-width="10" stroke-linecap="round" stroke-linejoin="round" stroke-miterlimit="10" d="
		M546.167,375.799c84.216,1.733,119.383-62.805,119.383-62.805c6.809-19.675,7.796-35.938,7.796-35.938
		C686.5,192.604,640,145,610.334,155.667C612.5,143.5,600.5,125.25,532,128.012c0,0-62.333,0.321-91,22.321
		c0,0-49.5,29.667-38,125.723c0,0,2.855,21.115,12.411,44.253C462.5,375.799,466.833,374.167,546.167,375.799z"/>
</g>
</svg>
