<?xml version="1.0" encoding="utf-8"?>
<!-- Generator: Adobe Illustrator 15.1.0, SVG Export Plug-In . SVG Version: 6.00 Build 0)  -->
<!DOCTYPE svg PUBLIC "-//W3C//DTD SVG 1.1//EN" "http://www.w3.org/Graphics/SVG/1.1/DTD/svg11.dtd">
<svg version="1.1" id="Layer_1" xmlns="http://www.w3.org/2000/svg" xmlns:xlink="http://www.w3.org/1999/xlink" x="0px" y="0px"
	 width="1080px" height="1340px" viewBox="0 0 1080 1340" enable-background="new 0 0 1080 1340" xml:space="preserve">
<g id="Layer_1_2_">
	
		<path fill="#754C24" stroke="#000000" stroke-width="10" stroke-linecap="round" stroke-linejoin="round" stroke-miterlimit="10" d="
		M436,270c0,0-10.214-84.688,54.021-105.279c24.332-7.8,97.646-18.387,109.646,12.279c0,0,61.542,2.223,49.542,111.167
		c0,0-6.333,0.129-9.959-1.917c-1.455-0.821-0.651-6.534-4.875-14c-21.542-38.083-27.173-26.116-52.607-63.583
		c0,0-31.518,37.833-109.12,56.909c0,0-15.146,11.924-15.646,40.424s6.5,44.5,10,49.5s25.257,20.608,13.757,34.108
		S442,408.5,441,426.5c-0.898,16.164,46.833,16.036,31.833-6c0,0,25,29.333-17,32.333c0,0-38.765,5.333-37.667-28.667
		c1.004-31.114,55.833-29.667,34.667-41c0,0-21.667-7-16.667-35.667C436.167,347.5,442.5,306.999,436,270z"/>
</g>
</svg>
