<?xml version="1.0" encoding="utf-8"?>
<!-- Generator: Adobe Illustrator 15.1.0, SVG Export Plug-In . SVG Version: 6.00 Build 0)  -->
<!DOCTYPE svg PUBLIC "-//W3C//DTD SVG 1.1//EN" "http://www.w3.org/Graphics/SVG/1.1/DTD/svg11.dtd">
<svg version="1.1" id="Layer_1" xmlns="http://www.w3.org/2000/svg" xmlns:xlink="http://www.w3.org/1999/xlink" x="0px" y="0px"
	 width="1080px" height="1340px" viewBox="0 0 1080 1340" enable-background="new 0 0 1080 1340" xml:space="preserve">
<g>
	
		<path fill="#754C24" stroke="#000000" stroke-width="10" stroke-linecap="round" stroke-linejoin="round" stroke-miterlimit="10" d="
		M669,138.731c-12-6.231-15.011,22.908,5.5,25.269s25-9,22.818-22.197c-2.542-15.378-18.014-28.095-21.645-29.456
		c-23.984-8.993-31.018-1.598-37.51,3.469C610,137.799,655.499,190.375,676,192c74.271,14.156,42.5-70,42.5-70
		c-18.98-41.537-69-40-69-40c-66-0.191-50.861,56.731-50.861,56.731c5.572,12.383,21.845,9.028,30.652,23.379"/>
	
		<path fill="#754C24" stroke="#000000" stroke-width="10" stroke-linecap="round" stroke-linejoin="round" stroke-miterlimit="10" d="
		M408.395,137.731c12-6.231,15.012,22.908-5.5,25.269c-20.511,2.361-25-9-22.817-22.197c2.542-15.378,18.013-28.095,21.644-29.456
		c23.985-8.993,31.019-1.598,37.511,3.469c28.165,21.982-17.334,74.559-37.835,76.184c-74.271,14.156-42.5-70-42.5-70
		c18.979-41.537,69-40,69-40c66-0.191,50.86,56.731,50.86,56.731c-5.572,12.383-21.844,9.028-30.651,23.379"/>
	
		<path fill="#754C24" stroke="#000000" stroke-width="10" stroke-linecap="round" stroke-linejoin="round" stroke-miterlimit="10" d="
		M596.563,379.304C668,365,673.346,277.056,673.346,277.056C686.5,192.604,640,145,610.334,155.667
		C612.5,143.5,600.5,125.25,532,128.012c0,0-62.333,0.321-91,22.321c0,0-49.5,29.667-38,125.723c0,0,13.582,100.444,80.639,103.248"
		/>
</g>
</svg>
