<?xml version="1.0" encoding="utf-8"?>
<!-- Generator: Adobe Illustrator 15.1.0, SVG Export Plug-In . SVG Version: 6.00 Build 0)  -->
<!DOCTYPE svg PUBLIC "-//W3C//DTD SVG 1.1//EN" "http://www.w3.org/Graphics/SVG/1.1/DTD/svg11.dtd">
<svg version="1.1" id="Layer_1" xmlns="http://www.w3.org/2000/svg" xmlns:xlink="http://www.w3.org/1999/xlink" x="0px" y="0px"
	 width="700px" height="700px" viewBox="270.996 111.849 700 700" enable-background="new 270.996 111.849 700 700"
	 xml:space="preserve">
<g id="Layer_1_2_">
	<path fill="#754C24" d="M431.818,401.474c4.982,56.333,63.688,58.106,63.688,58.106c14.666,58.438,76.332,65.075,76.332,65.075
		c-23,67.849,60.668,61.152,60.668,61.152c-21.334,58.667,49.084,71.126,49.084,71.126c-10.248,42.126,31.021,53.614,31.021,53.614
		c-5.895,39.74,45.563,44.336,45.563,44.336c8.666,11.409,19.332,12.924,19.332,12.924c1.668,32.333,46.764,25.063,46.764,25.063
		c6.561-1.278,41.236-15.396,41.236-15.396c43.334-3.333,18.762,18.875,18.762,18.875c64.43-16.125-6.094-42.875-6.094-42.875
		c-38.666,7.667-42-4-42-4c-23.666-18.666-38-6.334-38-6.334c-20,5.333-20.668-26.333-20.668-26.333
		c-9.756-31.288-37.453-24.198-37.453-24.198c1.211-64.198-32.51-52.999-32.51-52.999c-1.154-9.833,4.127-34.822,4.127-34.822
		c2.137-20.023-32.277-27.314-32.277-27.314c-0.779-10.667,9.66-25.878,9.66-25.878c18.211-33.878-24.1-56.917-24.1-56.917
		c25.553-66.038-26.43-72.603-26.43-72.603s19.895-23.769,10.438-51.353s-12.955-84.554-5.455-101.067c0,0,1.5-117.133-64.5-111.573
		c-66,5.559,0,0,0,0l0,0c0,0-28.25-62.692-157.793-13.945c-14.727,5.542,0,0,0,0s-50.861,28.503-54.786,122.003
		s54.551,135.036,59.972,135.186L431.818,401.474z"/>
	<g>
		<path fill="none" stroke="#000000" stroke-width="10" stroke-linecap="round" stroke-linejoin="round" stroke-miterlimit="10" d="
			M664.953,494.679c0,0,47.824,20.816,20.387,63.462c-7.486,11.636-13.602,41.479-5.947,60.568"/>
		<path fill="none" stroke="#000000" stroke-width="10" stroke-linecap="round" stroke-linejoin="round" stroke-miterlimit="10" d="
			M431.818,404.165c0,0,0.517,33.977,39.436,51.31c38.918,17.333,95.584-26.667,110.252-13.333"/>
		<path fill="none" stroke="#000000" stroke-width="10" stroke-linecap="round" stroke-linejoin="round" stroke-miterlimit="10" d="
			M634.506,423.391c0,0,54.5,4.25,31.625,64.75c-7.682,20.319-20.576,31.273-14.645,55.333"/>
		<path fill="none" stroke="#000000" stroke-width="10" stroke-linecap="round" stroke-linejoin="round" stroke-miterlimit="10" d="
			M714.277,710.548c-9.184,40.485,53.174,44.409,52.465,44.335"/>
		<path fill="none" stroke="#000000" stroke-width="10" stroke-linecap="round" stroke-linejoin="round" stroke-miterlimit="10" d="
			M751.535,713.863c0,0-13.369-7.814-12.699-37.209c0.668-29.393-15.811-39.577-27.752-36.523"/>
		<path fill="none" stroke="#000000" stroke-width="10" stroke-linecap="round" stroke-linejoin="round" stroke-miterlimit="10" d="
			M712.611,655.899c0,0-9.639-5.788-2.357-34.065c2.51-9.759,6.496-37.419-24.914-40.315"/>
		<path fill="none" stroke="#000000" stroke-width="10" stroke-linecap="round" stroke-linejoin="round" stroke-miterlimit="10" d="
			M575.281,524.655c0,0-25.963,45.269,28.715,59.788c18.855,5.007,30.51-0.303,54.176,15.177"/>
		<path fill="none" stroke="#000000" stroke-width="10" stroke-linecap="round" stroke-linejoin="round" stroke-miterlimit="10" d="
			M497.646,459.366c0,0,8.859,47.441,54.359,60.108s42.918-0.667,64.209,24"/>
		<path fill="none" stroke="#000000" stroke-width="10" stroke-linecap="round" stroke-linejoin="round" stroke-miterlimit="10" d="
			M684.822,658.093c0.121,2.664-14.938,33.205,18.947,48.26c16.357,7.268,12.773,0.088,32.664,13.938"/>
		<path fill="none" stroke="#000000" stroke-width="10" stroke-linecap="round" stroke-linejoin="round" stroke-miterlimit="10" d="
			M634.506,593.474c-1.781,1.95-20.859,38.208,33.959,60.424c0,0,23.328,2.612,33.654,15.992"/>
		<path fill="none" stroke="#000000" stroke-width="10" stroke-linecap="round" stroke-linejoin="round" stroke-miterlimit="10" d="
			M780.785,738.87c-2.02,2.211-7.67,17.653-18.652,15.337c0,0,20.268,30.805,25.775-10.226L780.785,738.87z"/>
		<path fill="none" stroke="#000000" stroke-width="10" stroke-linecap="round" stroke-linejoin="round" stroke-miterlimit="10" d="
			M742.924,693.232c29.105-1.319,33.316,25.525,34.713,37.131c1.615,13.423,12.996,14.229,12.996,14.229
			c4.115-7.079,27.641-8.564,42.271,5.038c15.094,14.026,32.621,5.741,46.637,5.642c26.188-0.187,34.744,20.01,28.59,30.736
			c-10.516,18.328-25.688,11.176-25.688,11.176c14.092-5.645,3.693-17.853-2.852-18.724c-8.936-1.19-22.281,1.678-41.928,9.908
			c-19.646,8.231-33.693,7.534-43.578,2.979c-17.334-7.993-14.533-26.174-14.533-26.174"/>
	</g>
	<g>
		<path fill="none" stroke="#000000" stroke-width="10" stroke-linecap="round" stroke-linejoin="round" stroke-miterlimit="10" d="
			M616.215,465.141c-1.918-11.25,0-27,22.025-46.727c32.881-29.45-6.543-57.66,2.109-141.717
			c8.654-84.058-31.678-129.282-61.344-118.615c2.166-12.167-22.5-33.191-80-32.941c0,0-58.76-0.399-93.504,30
			c-28,24.5-40.156,82.484-39,126.258c2,75.742,41.443,130.438,108.502,133.242"/>
	</g>
	<path fill="none" stroke="#000000" stroke-width="10" stroke-linecap="round" stroke-linejoin="round" stroke-miterlimit="10" d="
		M594.598,410.908c0,0,3.408-13.268-3.479-23.268c-9.002-13.068-7.645-22.5-5.145-26.5"/>
</g>
</svg>
