<?xml version="1.0" encoding="utf-8"?>
<!-- Generator: Adobe Illustrator 15.1.0, SVG Export Plug-In . SVG Version: 6.00 Build 0)  -->
<!DOCTYPE svg PUBLIC "-//W3C//DTD SVG 1.1//EN" "http://www.w3.org/Graphics/SVG/1.1/DTD/svg11.dtd">
<svg version="1.1" id="Layer_1" xmlns="http://www.w3.org/2000/svg" xmlns:xlink="http://www.w3.org/1999/xlink" x="0px" y="0px"
	 width="400px" height="400px" viewBox="340 72 400 400" enable-background="new 340 72 400 400" xml:space="preserve">
<g id="Layer_1_2_">
	
		<path fill="#754C24" stroke="#000000" stroke-width="10" stroke-linecap="round" stroke-linejoin="round" stroke-miterlimit="10" d="
		M450.167,352.5c-19.417,34.5,1,55.333,1,55.333C432.5,401,430.612,391.675,428.791,388.5c-4.428-7.72,0-29.75,8.709-52.375
		c10.665-27.706-1.969-66.125-1.969-66.125c-3.281-11.5-10.214-84.688,54.021-105.279c7.44-2.385,24.011-4.806,30.293-5.259
		c20.029-2.294,40.091,0,40.091,0c12.095,1.07,22.854,2.874,30.293,5.259C662.75,182,647.725,284.975,647.2,288
		c-1.027-0.844-8.354,4.758-8.95,0.5c-1.741-12.443-10.5-23.75-23.96-25.98c-39.408-6.53-163.795-44.323-154.79,1.73
		C470.739,321.727,450.167,352.5,450.167,352.5z"/>
</g>
</svg>
