<?xml version="1.0" encoding="utf-8"?>
<!-- Generator: Adobe Illustrator 19.0.0, SVG Export Plug-In . SVG Version: 6.00 Build 0)  -->
<svg version="1.1" id="Layer_1" xmlns="http://www.w3.org/2000/svg" xmlns:xlink="http://www.w3.org/1999/xlink" x="0px" y="0px"
	 viewBox="-105 197 400 400" style="enable-background:new -105 197 400 400;" xml:space="preserve">
<style type="text/css">
	.st0{fill:#754C24;stroke:#000000;stroke-width:10;stroke-linecap:round;stroke-linejoin:round;stroke-miterlimit:10;}
</style>
<path class="st0" d="M54,345.6c31.1-4.2,95.7-4.8,104.7,22.8c21.7-12.7,35,7.5,43.3,27.1c6.3,14.9,14.5,44.2-6,52.7
	c-16.4,6.8-24.8-2-25-16.5c-0.2-12.7-18.2-23.6-30.4-9.3c-19.6,23-59.6,17.9-33.6,0.9c26-16.9-27.4-16.4-37-1.7
	c-5.4,8.3-15.7,24.4-27.8,21.6c-0.2-11.8,5.4-22.6,8.9-33.6c2.7-8.4-33.3,35.6-50.7,36.8c-20.8,1.4,11.5-41.9,11.5-41.9
	s-33.5,44.9-30.6,10.9c1.3-16.1,10.9-41.2,27.2-53.3C26.4,348.6,51.3,345.9,54,345.6z"/>
</svg>
