<?xml version="1.0" encoding="utf-8"?>
<!-- Generator: Adobe Illustrator 15.1.0, SVG Export Plug-In . SVG Version: 6.00 Build 0)  -->
<!DOCTYPE svg PUBLIC "-//W3C//DTD SVG 1.1//EN" "http://www.w3.org/Graphics/SVG/1.1/DTD/svg11.dtd">
<svg version="1.1" id="Layer_1" xmlns="http://www.w3.org/2000/svg" xmlns:xlink="http://www.w3.org/1999/xlink" x="0px" y="0px"
	 width="1080px" height="1340px" viewBox="0 0 1080 1340" enable-background="new 0 0 1080 1340" xml:space="preserve">
<g>
	
		<path fill="#754C24" stroke="#000000" stroke-width="10" stroke-linecap="round" stroke-linejoin="round" stroke-miterlimit="10" d="
		M490.5,152.5c0,0-51-11-21-48s114.683-29.841,135,0c16,23.5,7.427,40.5-18.5,48"/>
	
		<path fill="#754C24" stroke="#000000" stroke-width="10" stroke-linecap="round" stroke-linejoin="round" stroke-miterlimit="10" d="
		M596.563,379.304C668,365,673.346,277.056,673.346,277.056C686.5,192.604,640,145,610.334,155.667
		C612.5,143.5,600.5,125.25,532,128.012c0,0-62.333,0.321-91,22.321c0,0-49.5,29.667-38,125.723c0,0,13.582,100.444,80.639,103.248"
		/>
</g>
</svg>
