<?xml version="1.0" encoding="utf-8"?>
<!-- Generator: Adobe Illustrator 15.1.0, SVG Export Plug-In . SVG Version: 6.00 Build 0)  -->
<!DOCTYPE svg PUBLIC "-//W3C//DTD SVG 1.1//EN" "http://www.w3.org/Graphics/SVG/1.1/DTD/svg11.dtd">
<svg version="1.1" id="Layer_1" xmlns="http://www.w3.org/2000/svg" xmlns:xlink="http://www.w3.org/1999/xlink" x="0px" y="0px"
	 width="640px" height="640px" viewBox="237.034 -43.486 640 640" enable-background="new 237.034 -43.486 640 640"
	 xml:space="preserve">
<g>
	
		<path fill="#754C24" stroke="#000000" stroke-width="10" stroke-linecap="round" stroke-linejoin="round" stroke-miterlimit="10" d="
		M596.563,379.304C668,365,673.346,277.056,673.346,277.056C686.5,192.604,640,145,610.334,155.667
		C612.5,143.5,600.5,125.25,532,128.012c0,0-62.333,0.321-91,22.321c0,0-49.5,29.667-38,125.723c0,0,13.582,100.444,80.639,103.248"
		/>
	
		<path fill="#754C24" stroke="#000000" stroke-width="10" stroke-linecap="round" stroke-linejoin="round" stroke-miterlimit="10" d="
		M667.331,368c-8.12,8.56-18.808-15.36-2.592-22.954c16.216-7.593,23.11,0.83,25.035,12.629c2.24,13.749-6.909,28.762-9.515,30.906
		c-17.206,14.172-25.078,9.809-31.85,7.276c-29.377-10.989-6.743-68.026,9.671-74.992c57.139-32.256,54.706,47.852,54.706,47.852
		c-3.916,40.438-45.518,52.763-45.518,52.763c-54.27,18.146-57.85-34.309-57.85-34.309c1.096-12.032,15.436-13.617,18.641-28.201"/>
</g>
</svg>
