<?xml version="1.0" encoding="utf-8"?>
<!-- Generator: Adobe Illustrator 15.1.0, SVG Export Plug-In . SVG Version: 6.00 Build 0)  -->
<!DOCTYPE svg PUBLIC "-//W3C//DTD SVG 1.1//EN" "http://www.w3.org/Graphics/SVG/1.1/DTD/svg11.dtd">
<svg version="1.1" id="Layer_1" xmlns="http://www.w3.org/2000/svg" xmlns:xlink="http://www.w3.org/1999/xlink" x="0px" y="0px"
	 width="331.781px" height="302.673px" viewBox="0 0 331.781 302.673" enable-background="new 0 0 331.781 302.673"
	 xml:space="preserve">
<ellipse display="none" fill="#9B907E" cx="167.738" cy="1122.269" rx="242.387" ry="31"/>
<g display="none">
	
		<path id="NOWE" display="inline" fill="#FBF5B9" stroke="#000000" stroke-width="10" stroke-linecap="round" stroke-linejoin="round" stroke-miterlimit="10" d="
		M381.15,663.847c-17.041-61.859-58.589-219.858-66.009-251.22c-8.31-35.115-34.722-53.751-60.384-62.75
		c-12.34-4.327-26.128-4.902-38.3-5.608c-12.174-0.707-18.803-15-18.803-18.5s0-20.5,0-20.5h-61c0,0,0,17,0,20.5
		s-5.779,17.793-17.953,18.5c-12.172,0.707-25.285,1.281-37.625,5.608c-25.662,8.999-51.986,27.635-60.297,62.75
		c-7.42,31.361-48.924,189.36-65.965,251.22c0,0-21.991,47.104-5.452,74.824c19.747,33.098,38.757,7.098,35.757-5.902
		c-3.966-17.184-4.994-31,2.006-34c7-3,6.838,30,18.838,28s-11.306-49.9-11.306-49.9c18.697-62.616,75.845-244.389,75.845-244.389
		L54.843,638.269l10,436l60.119,25l0.242-323.281c0-30.77,13.967-65.719,42.801-65.719s42.801,34.949,42.801,65.719l0.242,323.281
		l60.119-25l10-436l-15.662-205.789c0,0,57.147,181.772,75.845,244.389c0,0-23.308,47.9-11.308,49.9s11.835-31,18.835-28
		s5.967,16.816,2.001,34c-3,13,15.999,39,35.746,5.902C403.163,710.95,381.15,663.847,381.15,663.847z"/>
	<g display="inline">
		
			<path fill="#FBF5B9" stroke="#000000" stroke-width="10" stroke-linecap="round" stroke-linejoin="round" stroke-miterlimit="10" d="
			M210.655,1069.269v41.001c0,0,60.631,23.565,77.113,25.116s47.055,3.338,43.97-16.557s-60.998-39.561-60.998-39.561l1.206-35"/>
		
			<path fill="#FBF5B9" stroke="#000000" stroke-width="10" stroke-linecap="round" stroke-linejoin="round" stroke-miterlimit="10" d="
			M124.655,1069.269v41.001c0,0-60.48,23.565-76.963,25.116s-46.98,3.338-43.896-16.557s61.036-39.561,61.036-39.561l-1.338-35"/>
	</g>
</g>
<path display="none" fill="#754C24" stroke="#000000" stroke-width="10" stroke-linecap="round" stroke-linejoin="round" stroke-miterlimit="10" d="
	M304.667,38.935"/>
<path display="none" fill="#754C24" stroke="#000000" stroke-width="10" stroke-linecap="round" stroke-linejoin="round" stroke-miterlimit="10" d="
	M383.334,13.602"/>
<path display="none" fill="#754C24" stroke="#000000" stroke-width="10" stroke-linecap="round" stroke-linejoin="round" stroke-miterlimit="10" d="
	M296.655,16c-12-6.231-15.011,22.908,5.5,25.269c20.511,2.361,25-9,22.818-22.197c-2.542-15.378-18.013-28.095-21.644-29.456
	c-23.985-8.993-31.018-1.598-37.51,3.469c-28.165,21.982,17.334,74.559,37.835,76.184c74.271,14.156,42.5-70,42.5-70
	c-18.98-41.537-69-40-69-40C211.155-40.922,226.294,16,226.294,16c5.572,12.383,21.844,9.028,30.652,23.379"/>
<path display="none" fill="#754C24" stroke="#000000" stroke-width="10" stroke-linecap="round" stroke-linejoin="round" stroke-miterlimit="10" d="
	M36.05,15c12-6.231,15.011,22.908-5.5,25.269c-20.511,2.361-25-9-22.818-22.197c2.542-15.378,18.013-28.095,21.644-29.456
	c23.985-8.993,31.018-1.598,37.51,3.469C95.05,14.067,49.551,66.644,29.05,68.269c-74.271,14.156-42.5-70-42.5-70
	c18.98-41.537,69-40,69-40C121.55-41.922,106.411,15,106.411,15c-5.572,12.383-21.844,9.028-30.652,23.379"/>
<path display="none" fill="#754C24" stroke="#000000" stroke-width="10" stroke-linecap="round" stroke-linejoin="round" stroke-miterlimit="10" d="
	M224.218,256.573c71.438-14.304,76.783-102.248,76.783-102.248c13.154-84.452-33.346-132.056-63.012-121.39
	c2.166-12.167-9.834-30.417-78.334-27.654c0,0-62.333,0.321-91,22.321c0,0-49.5,29.667-38,125.723
	c0,0,13.582,100.444,80.639,103.248"/>
<g display="none">
	
		<path display="inline" fill="#754C24" stroke="#000000" stroke-width="10" stroke-linecap="round" stroke-linejoin="round" stroke-miterlimit="10" d="
		M276.882,273.274c4.085-10.052-20.008-9.917-20.207,6.549c-0.199,16.464,9.475,19.041,20.088,16.17
		c12.366-3.347,21.463-16.713,22.268-19.709c5.334-19.793-1.311-24.729-6.006-29.438c-20.362-20.428-59.532,20.195-59.131,36.588
		c-5.308,60.108,60.857,27.639,60.857,27.639c32.38-18.641,26.897-58.166,26.897-58.166c-5.419-52.342-50.709-35.415-50.709-35.415
		c-9.66,5.489-5.541,18.101-16.537,26.324"/>
	
		<path display="inline" fill="#754C24" stroke="#000000" stroke-width="10" stroke-linecap="round" stroke-linejoin="round" stroke-miterlimit="10" d="
		M50.708,273.274c-4.085-10.052,20.008-9.917,20.207,6.549c0.199,16.464-9.475,19.041-20.088,16.17
		c-12.366-3.347-21.463-16.713-22.268-19.709c-5.334-19.793,1.311-24.729,6.006-29.438c20.362-20.428,59.532,20.195,59.131,36.588
		c5.308,60.108-60.857,27.639-60.857,27.639c-32.38-18.641-26.897-58.166-26.897-58.166c5.419-52.342,50.709-35.415,50.709-35.415
		c9.66,5.489,5.541,18.101,16.537,26.324"/>
	
		<path display="inline" fill="#754C24" stroke="#000000" stroke-width="10" stroke-linecap="round" stroke-linejoin="round" stroke-miterlimit="10" d="
		M224.218,256.573c79.074-2.971,76.783-102.248,76.783-102.248c3.666-89.39-33.346-132.056-63.012-121.39
		c2.166-12.167-9.834-30.417-78.334-27.654c0,0-62.333,0.321-91,22.321c0,0-44.667,26-38,125.723c0,0,1.333,103.248,80.639,103.248"
		/>
</g>
<g display="none">
	
		<path display="inline" fill="#754C24" stroke="#000000" stroke-width="10" stroke-linecap="round" stroke-linejoin="round" stroke-miterlimit="10" d="
		M224.218,256.573c71.438-14.304,76.783-102.248,76.783-102.248c13.154-84.452-33.346-132.056-63.012-121.39
		c2.166-12.167-9.834-30.417-78.334-27.654c0,0-62.333,0.321-91,22.321c0,0-49.5,29.667-38,125.723
		c0,0,13.582,100.444,80.639,103.248"/>
	
		<path display="inline" fill="#754C24" stroke="#000000" stroke-width="10" stroke-linecap="round" stroke-linejoin="round" stroke-miterlimit="10" d="
		M294.986,245.269c-8.12,8.56-18.808-15.36-2.592-22.954c16.216-7.593,23.111,0.83,25.035,12.629
		c2.241,13.749-6.909,28.762-9.514,30.906c-17.206,14.172-25.078,9.809-31.85,7.276c-29.377-10.989-6.743-68.026,9.671-74.992
		c57.139-32.256,54.706,47.852,54.706,47.852c-3.916,40.438-45.518,52.763-45.518,52.763
		c-54.269,18.146-57.849-34.309-57.849-34.309c1.096-12.032,15.435-13.617,18.64-28.201"/>
</g>
<g display="none">
	
		<path display="inline" fill="#754C24" stroke="#000000" stroke-width="10" stroke-linecap="round" stroke-linejoin="round" stroke-miterlimit="10" d="
		M297.655,252.135c-12,6.231-15.011-22.908,5.5-25.269c20.511-2.361,25,9,22.818,22.197c-2.542,15.378-18.013,28.095-21.644,29.456
		c-23.985,8.993-31.018,1.598-37.51-3.469c-28.165-21.982,17.334-74.559,37.835-76.184c74.271-14.156,42.5,70,42.5,70
		c-18.98,41.537-69,40-69,40c-66,0.191-50.861-56.731-50.861-56.731c5.572-12.383,21.844-9.028,30.652-23.379"/>
	
		<path display="inline" fill="#754C24" stroke="#000000" stroke-width="10" stroke-linecap="round" stroke-linejoin="round" stroke-miterlimit="10" d="
		M37.05,253.135c12,6.231,15.011-22.908-5.5-25.269c-20.511-2.361-25,9-22.818,22.197c2.542,15.378,18.013,28.095,21.644,29.456
		c23.985,8.993,31.018,1.598,37.51-3.469c28.165-21.982-17.334-74.559-37.835-76.184c-74.271-14.156-42.5,70-42.5,70
		c18.98,41.537,69,40,69,40c66,0.191,50.861-56.731,50.861-56.731c-5.572-12.383-21.844-9.028-30.652-23.379"/>
	
		<path display="inline" fill="#754C24" stroke="#000000" stroke-width="10" stroke-linecap="round" stroke-linejoin="round" stroke-miterlimit="10" d="
		M293.205,190.262c6.808-19.675,7.796-35.938,7.796-35.938c13.154-84.452-33.346-132.056-63.012-121.39
		c2.166-12.167-9.834-30.417-78.334-27.654c0,0-62.333,0.321-91,22.321c0,0-49.5,29.667-38,125.723c0,0,2.855,21.115,12.411,44.253"
		/>
</g>
<g display="none">
	
		<path display="inline" fill="#754C24" stroke="#000000" stroke-width="10" stroke-linecap="round" stroke-linejoin="round" stroke-miterlimit="10" d="
		M296.655,16c-12-6.231-15.011,22.908,5.5,25.269c20.511,2.361,25-9,22.818-22.197c-2.542-15.378-18.013-28.095-21.644-29.456
		c-23.985-8.993-31.018-1.598-37.51,3.469c-28.165,21.982,17.334,74.559,37.835,76.184c74.271,14.156,42.5-70,42.5-70
		c-18.98-41.537-69-40-69-40C211.155-40.922,226.294,16,226.294,16c5.572,12.383,21.844,9.028,30.652,23.379"/>
	
		<path display="inline" fill="#754C24" stroke="#000000" stroke-width="10" stroke-linecap="round" stroke-linejoin="round" stroke-miterlimit="10" d="
		M36.05,15c12-6.231,15.011,22.908-5.5,25.269c-20.511,2.361-25-9-22.818-22.197c2.542-15.378,18.013-28.095,21.644-29.456
		c23.985-8.993,31.018-1.598,37.51,3.469C95.05,14.067,49.551,66.644,29.05,68.269c-74.271,14.156-42.5-70-42.5-70
		c18.98-41.537,69-40,69-40C121.55-41.922,106.411,15,106.411,15c-5.572,12.383-21.844,9.028-30.652,23.379"/>
	
		<path display="inline" fill="#754C24" stroke="#000000" stroke-width="10" stroke-linecap="round" stroke-linejoin="round" stroke-miterlimit="10" d="
		M224.218,256.573c71.438-14.304,76.783-102.248,76.783-102.248c13.154-84.452-33.346-132.056-63.012-121.39
		c2.166-12.167-9.834-30.417-78.334-27.654c0,0-62.333,0.321-91,22.321c0,0-49.5,29.667-38,125.723
		c0,0,13.582,100.444,80.639,103.248"/>
</g>
<g display="none">
	
		<path display="inline" fill="#754C24" stroke="#000000" stroke-width="10" stroke-linecap="round" stroke-linejoin="round" stroke-miterlimit="10" d="
		M118.155,29.769c0,0-51-11-21-48s114.683-29.841,135,0c16,23.5,7.427,40.5-18.5,48"/>
	
		<path display="inline" fill="#754C24" stroke="#000000" stroke-width="10" stroke-linecap="round" stroke-linejoin="round" stroke-miterlimit="10" d="
		M224.218,256.573c71.438-14.304,76.783-102.248,76.783-102.248c13.154-84.452-33.346-132.056-63.012-121.39
		c2.166-12.167-9.834-30.417-78.334-27.654c0,0-62.333,0.321-91,22.321c0,0-49.5,29.667-38,125.723
		c0,0,13.582,100.444,80.639,103.248"/>
</g>
<path fill="#754C24" stroke="#000000" stroke-width="10" stroke-linecap="round" stroke-linejoin="round" stroke-miterlimit="10" d="
	M237.989,32.935c2.166-12.167-9.834-30.417-78.334-27.654c0,0-62.333,0.321-91,22.321c0,0-55.5,36.917-38,125.723
	c0,0,17.164,76.277,13.582,92.944c0,0-4.249,31.333-32.249,26s34.667,37.333,72.667,20c34.315-15.653,122.691-17,162.346,1
	s100.666-25.333,72.666-20s-32.248-26-32.248-26c-3.582-16.667,13.582-92.944,13.582-92.944
	C317.905,66.769,267.655,22.269,237.989,32.935z"/>
<path display="none" fill="#FBF5B9" stroke="#000000" stroke-width="10" stroke-miterlimit="10" d="M264.405,136.305
	c0-48.345-37.412-87.036-97.566-87.036c-60.156,0-96.184,38-96.184,87.036v68.43c0,48.702,37.029,108.036,95.279,108.036
	c58.248,0,97.505-59.691,97.505-108.036L264.405,136.305z"/>
<path display="none" fill="#FBF5B9" stroke="#000000" stroke-width="10" stroke-linecap="round" stroke-linejoin="round" stroke-miterlimit="10" d="
	M131.905,246.269c0,0,6.5,20.608,35.5,20.608s36-20.608,36-20.608"/>
<path display="none" fill="none" stroke="#000000" stroke-width="10" stroke-linecap="round" stroke-linejoin="round" stroke-miterlimit="10" d="
	M153.78,213.393c7.669,7.669,20.083,7.669,27.75,0"/>
<g display="none">
	
		<circle display="inline" fill="#FBF5B9" stroke="#000000" stroke-width="10" stroke-linecap="round" stroke-linejoin="round" stroke-miterlimit="10" cx="126.155" cy="176.769" r="3.5"/>
	
		<circle display="inline" fill="#FBF5B9" stroke="#000000" stroke-width="10" stroke-linecap="round" stroke-linejoin="round" stroke-miterlimit="10" cx="209.155" cy="176.769" r="3.5"/>
	
		<path display="inline" fill="none" stroke="#000000" stroke-width="10" stroke-linecap="round" stroke-linejoin="round" stroke-miterlimit="10" d="
		M111.294,159.026c6.902-8.025,20.802-9.261,29.924-1.421"/>
	
		<path display="inline" fill="none" stroke="#000000" stroke-width="10" stroke-linecap="round" stroke-linejoin="round" stroke-miterlimit="10" d="
		M224.218,160.026c-6.902-8.025-20.802-9.261-29.924-1.421"/>
</g>
<g display="none">
	<path display="inline" fill="#FBF5B9" stroke="#000000" stroke-width="10" stroke-miterlimit="10" d="M264.655,215.864
		c14,0,24.418-10.933,24.418-24.418c0-13.486-10.418-24.419-24.418-24.419V215.864z"/>
	<path display="inline" fill="#FBF5B9" stroke="#000000" stroke-width="10" stroke-miterlimit="10" d="M68.655,167.026
		c-14,0-24.418,10.933-24.418,24.418c0,13.486,10.418,24.419,24.418,24.419V167.026z"/>
</g>
<path display="none" fill="#754C24" stroke="#000000" stroke-width="10" stroke-linecap="round" stroke-linejoin="round" stroke-miterlimit="10" d="
	M122.655,39.425c31.125-4.194,95.667-4.823,104.677,22.753c21.667-12.667,35.034,7.486,43.319,27.142
	c6.276,14.888,14.534,44.187-5.95,52.742c-16.373,6.838-24.779-1.988-25.046-16.503c-0.234-12.748-18.205-23.6-30.399-9.29
	c-19.601,23-59.647,17.887-33.624,0.943s-27.356-16.377-36.983-1.698c-5.438,8.291-15.704,24.363-27.842,21.603
	c-0.169-11.817,5.395-22.6,8.924-33.649c2.673-8.369-33.295,35.596-50.742,36.801c-20.789,1.436,11.464-41.9,11.464-41.9
	s-33.457,44.9-30.627,10.9c1.34-16.099,10.926-41.167,27.164-53.333C95.044,42.407,119.982,39.786,122.655,39.425z"/>
<path display="none" fill="#754C24" stroke="#000000" stroke-width="10" stroke-linecap="round" stroke-linejoin="round" stroke-miterlimit="10" d="
	M209.423,85.935c0,0-55.435,51.333-132.768,61.333h-13c0,0-10.214-84.688,54.021-105.279c24.332-7.8,97.646-18.387,109.646,12.279
	c0,0,58.667-9.888,46.667,99.056C273.989,153.325,252.19,148.935,209.423,85.935z"/>
<g display="none">
	<g display="inline">
		<path fill="#C7A315" stroke="#000000" stroke-width="10" stroke-miterlimit="10" d="M210.096,1114.269c0,0-5.437-40,42.562-40
			s50.498,40,50.498,40H210.096z"/>
		
			<rect x="203.655" y="1114.269" fill="#FFFFFF" stroke="#000000" stroke-width="10" stroke-miterlimit="10" width="103" height="19"/>
	</g>
	<g display="inline">
		
			<rect x="26.655" y="1114.269" fill="#FFFFFF" stroke="#000000" stroke-width="10" stroke-miterlimit="10" width="103" height="19"/>
		<path fill="#C7A315" stroke="#000000" stroke-width="10" stroke-miterlimit="10" d="M33.096,1114.269c0,0,2.563-40,50.562-40
			s42.498,40,42.498,40H33.096z"/>
	</g>
</g>
<path fill="#754C24" stroke="#000000" stroke-width="10" stroke-linecap="round" stroke-linejoin="round" stroke-miterlimit="10" d="
	M314.155-36.481"/>
<path fill="#754C24" stroke="#000000" stroke-width="10" stroke-linecap="round" stroke-linejoin="round" stroke-miterlimit="10" d="
	M346.655,153.325"/>
</svg>
