<?xml version="1.0" encoding="utf-8"?>
<!-- Generator: Adobe Illustrator 15.1.0, SVG Export Plug-In . SVG Version: 6.00 Build 0)  -->
<!DOCTYPE svg PUBLIC "-//W3C//DTD SVG 1.1//EN" "http://www.w3.org/Graphics/SVG/1.1/DTD/svg11.dtd">
<svg version="1.1" id="Layer_1" xmlns="http://www.w3.org/2000/svg" xmlns:xlink="http://www.w3.org/1999/xlink" x="0px" y="0px"
	 width="1080px" height="1340px" viewBox="0 0 1080 1340" enable-background="new 0 0 1080 1340" xml:space="preserve">
<path fill="#754C24" stroke="#000000" stroke-width="10" stroke-linecap="round" stroke-linejoin="round" stroke-miterlimit="10" d="
	M610.334,155.667C612.5,143.5,600.5,125.25,532,128.012c0,0-62.333,0.321-91,22.321c0,0-55.5,36.917-38,125.723
	c0,0,17.164,76.277,13.582,92.944c0,0-4.249,31.333-32.249,26S419,432.333,457,415c34.315-15.653,122.691-17,162.346,1
	c39.655,18,100.666-25.333,72.666-20s-32.248-26-32.248-26c-3.582-16.667,13.582-92.944,13.582-92.944
	C690.25,189.5,640,145,610.334,155.667z"/>
</svg>
