<?xml version="1.0" encoding="utf-8"?>
<!-- Generator: Adobe Illustrator 15.1.0, SVG Export Plug-In . SVG Version: 6.00 Build 0)  -->
<!DOCTYPE svg PUBLIC "-//W3C//DTD SVG 1.1//EN" "http://www.w3.org/Graphics/SVG/1.1/DTD/svg11.dtd">
<svg version="1.1" id="Layer_1" xmlns="http://www.w3.org/2000/svg" xmlns:xlink="http://www.w3.org/1999/xlink" x="0px" y="0px"
	 width="1080px" height="1340px" viewBox="0 0 1080 1340" enable-background="new 0 0 1080 1340" xml:space="preserve">
<g id="Layer_1_2_">
	<path fill="#754C24" d="M464.816,401.833c4.982,56.333,63.684,58.106,63.684,58.106c14.666,58.438,76.333,65.075,76.333,65.075
		c-23,67.849,60.667,61.152,60.667,61.152c-21.333,58.667,49.085,71.126,49.085,71.126c-10.248,42.126,31.021,53.614,31.021,53.614
		c-5.896,39.74,45.562,44.336,45.562,44.336c8.667,11.409,19.333,12.924,19.333,12.924c1.667,32.333,46.763,25.063,46.763,25.063
		c6.562-1.278,41.237-15.396,41.237-15.396c43.333-3.333,18.762,18.875,18.762,18.875c64.43-16.125-6.095-42.875-6.095-42.875
		c-38.666,7.667-42-4-42-4c-23.666-18.666-38-6.334-38-6.334c-20,5.333-20.667-26.333-20.667-26.333
		c-9.756-31.288-37.454-24.198-37.454-24.198c1.212-64.198-32.51-52.999-32.51-52.999c-1.153-9.833,4.127-34.822,4.127-34.822
		c2.138-20.023-32.276-27.314-32.276-27.314c-0.779-10.667,9.659-25.878,9.659-25.878c18.212-33.878-24.099-56.917-24.099-56.917
		c25.553-66.038-26.43-72.603-26.43-72.603s19.895-23.769,10.438-51.353S669,286.529,676.5,270.015c0,0,1.5-117.132-64.5-111.573
		s0,0,0,0l0,0c0,0-28.25-62.692-157.789-13.945c-14.727,5.542,0,0,0,0S403.35,173,399.425,266.5s54.551,135.036,59.972,135.185
		L464.816,401.833z"/>
	<g>
		<path fill="none" stroke="#000000" stroke-width="10" stroke-linecap="round" stroke-linejoin="round" stroke-miterlimit="10" d="
			M697.947,495.038c0,0,47.824,20.816,20.388,63.462c-7.486,11.636-13.602,41.479-5.948,60.568"/>
		<path fill="none" stroke="#000000" stroke-width="10" stroke-linecap="round" stroke-linejoin="round" stroke-miterlimit="10" d="
			M464.816,404.524c0,0,0.517,33.977,39.434,51.31s95.583-26.667,110.25-13.333"/>
		<path fill="none" stroke="#000000" stroke-width="10" stroke-linecap="round" stroke-linejoin="round" stroke-miterlimit="10" d="
			M667.5,423.75c0,0,54.5,4.25,31.626,64.75c-7.683,20.319-20.576,31.273-14.646,55.333"/>
		<path fill="none" stroke="#000000" stroke-width="10" stroke-linecap="round" stroke-linejoin="round" stroke-miterlimit="10" d="
			M747.271,710.907c-9.184,40.485,53.174,44.409,52.466,44.335"/>
		<path fill="none" stroke="#000000" stroke-width="10" stroke-linecap="round" stroke-linejoin="round" stroke-miterlimit="10" d="
			M784.529,714.223c0,0-13.368-7.814-12.699-37.209c0.668-29.393-15.811-39.577-27.752-36.523"/>
		<path fill="none" stroke="#000000" stroke-width="10" stroke-linecap="round" stroke-linejoin="round" stroke-miterlimit="10" d="
			M745.605,656.259c0,0-9.638-5.788-2.357-34.065c2.51-9.759,6.496-37.419-24.913-40.315"/>
		<path fill="none" stroke="#000000" stroke-width="10" stroke-linecap="round" stroke-linejoin="round" stroke-miterlimit="10" d="
			M608.276,525.015c0,0-25.964,45.269,28.714,59.788c18.855,5.007,30.51-0.303,54.177,15.177"/>
		<path fill="none" stroke="#000000" stroke-width="10" stroke-linecap="round" stroke-linejoin="round" stroke-miterlimit="10" d="
			M530.641,459.726c0,0,8.859,47.441,54.359,60.108s42.918-0.667,64.209,24"/>
		<path fill="none" stroke="#000000" stroke-width="10" stroke-linecap="round" stroke-linejoin="round" stroke-miterlimit="10" d="
			M717.817,658.452c0.12,2.664-14.938,33.205,18.947,48.26c16.356,7.268,12.773,0.088,32.664,13.938"/>
		<path fill="none" stroke="#000000" stroke-width="10" stroke-linecap="round" stroke-linejoin="round" stroke-miterlimit="10" d="
			M667.5,593.833c-1.781,1.95-20.858,38.208,33.96,60.424c0,0,23.328,2.612,33.653,15.992"/>
		<path fill="none" stroke="#000000" stroke-width="10" stroke-linecap="round" stroke-linejoin="round" stroke-miterlimit="10" d="
			M813.78,739.229c-2.021,2.211-7.671,17.653-18.653,15.337c0,0,20.268,30.805,25.775-10.226L813.78,739.229z"/>
		<path fill="none" stroke="#000000" stroke-width="10" stroke-linecap="round" stroke-linejoin="round" stroke-miterlimit="10" d="
			M775.919,693.592c29.105-1.319,33.316,25.525,34.712,37.131c1.616,13.423,12.997,14.229,12.997,14.229
			c4.114-7.079,27.641-8.564,42.271,5.038c15.093,14.026,32.62,5.741,46.637,5.642c26.187-0.187,34.743,20.01,28.589,30.736
			c-10.515,18.328-25.688,11.176-25.688,11.176c14.092-5.645,3.694-17.853-2.851-18.724c-8.936-1.19-22.281,1.678-41.929,9.908
			c-19.646,8.231-33.693,7.534-43.577,2.979c-17.334-7.993-14.533-26.174-14.533-26.174"/>
	</g>
	<g>
		<path fill="none" stroke="#000000" stroke-width="10" stroke-linecap="round" stroke-linejoin="round" stroke-miterlimit="10" d="
			M649.209,465.5c-1.918-11.25,0-27,22.025-46.727c32.882-29.45-6.543-57.66,2.11-141.717
			c8.654-84.057-31.679-129.282-61.345-118.615c2.166-12.167-22.5-33.191-80-32.941c0,0-58.757-0.4-93.5,30
			c-28,24.5-40.156,82.484-39,126.258C401.5,357.5,440.943,412.196,508,415"/>
	</g>
	<path fill="none" stroke="#000000" stroke-width="10" stroke-linecap="round" stroke-linejoin="round" stroke-miterlimit="10" d="
		M627.593,411.267c0,0,3.407-13.267-3.479-23.267c-9.002-13.069-7.644-22.5-5.144-26.5"/>
</g>
</svg>
