<?xml version="1.0" encoding="utf-8"?>
<!-- Generator: Adobe Illustrator 15.1.0, SVG Export Plug-In . SVG Version: 6.00 Build 0)  -->
<!DOCTYPE svg PUBLIC "-//W3C//DTD SVG 1.1//EN" "http://www.w3.org/Graphics/SVG/1.1/DTD/svg11.dtd">
<svg version="1.1" id="Layer_1" xmlns="http://www.w3.org/2000/svg" xmlns:xlink="http://www.w3.org/1999/xlink" x="0px" y="0px"
	 width="1080px" height="1340px" viewBox="0 0 1080 1340" enable-background="new 0 0 1080 1340" xml:space="preserve">
<path fill="#754C24" stroke="#000000" stroke-width="10" stroke-linecap="round" stroke-linejoin="round" stroke-miterlimit="10" d="
	M663.167,305.5c2.472-1.858,19.334-26.093,2.334-44c-7.156-20.09,20.969-8,17.666-25.667c-9-22.255-18.88-9.069-20.333-27.667
	c-3.333-42.667-30.292-57.113-50.836-49.726C624.5,141.25,615.5,97.5,606.25,127.5c-1.127,3.656-5.848,9.155-9.687,15
	c-42.688-42.667-126.063-8-155.563,1c-12.209,3.118-45.5,1-16.034,22.897C413,180.75,415.277,189.421,408.75,203.5
	c-9.771,21.074-15.019,25.25-15,38.25c-0.028,14.149,7.25,18.5,18.25,26.75c3.789,2.842-9.292,28.261-6.851,34.187
	C413,321.75,443.933,327.531,446.25,334.5C446.25,334.5,559.834,383.167,663.167,305.5z"/>
</svg>
