<?xml version="1.0" encoding="utf-8"?>
<!-- Generator: Adobe Illustrator 15.1.0, SVG Export Plug-In . SVG Version: 6.00 Build 0)  -->
<!DOCTYPE svg PUBLIC "-//W3C//DTD SVG 1.1//EN" "http://www.w3.org/Graphics/SVG/1.1/DTD/svg11.dtd">
<svg version="1.1" id="Layer_1" xmlns="http://www.w3.org/2000/svg" xmlns:xlink="http://www.w3.org/1999/xlink" x="0px" y="0px"
	 width="300px" height="300px" viewBox="382.104 9.953 300 300" enable-background="new 382.104 9.953 300 300"
	 xml:space="preserve">
<g>
	
		<path fill="#FFAF5F" stroke="#000000" stroke-width="10" stroke-linecap="round" stroke-linejoin="round" stroke-miterlimit="10" d="
		M432.791,172c0-41.077,25.302-71.614,88.302-55.022c55.137,14.521,97.717,9.821,109.401,54.531V186.5H432.791V172z"/>
	
		<path fill="#FFAF5F" stroke="#000000" stroke-width="10" stroke-linecap="round" stroke-linejoin="round" stroke-miterlimit="10" d="
		M639.209,207.533L637.074,174c-60.574-10.5-152.574-11.5-209.283,0L425,207.533H639.209z"/>
	
		<line fill="#FFFFFF" stroke="#000000" stroke-width="10" stroke-linecap="round" stroke-linejoin="round" stroke-miterlimit="10" x1="443" y1="173" x2="443" y2="206.533"/>
	
		<line fill="#FFFFFF" stroke="#000000" stroke-width="10" stroke-linecap="round" stroke-linejoin="round" stroke-miterlimit="10" x1="463" y1="173" x2="463" y2="206.533"/>
	
		<line fill="#FFFFFF" stroke="#000000" stroke-width="10" stroke-linecap="round" stroke-linejoin="round" stroke-miterlimit="10" x1="443" y1="173" x2="443" y2="206.533"/>
	
		<line fill="#FFFFFF" stroke="#000000" stroke-width="10" stroke-linecap="round" stroke-linejoin="round" stroke-miterlimit="10" x1="483" y1="173" x2="483" y2="206.533"/>
	
		<line fill="#FFFFFF" stroke="#000000" stroke-width="10" stroke-linecap="round" stroke-linejoin="round" stroke-miterlimit="10" x1="503" y1="173" x2="503" y2="206.533"/>
	
		<line fill="#FFFFFF" stroke="#000000" stroke-width="10" stroke-linecap="round" stroke-linejoin="round" stroke-miterlimit="10" x1="443" y1="173" x2="443" y2="206.533"/>
	
		<line fill="#FFFFFF" stroke="#000000" stroke-width="10" stroke-linecap="round" stroke-linejoin="round" stroke-miterlimit="10" x1="562" y1="173" x2="562" y2="206.533"/>
	
		<line fill="#FFFFFF" stroke="#000000" stroke-width="10" stroke-linecap="round" stroke-linejoin="round" stroke-miterlimit="10" x1="542" y1="173" x2="542" y2="206.533"/>
	
		<line fill="#FFFFFF" stroke="#000000" stroke-width="10" stroke-linecap="round" stroke-linejoin="round" stroke-miterlimit="10" x1="582" y1="173" x2="582" y2="206.533"/>
	
		<line fill="#FFFFFF" stroke="#000000" stroke-width="10" stroke-linecap="round" stroke-linejoin="round" stroke-miterlimit="10" x1="602" y1="173" x2="602" y2="206.533"/>
	
		<line fill="#FFFFFF" stroke="#000000" stroke-width="10" stroke-linecap="round" stroke-linejoin="round" stroke-miterlimit="10" x1="523" y1="173" x2="523" y2="206.533"/>
	
		<line fill="#FFFFFF" stroke="#000000" stroke-width="10" stroke-linecap="round" stroke-linejoin="round" stroke-miterlimit="10" x1="621" y1="173" x2="621" y2="206.533"/>
</g>
</svg>
