<?xml version="1.0" encoding="utf-8"?>
<!-- Generator: Adobe Illustrator 15.1.0, SVG Export Plug-In . SVG Version: 6.00 Build 0)  -->
<!DOCTYPE svg PUBLIC "-//W3C//DTD SVG 1.1//EN" "http://www.w3.org/Graphics/SVG/1.1/DTD/svg11.dtd">
<svg version="1.1" id="Layer_1" xmlns="http://www.w3.org/2000/svg" xmlns:xlink="http://www.w3.org/1999/xlink" x="0px" y="0px"
	 width="1080px" height="1340px" viewBox="0 0 1080 1340" enable-background="new 0 0 1080 1340" xml:space="preserve">
<g>
	
		<path fill="#00511B" stroke="#000000" stroke-width="10" stroke-linecap="round" stroke-linejoin="round" stroke-miterlimit="10" d="
		M591.52,481.798c0,0,4.23,45.952,13.23,74.702c0,0-5,13.25-52.75,16c0,0-0.359-52.147-3.43-81.574"/>
	
		<path fill="#00511B" stroke="#000000" stroke-width="10" stroke-linecap="round" stroke-linejoin="round" stroke-miterlimit="10" d="
		M539.113,445.91c-10.28-0.077-35.363-1.285-52.054-10.408c0,0-9.208-6.502-6,10.223c0,0,3.655,7.847-10.708,12.4
		c-7.098,2.25-11.375,5.625-4.568,10.82c0,0,15.592,13.68,37.276,18.222c36.054,8.458,72.107,0,72.107,0
		c29.333-7.792,37.276-18.222,37.276-18.222c6.807-5.195,2.529-8.57-4.568-10.82c-14.363-4.553-10.708-12.4-10.708-12.4
		c3.208-16.725-6-10.223-6-10.223C575.625,442.125,548.918,445.983,539.113,445.91z"/>
	<g>
		
			<path fill="#00511B" stroke="#000000" stroke-width="10" stroke-linecap="round" stroke-linejoin="round" stroke-miterlimit="10" d="
			M552,572.5c0,0,0,23-1.75,33.75"/>
		<path fill="#FBF5B9" stroke="#000000" stroke-width="10" stroke-linecap="round" stroke-linejoin="round" d="M604.75,556.5
			c0,0,7.5,24.75,8.25,39.25"/>
		<path fill="#FBF5B9" stroke="#000000" stroke-width="10" stroke-linecap="round" stroke-linejoin="round" d="M581.099,568.674
			c0,0,3.776,23.576,3.235,36.326"/>
		<path fill="#FBF5B9" stroke="#000000" stroke-width="10" stroke-linecap="round" stroke-linejoin="round" d="M566.956,571.153
			c0,0,0.956,28.597,0,35.097"/>
		<path fill="#FBF5B9" stroke="#000000" stroke-width="10" stroke-linecap="round" stroke-linejoin="round" d="M593.473,564.77
			c0,0,5.15,26.238,6.194,35.23"/>
	</g>
</g>
</svg>
