<?xml version="1.0" encoding="utf-8"?>
<!-- Generator: Adobe Illustrator 15.1.0, SVG Export Plug-In . SVG Version: 6.00 Build 0)  -->
<!DOCTYPE svg PUBLIC "-//W3C//DTD SVG 1.1//EN" "http://www.w3.org/Graphics/SVG/1.1/DTD/svg11.dtd">
<svg version="1.1" id="Layer_1" xmlns="http://www.w3.org/2000/svg" xmlns:xlink="http://www.w3.org/1999/xlink" x="0px" y="0px"
	 width="1080px" height="1340px" viewBox="0 0 1080 1340" enable-background="new 0 0 1080 1340" xml:space="preserve">
<g>
	<g>
		<g>
			
				<path fill="#5450D8" stroke="#000000" stroke-width="10" stroke-linecap="round" stroke-linejoin="round" stroke-miterlimit="10" d="
				M513.5,751.5h139.345c0,0,5.862,17.982,0.259,29.991s4.796,228.911,23.396,319.676c7.507,36.631-2.59,47.91-28.5,68.427
				l-4.285,21.843H583.36l-0.86-23.937c0,0-26-13.666-19.005-69.134c8.469-67.151-0.495-254.369-23.62-246.866"/>
			<g>
				
					<line fill="#2417C1" stroke="#000000" stroke-width="10" stroke-linecap="round" stroke-linejoin="round" stroke-miterlimit="10" x1="603.44" y1="1169.594" x2="603.44" y2="1191.437"/>
				
					<line fill="#2417C1" stroke="#000000" stroke-width="10" stroke-linecap="round" stroke-linejoin="round" stroke-miterlimit="10" x1="625.471" y1="1171.796" x2="625.471" y2="1191.437"/>
				
					<line fill="#2417C1" stroke="#000000" stroke-width="10" stroke-linecap="round" stroke-linejoin="round" stroke-miterlimit="10" x1="648" y1="1169.594" x2="583.35" y2="1169.594"/>
			</g>
		</g>
		<g>
			
				<path fill="#5450D8" stroke="#000000" stroke-width="10" stroke-linecap="round" stroke-linejoin="round" stroke-miterlimit="10" d="
				M566.947,751.5H427.603c0,0-5.862,17.982-0.259,29.991s-4.796,228.911-23.396,319.676c-7.507,36.631,2.59,47.91,28.5,68.427
				l4.285,21.843h60.354l0.86-23.937c0,0,26-13.666,19.005-69.134c-8.469-67.151-5.482-256.597,23.62-246.866"/>
			<g>
				
					<line fill="#2417C1" stroke="#000000" stroke-width="10" stroke-linecap="round" stroke-linejoin="round" stroke-miterlimit="10" x1="477.007" y1="1169.594" x2="477.007" y2="1191.437"/>
				
					<line fill="#2417C1" stroke="#000000" stroke-width="10" stroke-linecap="round" stroke-linejoin="round" stroke-miterlimit="10" x1="454.977" y1="1171.796" x2="454.977" y2="1191.437"/>
				
					<line fill="#2417C1" stroke="#000000" stroke-width="10" stroke-linecap="round" stroke-linejoin="round" stroke-miterlimit="10" x1="432.447" y1="1169.594" x2="497.098" y2="1169.594"/>
			</g>
		</g>
	</g>
	<g>
		
			<line fill="#2417C1" stroke="#000000" stroke-width="10" stroke-linecap="round" stroke-linejoin="round" stroke-miterlimit="10" x1="427.344" y1="781.491" x2="650.5" y2="781.491"/>
		
			<line fill="#2417C1" stroke="#000000" stroke-width="10" stroke-linecap="round" stroke-linejoin="round" stroke-miterlimit="10" x1="520.324" y1="781.491" x2="520.324" y2="751.5"/>
		
			<line fill="#2417C1" stroke="#000000" stroke-width="10" stroke-linecap="round" stroke-linejoin="round" stroke-miterlimit="10" x1="480.324" y1="781.491" x2="480.324" y2="751.5"/>
		
			<line fill="#2417C1" stroke="#000000" stroke-width="10" stroke-linecap="round" stroke-linejoin="round" stroke-miterlimit="10" x1="440.324" y1="781.491" x2="440.324" y2="751.5"/>
		
			<line fill="#2417C1" stroke="#000000" stroke-width="10" stroke-linecap="round" stroke-linejoin="round" stroke-miterlimit="10" x1="560.324" y1="781.491" x2="560.324" y2="751.5"/>
		
			<line fill="#2417C1" stroke="#000000" stroke-width="10" stroke-linecap="round" stroke-linejoin="round" stroke-miterlimit="10" x1="600.324" y1="781.491" x2="600.324" y2="751.5"/>
		
			<line fill="#2417C1" stroke="#000000" stroke-width="10" stroke-linecap="round" stroke-linejoin="round" stroke-miterlimit="10" x1="640.324" y1="781.491" x2="640.324" y2="751.5"/>
	</g>
</g>
</svg>
