<?xml version="1.0" encoding="utf-8"?>
<!-- Generator: Adobe Illustrator 15.1.0, SVG Export Plug-In . SVG Version: 6.00 Build 0)  -->
<!DOCTYPE svg PUBLIC "-//W3C//DTD SVG 1.1//EN" "http://www.w3.org/Graphics/SVG/1.1/DTD/svg11.dtd">
<svg version="1.1" id="Layer_1" xmlns="http://www.w3.org/2000/svg" xmlns:xlink="http://www.w3.org/1999/xlink" x="0px" y="0px"
	 width="500px" height="500px" viewBox="290.51 727.716 500 500" enable-background="new 290.51 727.716 500 500"
	 xml:space="preserve">
<g id="Layer_4" display="none">
	<rect x="-4.5" y="-295.326" display="inline" fill="#FFE9AB" width="1080" height="1920"/>
</g>
<g id="Layer_1_1_" display="none">
	<ellipse display="inline" fill="#9B907E" cx="540.083" cy="1245" rx="242.387" ry="31"/>
	<g display="inline">
		
			<path fill="#FBF5B9" stroke="#000000" stroke-width="10" stroke-linecap="round" stroke-linejoin="round" stroke-miterlimit="10" d="
			M327.141,786.578c17.041-61.859,58.591-219.857,66.011-251.219c8.31-35.115,34.722-53.752,60.384-62.75
			c12.34-4.328,26.81-4.902,38.98-5.609C504.689,466.292,509,452,509,448.5s0-19.5,0-19.5h64c0,0,0,16,0,19.5
			s5.098,17.793,17.271,18.5c12.172,0.707,24.941,1.281,37.281,5.609c25.662,8.998,51.816,27.635,60.127,62.75
			c7.42,31.359,48.84,189.357,65.881,251.219c0,0,21.947,47.104,5.408,74.824c-19.747,33.098-38.777,7.098-35.777-5.902
			c3.966-17.184,4.981-31-2.019-34s-6.844,30-18.844,28s11.304-49.9,11.304-49.9c-18.695-62.613-75.847-244.389-75.847-244.389
			L653.573,761l-10.089,440.5c0,0,57.697,20.166,60.783,40.061c3.086,19.896-27.486,18.107-43.971,16.559S583.382,1233,583.382,1233
			l-0.17-334.281c0-30.77-14.092-65.719-42.925-65.719c-28.834,0-42.801,34.949-42.801,65.719L497.44,1233
			c0,0-60.437,23.566-76.917,25.117c-16.482,1.551-47.057,3.338-43.972-16.559c3.085-19.895,60.784-40.061,60.784-40.061
			L427.125,761l15.662-205.789c0,0-57.147,181.773-75.845,244.389c0,0,23.308,47.9,11.308,49.9s-11.835-31-18.835-28
			s-5.967,16.816-2.001,34c3,13-15.999,39-35.746,5.902C305.128,833.681,327.141,786.578,327.141,786.578z"/>
		<g>
			<path fill="#FBF5B9" stroke="#000000" stroke-width="10" stroke-miterlimit="10" d="M636.75,259.037
				c0-48.346-37.412-87.037-97.566-87.037C479.027,172,443,210,443,259.037v68.43c0,48.701,37.029,108.035,95.279,108.035
				c58.248,0,97.505-59.69,97.505-108.035L636.75,259.037z"/>
			<g>
				<path fill="#FBF5B9" stroke="#000000" stroke-width="10" stroke-miterlimit="10" d="M637,338.595
					c14,0,24.418-10.934,24.418-24.418c0-13.486-10.418-24.42-24.418-24.42V338.595z"/>
				<path fill="#FBF5B9" stroke="#000000" stroke-width="10" stroke-miterlimit="10" d="M441,289.757
					c-14,0-24.418,10.934-24.418,24.418c0,13.486,10.418,24.42,24.418,24.42V289.757z"/>
			</g>
		</g>
	</g>
	<path display="inline" fill="#FBF5B9" stroke="#000000" stroke-width="10" stroke-miterlimit="10" d="M-6021.306-5894.964
		c0-48.345-37.384-87.536-97.539-87.536S-6215-5945-6215-5895.964v68.43c0,48.702,37.002,108.536,95.251,108.536
		s97.491-59.191,97.491-107.536L-6021.306-5894.964z"/>
</g>
<g id="Layer_2" display="none">
	
		<path display="inline" fill="#754C24" stroke="#000000" stroke-width="10" stroke-linecap="round" stroke-linejoin="round" stroke-miterlimit="10" d="
		M470,172c-1.311-6.322-6.079-22.664,5-24.044c6.059-0.755,12.198,9.603,15.777,13.267c17.731,18.154,86.858-1.503,109.052,8.754
		c19.728,9.119,31.882,22.419,40.167,42.075c6.275,14.888,14.534,44.188-5.95,52.743c-16.373,6.838-24.779-1.988-25.046-16.504
		c-0.234-12.748-18.205-23.6-30.399-9.289c-19.601,23-59.646,17.887-33.624,0.942C571,223,517.621,223.567,507.994,238.246
		c-5.438,8.291-15.704,24.363-27.842,21.604c-0.17-11.816,5.395-22.6,8.924-33.648c2.673-8.37-33.295,35.596-50.742,36.801
		c-20.789,1.436,11.464-41.9,11.464-41.9S416.34,266,419.17,232C422,198,470,172,470,172z"/>
	<g display="inline">
		
			<circle fill="#FBF5B9" stroke="#000000" stroke-width="10" stroke-linecap="round" stroke-linejoin="round" stroke-miterlimit="10" cx="498.5" cy="299.5" r="3.5"/>
		
			<circle fill="#FBF5B9" stroke="#000000" stroke-width="10" stroke-linecap="round" stroke-linejoin="round" stroke-miterlimit="10" cx="581.5" cy="299.5" r="3.5"/>
		<path fill="none" stroke="#000000" stroke-width="10" stroke-linecap="round" stroke-linejoin="round" stroke-miterlimit="10" d="
			M483.639,281.757c6.902-8.024,20.804-9.26,29.924-1.42"/>
		<path fill="none" stroke="#000000" stroke-width="10" stroke-linecap="round" stroke-linejoin="round" stroke-miterlimit="10" d="
			M596.563,282.757c-6.9-8.024-20.802-9.26-29.924-1.42"/>
	</g>
	
		<path display="inline" fill="none" stroke="#000000" stroke-width="10" stroke-linecap="round" stroke-linejoin="round" stroke-miterlimit="10" d="
		M526.125,336.125c7.669,7.67,20.083,7.67,27.75,0"/>
	
		<path display="inline" fill="none" stroke="#000000" stroke-width="10" stroke-linecap="round" stroke-linejoin="round" stroke-miterlimit="10" d="
		M504.25,369c0,0,6.5,20.608,35.5,20.608s36-20.608,36-20.608"/>
</g>
<g id="Layer_3">
	
		<path display="none" fill="#0071BC" stroke="#000000" stroke-width="10" stroke-linecap="round" stroke-linejoin="round" stroke-miterlimit="10" d="
		M653.75,760.281l-15.646-205.07l5.582,17.848l51.332-29.551c0,0-9.018-30.035-23.879-47.676
		C642.881,462.283,590.789,464,590.789,464l-50.323,42l-50.357-42c0,0-52.107-1.717-80.366,31.832
		c-14.86,17.641-23.882,47.676-23.882,47.676l51.336,29.551l5.598-17.848L427.15,760.662L653.75,760.281z"/>
	
		<path display="none" fill="#22B573" stroke="#000000" stroke-width="10" stroke-linecap="round" stroke-linejoin="round" stroke-miterlimit="10" d="
		M653.75,760.281l-15.646-205.07l5.582,17.848l51.332-29.551c0,0-9.018-30.035-23.879-47.676
		C642.881,462.283,610.789,464,610.789,464l-70.323,72l-70.357-72c0,0-32.107-1.717-60.366,31.832
		c-14.86,17.641-23.882,47.676-23.882,47.676l51.336,29.551l5.598-17.848L427.15,760.662L653.75,760.281z"/>
	
		<path display="none" fill="#D4145A" stroke="#000000" stroke-width="10" stroke-linecap="round" stroke-linejoin="round" stroke-miterlimit="10" d="
		M653.75,760.281l-15.646-205.07l5.582,17.848l51.332-29.551c0,0-9.018-30.035-23.879-47.676
		C642.881,462.283,590.789,464,590.789,464s-4.19,22-50.323,22s-50.357-22-50.357-22s-52.107-1.717-80.366,31.832
		c-14.86,17.641-23.882,47.676-23.882,47.676l51.336,29.551l5.598-17.848L427.15,760.662L653.75,760.281z"/>
	
		<path display="none" fill="#C7A315" stroke="#000000" stroke-width="10" stroke-linecap="round" stroke-linejoin="round" stroke-miterlimit="10" d="
		M756.107,775.507c0,0-66.021-257.035-80.884-274.676C646.966,467.283,590.824,464,590.824,464s-4.228,22-50.358,22
		s-50.357-22-50.357-22s-56.107,3.283-84.366,36.832c-14.86,17.641-80.882,274.676-80.882,274.676l47.336,17.551l70.598-237.848
		L427.15,760.662l226.585-0.381l0.081,0.381l-15.68-205.451l70.635,237.848L756.107,775.507z"/>
	<path fill="#6881C1" stroke="#000000" stroke-width="10" stroke-miterlimit="10" d="M583.381,1193l-0.44-293.281
		c0-30.77-16.325-64.719-36.994-64.719h-10.713c-20.673,0-37.87,33.949-37.87,64.719l-0.691,292.32l-60.67-1.727L427.5,762h226
		l-10,426L583.381,1193z"/>
	
		<path display="none" fill="#444F77" stroke="#000000" stroke-width="10" stroke-linecap="round" stroke-linejoin="round" stroke-miterlimit="10" d="
		M427.5,762l-9,161.313l98.42,11.729l1.441-35.32c0-30.77,11.894-51.719,22.227-51.719s22.352,20.949,22.352,51.719l0.191,36.281
		L663,921l-10-159H427.5z"/>
	<g display="none">
		
			<path display="inline" fill="#534741" stroke="#000000" stroke-width="10" stroke-linecap="round" stroke-linejoin="round" stroke-miterlimit="10" d="
			M645.484,1201.5c0,0,57.697,20.166,60.783,40.061c3.086,19.896-29.486,18.107-45.971,16.559S583.382,1233,583.382,1233
			l-0.17-32.281C596.852,1209.396,638.75,1216.564,645.484,1201.5z"/>
		
			<path display="inline" fill="#534741" stroke="#000000" stroke-width="10" stroke-linecap="round" stroke-linejoin="round" stroke-miterlimit="10" d="
			M435.2,1201.5c0,0-57.699,20.166-60.784,40.061c-3.085,19.896,29.487,18.107,45.97,16.559
			c16.483-1.551,76.917-25.117,76.917-25.117l0.17-32.281C483.834,1209.394,441.936,1216.564,435.2,1201.5z"/>
	</g>
</g>
</svg>
