<?xml version="1.0" encoding="utf-8"?>
<!-- Generator: Adobe Illustrator 15.1.0, SVG Export Plug-In . SVG Version: 6.00 Build 0)  -->
<!DOCTYPE svg PUBLIC "-//W3C//DTD SVG 1.1//EN" "http://www.w3.org/Graphics/SVG/1.1/DTD/svg11.dtd">
<svg version="1.1" id="Layer_1" xmlns="http://www.w3.org/2000/svg" xmlns:xlink="http://www.w3.org/1999/xlink" x="0px" y="0px"
	 width="1080px" height="1340px" viewBox="0 0 1080 1340" enable-background="new 0 0 1080 1340" xml:space="preserve">
<path fill="#FBF5B9" stroke="#000000" stroke-width="10" stroke-linecap="round" stroke-linejoin="round" stroke-miterlimit="10" d="
	M770,556.5c0,0-22.833-64-5.08-64.215c14.14-0.171,4.006,38.039,16.039,31.761c8.457-3.634,15.996-40.642,15.996-40.642
	s3.502-16.733,12.9-15.346c9.396,1.395,3.371,18.19,3.371,18.19s-10.712,30.154-4.562,27.915
	c6.149-2.239,23.128-45.566,34.779-37.141c11.721,8.475-12.113,29.308-15.113,48.475c11.211,1.659,23.5-29.167,33.089-19.918
	c7.88,7.6-14.146,27.036-22.591,40.916c-8.44,13.88-22.869,32.476-41.481,27.173"/>
</svg>
