<?xml version="1.0" encoding="utf-8"?>
<!-- Generator: Adobe Illustrator 15.1.0, SVG Export Plug-In . SVG Version: 6.00 Build 0)  -->
<!DOCTYPE svg PUBLIC "-//W3C//DTD SVG 1.1//EN" "http://www.w3.org/Graphics/SVG/1.1/DTD/svg11.dtd">
<svg version="1.1" id="Layer_1" xmlns="http://www.w3.org/2000/svg" xmlns:xlink="http://www.w3.org/1999/xlink" x="0px" y="0px"
	 width="1080px" height="1340px" viewBox="0 0 1080 1340" enable-background="new 0 0 1080 1340" xml:space="preserve">
<g>
	<path fill="#FBF5B9" d="M799.69,573.788c16.023,2.125,27.084,0.884,31.062-0.376c5.271-1.671,8.351-2.646,10.439-7.503
		c2.488-5.746,4.993-25.072,6.439-32.926c1.896-10.302-0.006-18.805-4.568-20.508c-11.615-3.086-29.97-3.023-42.552-0.587
		c-12.654,2.991-19.998,12.336-22.747,23.072c-2.214,8.652-4.8,17.681-10.537,25.66"/>
	<path fill="none" stroke="#000000" stroke-width="10" stroke-linecap="round" stroke-linejoin="round" stroke-miterlimit="10" d="
		M799.69,573.788c16.023,2.125,27.084,0.884,31.062-0.376c5.271-1.671,8.351-2.646,10.439-7.503
		c2.488-5.746,4.993-25.072,6.439-32.926c1.896-10.302-0.006-18.805-4.568-20.508c-11.615-3.086-29.97-3.023-42.552-0.587
		c-12.654,2.991-19.998,12.336-22.747,23.072c-2.214,8.652-4.693,17.749-10.431,25.729"/>
</g>
<g>
	<path fill="#65271C" d="M857.397,211.428c-6.5,14.75-6.147,39.072-6.147,39.072c4.25,43.5-0.674,88.095-0.674,88.095
		l-85.495,899.466h-17.999l86.559-905.954c0,0,2.563-35.998,0-80.996s-31.279-53.997-22.171-68.997s30.107-49.498,67.605-22.499
		c0,0,24.541,20.999,13.021,46.498c-6.93,15.339-21.633,13.852-31.923,7.293L857.397,211.428z"/>
	<path fill="none" stroke="#000000" stroke-width="10" stroke-miterlimit="10" d="M857.397,211.428
		c-6.5,14.75-6.147,39.072-6.147,39.072c4.25,43.5-0.674,88.095-0.674,88.095l-85.495,899.466h-17.999l86.559-905.954
		c0,0,2.563-35.998,0-80.996s-31.279-53.997-22.171-68.997s30.107-49.498,67.605-22.499c0,0,24.541,20.999,13.021,46.498
		c-7.92,17.531-25.992,13.083-36.026,4.206c-4.562-4.036-7.462-8.987-6.993-13.205c1.5-13.499,6.001-23.999,13.5-17.999
		c0,0,3.767,3.353,0,0"/>
</g>
<path fill="#FBF5B9" stroke="#000000" stroke-width="10" stroke-linecap="round" stroke-linejoin="round" stroke-miterlimit="10" d="
	M847.88,520.041c-1.107-3.615-4.046-5.184-6.879-5.584c-6.667-0.417-18.334,2.376-18.334,2.376s-5.324,1.899-6.991,6.733
	s-6.508,26.101-7.175,31.767s0.999,7.333,2.166,9c1.771,1.698,2.5,5.5,21.167,7.333c0,0,3.916,0.333,6.706-1.85
	c2.419-1.893,2.866-3.911,2.866-3.911c2.488-5.746,4.778-25.07,6.225-32.924c0.623-3.386,1.011-6.553,0.854-9.373
	C848.484,523.609,848.588,522.352,847.88,520.041z"/>
<g>
	<path fill="#FBF5B9" d="M799.334,556.333c4.323-5.315,6.355-17.257,6.355-17.257l9.312,5.423c3.624,1.938,6.826,1.634,10.137-1.045
		c4.425-3.58,3.213-7.696,2.31-8.81c-2.342-2.888-7.068-8.736-11.312-12.152c-9.337-4.141-14.561-7.413-18.124-7.574
		c-5.017-0.227-7.095,9.915-7.095,9.915s-8.499,20.083-2.916,28.833S798.861,556.915,799.334,556.333z"/>
	<path fill="none" stroke="#000000" stroke-width="10" stroke-linecap="round" stroke-linejoin="round" stroke-miterlimit="10" d="
		M790.209,516.544c0,0,2.786-1.852,7.803-1.625c3.563,0.161,8.787,3.434,18.124,7.574c4.243,3.416,8.97,9.264,11.312,12.152
		c0.903,1.114,2.115,5.23-2.31,8.81c-3.311,2.679-6.513,2.982-10.137,1.045l-9.312-5.423c0,0-1.855,12.09-6.355,17.257"/>
</g>
</svg>
