<?xml version="1.0" encoding="utf-8"?>
<!-- Generator: Adobe Illustrator 15.1.0, SVG Export Plug-In . SVG Version: 6.00 Build 0)  -->
<!DOCTYPE svg PUBLIC "-//W3C//DTD SVG 1.1//EN" "http://www.w3.org/Graphics/SVG/1.1/DTD/svg11.dtd">
<svg version="1.1" id="Layer_1" xmlns="http://www.w3.org/2000/svg" xmlns:xlink="http://www.w3.org/1999/xlink" x="0px" y="0px"
	 width="1080px" height="1340px" viewBox="0 0 1080 1340" enable-background="new 0 0 1080 1340" xml:space="preserve">
<g>
	<g>
		<path fill="#FBF5B9" d="M799.69,573.788c16.022,2.125,27.084,0.884,31.062-0.376c5.271-1.671,8.352-2.646,10.439-7.503
			c2.487-5.746,4.992-25.072,6.438-32.926c1.896-10.303-0.006-18.806-4.567-20.509c-11.615-3.086-29.971-3.022-42.553-0.587
			c-12.653,2.991-19.998,12.336-22.747,23.072c-2.214,8.652-4.8,17.681-10.536,25.66"/>
		<path fill="none" stroke="#000000" stroke-width="10" stroke-linecap="round" stroke-linejoin="round" stroke-miterlimit="10" d="
			M799.69,573.788c16.022,2.125,27.084,0.884,31.062-0.376c5.271-1.671,8.352-2.646,10.439-7.503
			c2.487-5.746,4.992-25.072,6.438-32.926c1.896-10.303-0.006-18.806-4.567-20.509c-11.615-3.086-29.971-3.022-42.553-0.587
			c-12.653,2.991-19.998,12.336-22.747,23.072c-2.214,8.652-4.692,17.749-10.431,25.729"/>
	</g>
	<path fill="#F4EB42" d="M895.848,218.988c14.452-12.026,25.985,3.512,25.985,3.512c-13.334-5.667-21.333,13.667-21.333,13.667
		c-16,29.667-40,16.333-40,16.333l-5.765,49.54c-2.325,21.862-4.159,36.555-4.159,36.555l-85.495,899.466h-17.999l86.559-905.955
		l8.65-81.801c0,0-26.536,7.044-34.775-25.64c0,0-3.018-20.704-17.333-18.479c0,0,15.561-11.318,26.624,3.884"/>
	<path fill="none" stroke="#000000" stroke-width="10" stroke-linecap="round" stroke-linejoin="round" stroke-miterlimit="10" d="
		M895.848,218.988c14.452-12.026,25.985,3.512,25.985,3.512c-13.334-5.667-21.333,13.667-21.333,13.667
		c-16,29.667-40,16.333-40,16.333l-5.765,49.54c-2.325,21.862-4.159,36.555-4.159,36.555l-85.495,899.466h-17.999l86.559-905.955
		l8.65-81.801c0,0-26.536,7.044-34.775-25.64c0,0-3.018-20.704-17.333-18.479c0,0,15.561-11.318,26.624,3.884"/>
	
		<path fill="#FBF5B9" stroke="#000000" stroke-width="10" stroke-linecap="round" stroke-linejoin="round" stroke-miterlimit="10" d="
		M847.88,520.041c-1.106-3.615-4.046-5.184-6.879-5.584c-6.667-0.417-18.334,2.376-18.334,2.376s-5.324,1.899-6.991,6.733
		s-6.508,26.101-7.175,31.767s0.999,7.333,2.166,9c1.771,1.698,2.5,5.5,21.167,7.333c0,0,3.916,0.333,6.706-1.85
		c2.419-1.894,2.866-3.911,2.866-3.911c2.487-5.746,4.777-25.07,6.225-32.924c0.623-3.387,1.011-6.554,0.854-9.373
		C848.484,523.609,848.588,522.352,847.88,520.041z"/>
	<g>
		<path fill="#FBF5B9" d="M799.334,556.333c4.323-5.315,6.355-17.257,6.355-17.257l9.312,5.423
			c3.624,1.938,6.826,1.634,10.137-1.045c4.425-3.58,3.213-7.696,2.311-8.811c-2.342-2.888-7.068-8.735-11.313-12.151
			c-9.337-4.142-14.561-7.413-18.124-7.574c-5.017-0.227-7.095,9.915-7.095,9.915s-8.499,20.083-2.916,28.833
			S798.861,556.915,799.334,556.333z"/>
		<path fill="none" stroke="#000000" stroke-width="10" stroke-linecap="round" stroke-linejoin="round" stroke-miterlimit="10" d="
			M790.209,516.544c0,0,2.786-1.852,7.803-1.625c3.563,0.161,8.787,3.434,18.124,7.574c4.243,3.416,8.97,9.264,11.313,12.151
			c0.902,1.114,2.114,5.23-2.311,8.811c-3.311,2.679-6.513,2.981-10.137,1.045l-9.312-5.423c0,0-1.855,12.09-6.355,17.257"/>
	</g>
	<circle fill="#C40619" stroke="#000000" stroke-width="10" stroke-miterlimit="10" cx="858.564" cy="194.675" r="44.5"/>
</g>
</svg>
