<?xml version="1.0" encoding="utf-8"?>
<!-- Generator: Adobe Illustrator 15.1.0, SVG Export Plug-In . SVG Version: 6.00 Build 0)  -->
<!DOCTYPE svg PUBLIC "-//W3C//DTD SVG 1.1//EN" "http://www.w3.org/Graphics/SVG/1.1/DTD/svg11.dtd">
<svg version="1.1" id="Layer_1" xmlns="http://www.w3.org/2000/svg" xmlns:xlink="http://www.w3.org/1999/xlink" x="0px" y="0px"
	 width="1080px" height="1340px" viewBox="0 0 1080 1340" enable-background="new 0 0 1080 1340" xml:space="preserve">
<path fill="#FBF5B9" d="M341.5,788.75l24.206,10.85l1.236,4.411c0,0,6.892,10.822,1.225,23.989c0,0-14.667-10.834-16,0
	s-30-28.4-30-28.4s6.083-10.184,7.083-10.85S341.5,788.75,341.5,788.75z"/>
<path fill="#A6A6E2" stroke="#000000" stroke-width="10" stroke-linecap="round" stroke-linejoin="round" stroke-miterlimit="10" d="
	M353.065,835.521c0,0,27.601,16.146,37.81,100.979H283c0,0,9.5-87.833,30.833-101.833l5.417-15.167C279.5,813.8,267.5,938,267.5,938
	l-9.5,79.5h158l-10.5-81C391,830,357.596,822.715,356.985,823.326C343.438,824.25,353.065,835.521,353.065,835.521z"/>
<path fill="#FBF5B9" stroke="#000000" stroke-width="10" stroke-linecap="round" stroke-linejoin="round" stroke-miterlimit="10" d="
	M358.269,822.126c-7,3-6.741,16.11-1.569,23.059c4.828,12.886-21.69,12.972-39.366,0.149c-16.54-27.725,9.807-58.756,9.807-58.756"
	/>
<path fill="#FBF5B9" stroke="#000000" stroke-width="10" stroke-linecap="round" stroke-linejoin="round" stroke-miterlimit="10" d="
	M366.942,799.6c0,0,8.51,14.2,4.058,28.4"/>
<polygon fill="none" stroke="#000000" stroke-width="10" stroke-linecap="round" stroke-linejoin="round" stroke-miterlimit="10" points="
	336.583,975.833 405.5,936.5 267.638,936.5 "/>
</svg>
