<?xml version="1.0" encoding="utf-8"?>
<!-- Generator: Adobe Illustrator 15.1.0, SVG Export Plug-In . SVG Version: 6.00 Build 0)  -->
<!DOCTYPE svg PUBLIC "-//W3C//DTD SVG 1.1//EN" "http://www.w3.org/Graphics/SVG/1.1/DTD/svg11.dtd">
<svg version="1.1" id="Layer_1" xmlns="http://www.w3.org/2000/svg" xmlns:xlink="http://www.w3.org/1999/xlink" x="0px" y="0px"
	 width="500px" height="500px" viewBox="290.342 976.732 500 500" enable-background="new 290.342 976.732 500 500"
	 xml:space="preserve">
<g>
	
		<path fill="#685E82" stroke="#000000" stroke-width="10" stroke-linecap="round" stroke-linejoin="round" stroke-miterlimit="10" d="
		M645.484,1201.5c0,0,57.698,20.166,60.783,40.061c3.086,19.896-29.486,18.107-45.97,16.558S583.382,1233,583.382,1233l-0.17-32.281
		C596.851,1209.396,638.75,1216.564,645.484,1201.5z"/>
	
		<path fill="#685E82" stroke="#000000" stroke-width="10" stroke-linecap="round" stroke-linejoin="round" stroke-miterlimit="10" d="
		M624.5,1221.5c0,0-13.643-14.472,20.342-25.1c26.165-8.183,18.04,12.289,18.04,12.289"/>
	<path fill="none" stroke="#EDBD52" stroke-width="10" stroke-linecap="round" stroke-linejoin="round" stroke-miterlimit="10" d="
		M642.935,1229.856c0,0,2.722-16.356,29.644-15.856"/>
	
		<path fill="#685E82" stroke="#000000" stroke-width="10" stroke-linecap="round" stroke-linejoin="round" stroke-miterlimit="10" d="
		M435.199,1201.5c0,0-57.697,20.166-60.783,40.061c-3.086,19.896,29.486,18.107,45.971,16.558
		c16.482-1.55,76.916-25.118,76.916-25.118l0.17-32.281C483.834,1209.396,441.934,1216.564,435.199,1201.5z"/>
	
		<path fill="#685E82" stroke="#000000" stroke-width="10" stroke-linecap="round" stroke-linejoin="round" stroke-miterlimit="10" d="
		M456.184,1221.5c0,0,13.643-14.472-20.342-25.1c-26.164-8.183-18.039,12.289-18.039,12.289"/>
	<path fill="none" stroke="#EDBD52" stroke-width="10" stroke-linecap="round" stroke-linejoin="round" stroke-miterlimit="10" d="
		M437.75,1229.856c0,0-2.723-16.356-29.645-15.856"/>
</g>
</svg>
