<?xml version="1.0" encoding="utf-8"?>
<!-- Generator: Adobe Illustrator 15.1.0, SVG Export Plug-In . SVG Version: 6.00 Build 0)  -->
<!DOCTYPE svg PUBLIC "-//W3C//DTD SVG 1.1//EN" "http://www.w3.org/Graphics/SVG/1.1/DTD/svg11.dtd">
<svg version="1.1" id="Layer_1" xmlns="http://www.w3.org/2000/svg" xmlns:xlink="http://www.w3.org/1999/xlink" x="0px" y="0px"
	 width="500px" height="500px" viewBox="290.462 928.045 500 500" enable-background="new 290.462 928.045 500 500"
	 xml:space="preserve">
<g>
	
		<polygon fill="#FFDA00" stroke="#000000" stroke-width="10" stroke-linecap="round" stroke-linejoin="round" stroke-miterlimit="10" points="
		574.013,1173.548 582.178,1188.941 600.429,1191.405 587.227,1203.39 590.349,1220.31 574.022,1212.324 557.702,1220.316 
		560.813,1203.396 547.605,1191.417 565.854,1188.944 	"/>
	
		<path fill="#662808" stroke="#000000" stroke-width="10" stroke-linecap="round" stroke-linejoin="round" stroke-miterlimit="10" d="
		M643.679,1193c0,0,51.339,40.5,80.272,15.5c5.549,42-28.934,56-63.653,49.618c-16.283-2.993-76.916-25.118-76.916-25.118
		l0.83-136.5h61.436L643.679,1193z"/>
	
		<polygon fill="#FFDA00" stroke="#000000" stroke-width="10" stroke-linecap="round" stroke-linejoin="round" stroke-miterlimit="10" points="
		507.013,1173.548 515.178,1188.941 533.429,1191.405 520.227,1203.39 523.349,1220.31 507.022,1212.324 490.702,1220.316 
		493.813,1203.396 480.605,1191.417 498.854,1188.944 	"/>
	
		<path fill="#662808" stroke="#000000" stroke-width="10" stroke-linecap="round" stroke-linejoin="round" stroke-miterlimit="10" d="
		M437.245,1193c0,0-51.339,40.5-80.272,15.5c-5.549,42,28.934,56,63.653,49.618c16.283-2.993,76.916-25.118,76.916-25.118
		l-0.83-136.5h-61.436L437.245,1193z"/>
</g>
</svg>
