<?xml version="1.0" encoding="utf-8"?>
<!-- Generator: Adobe Illustrator 15.1.0, SVG Export Plug-In . SVG Version: 6.00 Build 0)  -->
<!DOCTYPE svg PUBLIC "-//W3C//DTD SVG 1.1//EN" "http://www.w3.org/Graphics/SVG/1.1/DTD/svg11.dtd">
<svg version="1.1" id="Layer_1" xmlns="http://www.w3.org/2000/svg" xmlns:xlink="http://www.w3.org/1999/xlink" x="0px" y="0px"
	 width="500px" height="500px" viewBox="289.964 620.313 500 500" enable-background="new 289.964 620.313 500 500"
	 xml:space="preserve">
<g>
	<g>
		
			<path fill="#E7B7F9" stroke="#000000" stroke-width="10" stroke-linecap="round" stroke-linejoin="round" stroke-miterlimit="10" d="
			M550.5,751.5h106.345c0,0,21.655,182,30.655,204c4.487,10.969-66.094,12.74-138.005,11.759"/>
		
			<path fill="#E7B7F9" stroke="#000000" stroke-width="10" stroke-linecap="round" stroke-linejoin="round" stroke-miterlimit="10" d="
			M552.5,967.493c-71.911,0.98-163.288-1.024-158.801-11.993c9-22,30.654-204,30.654-204H540h10.5"/>
	</g>
	
		<path fill="#E7B7F9" stroke="#000000" stroke-width="10" stroke-linecap="round" stroke-linejoin="round" stroke-miterlimit="10" d="
		M394.291,953.876c0,0-18.125,45.291,25.542,9.958c0,0,10.833,45.498,36.667,3.659c0,0,18,48.674,34.157,0
		c0,0,12.177,44.674,32.343,0.221c0,0,15.5,46.214,35.5,0c0,0,20.333,47.12,33-0.221c0,0,16.527,48.234,34,0
		c0,0,28.68,42.833,33.667,0c0,0,40.408,25.384,27.741-13.617"/>
</g>
</svg>
