<?xml version="1.0" encoding="utf-8"?>
<!-- Generator: Adobe Illustrator 15.1.0, SVG Export Plug-In . SVG Version: 6.00 Build 0)  -->
<!DOCTYPE svg PUBLIC "-//W3C//DTD SVG 1.1//EN" "http://www.w3.org/Graphics/SVG/1.1/DTD/svg11.dtd">
<svg version="1.1" id="Layer_1" xmlns="http://www.w3.org/2000/svg" xmlns:xlink="http://www.w3.org/1999/xlink" x="0px" y="0px"
	 width="1080px" height="1340px" viewBox="0 0 1080 1340" enable-background="new 0 0 1080 1340" xml:space="preserve">
<g>
	<g>
		
			<path fill="#5076FF" stroke="#000000" stroke-width="10" stroke-linecap="round" stroke-linejoin="round" stroke-miterlimit="10" d="
			M550.5,751.5h106.345c0,0,21.655,182,30.655,204c4.487,10.969-66.094,12.74-138.005,11.759"/>
		
			<path fill="#5076FF" stroke="#000000" stroke-width="10" stroke-linecap="round" stroke-linejoin="round" stroke-miterlimit="10" d="
			M550.5,751.5H540H424.354c0,0-21.655,182-30.655,204c-4.487,10.969,86.89,12.975,158.801,11.993"/>
	</g>
	
		<path fill="#5076FF" stroke="#000000" stroke-width="10" stroke-linecap="round" stroke-linejoin="round" stroke-miterlimit="10" d="
		M421.301,809.632c0,0,51.719,7.535,55.199-28.131"/>
	
		<path fill="#5076FF" stroke="#000000" stroke-width="10" stroke-linecap="round" stroke-linejoin="round" stroke-miterlimit="10" d="
		M659.898,809.632c0,0-51.719,7.535-55.199-28.131"/>
	
		<line fill="#5076FF" stroke="#000000" stroke-width="10" stroke-linecap="round" stroke-linejoin="round" stroke-miterlimit="10" x1="421.301" y1="776.5" x2="659.898" y2="776.5"/>
	<g>
		
			<line fill="#5076FF" stroke="#000000" stroke-width="10" stroke-linecap="round" stroke-linejoin="round" stroke-miterlimit="10" x1="540.6" y1="751.5" x2="540.6" y2="775.334"/>
		<g>
			
				<line fill="#5076FF" stroke="#000000" stroke-width="10" stroke-linecap="round" stroke-linejoin="round" stroke-miterlimit="10" x1="572.833" y1="751.5" x2="572.833" y2="775.334"/>
			
				<line fill="#5076FF" stroke="#000000" stroke-width="10" stroke-linecap="round" stroke-linejoin="round" stroke-miterlimit="10" x1="604" y1="751.5" x2="604" y2="775.334"/>
			
				<line fill="#5076FF" stroke="#000000" stroke-width="10" stroke-linecap="round" stroke-linejoin="round" stroke-miterlimit="10" x1="635.5" y1="751.5" x2="635.5" y2="775.334"/>
		</g>
		<g>
			
				<line fill="#5076FF" stroke="#000000" stroke-width="10" stroke-linecap="round" stroke-linejoin="round" stroke-miterlimit="10" x1="509.333" y1="751.5" x2="509.333" y2="775.334"/>
			
				<line fill="#5076FF" stroke="#000000" stroke-width="10" stroke-linecap="round" stroke-linejoin="round" stroke-miterlimit="10" x1="478.167" y1="751.5" x2="478.167" y2="775.334"/>
			
				<line fill="#5076FF" stroke="#000000" stroke-width="10" stroke-linecap="round" stroke-linejoin="round" stroke-miterlimit="10" x1="446.667" y1="751.5" x2="446.667" y2="775.334"/>
		</g>
	</g>
</g>
</svg>
