<?xml version="1.0" encoding="utf-8"?>
<!-- Generator: Adobe Illustrator 15.1.0, SVG Export Plug-In . SVG Version: 6.00 Build 0)  -->
<!DOCTYPE svg PUBLIC "-//W3C//DTD SVG 1.1//EN" "http://www.w3.org/Graphics/SVG/1.1/DTD/svg11.dtd">
<svg version="1.1" id="Layer_1" xmlns="http://www.w3.org/2000/svg" xmlns:xlink="http://www.w3.org/1999/xlink" x="0px" y="0px"
	 width="510px" height="510px" viewBox="285.365 842.736 510 510" enable-background="new 285.365 842.736 510 510"
	 xml:space="preserve">
<g>
	<g>
		<path id="kolor_1_" fill="#3C8736" d="M583.299,1022.501L583.327,1233c0,0,60.436,23.566,76.917,25.117
			c16.482,1.551,47.056,3.338,43.971-16.558c-3.085-19.895-60.784-40.061-60.784-40.061l4.149-179.014l1.975-86.007h-66.256
			V1022.501z"/>
		<g id="wzor_1_">
			<g>
				
					<line fill="#FFE500" stroke="#FEED5E" stroke-width="10" stroke-linecap="round" stroke-linejoin="round" stroke-miterlimit="10" x1="587" y1="975.5" x2="643.865" y2="975.5"/>
				
					<line fill="#FFE500" stroke="#EF4354" stroke-width="10" stroke-linecap="round" stroke-linejoin="round" stroke-miterlimit="10" x1="587" y1="998.167" x2="643.865" y2="998.167"/>
				
					<line fill="#FFE500" stroke="#EA9F31" stroke-width="10" stroke-linecap="round" stroke-linejoin="round" stroke-miterlimit="10" x1="588" y1="1020.167" x2="643.865" y2="1020.167"/>
			</g>
			<g>
				
					<line fill="#FFE500" stroke="#FEED5E" stroke-width="10" stroke-linecap="round" stroke-linejoin="round" stroke-miterlimit="10" x1="587" y1="1042.5" x2="643.865" y2="1042.5"/>
				
					<line fill="#FFE500" stroke="#EF4354" stroke-width="10" stroke-linecap="round" stroke-linejoin="round" stroke-miterlimit="10" x1="587" y1="1065.167" x2="643.865" y2="1065.167"/>
				
					<line fill="#FFE500" stroke="#EA9F31" stroke-width="10" stroke-linecap="round" stroke-linejoin="round" stroke-miterlimit="10" x1="588" y1="1087.167" x2="643.865" y2="1087.167"/>
			</g>
			<g>
				
					<line fill="#FFE500" stroke="#FEED5E" stroke-width="10" stroke-linecap="round" stroke-linejoin="round" stroke-miterlimit="10" x1="587" y1="1108.5" x2="643.865" y2="1108.5"/>
				
					<line fill="#FFE500" stroke="#EF4354" stroke-width="10" stroke-linecap="round" stroke-linejoin="round" stroke-miterlimit="10" x1="587" y1="1131.167" x2="643.865" y2="1131.167"/>
				
					<line fill="#FFE500" stroke="#EA9F31" stroke-width="10" stroke-linecap="round" stroke-linejoin="round" stroke-miterlimit="10" x1="588" y1="1153.167" x2="643.865" y2="1153.167"/>
			</g>
			
				<line fill="#FFE500" stroke="#FEED5E" stroke-width="10" stroke-linecap="round" stroke-linejoin="round" stroke-miterlimit="10" x1="587" y1="1174.5" x2="643.865" y2="1174.5"/>
			
				<line fill="#FFE500" stroke="#EF4354" stroke-width="10" stroke-linecap="round" stroke-linejoin="round" stroke-miterlimit="10" x1="587" y1="1197.167" x2="642.25" y2="1197.167"/>
			
				<line fill="#FFE500" stroke="#EA9F31" stroke-width="10" stroke-linecap="round" stroke-linejoin="round" stroke-miterlimit="10" x1="588" y1="1219.167" x2="678.5" y2="1219.167"/>
			
				<line fill="#FFE500" stroke="#FEED5E" stroke-width="10" stroke-linecap="round" stroke-linejoin="round" stroke-miterlimit="10" x1="606.75" y1="1240.5" x2="702" y2="1240.5"/>
		</g>
		
			<path id="kontor_1_" fill="none" stroke="#000000" stroke-width="10" stroke-linecap="round" stroke-linejoin="round" stroke-miterlimit="10" d="
			M583.299,1022.501L583.327,1233c0,0,60.436,23.566,76.917,25.117c16.482,1.551,47.056,3.338,43.971-16.558
			c-3.085-19.895-60.784-40.061-60.784-40.061l4.149-179.014l1.975-86.007h-66.256V1022.501z"/>
		<g>
			
				<line fill="none" stroke="#000000" stroke-width="10" stroke-linecap="round" stroke-linejoin="round" stroke-miterlimit="10" x1="648.268" y1="955.834" x2="584.301" y2="955.834"/>
			
				<line fill="none" stroke="#000000" stroke-width="10" stroke-linecap="round" stroke-linejoin="round" stroke-miterlimit="10" x1="622.884" y1="937.485" x2="622.884" y2="955.834"/>
			
				<line fill="none" stroke="#000000" stroke-width="10" stroke-linecap="round" stroke-linejoin="round" stroke-miterlimit="10" x1="635.884" y1="937.485" x2="635.884" y2="955.834"/>
			
				<line fill="none" stroke="#000000" stroke-width="10" stroke-linecap="round" stroke-linejoin="round" stroke-miterlimit="10" x1="596.884" y1="937.485" x2="596.884" y2="955.834"/>
			
				<line fill="none" stroke="#000000" stroke-width="10" stroke-linecap="round" stroke-linejoin="round" stroke-miterlimit="10" x1="609.884" y1="937.485" x2="609.884" y2="955.834"/>
		</g>
	</g>
	<g>
		<path id="kolor_2_" fill="#3C8736" d="M497.432,1022.501L497.403,1233c0,0-60.436,23.566-76.917,25.117
			c-16.482,1.551-47.056,3.338-43.971-16.558c3.085-19.895,60.784-40.061,60.784-40.061l-4.149-179.014l-1.975-86.007h66.256
			V1022.501z"/>
		<g id="wzor_2_">
			<g>
				
					<line fill="#FFE500" stroke="#FEED5E" stroke-width="10" stroke-linecap="round" stroke-linejoin="round" stroke-miterlimit="10" x1="493.73" y1="975.5" x2="436.865" y2="975.5"/>
				
					<line fill="#FFE500" stroke="#EF4354" stroke-width="10" stroke-linecap="round" stroke-linejoin="round" stroke-miterlimit="10" x1="493.73" y1="998.167" x2="436.865" y2="998.167"/>
				
					<line fill="#FFE500" stroke="#EA9F31" stroke-width="10" stroke-linecap="round" stroke-linejoin="round" stroke-miterlimit="10" x1="492.73" y1="1020.167" x2="436.865" y2="1020.167"/>
			</g>
			<g>
				
					<line fill="#FFE500" stroke="#FEED5E" stroke-width="10" stroke-linecap="round" stroke-linejoin="round" stroke-miterlimit="10" x1="493.73" y1="1042.5" x2="436.865" y2="1042.5"/>
				
					<line fill="#FFE500" stroke="#EF4354" stroke-width="10" stroke-linecap="round" stroke-linejoin="round" stroke-miterlimit="10" x1="493.73" y1="1065.167" x2="436.865" y2="1065.167"/>
				
					<line fill="#FFE500" stroke="#EA9F31" stroke-width="10" stroke-linecap="round" stroke-linejoin="round" stroke-miterlimit="10" x1="492.73" y1="1087.167" x2="436.865" y2="1087.167"/>
			</g>
			<g>
				
					<line fill="#FFE500" stroke="#FEED5E" stroke-width="10" stroke-linecap="round" stroke-linejoin="round" stroke-miterlimit="10" x1="493.73" y1="1108.5" x2="436.865" y2="1108.5"/>
				
					<line fill="#FFE500" stroke="#EF4354" stroke-width="10" stroke-linecap="round" stroke-linejoin="round" stroke-miterlimit="10" x1="493.73" y1="1131.167" x2="436.865" y2="1131.167"/>
				
					<line fill="#FFE500" stroke="#EA9F31" stroke-width="10" stroke-linecap="round" stroke-linejoin="round" stroke-miterlimit="10" x1="492.73" y1="1153.167" x2="436.865" y2="1153.167"/>
			</g>
			
				<line fill="#FFE500" stroke="#FEED5E" stroke-width="10" stroke-linecap="round" stroke-linejoin="round" stroke-miterlimit="10" x1="493.73" y1="1174.5" x2="436.865" y2="1174.5"/>
			
				<line fill="#FFE500" stroke="#EF4354" stroke-width="10" stroke-linecap="round" stroke-linejoin="round" stroke-miterlimit="10" x1="493.73" y1="1197.167" x2="438.48" y2="1197.167"/>
			
				<line fill="#FFE500" stroke="#EA9F31" stroke-width="10" stroke-linecap="round" stroke-linejoin="round" stroke-miterlimit="10" x1="492.73" y1="1219.167" x2="402.23" y2="1219.167"/>
			
				<line fill="#FFE500" stroke="#FEED5E" stroke-width="10" stroke-linecap="round" stroke-linejoin="round" stroke-miterlimit="10" x1="473.98" y1="1240.5" x2="378.73" y2="1240.5"/>
		</g>
		
			<path id="kontor_2_" fill="none" stroke="#000000" stroke-width="10" stroke-linecap="round" stroke-linejoin="round" stroke-miterlimit="10" d="
			M497.432,1022.501L497.403,1233c0,0-60.436,23.566-76.917,25.117c-16.482,1.551-47.056,3.338-43.971-16.558
			c3.085-19.895,60.784-40.061,60.784-40.061l-4.149-179.014l-1.975-86.007h66.256V1022.501z"/>
		<g>
			
				<line fill="none" stroke="#000000" stroke-width="10" stroke-linecap="round" stroke-linejoin="round" stroke-miterlimit="10" x1="432.463" y1="955.834" x2="496.43" y2="955.834"/>
			
				<line fill="none" stroke="#000000" stroke-width="10" stroke-linecap="round" stroke-linejoin="round" stroke-miterlimit="10" x1="457.847" y1="937.485" x2="457.847" y2="955.834"/>
			
				<line fill="none" stroke="#000000" stroke-width="10" stroke-linecap="round" stroke-linejoin="round" stroke-miterlimit="10" x1="444.847" y1="937.485" x2="444.847" y2="955.834"/>
			
				<line fill="none" stroke="#000000" stroke-width="10" stroke-linecap="round" stroke-linejoin="round" stroke-miterlimit="10" x1="483.847" y1="937.485" x2="483.847" y2="955.834"/>
			
				<line fill="none" stroke="#000000" stroke-width="10" stroke-linecap="round" stroke-linejoin="round" stroke-miterlimit="10" x1="470.847" y1="937.485" x2="470.847" y2="955.834"/>
		</g>
	</g>
</g>
</svg>
