<?xml version="1.0" encoding="utf-8"?>
<!-- Generator: Adobe Illustrator 15.1.0, SVG Export Plug-In . SVG Version: 6.00 Build 0)  -->
<!DOCTYPE svg PUBLIC "-//W3C//DTD SVG 1.1//EN" "http://www.w3.org/Graphics/SVG/1.1/DTD/svg11.dtd">
<svg version="1.1" id="Layer_1" xmlns="http://www.w3.org/2000/svg" xmlns:xlink="http://www.w3.org/1999/xlink" x="0px" y="0px"
	 width="500px" height="500px" viewBox="290.483 378.529 500 500" enable-background="new 290.483 378.529 500 500"
	 xml:space="preserve">
<g id="Layer_4" display="none">
	<rect x="-4.5" y="-295.326" display="inline" fill="#FFE9AB" width="1080" height="1920"/>
</g>
<g id="Layer_1_1_" display="none">
	<ellipse display="inline" fill="#005732" cx="540.083" cy="1245" rx="242.387" ry="31"/>
	<g display="inline">

			<path fill="#005732" stroke="#000000" stroke-width="10" stroke-linecap="round" stroke-linejoin="round" stroke-miterlimit="10" d="
			M327.141,786.578c17.041-61.859,58.59-219.858,66.011-251.22c8.31-35.115,34.722-53.751,60.384-62.75
			c12.34-4.327,26.81-4.902,38.98-5.608C504.689,466.293,509,452,509,448.5s0-19.5,0-19.5h64c0,0,0,16,0,19.5
			s5.098,17.793,17.271,18.5c12.172,0.707,24.941,1.281,37.281,5.608c25.662,8.999,51.816,27.635,60.127,62.75
			c7.42,31.359,48.839,189.358,65.88,251.22c0,0,21.948,47.104,5.409,74.824c-19.747,33.098-38.777,7.098-35.777-5.902
			c3.966-17.184,4.981-31-2.019-34s-6.844,30-18.844,28s11.304-49.9,11.304-49.9c-18.695-62.614-75.847-244.389-75.847-244.389
			L653.573,761l-10.089,440.5c0,0,57.697,20.166,60.782,40.061c3.087,19.896-27.485,18.107-43.97,16.559S583.382,1233,583.382,1233
			l-0.17-334.281c0-30.77-14.092-65.719-42.925-65.719c-28.834,0-42.801,34.949-42.801,65.719L497.44,1233
			c0,0-60.437,23.566-76.917,25.117c-16.482,1.551-47.057,3.338-43.972-16.559c3.085-19.895,60.784-40.061,60.784-40.061
			L427.125,761l15.662-205.789c0,0-57.147,181.772-75.845,244.389c0,0,23.308,47.9,11.308,49.9s-11.835-31-18.835-28
			s-5.967,16.816-2.001,34c3,13-15.999,39-35.746,5.902C305.128,833.681,327.141,786.578,327.141,786.578z"/>
		<g>
			<path fill="#005732" stroke="#000000" stroke-width="10" stroke-miterlimit="10" d="M636.75,259.036
				c0-48.345-37.412-87.036-97.566-87.036C479.027,172,443,210,443,259.036v68.43c0,48.702,37.029,108.036,95.279,108.036
				c58.248,0,97.505-59.69,97.505-108.036L636.75,259.036z"/>
			<g>
				<path fill="#005732" stroke="#000000" stroke-width="10" stroke-miterlimit="10" d="M637,338.594
					c14,0,24.418-10.933,24.418-24.418S651,289.758,637,289.758V338.594z"/>
				<path fill="#005732" stroke="#000000" stroke-width="10" stroke-miterlimit="10" d="M441,289.758
					c-14,0-24.418,10.934-24.418,24.418c0,13.486,10.418,24.419,24.418,24.419V289.758z"/>
			</g>
		</g>
	</g>
	<path display="inline" fill="#005732" stroke="#000000" stroke-width="10" stroke-miterlimit="10" d="M-6021.306-5894.964
		c0-48.345-37.384-87.536-97.539-87.536S-6215-5945-6215-5895.964v68.431c0,48.702,37.002,108.536,95.251,108.536
		s97.491-59.191,97.491-107.536L-6021.306-5894.964z"/>
</g>
<g id="Layer_3">

		<path fill="#005732" stroke="#000000" stroke-width="10" stroke-linecap="round" stroke-linejoin="round" stroke-miterlimit="10" d="
		M756.107,775.508c0,0-66.021-257.036-80.884-274.677C646.966,467.283,590.824,464,590.824,464s-4.228,22-50.358,22
		s-50.358-22-50.358-22s-56.106,3.283-84.365,36.831c-14.86,17.642-80.882,274.677-80.882,274.677l47.336,17.55l70.598-237.847
		L427.15,760.662l226.585-0.382l0.081,0.382l-15.68-205.451l70.635,237.847L756.107,775.508z"/>

</g>
</svg>
