<?xml version="1.0" encoding="utf-8"?>
<!-- Generator: Adobe Illustrator 15.1.0, SVG Export Plug-In . SVG Version: 6.00 Build 0)  -->
<!DOCTYPE svg PUBLIC "-//W3C//DTD SVG 1.1//EN" "http://www.w3.org/Graphics/SVG/1.1/DTD/svg11.dtd">
<svg version="1.1" id="Layer_1" xmlns="http://www.w3.org/2000/svg" xmlns:xlink="http://www.w3.org/1999/xlink" x="0px" y="0px"
	 width="1080px" height="1340px" viewBox="0 0 1080 1340" enable-background="new 0 0 1080 1340" xml:space="preserve">
<path fill="#005732" stroke="#000000" stroke-width="10" stroke-linecap="round" stroke-linejoin="round" stroke-miterlimit="10" d="
	M762.929,564.375l-49.424,66.154c0,0-29.729-119.922-36.28-127.698c-28.258-33.548-86.4-38.831-86.4-38.831s-4.227,22-50.358,22
	s-50.358-22-50.358-22s-56.107,3.283-84.366,36.831c-14.86,17.642-80.882,274.677-80.882,274.677l47.336,17.55l70.598-237.847
	L427.15,760.662l226.585-0.382l0.081,0.382l-16.438-205.539c0,0,13.957,51.891,29.047,103.782
	c5.646,19.416,37.075,80.594,86.102,4.152c20.998-32.74,44.152-68.691,44.152-68.691L762.929,564.375z"/>
</svg>
