<?xml version="1.0" encoding="utf-8"?>
<!-- Generator: Adobe Illustrator 15.1.0, SVG Export Plug-In . SVG Version: 6.00 Build 0)  -->
<!DOCTYPE svg PUBLIC "-//W3C//DTD SVG 1.1//EN" "http://www.w3.org/Graphics/SVG/1.1/DTD/svg11.dtd">
<svg version="1.1" id="Layer_1" xmlns="http://www.w3.org/2000/svg" xmlns:xlink="http://www.w3.org/1999/xlink" x="0px" y="0px"
	 width="1080px" height="1340px" viewBox="0 0 1080 1340" enable-background="new 0 0 1080 1340" xml:space="preserve">
<g>
	<g id="kolor">
		<path fill="#BAE2F7" d="M583.299,1022.501L583.327,1233c0,0,60.436,23.566,76.917,25.117c16.482,1.551,47.056,3.338,43.971-16.558
			c-3.085-19.895-60.784-40.061-60.784-40.061l4.149-179.014L653.573,761H540.324L540,830.5c0,0,41.5,4.5,43,62
			S583.299,1022.501,583.299,1022.501z"/>
		<path fill="#BAE2F7" d="M497.133,1022.501L497.104,1233c0,0-60.436,23.566-76.917,25.117
			c-16.482,1.551-47.056,3.338-43.971-16.558c3.085-19.895,60.784-40.061,60.784-40.061l-4.149-179.014L426.858,761h113.249
			l0.324,69.5c0,0-41.5,4.5-43,62S497.133,1022.501,497.133,1022.501z"/>
	</g>
	<g id="wzor">
		<g>
			<circle fill="#1124D3" cx="539.884" cy="817.45" r="7.616"/>
			<circle fill="#1124D3" cx="539.884" cy="770.45" r="7.616"/>
		</g>
		<g>
			<circle fill="#1124D3" cx="606.884" cy="1193.45" r="7.616"/>
			<circle fill="#1124D3" cx="636.884" cy="1193.45" r="7.616"/>
			<circle fill="#1124D3" cx="697.884" cy="1239.45" r="7.616"/>
			<g>
				<circle fill="#1124D3" cx="651.884" cy="1216.45" r="7.616"/>
				<circle fill="#1124D3" cx="591.884" cy="1216.45" r="7.616"/>
				<circle fill="#1124D3" cx="621.884" cy="1216.45" r="7.616"/>
			</g>
			<g>
				<circle fill="#1124D3" cx="666.884" cy="1239.45" r="7.616"/>
				<circle fill="#1124D3" cx="606.884" cy="1239.45" r="7.616"/>
				<circle fill="#1124D3" cx="636.884" cy="1239.45" r="7.616"/>
			</g>
			<g>
				<g>
					<circle fill="#1124D3" cx="636.884" cy="1146.45" r="7.616"/>
					<circle fill="#1124D3" cx="606.884" cy="1146.45" r="7.616"/>
					<circle fill="#1124D3" cx="591.884" cy="1169.45" r="7.616"/>
					<circle fill="#1124D3" cx="621.884" cy="1169.45" r="7.616"/>
				</g>
				<g>
					<circle fill="#1124D3" cx="636.884" cy="1099.45" r="7.616"/>
					<circle fill="#1124D3" cx="606.884" cy="1099.45" r="7.616"/>
					<circle fill="#1124D3" cx="591.884" cy="1122.45" r="7.616"/>
					<circle fill="#1124D3" cx="621.884" cy="1122.45" r="7.616"/>
				</g>
				<g>
					<circle fill="#1124D3" cx="636.884" cy="1052.45" r="7.616"/>
					<circle fill="#1124D3" cx="606.884" cy="1052.45" r="7.616"/>
					<circle fill="#1124D3" cx="591.884" cy="1075.45" r="7.616"/>
					<circle fill="#1124D3" cx="621.884" cy="1075.45" r="7.616"/>
				</g>
			</g>
			<g>
				<g>
					<circle fill="#1124D3" cx="638.884" cy="1006.45" r="7.616"/>
					<circle fill="#1124D3" cx="608.884" cy="1006.45" r="7.616"/>
					<circle fill="#1124D3" cx="593.884" cy="1029.45" r="7.616"/>
					<circle fill="#1124D3" cx="623.884" cy="1029.45" r="7.616"/>
				</g>
				<g>
					<circle fill="#1124D3" cx="638.884" cy="959.45" r="7.616"/>
					<circle fill="#1124D3" cx="608.884" cy="959.45" r="7.616"/>
					<circle fill="#1124D3" cx="593.884" cy="982.45" r="7.616"/>
					<circle fill="#1124D3" cx="623.884" cy="982.45" r="7.616"/>
				</g>
				<g>
					<circle fill="#1124D3" cx="638.884" cy="912.45" r="7.616"/>
					<circle fill="#1124D3" cx="608.884" cy="912.45" r="7.616"/>
					<circle fill="#1124D3" cx="593.884" cy="935.45" r="7.616"/>
					<circle fill="#1124D3" cx="623.884" cy="935.45" r="7.616"/>
				</g>
			</g>
			<circle fill="#1124D3" cx="639.884" cy="864.45" r="7.616"/>
			<circle fill="#1124D3" cx="608.884" cy="864.45" r="7.616"/>
			<circle fill="#1124D3" cx="593.884" cy="887.45" r="7.616"/>
			<circle fill="#1124D3" cx="624.884" cy="887.45" r="7.616"/>
			<circle fill="#1124D3" cx="640.884" cy="817.45" r="7.616"/>
			<circle fill="#1124D3" cx="625.884" cy="840.45" r="7.616"/>
			<circle fill="#1124D3" cx="640.884" cy="770.45" r="7.616"/>
			<circle fill="#1124D3" cx="626.884" cy="793.45" r="7.616"/>
			<g>
				<circle fill="#1124D3" cx="609.884" cy="817.45" r="7.616"/>
				<circle fill="#1124D3" cx="594.884" cy="840.45" r="7.616"/>
				<circle fill="#1124D3" cx="609.884" cy="770.45" r="7.616"/>
				<circle fill="#1124D3" cx="594.884" cy="793.45" r="7.616"/>
			</g>
			<circle fill="#1124D3" cx="565.884" cy="840.45" r="7.616"/>
			<circle fill="#1124D3" cx="577.884" cy="817.45" r="7.616"/>
			<circle fill="#1124D3" cx="577.884" cy="770.45" r="7.616"/>
			<circle fill="#1124D3" cx="560.884" cy="793.45" r="7.616"/>
		</g>
		<g>
			<circle fill="#1124D3" cx="471.884" cy="1193.45" r="7.616"/>
			<circle fill="#1124D3" cx="441.884" cy="1193.45" r="7.616"/>
			<circle fill="#1124D3" cx="380.884" cy="1239.45" r="7.616"/>
			<g>
				<circle fill="#1124D3" cx="426.884" cy="1216.45" r="7.616"/>
				<circle fill="#1124D3" cx="486.884" cy="1216.45" r="7.616"/>
				<circle fill="#1124D3" cx="456.884" cy="1216.45" r="7.616"/>
			</g>
			<g>
				<circle fill="#1124D3" cx="411.884" cy="1239.45" r="7.616"/>
				<circle fill="#1124D3" cx="471.884" cy="1239.45" r="7.616"/>
				<circle fill="#1124D3" cx="441.884" cy="1239.45" r="7.616"/>
			</g>
			<g>
				<g>
					<circle fill="#1124D3" cx="441.884" cy="1146.45" r="7.616"/>
					<circle fill="#1124D3" cx="471.884" cy="1146.45" r="7.616"/>
					<circle fill="#1124D3" cx="486.884" cy="1169.45" r="7.616"/>
					<circle fill="#1124D3" cx="456.884" cy="1169.45" r="7.616"/>
				</g>
				<g>
					<circle fill="#1124D3" cx="441.884" cy="1099.45" r="7.616"/>
					<circle fill="#1124D3" cx="471.884" cy="1099.45" r="7.616"/>
					<circle fill="#1124D3" cx="486.884" cy="1122.45" r="7.616"/>
					<circle fill="#1124D3" cx="456.884" cy="1122.45" r="7.616"/>
				</g>
				<g>
					<circle fill="#1124D3" cx="441.884" cy="1052.45" r="7.616"/>
					<circle fill="#1124D3" cx="471.884" cy="1052.45" r="7.616"/>
					<circle fill="#1124D3" cx="486.884" cy="1075.45" r="7.616"/>
					<circle fill="#1124D3" cx="456.884" cy="1075.45" r="7.616"/>
				</g>
			</g>
			<g>
				<g>
					<circle fill="#1124D3" cx="439.884" cy="1006.45" r="7.616"/>
					<circle fill="#1124D3" cx="469.884" cy="1006.45" r="7.616"/>
					<circle fill="#1124D3" cx="484.884" cy="1029.45" r="7.616"/>
					<circle fill="#1124D3" cx="454.884" cy="1029.45" r="7.616"/>
				</g>
				<g>
					<circle fill="#1124D3" cx="439.884" cy="959.45" r="7.616"/>
					<circle fill="#1124D3" cx="469.884" cy="959.45" r="7.616"/>
					<circle fill="#1124D3" cx="484.884" cy="982.45" r="7.616"/>
					<circle fill="#1124D3" cx="454.884" cy="982.45" r="7.616"/>
				</g>
				<g>
					<circle fill="#1124D3" cx="439.884" cy="912.45" r="7.616"/>
					<circle fill="#1124D3" cx="469.884" cy="912.45" r="7.616"/>
					<circle fill="#1124D3" cx="484.884" cy="935.45" r="7.616"/>
					<circle fill="#1124D3" cx="454.884" cy="935.45" r="7.616"/>
				</g>
			</g>
			<circle fill="#1124D3" cx="438.884" cy="864.45" r="7.616"/>
			<circle fill="#1124D3" cx="469.884" cy="864.45" r="7.616"/>
			<circle fill="#1124D3" cx="484.884" cy="887.45" r="7.616"/>
			<circle fill="#1124D3" cx="453.884" cy="887.45" r="7.616"/>
			<circle fill="#1124D3" cx="437.884" cy="817.45" r="7.616"/>
			<circle fill="#1124D3" cx="452.884" cy="840.45" r="7.616"/>
			<circle fill="#1124D3" cx="437.884" cy="770.45" r="7.616"/>
			<circle fill="#1124D3" cx="451.884" cy="793.45" r="7.616"/>
			<g>
				<circle fill="#1124D3" cx="468.884" cy="817.45" r="7.616"/>
				<circle fill="#1124D3" cx="483.884" cy="840.45" r="7.616"/>
				<circle fill="#1124D3" cx="468.884" cy="770.45" r="7.616"/>
				<circle fill="#1124D3" cx="483.884" cy="793.45" r="7.616"/>
			</g>
			<circle fill="#1124D3" cx="512.884" cy="840.45" r="7.616"/>
			<circle fill="#1124D3" cx="500.884" cy="817.45" r="7.616"/>
			<circle fill="#1124D3" cx="500.884" cy="770.45" r="7.616"/>
			<circle fill="#1124D3" cx="517.884" cy="793.45" r="7.616"/>
		</g>
	</g>
	
		<path id="kontor" fill="none" stroke="#000000" stroke-width="10" stroke-linecap="round" stroke-linejoin="round" stroke-miterlimit="10" d="
		M540.324,831.704c0,0-41.393,3.296-42.893,60.796s-0.299,130.001-0.299,130.001L497.104,1233c0,0-60.436,23.566-76.917,25.117
		c-16.482,1.551-47.056,3.338-43.971-16.558c3.085-19.895,60.784-40.061,60.784-40.061l-4.149-179.014L426.858,761h113.249h113.466
		l-5.993,261.485l-4.149,179.014c0,0,57.699,20.166,60.784,40.061c3.085,19.896-27.488,18.108-43.971,16.558
		c-16.481-1.551-76.917-25.117-76.917-25.117l-0.028-210.499c0,0,1.201-72.501-0.299-130.001
		c-1.166-44.697-26.503-57.368-37.728-60.796H540.324z"/>
</g>
</svg>
