<?xml version="1.0" encoding="utf-8"?>
<!-- Generator: Adobe Illustrator 15.1.0, SVG Export Plug-In . SVG Version: 6.00 Build 0)  -->
<!DOCTYPE svg PUBLIC "-//W3C//DTD SVG 1.1//EN" "http://www.w3.org/Graphics/SVG/1.1/DTD/svg11.dtd">
<svg version="1.1" id="Layer_1" xmlns="http://www.w3.org/2000/svg" xmlns:xlink="http://www.w3.org/1999/xlink" x="0px" y="0px"
	 width="740px" height="800px" viewBox="170 262.09 740 800" enable-background="new 170 262.09 740 800" xml:space="preserve">
<g>
	<g>
		
			<path fill="#544B66" stroke="#000000" stroke-width="10" stroke-linecap="round" stroke-linejoin="round" stroke-miterlimit="10" d="
			M547.991,1046.688c207.334,14,275.341-53.465,253.334-61.333c-24.983-8.933-44.381-28.667-64-64.667
			c-28.54-52.37-26.517-88-47.521-240.374c-14.938-108.361-38.854-112.611-38.854-112.611s-32.624-9.015-113.124,13.985h-1.881
			c-80.5-23-113.124-13.985-113.124-13.985s-23.917,4.25-38.854,112.611c-21.005,152.374-17.803,188.012-47.521,240.374
			c-21,37-39.017,55.734-64,64.667c-22.007,7.868,46,75.333,253.333,61.333H547.991z"/>
		<path fill="#C1A3AB" d="M538.508,592.688c0,0,28.375,38.001,41.042,126.001c8.006,55.621,12.189,101.702,27.333,180.666
			c18.667,97.334,49.937,147.234,49.937,147.234H418.508c0,0,31.27-49.9,49.937-147.234
			c15.144-78.964,19.328-125.045,27.333-180.666c12.667-88,41.042-126.001,41.042-126.001"/>
		<path fill="none" stroke="#000000" stroke-width="10" stroke-linecap="round" stroke-linejoin="round" stroke-miterlimit="10" d="
			M418.508,1046.59c0,0,31.27-49.9,49.937-147.234c15.144-78.964,19.328-125.045,27.333-180.666
			c12.667-88,41.042-126.001,41.042-126.001"/>
		<path fill="none" stroke="#000000" stroke-width="10" stroke-linecap="round" stroke-linejoin="round" stroke-miterlimit="10" d="
			M538.508,592.688c0,0,28.375,38.001,41.042,126.001c8.006,55.621,12.189,101.702,27.333,180.666
			c18.667,97.334,49.937,147.234,49.937,147.234"/>
		<path fill="none" stroke="#000000" stroke-width="10" stroke-linecap="round" stroke-linejoin="round" stroke-miterlimit="10" d="
			M547.991,1046.688c207.334,14,275.341-53.465,253.334-61.333c-24.983-8.933-44.381-28.667-64-64.667
			c-28.54-52.37-26.517-88-47.521-240.374c-14.938-108.361-38.854-112.611-38.854-112.611s-32.624-9.015-113.124,13.985h-1.881
			c-80.5-23-113.124-13.985-113.124-13.985s-23.917,4.25-38.854,112.611c-21.005,152.374-17.803,188.012-47.521,240.374
			c-21,37-39.017,55.734-64,64.667c-22.007,7.868,46,75.333,253.333,61.333H547.991z"/>
	</g>
	<g>
		
			<path fill="#544B66" stroke="#000000" stroke-width="10" stroke-linecap="round" stroke-linejoin="round" stroke-miterlimit="10" d="
			M447.668,287.141c0,0-40.238-25.143-66.224,9.881c-23,31-4.491,59.078,5.028,67.552c36.972,15.614,48.165,21.114,48.165,21.114
			l5.429-17.289l-13.604,178.752c0,0,80.733,10.537,110.483,23.787"/>
		
			<path fill="#544B66" stroke="#000000" stroke-width="10" stroke-linecap="round" stroke-linejoin="round" stroke-miterlimit="10" d="
			M627.66,287.141c0,0,40.238-25.143,66.224,9.881c23,31,4.491,59.078-5.027,67.552c-36.973,15.614-48.165,21.114-48.165,21.114
			l-5.429-17.289l13.604,178.752c0,0-80.733,10.537-110.483,23.787"/>
		
			<path fill="#F8EF64" stroke="#000000" stroke-width="10" stroke-linecap="round" stroke-linejoin="round" stroke-miterlimit="10" d="
			M524.668,385.688h85.375l17.776-98.547c-8.615-4.433-17.916-4.896-17.916-4.896l-14.999,85.444h-70.236h-44.085l-14.999-85.444
			c0,0-9.301,0.463-17.917,4.896l17.776,98.547H524.668z"/>
		<g>
			
				<path fill="#C1A3AB" stroke="#000000" stroke-width="10" stroke-linecap="round" stroke-linejoin="round" stroke-miterlimit="10" d="
				M603.444,385.688l-33.578,165.193c0,0-4.422,14.307-24.922,18.807h-13.5c-20.5-4.5-24.922-18.807-24.922-18.807l-33.578-165.193
				H603.444z"/>
			
				<polyline fill="none" stroke="#000000" stroke-width="10" stroke-linecap="round" stroke-linejoin="round" stroke-miterlimit="10" points="
				474.852,393.074 592.806,438.027 490.183,470.494 578.611,507.857 505.049,543.634 			"/>
			
				<polyline fill="none" stroke="#000000" stroke-width="10" stroke-linecap="round" stroke-linejoin="round" stroke-miterlimit="10" points="
				601.806,393.074 483.853,438.027 586.476,470.494 498.047,507.857 571.608,543.634 			"/>
		</g>
	</g>
	
		<path fill="#F8EF64" stroke="#000000" stroke-width="10" stroke-linecap="round" stroke-linejoin="round" stroke-miterlimit="10" d="
		M537.819,592.688c0,0,31.958-19.333,113.124-24.985l-2.116-27.582c0,0-59.716,0-110.883,20.567l-0.563,0.188l-0.563-0.188
		c-51.167-20.567-110.883-20.567-110.883-20.567l-2.116,27.582c81.166,5.652,113.124,24.985,113.124,24.985l0.438,0.109
		L537.819,592.688z"/>
</g>
</svg>
