<?xml version="1.0" encoding="utf-8"?>
<!-- Generator: Adobe Illustrator 15.1.0, SVG Export Plug-In . SVG Version: 6.00 Build 0)  -->
<!DOCTYPE svg PUBLIC "-//W3C//DTD SVG 1.1//EN" "http://www.w3.org/Graphics/SVG/1.1/DTD/svg11.dtd">
<svg version="1.1" id="Layer_1" xmlns="http://www.w3.org/2000/svg" xmlns:xlink="http://www.w3.org/1999/xlink" x="0px" y="0px"
	 width="1080px" height="1340px" viewBox="0 0 1080 1340" enable-background="new 0 0 1080 1340" xml:space="preserve">
<g>
	<g>
		
			<path fill="#544B66" stroke="#000000" stroke-width="10" stroke-linecap="round" stroke-linejoin="round" stroke-miterlimit="10" d="
			M551.047,1232.5c207.334,14,275.341-53.465,253.334-61.333c-24.983-8.933-44.381-28.667-64-64.667
			c-28.54-52.37-26.517-88-47.521-240.374c-14.938-108.361-38.854-112.611-38.854-112.611S621.381,744.5,540.881,767.5H539
			c-80.5-23-113.124-13.985-113.124-13.985s-23.917,4.25-38.854,112.611C366.017,1018.5,369.219,1054.138,339.5,1106.5
			c-21,37-39.017,55.734-64,64.667c-22.007,7.868,46,75.333,253.333,61.333H551.047z"/>
		<path fill="#C1A3AB" d="M541.563,778.5c0,0,28.375,38.001,41.042,126.001c8.006,55.621,12.189,101.702,27.333,180.666
			c18.667,97.334,49.937,147.234,49.937,147.234H421.563c0,0,31.27-49.9,49.937-147.234
			c15.144-78.964,19.328-125.045,27.333-180.666c12.667-88,41.042-126.001,41.042-126.001"/>
		<path fill="none" stroke="#000000" stroke-width="10" stroke-linecap="round" stroke-linejoin="round" stroke-miterlimit="10" d="
			M421.563,1232.401c0,0,31.27-49.9,49.937-147.234c15.144-78.964,19.328-125.045,27.333-180.666
			c12.667-88,41.042-126.001,41.042-126.001"/>
		<path fill="none" stroke="#000000" stroke-width="10" stroke-linecap="round" stroke-linejoin="round" stroke-miterlimit="10" d="
			M541.563,778.5c0,0,28.375,38.001,41.042,126.001c8.006,55.621,12.189,101.702,27.333,180.666
			c18.667,97.334,49.937,147.234,49.937,147.234"/>
		<path fill="none" stroke="#000000" stroke-width="10" stroke-linecap="round" stroke-linejoin="round" stroke-miterlimit="10" d="
			M551.047,1232.5c207.334,14,275.341-53.465,253.334-61.333c-24.983-8.933-44.381-28.667-64-64.667
			c-28.54-52.37-26.517-88-47.521-240.374c-14.938-108.361-38.854-112.611-38.854-112.611S621.381,744.5,540.881,767.5H539
			c-80.5-23-113.124-13.985-113.124-13.985s-23.917,4.25-38.854,112.611C366.017,1018.5,369.219,1054.138,339.5,1106.5
			c-21,37-39.017,55.734-64,64.667c-22.007,7.868,46,75.333,253.333,61.333H551.047z"/>
	</g>
	<g>
		
			<path fill="#544B66" stroke="#000000" stroke-width="10" stroke-linecap="round" stroke-linejoin="round" stroke-miterlimit="10" d="
			M450.724,472.953c0,0-40.238-25.143-66.224,9.881c-23,31-4.491,59.078,5.028,67.552C426.5,566,437.692,571.5,437.692,571.5
			l5.429-17.289l-13.604,178.752c0,0,80.733,10.537,110.483,23.787"/>
		
			<path fill="#544B66" stroke="#000000" stroke-width="10" stroke-linecap="round" stroke-linejoin="round" stroke-miterlimit="10" d="
			M630.716,472.953c0,0,40.238-25.143,66.224,9.881c23,31,4.491,59.078-5.027,67.552C654.939,566,643.747,571.5,643.747,571.5
			l-5.429-17.289l13.604,178.752c0,0-80.733,10.537-110.483,23.787"/>
		
			<path fill="#F8EF64" stroke="#000000" stroke-width="10" stroke-linecap="round" stroke-linejoin="round" stroke-miterlimit="10" d="
			M527.724,571.5h85.375l17.776-98.547c-8.615-4.433-17.916-4.896-17.916-4.896L597.96,553.5h-70.236h-44.085l-14.999-85.444
			c0,0-9.301,0.463-17.917,4.896L468.5,571.5H527.724z"/>
		<g>
			
				<path fill="#C1A3AB" stroke="#000000" stroke-width="10" stroke-linecap="round" stroke-linejoin="round" stroke-miterlimit="10" d="
				M606.5,571.5l-33.578,165.193c0,0-4.422,14.307-24.922,18.807h-13.5c-20.5-4.5-24.922-18.807-24.922-18.807L476,571.5H606.5z"/>
			
				<polyline fill="none" stroke="#000000" stroke-width="10" stroke-linecap="round" stroke-linejoin="round" stroke-miterlimit="10" points="
				477.908,578.885 595.861,623.839 493.238,656.306 581.667,693.669 508.105,729.445 			"/>
			
				<polyline fill="none" stroke="#000000" stroke-width="10" stroke-linecap="round" stroke-linejoin="round" stroke-miterlimit="10" points="
				604.861,578.885 486.908,623.839 589.531,656.306 501.103,693.669 574.664,729.445 			"/>
		</g>
	</g>
	
		<path fill="#F8EF64" stroke="#000000" stroke-width="10" stroke-linecap="round" stroke-linejoin="round" stroke-miterlimit="10" d="
		M540.875,778.5c0,0,31.958-19.333,113.124-24.985l-2.116-27.582c0,0-59.716,0-110.883,20.567l-0.563,0.188l-0.563-0.188
		c-51.167-20.567-110.883-20.567-110.883-20.567l-2.116,27.582C508.042,759.167,540,778.5,540,778.5l0.438,0.109L540.875,778.5z"/>
</g>
</svg>
