<?xml version="1.0" encoding="utf-8"?>
<!-- Generator: Adobe Illustrator 15.1.0, SVG Export Plug-In . SVG Version: 6.00 Build 0)  -->
<!DOCTYPE svg PUBLIC "-//W3C//DTD SVG 1.1//EN" "http://www.w3.org/Graphics/SVG/1.1/DTD/svg11.dtd">
<svg version="1.1" id="Layer_1" xmlns="http://www.w3.org/2000/svg" xmlns:xlink="http://www.w3.org/1999/xlink" x="0px" y="0px"
	 width="740px" height="740px" viewBox="170.447 335.069 740 740" enable-background="new 170.447 335.069 740 740"
	 xml:space="preserve">
<g>
	<g>
		<path fill="#D80000" d="M501.688,907.163c11.384-0.241,23.843,5.291,21.04,17.504c-1.894,20.166,19.189,18.096,19.189,18.096
			l4.052-0.462l-2.175-53.061h-86.419l-33.813,0.927c-7.48,10.671-31.836,8.755-31.836,8.755s-0.843,0.085-1.436-0.122
			c-0.106-0.037-0.212-0.071-0.318-0.105c-3.511-1.12-7.073-0.495-7.579,4.803c-0.961,10.089,7.875,23.254,18,27.254l3.56,1.423
			c0,0,1.532,2.345,3.44,3.327c4.19,1.705,16.496,5.699,19.738-3.031l0.42-0.468c0,0,7.343-13.5,18.009-22l2.116-1.739
			c3.396,1.867,6.093,4.802,6.718,9.238c0.832,6.667-4,8.167-2.171,15.834c3.837,12.833,31.158,11.166,33.079,3.333l0.196-0.542
			c0,0,5.591-18.541,13.889-29.352L501.688,907.163"/>
		<path fill="#D80000" d="M579.604,907.163c-11.383-0.241-23.843,5.291-21.039,17.504c1.894,20.166-19.189,18.096-19.189,18.096
			l-4.052-0.462l2.175-53.061h86.419l33.813,0.927c7.479,10.671,31.835,8.755,31.835,8.755s0.844,0.085,1.436-0.122
			c0.104-0.037,0.212-0.071,0.318-0.105c3.511-1.12,7.072-0.495,7.577,4.803c0.962,10.089-7.875,23.254-18,27.254l-3.559,1.423
			c0,0-1.531,2.345-3.441,3.327c-4.188,1.705-16.495,5.699-19.737-3.031l-0.42-0.468c0,0-7.342-13.5-18.009-22l-2.116-1.739
			c-3.396,1.867-6.092,4.802-6.717,9.238c-0.833,6.667,4,8.167,2.17,15.834c-3.837,12.833-31.158,11.166-33.079,3.333l-0.196-0.542
			c0,0-5.591-18.541-13.889-29.352L579.604,907.163"/>
	</g>
	<g>
		<g>
			
				<path fill="#D80000" stroke="#000000" stroke-width="10" stroke-linecap="round" stroke-linejoin="round" stroke-miterlimit="10" d="
				M689,898.973c-12.525,0-24.188,1.865-31.667-8.806"/>
			
				<path fill="#FBF5B9" stroke="#000000" stroke-width="10" stroke-linecap="round" stroke-linejoin="round" stroke-miterlimit="10" d="
				M629.167,890.167c0,0,16.294,12.722,23.063,16.777"/>
			
				<path fill="#FBF5B9" stroke="#000000" stroke-width="10" stroke-linecap="round" stroke-linejoin="round" stroke-miterlimit="10" d="
				M551.625,889.24c0,0,7.542,13.593,6.568,28.886"/>
			
				<path fill="#FBF5B9" stroke="#000000" stroke-width="10" stroke-linecap="round" stroke-linejoin="round" stroke-miterlimit="10" d="
				M605.667,890.167c0,0,19.166,13.203,20.833,27.333"/>
			
				<path fill="#D80000" stroke="#000000" stroke-width="10" stroke-linecap="round" stroke-linejoin="round" stroke-miterlimit="10" d="
				M579.667,889.195c0,0,6.538,14.323,14.5,23.306"/>
			
				<path fill="#D80000" stroke="#000000" stroke-width="10" stroke-linecap="round" stroke-linejoin="round" stroke-miterlimit="10" d="
				M595.591,936.667c0,0-5.591-18.541-13.889-29.352"/>
			
				<path fill="none" stroke="#000000" stroke-width="10" stroke-linecap="round" stroke-linejoin="round" stroke-miterlimit="10" d="
				M680.5,930.75c10.125-4,18.961-17.165,18-27.254c-1-10.496-14-2.648-14.83,0.765C677.25,914.5,682.25,931,673.5,935.5
				c-4.722,1.922-19.75,6.75-20.5-7c-0.178-3.258,6.628-20.305-3.305-22.721c-5.14-1.25-21.528-0.112-23.195,11.721
				c-0.833,6.667,4,8.167,2.17,15.834c-3.837,12.833-31.158,11.166-33.079,3.333c-3.333-7.167,4.076-17.833-1.424-24.166
				c-8.35-9.613-40.322-6.668-36,12.166c2,12-3.009,17.763-17.843,18.096"/>
			
				<path fill="none" stroke="#000000" stroke-width="10" stroke-linecap="round" stroke-linejoin="round" stroke-miterlimit="10" d="
				M653.342,932.001c0,0-7.342-13.5-18.009-22"/>
		</g>
		<g>
			<g>
				
					<path fill="#D80000" stroke="#000000" stroke-width="10" stroke-linecap="round" stroke-linejoin="round" stroke-miterlimit="10" d="
					M391.895,898.973c12.525,0,24.188,1.865,31.667-8.806"/>
				
					<path fill="none" stroke="#000000" stroke-width="10" stroke-linecap="round" stroke-linejoin="round" stroke-miterlimit="10" d="
					M400.395,930.75c-10.125-4-18.961-17.165-18-27.254c1-10.496,14-2.648,14.83,0.765c6.42,10.239,1.42,26.739,10.17,31.239
					c4.723,1.922,19.75,6.75,20.5-7c0.179-3.258-6.628-20.305,3.306-22.721c5.139-1.25,21.527-0.112,23.194,11.721
					c0.833,6.667-4,8.167-2.17,15.834c3.837,12.833,31.158,11.166,33.079,3.333c3.333-7.167-4.076-17.833,1.424-24.166
					c8.351-9.613,40.322-6.668,36.001,12.166c-2,12,3.009,17.763,17.843,18.096"/>
				
					<path fill="#FBF5B9" stroke="#000000" stroke-width="10" stroke-linecap="round" stroke-linejoin="round" stroke-miterlimit="10" d="
					M451.728,890.167c0,0-16.294,12.722-23.063,16.777"/>
				
					<path fill="#FBF5B9" stroke="#000000" stroke-width="10" stroke-linecap="round" stroke-linejoin="round" stroke-miterlimit="10" d="
					M529.27,889.24c0,0-7.541,13.593-6.567,28.886"/>
				
					<path fill="#FBF5B9" stroke="#000000" stroke-width="10" stroke-linecap="round" stroke-linejoin="round" stroke-miterlimit="10" d="
					M475.228,890.167c0,0-19.165,13.203-20.833,27.333"/>
				
					<path fill="#D80000" stroke="#000000" stroke-width="10" stroke-linecap="round" stroke-linejoin="round" stroke-miterlimit="10" d="
					M501.228,889.195c0,0-6.537,14.323-14.5,23.306"/>
			</g>
			
				<path fill="none" stroke="#000000" stroke-width="10" stroke-linecap="round" stroke-linejoin="round" stroke-miterlimit="10" d="
				M427.553,932.001c0,0,7.342-13.5,18.01-22"/>
			
				<path fill="#D80000" stroke="#000000" stroke-width="10" stroke-linecap="round" stroke-linejoin="round" stroke-miterlimit="10" d="
				M485.304,936.667c0,0,5.591-18.541,13.89-29.352"/>
		</g>
	</g>
	<g>
		
			<path fill="#D80000" stroke="#000000" stroke-width="10" stroke-linecap="round" stroke-linejoin="round" stroke-miterlimit="10" d="
			M483.873,467.383c0,0,51.627,118.617,112.881,0c0,0,17.398-0.417,30.8,5.226c0,0-2.688,41.418,10.233,82.603
			S655.834,701.167,688.5,794.5c17.054,48.727,10.667,94.74-32.666,94.667c-17.449-0.029-125.334,0.073-125.334,0.073"/>
		
			<path fill="#D80000" stroke="#000000" stroke-width="10" stroke-linecap="round" stroke-linejoin="round" stroke-miterlimit="10" d="
			M596.754,467.383c0,0-51.627,118.617-112.881,0c0,0-17.398-0.417-30.8,5.226c0,0,2.688,41.418-10.233,82.603
			S424.793,701.167,392.127,794.5c-17.054,48.727-10.667,94.74,32.666,94.667c17.449-0.029,125.334,0.073,125.334,0.073"/>
	</g>
</g>
</svg>
