<?xml version="1.0" encoding="utf-8"?>
<!-- Generator: Adobe Illustrator 15.1.0, SVG Export Plug-In . SVG Version: 6.00 Build 0)  -->
<!DOCTYPE svg PUBLIC "-//W3C//DTD SVG 1.1//EN" "http://www.w3.org/Graphics/SVG/1.1/DTD/svg11.dtd">
<svg version="1.1" id="Layer_1" xmlns="http://www.w3.org/2000/svg" xmlns:xlink="http://www.w3.org/1999/xlink" x="0px" y="0px"
	 width="1080px" height="1340px" viewBox="0 0 1080 1340" enable-background="new 0 0 1080 1340" xml:space="preserve">
<g>
	<g>
		
			<path fill="#6CC073" stroke="#000000" stroke-width="10" stroke-linecap="round" stroke-linejoin="round" stroke-miterlimit="10" d="
			M498.601,589.5H561.5h58v103c0,0,6.262,31.287,31.131,30.144c12.435-0.571,13.651,114.893,11.761,230.499L569.5,955.5
			c0,0-4.667-98-29.176-98"/>
		
			<path fill="#6CC073" stroke="#000000" stroke-width="10" stroke-linecap="round" stroke-linejoin="round" stroke-miterlimit="10" d="
			M607.167,613.167l13.333-148c0,0-9.916-4.772-24.667-3.333l-14.98,151.333l11.647,24L607.167,613.167z"/>
		
			<polygon fill="#6CC073" stroke="#000000" stroke-width="10" stroke-linecap="round" stroke-linejoin="round" stroke-miterlimit="10" points="
			667.833,956.5 564.833,956.5 563.5,926.501 668.833,926.501 		"/>
		
			<circle fill="#6CC073" stroke="#000000" stroke-width="10" stroke-linecap="round" stroke-linejoin="round" stroke-miterlimit="10" cx="594.542" cy="607.834" r="2.333"/>
		
			<path fill="#6CC073" stroke="#000000" stroke-width="10" stroke-linecap="round" stroke-linejoin="round" stroke-miterlimit="10" d="
			M608.276,747.316l1.766,10.892c0,0,0.926,9.627,8.625,14.625c9.167,9.5,39,6.167,39,6.167"/>
	</g>
	<g>
		
			<path fill="#6CC073" stroke="#000000" stroke-width="10" stroke-linecap="round" stroke-linejoin="round" stroke-miterlimit="10" d="
			M564.25,589.5h-45.316h-58v103c0,0-6.262,31.287-31.131,30.144c-12.435-0.571-13.651,114.893-11.761,230.499l92.892,2.357
			c0,0,4.667-98,29.176-98"/>
		
			<path fill="#6CC073" stroke="#000000" stroke-width="10" stroke-linecap="round" stroke-linejoin="round" stroke-miterlimit="10" d="
			M473.267,613.167l-13.333-148c0,0,9.916-4.772,24.667-3.333l14.98,151.333l-11.647,24L473.267,613.167z"/>
		
			<polygon fill="#6CC073" stroke="#000000" stroke-width="10" stroke-linecap="round" stroke-linejoin="round" stroke-miterlimit="10" points="
			412.601,956.5 515.601,956.5 516.934,926.501 411.601,926.501 		"/>
		
			<circle fill="#6CC073" stroke="#000000" stroke-width="10" stroke-linecap="round" stroke-linejoin="round" stroke-miterlimit="10" cx="485.891" cy="607.834" r="2.333"/>
		
			<path fill="#6CC073" stroke="#000000" stroke-width="10" stroke-linecap="round" stroke-linejoin="round" stroke-miterlimit="10" d="
			M472.157,747.316l-1.766,10.892c0,0-0.926,9.627-8.625,14.625c-9.167,9.5-39,6.167-39,6.167"/>
	</g>
</g>
</svg>
