<?xml version="1.0" encoding="utf-8"?>
<!-- Generator: Adobe Illustrator 15.1.0, SVG Export Plug-In . SVG Version: 6.00 Build 0)  -->
<!DOCTYPE svg PUBLIC "-//W3C//DTD SVG 1.1//EN" "http://www.w3.org/Graphics/SVG/1.1/DTD/svg11.dtd">
<svg version="1.1" id="Layer_1" xmlns="http://www.w3.org/2000/svg" xmlns:xlink="http://www.w3.org/1999/xlink" x="0px" y="0px"
	 width="1080px" height="1340px" viewBox="0 0 1080 1340" enable-background="new 0 0 1080 1340" xml:space="preserve">
<g>
	
		<path fill="#B8519E" stroke="#2B328B" stroke-width="7" stroke-linecap="round" stroke-linejoin="round" stroke-miterlimit="10" d="
		M408.5,953.833h258c0,0-17.957-317.446-24.666-362c-20.667-36-18.69-85.136-18.69-85.136l-5.048-26.197
		c-84.403,145-156.585-2-156.585-2L457,508.792c0,0,4.51,40.146-16.9,81.729C432.143,639.857,408.5,953.833,408.5,953.833z"/>
	<g>
		
			<polygon fill="#FDEE27" stroke="#2B328B" stroke-width="7" stroke-linecap="round" stroke-linejoin="round" stroke-miterlimit="10" points="
			539.875,524.115 546.063,536.651 559.896,538.662 549.887,548.42 552.25,562.199 539.875,555.693 527.501,562.199 529.865,548.42 
			519.854,538.662 533.688,536.651 		"/>
		<g>
			
				<polygon fill="#FDEE27" stroke="#2B328B" stroke-width="7" stroke-linecap="round" stroke-linejoin="round" stroke-miterlimit="10" points="
				572.063,512.316 585.036,517.525 596.682,509.792 595.737,523.74 606.691,532.426 593.134,535.837 588.259,548.938 
				580.825,537.099 566.856,536.511 575.82,525.782 			"/>
			
				<polygon fill="#FDEE27" stroke="#2B328B" stroke-width="7" stroke-linecap="round" stroke-linejoin="round" stroke-miterlimit="10" points="
				598.44,479.512 612.404,480.175 620.868,469.049 624.552,482.534 637.75,487.144 626.063,494.815 625.757,508.792 
				614.85,500.047 601.462,504.075 606.408,491 			"/>
		</g>
		<g>
			
				<polygon fill="#FDEE27" stroke="#2B328B" stroke-width="7" stroke-linecap="round" stroke-linejoin="round" stroke-miterlimit="10" points="
				507.542,512.316 494.569,517.525 482.924,509.792 483.868,523.74 472.914,532.426 486.472,535.837 491.347,548.938 
				498.78,537.099 512.749,536.511 503.785,525.782 			"/>
			
				<polygon fill="#FDEE27" stroke="#2B328B" stroke-width="7" stroke-linecap="round" stroke-linejoin="round" stroke-miterlimit="10" points="
				481.165,479.512 467.201,480.175 458.737,469.049 455.054,482.534 441.855,487.144 453.542,494.815 453.849,508.792 
				464.756,500.047 478.144,504.075 473.197,491 			"/>
		</g>
	</g>
</g>
</svg>
