<?xml version="1.0" encoding="utf-8"?>
<!-- Generator: Adobe Illustrator 15.1.0, SVG Export Plug-In . SVG Version: 6.00 Build 0)  -->
<!DOCTYPE svg PUBLIC "-//W3C//DTD SVG 1.1//EN" "http://www.w3.org/Graphics/SVG/1.1/DTD/svg11.dtd">
<svg version="1.1" id="Layer_1" xmlns="http://www.w3.org/2000/svg" xmlns:xlink="http://www.w3.org/1999/xlink" x="0px" y="0px"
	 width="1080px" height="1340px" viewBox="0 0 1080 1340" enable-background="new 0 0 1080 1340" xml:space="preserve">
<g id="ciuszki">
	
		<path fill="#4747E2" stroke="#000000" stroke-width="7" stroke-linecap="round" stroke-linejoin="round" stroke-miterlimit="10" d="
		M319.024,188.516c0,0,36.324,9.333,64.324,14c20.981,3.497,106.213-3.491,161.606-5.333c60.125-2,126.717,16.267,143.118,15.333
		c23.442-1.333,49.275-10.667,67.275-14c0,0-100.457-38.016-118.599-67.349c0,0-16.863-54.579,31.841-34
		c23.667,10,46.196,16.854,90.536,2.854c0,0-54.394,1.813-79.96-51.521c-33.797-33.333-48.292-32.737-89.242-20
		c0,0-39.841,9.104-82.091,58c0,0-40.667,50.667-73.523,56.946C434.31,143.446,351.69,187.183,319.024,188.516z"/>
	
		<path fill="#FFF200" stroke="#000000" stroke-width="7" stroke-linecap="round" stroke-linejoin="round" stroke-miterlimit="10" d="
		M624.721,125.498c0,0-52.771,72.008-150.729-9.008L443,140.867C443,140.867,614.5,212.55,624.721,125.498z"/>
	
		<path fill="#FFF200" stroke="#000000" stroke-width="7" stroke-linecap="round" stroke-linejoin="round" stroke-miterlimit="10" d="
		M624.721,125.498c0,0,4.562,55.212,59.837,41.107l-17.859-10.177C666.697,156.428,642.274,157.163,624.721,125.498z"/>
	
		<path fill="#FFF200" stroke="#000000" stroke-width="7" stroke-linecap="round" stroke-linejoin="round" stroke-miterlimit="10" d="
		M614.838,113.577c0,0-58.299-30.065-54.651-71.821L541.991,54.07C541.991,54.07,557.176,105.321,614.838,113.577z"/>
	
		<path fill="#FFF200" stroke="#000000" stroke-width="7" stroke-linecap="round" stroke-linejoin="round" stroke-miterlimit="10" d="
		M624.721,107.167c0,0-26.888-63.341-10.221-85.254c0,0,17.269-1.53,19.334-1.483C633.834,20.43,620.5,49.167,624.721,107.167z"/>
	
		<polygon fill="#FFF200" stroke="#000000" stroke-width="7" stroke-linecap="round" stroke-linejoin="round" stroke-miterlimit="10" points="
		645.927,146.146 627.203,139.309 610.956,150.856 611.673,130.936 595.671,119.052 614.838,113.577 621.194,94.686 
		632.323,111.224 652.255,111.432 639.965,127.126 	"/>
</g>
</svg>
