<?xml version="1.0" encoding="utf-8"?>
<!-- Generator: Adobe Illustrator 15.1.0, SVG Export Plug-In . SVG Version: 6.00 Build 0)  -->
<!DOCTYPE svg PUBLIC "-//W3C//DTD SVG 1.1//EN" "http://www.w3.org/Graphics/SVG/1.1/DTD/svg11.dtd">
<svg version="1.1" id="Layer_1" xmlns="http://www.w3.org/2000/svg" xmlns:xlink="http://www.w3.org/1999/xlink" x="0px" y="0px"
	 width="1080px" height="1340px" viewBox="0 0 1080 1340" enable-background="new 0 0 1080 1340" xml:space="preserve">
<g id="ciuszki">
	
		<polygon fill="#FFF200" stroke="#000000" stroke-width="7" stroke-linecap="round" stroke-linejoin="round" stroke-miterlimit="10" points="
		605.408,210.732 590.8,205.72 578.389,214.91 578.644,199.469 566.066,190.506 580.831,185.975 585.471,171.244 594.341,183.887 
		609.784,183.746 600.502,196.089 	"/>
	
		<polygon fill="#FFF200" stroke="#000000" stroke-width="7" stroke-linecap="round" stroke-linejoin="round" stroke-miterlimit="10" points="
		651.537,197.521 636.291,195.061 625.619,206.224 623.25,190.964 609.334,184.265 623.115,177.293 625.188,161.99 636.074,172.943 
		651.271,170.184 644.217,183.923 	"/>
	
		<polygon fill="#FFF200" stroke="#000000" stroke-width="7" stroke-linecap="round" stroke-linejoin="round" stroke-miterlimit="10" points="
		552.861,217.029 539.084,210.052 525.525,217.445 527.904,202.186 516.683,191.575 531.931,189.122 538.555,175.171 
		545.599,188.915 560.914,190.903 550.021,201.85 	"/>
	<g>
		
			<polygon fill="#FFF200" stroke="#000000" stroke-width="7" stroke-linecap="round" stroke-linejoin="round" stroke-miterlimit="10" points="
			471.92,211.732 486.528,206.72 498.939,215.91 498.685,200.469 511.262,191.506 496.497,186.975 491.857,172.244 482.987,184.887 
			467.544,184.746 476.826,197.089 		"/>
		
			<polygon fill="#FFF200" stroke="#000000" stroke-width="7" stroke-linecap="round" stroke-linejoin="round" stroke-miterlimit="10" points="
			422.791,196.521 438.037,194.061 448.709,205.224 451.078,189.964 464.994,183.265 451.213,176.293 449.141,160.99 
			438.254,171.943 423.059,169.184 430.111,182.923 		"/>
	</g>
</g>
</svg>
