<?xml version="1.0" encoding="utf-8"?>
<!-- Generator: Adobe Illustrator 15.1.0, SVG Export Plug-In . SVG Version: 6.00 Build 0)  -->
<!DOCTYPE svg PUBLIC "-//W3C//DTD SVG 1.1//EN" "http://www.w3.org/Graphics/SVG/1.1/DTD/svg11.dtd">
<svg version="1.1" id="Layer_1" xmlns="http://www.w3.org/2000/svg" xmlns:xlink="http://www.w3.org/1999/xlink" x="0px" y="0px"
	 width="1080px" height="1340px" viewBox="0 0 1080 1340" enable-background="new 0 0 1080 1340" xml:space="preserve">
<g id="ciuszki">
	
		<path fill="#B579E0" stroke="#000000" stroke-width="7" stroke-linecap="round" stroke-linejoin="round" stroke-miterlimit="10" d="
		M319.024,188.516c0,0,36.324,9.333,64.324,14c20.981,3.497,106.213-3.491,161.606-5.333c60.125-2,126.717,16.267,143.118,15.333
		c23.442-1.333,49.275-10.667,67.275-14c0,0-100.457-38.016-118.599-67.349c0,0-16.863-54.579,31.841-34
		c23.667,10,46.196,16.854,90.536,2.854c0,0-54.394,1.813-79.96-51.521c-33.797-33.333-48.292-32.737-89.242-20
		c0,0-39.841,9.104-82.091,58c0,0-40.667,50.667-73.523,56.946C434.31,143.446,351.69,187.183,319.024,188.516z"/>
	
		<path fill="#5F3AAF" stroke="#000000" stroke-width="7" stroke-linecap="round" stroke-linejoin="round" stroke-miterlimit="10" d="
		M632.771,122.771c0,0-72.271,27.063-143.604-34.938l-8.41,25.744C480.757,113.577,572.336,189.464,632.771,122.771z"/>
	
		<path fill="#5F3AAF" stroke="#000000" stroke-width="7" stroke-linecap="round" stroke-linejoin="round" stroke-miterlimit="10" d="
		M635.657,126.913c0,0-68.648,46.674-165.824-13.335L443,140.867C443,140.867,619.988,205.915,635.657,126.913z"/>
	
		<path fill="#D4F0FF" stroke="#000000" stroke-width="7" stroke-linecap="round" stroke-linejoin="round" stroke-miterlimit="10" d="
		M620.321,126.913c0,0-22.802-18.402-36.984-29.412c0,0,7.129,1.605,12.005-4.764c0,0,2.177-5.791-2.313-13.945
		c0,0,12.384,3.264,9.637-6.695c0,0,16.916,9.758,21.29-2.819c0,0,9.265,17.623,20.961,7.003c0,0-12.962,26.721-6.37,37.968"/>
	
		<path fill="#D4F0FF" stroke="#000000" stroke-width="7" stroke-linecap="round" stroke-linejoin="round" stroke-miterlimit="10" d="
		M642.287,123.56c0,0,28.949,4.527,46.737,6.963c0,0-6.978,2.176-8.012,10.131c0,0,1.014,6.104,8.979,10.918
		c0,0-12.355,3.369-4.995,10.617c0,0-19.529,0.014-17.024,13.092c0,0-16.837-10.623-21.651,4.423c0,0-2.145-29.621-13.479-36.062"/>
	
		<path fill="#D4F0FF" stroke="#000000" stroke-width="7" stroke-linecap="round" stroke-linejoin="round" stroke-miterlimit="10" d="
		M626.32,119.348c0,0,10.743-27.26,17.006-44.087c0,0,0.601,7.283,8.137,10.031c0,0,6.177,0.346,12.615-6.377
		c0,0,0.589,12.792,9.271,7.193c0,0-4.254,19.061,9.057,19.473c0,0-14.046,14.11-0.414,22.097c0,0-29.374-4.379-38.137,5.274"/>
	
		<ellipse transform="matrix(-0.2211 -0.9753 0.9753 -0.2211 643.1549 779.3509)" fill="#5EBEDB" stroke="#000000" stroke-width="7" stroke-linecap="round" stroke-linejoin="round" stroke-miterlimit="10" cx="632.802" cy="132.839" rx="28.335" ry="18.001"/>
</g>
</svg>
