<?xml version="1.0" encoding="utf-8"?>
<!-- Generator: Adobe Illustrator 15.1.0, SVG Export Plug-In . SVG Version: 6.00 Build 0)  -->
<!DOCTYPE svg PUBLIC "-//W3C//DTD SVG 1.1//EN" "http://www.w3.org/Graphics/SVG/1.1/DTD/svg11.dtd">
<svg version="1.1" id="Layer_1" xmlns="http://www.w3.org/2000/svg" xmlns:xlink="http://www.w3.org/1999/xlink" x="0px" y="0px"
	 width="468px" height="468px" viewBox="306 -74 468 468" enable-background="new 306 -74 468 468" xml:space="preserve">
<g id="ciuszki">
	
		<path fill="#6C6CFF" stroke="#000000" stroke-width="7" stroke-linecap="round" stroke-linejoin="round" stroke-miterlimit="10" d="
		M319.024,188.516c0,0,36.324,9.333,64.324,14c20.981,3.497,106.213-3.491,161.606-5.333c60.125-2,126.717,16.267,143.118,15.333
		c23.442-1.333,49.275-10.667,67.275-14c0,0-100.457-38.016-118.599-67.349c0,0-16.863-54.579,31.841-34
		c23.667,10,46.196,16.854,90.536,2.854c0,0-54.394,1.813-79.96-51.521c-33.797-33.333-48.292-32.737-89.242-20
		c0,0-39.841,9.104-82.091,58c0,0-40.667,50.667-73.523,56.946C434.31,143.446,351.69,187.183,319.024,188.516z"/>
	
		<path fill="#FFD522" stroke="#000000" stroke-width="7" stroke-linecap="round" stroke-linejoin="round" stroke-miterlimit="10" d="
		M636.75,131.167c0,0-56.473,29.56-186.028,6.113c0,0,44.646-26.846,47.878-40.146c0,0,50.194,21.357,135.332,16.032
		C633.933,113.166,634.552,128.07,636.75,131.167z"/>
</g>
</svg>
