<?xml version="1.0" encoding="utf-8"?>
<!-- Generator: Adobe Illustrator 15.1.0, SVG Export Plug-In . SVG Version: 6.00 Build 0)  -->
<!DOCTYPE svg PUBLIC "-//W3C//DTD SVG 1.1//EN" "http://www.w3.org/Graphics/SVG/1.1/DTD/svg11.dtd">
<svg version="1.1" id="Layer_1" xmlns="http://www.w3.org/2000/svg" xmlns:xlink="http://www.w3.org/1999/xlink" x="0px" y="0px"
	 width="468px" height="468px" viewBox="306 -75 468 468" enable-background="new 306 -75 468 468" xml:space="preserve">
<g id="ciuszki">
	
		<path fill="#AA2626" stroke="#000000" stroke-width="7" stroke-linecap="round" stroke-linejoin="round" stroke-miterlimit="10" d="
		M319.024,188.516c0,0,36.324,9.333,64.324,14c20.981,3.497,106.213-3.491,161.606-5.333c60.125-2,126.717,16.267,143.118,15.333
		c23.442-1.333,49.275-10.667,67.275-14c0,0-100.457-38.016-118.599-67.349c0,0-16.863-54.579,31.841-34
		c23.667,10,46.196,16.854,90.536,2.854c0,0-54.394,1.813-79.96-51.521c-33.797-33.333-48.292-32.737-89.242-20
		c0,0-39.841,9.104-82.091,58c0,0-40.667,50.667-73.523,56.946C434.31,143.446,351.69,187.183,319.024,188.516z"/>
	
		<path fill="#604020" stroke="#000000" stroke-width="7" stroke-linecap="round" stroke-linejoin="round" stroke-miterlimit="10" d="
		M632.771,122.771c0,0-72.271,27.063-143.604-34.938l-8.41,25.744C480.757,113.577,572.336,189.464,632.771,122.771z"/>
	
		<path fill="#604020" stroke="#000000" stroke-width="7" stroke-linecap="round" stroke-linejoin="round" stroke-miterlimit="10" d="
		M635.657,126.913c0,0-68.648,46.674-165.824-13.335L443,140.867C443,140.867,619.988,205.915,635.657,126.913z"/>
	
		<path fill="#EFA329" stroke="#000000" stroke-width="7" stroke-linecap="round" stroke-linejoin="round" stroke-miterlimit="10" d="
		M637.521,138.027c0,0-23.7,28.357-37.886,46.027c0,0,2.123-9.142-5.942-15.889c0,0-7.358-3.207-17.801,2.078
		c0,0,4.295-15.848-8.431-12.945c0,0,12.62-21.296-3.365-27.804c0,0,22.563-10.85,9.153-26.727c0,0,33.919,18.585,48.325,10.779"/>
	
		<path fill="#EFA329" stroke="#000000" stroke-width="7" stroke-linecap="round" stroke-linejoin="round" stroke-miterlimit="10" d="
		M630.691,114.93c0,0,23.988-17.372,38.482-28.34c0,0-3.442,6.95,1.504,14.437c0,0,5.09,4.421,14.244,2.658
		c0,0-6.446,11.898,4.017,12.638c0,0-13.99,14.314-2.841,23.541c0,0-19.668,3.346-12.356,19.6c0,0-22.724-23.484-35.456-20.63"/>
	
		<ellipse transform="matrix(-0.2211 -0.9753 0.9753 -0.2211 643.1549 779.3509)" fill="#EFE352" stroke="#000000" stroke-width="7" stroke-linecap="round" stroke-linejoin="round" stroke-miterlimit="10" cx="632.802" cy="132.839" rx="28.335" ry="18.001"/>
</g>
</svg>
