<?xml version="1.0" encoding="utf-8"?>
<!-- Generator: Adobe Illustrator 15.1.0, SVG Export Plug-In . SVG Version: 6.00 Build 0)  -->
<!DOCTYPE svg PUBLIC "-//W3C//DTD SVG 1.1//EN" "http://www.w3.org/Graphics/SVG/1.1/DTD/svg11.dtd">
<svg version="1.1" id="Layer_1" xmlns="http://www.w3.org/2000/svg" xmlns:xlink="http://www.w3.org/1999/xlink" x="0px" y="0px"
	 width="468px" height="468px" viewBox="310 -125.5 468 468" enable-background="new 310 -125.5 468 468" xml:space="preserve">
<g>
	
		<path fill="#4141D8" stroke="#000000" stroke-width="7" stroke-linecap="round" stroke-linejoin="round" stroke-miterlimit="10" d="
		M324.024,152.516c0,0,36.324,9.333,64.324,14c20.981,3.497,106.213-3.491,161.606-5.333c60.125-2,126.717,16.267,143.118,15.333
		c23.442-1.333,49.275-10.667,67.275-14c0,0-100.457-38.016-118.599-67.349c0,0-16.863-54.579,31.841-34
		c23.667,10,46.196,16.854,90.536,2.854c0,0-54.394,1.813-79.96-51.521c-33.797-33.333-48.292-32.737-89.242-20
		c0,0-39.841,9.104-82.091,58c0,0-40.667,50.667-73.523,56.946C439.31,107.446,356.69,151.183,324.024,152.516z"/>
	
		<path fill="#AC63E0" stroke="#000000" stroke-width="7" stroke-linecap="round" stroke-linejoin="round" stroke-miterlimit="10" d="
		M637.771,86.771c0,0-72.271,27.063-143.604-34.938l-8.41,25.744C485.757,77.577,577.336,153.464,637.771,86.771z"/>
	
		<path fill="#AC63E0" stroke="#000000" stroke-width="7" stroke-linecap="round" stroke-linejoin="round" stroke-miterlimit="10" d="
		M640.657,90.913c0,0-68.648,46.674-165.824-13.335L448,104.867C448,104.867,624.988,169.915,640.657,90.913z"/>
	
		<path fill="#F0C3F4" stroke="#000000" stroke-width="7" stroke-linecap="round" stroke-linejoin="round" stroke-miterlimit="10" d="
		M640.657,87.833c0,0,13.656-8.194,19.963-24.811c8.547-22.523,11.165-18.9,22.214-33.523c0,0-11.334-4.333-26.42,11
		c0,0,0-25.333,26.42-47.333c0,0-34.268,7.297-48.53,32.802c0,0,9.974-19.617,13.863-25.802c0,0-31.334,9.333-29.04,48.667
		c0,0-10.627-12.333-15.294-6.667c0,0,5.537,7.809,8.081,17.644c0,0-0.081,11.356,10.541,20.316"/>
	
		<ellipse transform="matrix(-0.2211 -0.9753 0.9753 -0.2211 684.3694 740.268)" fill="#5EBEDB" stroke="#000000" stroke-width="7" stroke-linecap="round" stroke-linejoin="round" stroke-miterlimit="10" cx="637.802" cy="96.839" rx="28.335" ry="18.001"/>
</g>
</svg>
