<?xml version="1.0" encoding="utf-8"?>
<!-- Generator: Adobe Illustrator 15.1.0, SVG Export Plug-In . SVG Version: 6.00 Build 0)  -->
<!DOCTYPE svg PUBLIC "-//W3C//DTD SVG 1.1//EN" "http://www.w3.org/Graphics/SVG/1.1/DTD/svg11.dtd">
<svg version="1.1" id="Layer_1" xmlns="http://www.w3.org/2000/svg" xmlns:xlink="http://www.w3.org/1999/xlink" x="0px" y="0px"
	 width="1080px" height="1340px" viewBox="0 0 1080 1340" enable-background="new 0 0 1080 1340" xml:space="preserve">
<g>
	
		<path fill="#FFFF00" stroke="#000000" stroke-width="7" stroke-linecap="round" stroke-linejoin="round" stroke-miterlimit="10" d="
		M530.022,533.197c11.003,6.868,3.973,22.546-6.948,21.584c3.394,8.71,20.612,12.473,27.343-2.154
		C556.521,539.365,542.979,521.668,530.022,533.197z"/>
	<path fill="none" stroke="#000000" stroke-width="7" stroke-linecap="round" stroke-linejoin="round" stroke-miterlimit="10" d="
		M492.517,467c-10.017,24.5,69.545,64.833,101.983,0"/>
	
		<line fill="none" stroke="#000000" stroke-width="7" stroke-linecap="round" stroke-linejoin="round" stroke-miterlimit="10" x1="539.5" y1="529.47" x2="539.5" y2="503.359"/>
	
		<line fill="none" stroke="#000000" stroke-width="7" stroke-linecap="round" stroke-linejoin="round" stroke-miterlimit="10" x1="582.508" y1="513.068" x2="582.508" y2="486.957"/>
	
		<polygon fill="#FFFF00" stroke="#000000" stroke-width="7" stroke-linecap="round" stroke-linejoin="round" stroke-miterlimit="10" points="
		582.508,510.266 587.643,520.67 599.123,522.338 590.814,530.438 592.777,541.872 582.508,536.473 572.238,541.872 
		574.199,530.438 565.891,522.338 577.373,520.67 	"/>
	
		<line fill="none" stroke="#000000" stroke-width="7" stroke-linecap="round" stroke-linejoin="round" stroke-miterlimit="10" x1="497.508" y1="512.721" x2="497.508" y2="486.61"/>
	
		<polygon fill="#FFFF00" stroke="#000000" stroke-width="7" stroke-linecap="round" stroke-linejoin="round" stroke-miterlimit="10" points="
		497.508,509.919 502.643,520.324 514.123,521.992 505.814,530.09 507.777,541.525 497.508,536.126 487.238,541.525 489.199,530.09 
		480.891,521.992 492.373,520.324 	"/>
</g>
</svg>
