<?xml version="1.0" encoding="utf-8"?>
<!-- Generator: Adobe Illustrator 15.1.0, SVG Export Plug-In . SVG Version: 6.00 Build 0)  -->
<!DOCTYPE svg PUBLIC "-//W3C//DTD SVG 1.1//EN" "http://www.w3.org/Graphics/SVG/1.1/DTD/svg11.dtd">
<svg version="1.1" id="Layer_1" xmlns="http://www.w3.org/2000/svg" xmlns:xlink="http://www.w3.org/1999/xlink" x="0px" y="0px"
	 width="216px" height="216px" viewBox="432 395 216 216" enable-background="new 432 395 216 216" xml:space="preserve">
<g>
	<path fill="none" stroke="#000000" stroke-width="7" stroke-linecap="round" stroke-linejoin="round" stroke-miterlimit="10" d="
		M492.517,467c-10.017,24.5,69.545,64.833,101.983,0"/>
	<g>
		
			<line fill="none" stroke="#000000" stroke-width="7" stroke-linecap="round" stroke-linejoin="round" stroke-miterlimit="10" x1="539.5" y1="529.47" x2="539.5" y2="503.359"/>
		
			<polygon fill="#B3FBFF" stroke="#000000" stroke-width="7" stroke-linecap="round" stroke-linejoin="round" stroke-miterlimit="10" points="
			539.5,526.668 544.635,537.073 556.116,538.741 547.808,546.839 549.771,558.274 539.5,552.875 529.231,558.274 531.192,546.839 
			522.884,538.741 534.365,537.073 		"/>
	</g>
	<g>
		
			<line fill="none" stroke="#000000" stroke-width="7" stroke-linecap="round" stroke-linejoin="round" stroke-miterlimit="10" x1="582.508" y1="513.068" x2="582.508" y2="486.957"/>
		
			<polygon fill="#B3FBFF" stroke="#000000" stroke-width="7" stroke-linecap="round" stroke-linejoin="round" stroke-miterlimit="10" points="
			582.508,510.266 587.643,520.67 599.123,522.338 590.814,530.438 592.777,541.872 582.508,536.473 572.238,541.872 
			574.199,530.438 565.891,522.338 577.373,520.67 		"/>
	</g>
	<g>
		
			<line fill="none" stroke="#000000" stroke-width="7" stroke-linecap="round" stroke-linejoin="round" stroke-miterlimit="10" x1="497.508" y1="512.721" x2="497.508" y2="486.61"/>
		
			<polygon fill="#B3FBFF" stroke="#000000" stroke-width="7" stroke-linecap="round" stroke-linejoin="round" stroke-miterlimit="10" points="
			497.508,509.919 502.643,520.324 514.123,521.992 505.814,530.09 507.777,541.525 497.508,536.126 487.238,541.525 
			489.199,530.09 480.891,521.992 492.373,520.324 		"/>
	</g>
</g>
</svg>
