<?xml version="1.0" encoding="utf-8"?>
<!-- Generator: Adobe Illustrator 15.1.0, SVG Export Plug-In . SVG Version: 6.00 Build 0)  -->
<!DOCTYPE svg PUBLIC "-//W3C//DTD SVG 1.1//EN" "http://www.w3.org/Graphics/SVG/1.1/DTD/svg11.dtd">
<svg version="1.1" id="Layer_1" xmlns="http://www.w3.org/2000/svg" xmlns:xlink="http://www.w3.org/1999/xlink" x="0px" y="0px"
	 width="1080px" height="1340px" viewBox="0 0 1080 1340" enable-background="new 0 0 1080 1340" xml:space="preserve">
<g>
	
		<polygon fill="#FF00FF" stroke="#000000" stroke-width="7" stroke-linecap="round" stroke-linejoin="round" stroke-miterlimit="10" points="
		550.082,558.642 539.715,553.391 529.512,558.955 531.302,547.472 522.858,539.488 534.332,537.642 539.316,527.144 
		544.617,537.486 556.142,538.982 547.943,547.219 	"/>
	
		<path fill="#FF00FF" stroke="#000000" stroke-width="7" stroke-linecap="round" stroke-linejoin="round" stroke-miterlimit="10" d="
		M487.356,515.699c11.003,6.868,3.973,22.546-6.948,21.584c3.394,8.71,20.612,12.473,27.343-2.154
		C513.853,521.867,500.314,504.17,487.356,515.699z"/>
	
		<path fill="#FF00FF" stroke="#000000" stroke-width="7" stroke-linecap="round" stroke-linejoin="round" stroke-miterlimit="10" d="
		M593.269,516.699c-11.003,6.868-3.974,22.546,6.948,21.584c-3.395,8.71-20.612,12.473-27.343-2.154
		C566.771,522.867,580.311,505.17,593.269,516.699z"/>
	<path fill="none" stroke="#000000" stroke-width="7" stroke-linecap="round" stroke-linejoin="round" stroke-miterlimit="10" d="
		M492.517,467c-10.017,24.5,69.545,64.833,101.983,0"/>
	
		<line fill="none" stroke="#000000" stroke-width="7" stroke-linecap="round" stroke-linejoin="round" stroke-miterlimit="10" x1="539.5" y1="529.47" x2="539.5" y2="503.359"/>
	
		<line fill="none" stroke="#000000" stroke-width="7" stroke-linecap="round" stroke-linejoin="round" stroke-miterlimit="10" x1="582.508" y1="513.068" x2="582.508" y2="486.957"/>
	
		<line fill="none" stroke="#000000" stroke-width="7" stroke-linecap="round" stroke-linejoin="round" stroke-miterlimit="10" x1="497.508" y1="512.721" x2="497.508" y2="486.61"/>
</g>
</svg>
