<?xml version="1.0" encoding="utf-8"?>
<!-- Generator: Adobe Illustrator 15.1.0, SVG Export Plug-In . SVG Version: 6.00 Build 0)  -->
<!DOCTYPE svg PUBLIC "-//W3C//DTD SVG 1.1//EN" "http://www.w3.org/Graphics/SVG/1.1/DTD/svg11.dtd">
<svg version="1.1" id="Layer_1" xmlns="http://www.w3.org/2000/svg" xmlns:xlink="http://www.w3.org/1999/xlink" x="0px" y="0px"
	 width="1080px" height="1340px" viewBox="0 0 1080 1340" enable-background="new 0 0 1080 1340" xml:space="preserve">
<g>
	<g>
		<g>
			<g>
				
					<path fill="#4817A5" stroke="#000000" stroke-width="10" stroke-linecap="round" stroke-linejoin="round" stroke-miterlimit="10" d="
					M513.5,751.5h139.345c0,0,5.862,17.982,0.259,29.991c-5.603,12.009,4.798,228.911,23.396,319.676
					c7.507,36.631-2.59,47.91-28.5,68.427l-4.285,21.844H583.36l-0.86-23.938c0,0-26-13.666-19.005-69.134
					c8.469-67.151-0.495-254.369-23.62-246.866"/>
				<g>
					
						<line fill="none" stroke="#000000" stroke-width="10" stroke-linecap="round" stroke-linejoin="round" stroke-miterlimit="10" x1="603.44" y1="1169.594" x2="603.44" y2="1191.438"/>
					
						<line fill="none" stroke="#000000" stroke-width="10" stroke-linecap="round" stroke-linejoin="round" stroke-miterlimit="10" x1="625.471" y1="1171.796" x2="625.471" y2="1191.438"/>
					
						<line fill="none" stroke="#000000" stroke-width="10" stroke-linecap="round" stroke-linejoin="round" stroke-miterlimit="10" x1="648" y1="1169.594" x2="583.35" y2="1169.594"/>
				</g>
			</g>
			<g>
				
					<path fill="#4817A5" stroke="#000000" stroke-width="10" stroke-linecap="round" stroke-linejoin="round" stroke-miterlimit="10" d="
					M566.947,751.5H427.603c0,0-5.86,17.982-0.259,29.991c5.604,12.009-4.796,228.911-23.396,319.676
					c-7.507,36.631,2.59,47.91,28.5,68.427l4.285,21.844h60.354l0.86-23.938c0,0,26-13.666,19.005-69.134
					c-8.469-67.151-5.482-256.599,23.62-246.866"/>
				<g>
					
						<line fill="none" stroke="#000000" stroke-width="10" stroke-linecap="round" stroke-linejoin="round" stroke-miterlimit="10" x1="477.007" y1="1169.594" x2="477.007" y2="1191.438"/>
					
						<line fill="none" stroke="#000000" stroke-width="10" stroke-linecap="round" stroke-linejoin="round" stroke-miterlimit="10" x1="454.977" y1="1171.796" x2="454.977" y2="1191.438"/>
					
						<line fill="none" stroke="#000000" stroke-width="10" stroke-linecap="round" stroke-linejoin="round" stroke-miterlimit="10" x1="432.447" y1="1169.594" x2="497.098" y2="1169.594"/>
				</g>
			</g>
		</g>
		<g>
			
				<line fill="none" stroke="#000000" stroke-width="10" stroke-linecap="round" stroke-linejoin="round" stroke-miterlimit="10" x1="427.344" y1="781.491" x2="650.5" y2="781.491"/>
			
				<line fill="none" stroke="#000000" stroke-width="10" stroke-linecap="round" stroke-linejoin="round" stroke-miterlimit="10" x1="520.324" y1="781.491" x2="520.324" y2="751.5"/>
			
				<line fill="none" stroke="#000000" stroke-width="10" stroke-linecap="round" stroke-linejoin="round" stroke-miterlimit="10" x1="480.324" y1="781.491" x2="480.324" y2="751.5"/>
			
				<line fill="none" stroke="#000000" stroke-width="10" stroke-linecap="round" stroke-linejoin="round" stroke-miterlimit="10" x1="440.324" y1="781.491" x2="440.324" y2="751.5"/>
			
				<line fill="none" stroke="#000000" stroke-width="10" stroke-linecap="round" stroke-linejoin="round" stroke-miterlimit="10" x1="560.324" y1="781.491" x2="560.324" y2="751.5"/>
			
				<line fill="none" stroke="#000000" stroke-width="10" stroke-linecap="round" stroke-linejoin="round" stroke-miterlimit="10" x1="600.324" y1="781.491" x2="600.324" y2="751.5"/>
			
				<line fill="none" stroke="#000000" stroke-width="10" stroke-linecap="round" stroke-linejoin="round" stroke-miterlimit="10" x1="640.324" y1="781.491" x2="640.324" y2="751.5"/>
		</g>
	</g>
	<g>
		
			<path fill="#B3FBFF" stroke="#000000" stroke-width="7" stroke-linecap="round" stroke-linejoin="round" stroke-miterlimit="10" d="
			M440.339,829.956c10.423,8.424,1.246,23.622-9.834,21.267c2.391,9.358,19.577,15.376,28.314,1.222
			C466.742,839.605,455.075,819.758,440.339,829.956z"/>
		
			<polygon fill="#B3FBFF" stroke="#000000" stroke-width="7" stroke-linecap="round" stroke-linejoin="round" stroke-miterlimit="10" points="
			496.047,819.498 485.429,813.191 474.212,818.364 476.931,806.316 468.542,797.248 480.842,796.105 486.876,785.331 
			491.761,796.674 503.874,799.082 494.595,807.231 		"/>
		
			<polygon fill="#B3FBFF" stroke="#000000" stroke-width="7" stroke-linecap="round" stroke-linejoin="round" stroke-miterlimit="10" points="
			506.937,887.231 496.318,880.926 485.102,886.099 487.82,874.05 479.432,864.982 491.731,863.84 497.764,853.064 502.649,864.408 
			514.764,866.816 505.484,874.966 		"/>
		
			<polygon fill="#B3FBFF" stroke="#000000" stroke-width="7" stroke-linecap="round" stroke-linejoin="round" stroke-miterlimit="10" points="
			604.396,1163.548 595.254,1158.119 585.596,1162.572 587.936,1152.199 580.717,1144.393 591.305,1143.41 596.499,1134.135 
			600.703,1143.899 611.133,1145.972 603.143,1152.988 		"/>
		
			<polygon fill="#B3FBFF" stroke="#000000" stroke-width="7" stroke-linecap="round" stroke-linejoin="round" stroke-miterlimit="10" points="
			499.032,964.856 488.414,958.551 477.198,963.724 479.915,951.674 471.529,942.605 483.827,941.465 489.861,930.689 
			494.745,942.032 506.86,944.44 497.579,952.591 		"/>
		
			<polygon fill="#B3FBFF" stroke="#000000" stroke-width="7" stroke-linecap="round" stroke-linejoin="round" stroke-miterlimit="10" points="
			494.679,1163.548 485.537,1158.119 475.881,1162.572 478.221,1152.199 471,1144.393 481.588,1143.41 486.784,1134.134 
			490.988,1143.899 501.416,1145.973 493.428,1152.988 		"/>
		
			<polygon fill="#B3FBFF" stroke="#000000" stroke-width="7" stroke-linecap="round" stroke-linejoin="round" stroke-miterlimit="10" points="
			453.782,1003.503 443.163,997.196 431.946,1002.369 434.664,990.32 426.277,981.252 438.576,980.11 444.61,969.335 
			449.494,980.679 461.607,983.086 452.329,991.236 		"/>
		
			<path fill="#B3FBFF" stroke="#000000" stroke-width="7" stroke-linecap="round" stroke-linejoin="round" stroke-miterlimit="10" d="
			M459.446,890.531c-9.845,9.094,0.317,23.65,11.22,20.567c-1.766,9.495-18.518,16.638-28.171,3.089
			C433.74,901.905,444.068,881.329,459.446,890.531z"/>
		
			<path fill="#B3FBFF" stroke="#000000" stroke-width="7" stroke-linecap="round" stroke-linejoin="round" stroke-miterlimit="10" d="
			M534.1,804.098c8.974,7.252,1.072,20.336-8.468,18.308c2.057,8.058,16.854,13.237,24.375,1.051
			C556.827,812.404,546.784,795.318,534.1,804.098z"/>
		
			<path fill="#B3FBFF" stroke="#000000" stroke-width="7" stroke-linecap="round" stroke-linejoin="round" stroke-miterlimit="10" d="
			M483.591,1004.807c10.422,8.425,1.246,23.622-9.834,21.268c2.391,9.357,19.577,15.376,28.314,1.221
			C509.994,1014.456,498.327,994.608,483.591,1004.807z"/>
		
			<polygon fill="#B3FBFF" stroke="#000000" stroke-width="7" stroke-linecap="round" stroke-linejoin="round" stroke-miterlimit="10" points="
			442.287,1065.042 431.667,1058.735 420.451,1063.908 423.169,1051.859 414.782,1042.791 427.081,1041.649 433.114,1030.874 
			437.999,1042.218 450.112,1044.625 440.834,1052.775 		"/>
		
			<polygon fill="#B3FBFF" stroke="#000000" stroke-width="7" stroke-linecap="round" stroke-linejoin="round" stroke-miterlimit="10" points="
			496.048,1107.339 485.428,1101.032 474.212,1106.205 476.93,1094.156 468.543,1085.088 480.841,1083.946 486.875,1073.171 
			491.76,1084.515 503.873,1086.922 494.595,1095.072 		"/>
		
			<path fill="#B3FBFF" stroke="#000000" stroke-width="7" stroke-linecap="round" stroke-linejoin="round" stroke-miterlimit="10" d="
			M436.916,1107.25c-9.843,9.094,0.318,23.651,11.221,20.568c-1.766,9.494-18.518,16.637-28.171,3.089
			C411.211,1118.624,421.539,1098.048,436.916,1107.25z"/>
		
			<path fill="#B3FBFF" stroke="#000000" stroke-width="7" stroke-linecap="round" stroke-linejoin="round" stroke-miterlimit="10" d="
			M621.06,855.431c8.737,14.155,25.926,8.139,28.314-1.221c-11.081,2.355-20.258-12.843-9.835-21.267
			C624.804,822.745,613.137,842.593,621.06,855.431z"/>
		
			<polygon fill="#B3FBFF" stroke="#000000" stroke-width="7" stroke-linecap="round" stroke-linejoin="round" stroke-miterlimit="10" points="
			585.283,810.219 576.005,802.069 588.118,799.661 593.002,788.318 599.037,799.093 611.336,800.235 602.948,809.304 
			605.666,821.352 594.45,816.179 583.832,822.485 		"/>
		
			<polygon fill="#B3FBFF" stroke="#000000" stroke-width="7" stroke-linecap="round" stroke-linejoin="round" stroke-miterlimit="10" points="
			574.396,877.953 565.115,869.804 577.229,867.396 582.115,856.052 588.148,866.827 600.447,867.97 592.059,877.037 
			594.777,889.086 583.561,883.913 572.942,890.219 		"/>
		
			<polygon fill="#B3FBFF" stroke="#000000" stroke-width="7" stroke-linecap="round" stroke-linejoin="round" stroke-miterlimit="10" points="
			582.3,955.578 573.021,947.428 585.134,945.02 590.018,933.677 596.052,944.452 608.35,945.593 599.965,954.661 602.682,966.711 
			591.465,961.538 580.847,967.844 		"/>
		
			<polygon fill="#B3FBFF" stroke="#000000" stroke-width="7" stroke-linecap="round" stroke-linejoin="round" stroke-miterlimit="10" points="
			627.55,994.224 618.271,986.073 630.385,983.666 635.269,972.322 641.303,983.098 653.602,984.239 645.215,993.308 
			647.933,1005.356 636.716,1000.184 626.097,1006.49 		"/>
		
			<path fill="#B3FBFF" stroke="#000000" stroke-width="7" stroke-linecap="round" stroke-linejoin="round" stroke-miterlimit="10" d="
			M637.384,917.176c-9.652,13.548-26.405,6.406-28.171-3.089c10.902,3.083,21.063-11.475,11.22-20.567
			C635.811,884.316,646.139,904.893,637.384,917.176z"/>
		
			<path fill="#B3FBFF" stroke="#000000" stroke-width="7" stroke-linecap="round" stroke-linejoin="round" stroke-miterlimit="10" d="
			M577.808,1030.281c8.737,14.154,25.926,8.138,28.314-1.221c-11.081,2.354-20.257-12.844-9.835-21.268
			C581.552,997.596,569.885,1017.443,577.808,1030.281z"/>
		
			<polygon fill="#B3FBFF" stroke="#000000" stroke-width="7" stroke-linecap="round" stroke-linejoin="round" stroke-miterlimit="10" points="
			639.045,1055.763 629.767,1047.612 641.88,1045.205 646.765,1033.861 652.798,1044.637 665.097,1045.778 656.71,1054.847 
			659.428,1066.896 648.211,1061.723 637.592,1068.029 		"/>
		
			<polygon fill="#B3FBFF" stroke="#000000" stroke-width="7" stroke-linecap="round" stroke-linejoin="round" stroke-miterlimit="10" points="
			585.284,1098.061 576.006,1089.909 588.119,1087.502 593.004,1076.158 599.037,1086.934 611.336,1088.075 602.949,1097.145 
			605.667,1109.192 594.451,1104.02 583.831,1110.326 		"/>
		
			<path fill="#B3FBFF" stroke="#000000" stroke-width="7" stroke-linecap="round" stroke-linejoin="round" stroke-miterlimit="10" d="
			M659.913,1133.895c-9.653,13.549-26.405,6.406-28.171-3.089c10.901,3.083,21.063-11.475,11.221-20.567
			C658.34,1101.035,668.668,1121.611,659.913,1133.895z"/>
	</g>
</g>
</svg>
