<?xml version="1.0" encoding="utf-8"?>
<!-- Generator: Adobe Illustrator 15.1.0, SVG Export Plug-In . SVG Version: 6.00 Build 0)  -->
<!DOCTYPE svg PUBLIC "-//W3C//DTD SVG 1.1//EN" "http://www.w3.org/Graphics/SVG/1.1/DTD/svg11.dtd">
<svg version="1.1" id="Layer_1" xmlns="http://www.w3.org/2000/svg" xmlns:xlink="http://www.w3.org/1999/xlink" x="0px" y="0px"
	 width="504px" height="504px" viewBox="288 715 504 504" enable-background="new 288 715 504 504" xml:space="preserve">
<g>
	<g>
		<g>
			<g>
				
					<path fill="#951DBC" stroke="#000000" stroke-width="10" stroke-linecap="round" stroke-linejoin="round" stroke-miterlimit="10" d="
					M513.275,753.5H652.62c0,0,5.862,17.982,0.259,29.991c-5.603,12.009,4.798,228.911,23.396,319.676
					c7.507,36.631-2.59,47.91-28.5,68.427l-4.285,21.844h-60.354l-0.86-23.938c0,0-26-13.666-19.005-69.134
					c8.469-67.151-0.495-254.369-23.62-246.866"/>
				<g>
					
						<line fill="none" stroke="#000000" stroke-width="10" stroke-linecap="round" stroke-linejoin="round" stroke-miterlimit="10" x1="603.216" y1="1171.594" x2="603.216" y2="1193.438"/>
					
						<line fill="none" stroke="#000000" stroke-width="10" stroke-linecap="round" stroke-linejoin="round" stroke-miterlimit="10" x1="625.246" y1="1173.796" x2="625.246" y2="1193.438"/>
					
						<line fill="none" stroke="#000000" stroke-width="10" stroke-linecap="round" stroke-linejoin="round" stroke-miterlimit="10" x1="647.775" y1="1171.594" x2="583.125" y2="1171.594"/>
				</g>
			</g>
			<g>
				
					<path fill="#951DBC" stroke="#000000" stroke-width="10" stroke-linecap="round" stroke-linejoin="round" stroke-miterlimit="10" d="
					M566.723,753.5H427.378c0,0-5.86,17.982-0.259,29.991c5.604,12.009-4.796,228.911-23.396,319.676
					c-7.507,36.631,2.59,47.91,28.5,68.427l4.285,21.844h60.354l0.86-23.938c0,0,26-13.666,19.005-69.134
					c-8.469-67.151-5.482-256.599,23.62-246.866"/>
				<g>
					
						<line fill="none" stroke="#000000" stroke-width="10" stroke-linecap="round" stroke-linejoin="round" stroke-miterlimit="10" x1="476.782" y1="1171.594" x2="476.782" y2="1193.438"/>
					
						<line fill="none" stroke="#000000" stroke-width="10" stroke-linecap="round" stroke-linejoin="round" stroke-miterlimit="10" x1="454.752" y1="1173.796" x2="454.752" y2="1193.438"/>
					
						<line fill="none" stroke="#000000" stroke-width="10" stroke-linecap="round" stroke-linejoin="round" stroke-miterlimit="10" x1="432.223" y1="1171.594" x2="496.873" y2="1171.594"/>
				</g>
			</g>
		</g>
		<g>
			
				<line fill="none" stroke="#000000" stroke-width="10" stroke-linecap="round" stroke-linejoin="round" stroke-miterlimit="10" x1="427.119" y1="783.491" x2="650.275" y2="783.491"/>
			
				<line fill="none" stroke="#000000" stroke-width="10" stroke-linecap="round" stroke-linejoin="round" stroke-miterlimit="10" x1="520.1" y1="783.491" x2="520.1" y2="753.5"/>
			
				<line fill="none" stroke="#000000" stroke-width="10" stroke-linecap="round" stroke-linejoin="round" stroke-miterlimit="10" x1="480.1" y1="783.491" x2="480.1" y2="753.5"/>
			
				<line fill="none" stroke="#000000" stroke-width="10" stroke-linecap="round" stroke-linejoin="round" stroke-miterlimit="10" x1="440.1" y1="783.491" x2="440.1" y2="753.5"/>
			
				<line fill="none" stroke="#000000" stroke-width="10" stroke-linecap="round" stroke-linejoin="round" stroke-miterlimit="10" x1="560.1" y1="783.491" x2="560.1" y2="753.5"/>
			
				<line fill="none" stroke="#000000" stroke-width="10" stroke-linecap="round" stroke-linejoin="round" stroke-miterlimit="10" x1="600.1" y1="783.491" x2="600.1" y2="753.5"/>
			
				<line fill="none" stroke="#000000" stroke-width="10" stroke-linecap="round" stroke-linejoin="round" stroke-miterlimit="10" x1="640.1" y1="783.491" x2="640.1" y2="753.5"/>
		</g>
	</g>
	
		<polygon fill="#FFF200" stroke="#000000" stroke-width="7" stroke-linecap="round" stroke-linejoin="round" stroke-miterlimit="10" points="
		464.739,1149.839 446.017,1143.002 429.77,1154.549 430.485,1134.629 414.483,1122.745 433.65,1117.271 440.008,1098.379 
		451.137,1114.917 471.067,1115.125 458.777,1130.819 	"/>
</g>
</svg>
