<?xml version="1.0" encoding="utf-8"?>
<!-- Generator: Adobe Illustrator 15.1.0, SVG Export Plug-In . SVG Version: 6.00 Build 0)  -->
<!DOCTYPE svg PUBLIC "-//W3C//DTD SVG 1.1//EN" "http://www.w3.org/Graphics/SVG/1.1/DTD/svg11.dtd">
<svg version="1.1" id="Layer_1" xmlns="http://www.w3.org/2000/svg" xmlns:xlink="http://www.w3.org/1999/xlink" x="0px" y="0px"
	 width="1080px" height="1340px" viewBox="0 0 1080 1340" enable-background="new 0 0 1080 1340" xml:space="preserve">
<g>
	<g>
		<g>
			<g>
				
					<path fill="#1D1D99" stroke="#000000" stroke-width="10" stroke-linecap="round" stroke-linejoin="round" stroke-miterlimit="10" d="
					M513.5,751.5h139.345c0,0,5.862,17.982,0.259,29.991c-5.603,12.009,4.798,228.911,23.396,319.676
					c7.507,36.631-2.59,47.91-28.5,68.427l-4.285,21.844H583.36l-0.86-23.938c0,0-26-13.666-19.005-69.134
					c8.469-67.151-0.495-254.369-23.62-246.866"/>
				<g>
					
						<line fill="none" stroke="#000000" stroke-width="10" stroke-linecap="round" stroke-linejoin="round" stroke-miterlimit="10" x1="603.44" y1="1169.594" x2="603.44" y2="1191.438"/>
					
						<line fill="none" stroke="#000000" stroke-width="10" stroke-linecap="round" stroke-linejoin="round" stroke-miterlimit="10" x1="625.471" y1="1171.796" x2="625.471" y2="1191.438"/>
					
						<line fill="none" stroke="#000000" stroke-width="10" stroke-linecap="round" stroke-linejoin="round" stroke-miterlimit="10" x1="648" y1="1169.594" x2="583.35" y2="1169.594"/>
				</g>
			</g>
			<g>
				
					<path fill="#1D1D99" stroke="#000000" stroke-width="10" stroke-linecap="round" stroke-linejoin="round" stroke-miterlimit="10" d="
					M566.947,751.5H427.603c0,0-5.86,17.982-0.259,29.991c5.604,12.009-4.796,228.911-23.396,319.676
					c-7.507,36.631,2.59,47.91,28.5,68.427l4.285,21.844h60.354l0.86-23.938c0,0,26-13.666,19.005-69.134
					c-8.469-67.151-5.482-256.599,23.62-246.866"/>
				<g>
					
						<line fill="none" stroke="#000000" stroke-width="10" stroke-linecap="round" stroke-linejoin="round" stroke-miterlimit="10" x1="477.007" y1="1169.594" x2="477.007" y2="1191.438"/>
					
						<line fill="none" stroke="#000000" stroke-width="10" stroke-linecap="round" stroke-linejoin="round" stroke-miterlimit="10" x1="454.977" y1="1171.796" x2="454.977" y2="1191.438"/>
					
						<line fill="none" stroke="#000000" stroke-width="10" stroke-linecap="round" stroke-linejoin="round" stroke-miterlimit="10" x1="432.447" y1="1169.594" x2="497.098" y2="1169.594"/>
				</g>
			</g>
		</g>
		<g>
			
				<line fill="none" stroke="#000000" stroke-width="10" stroke-linecap="round" stroke-linejoin="round" stroke-miterlimit="10" x1="427.344" y1="781.491" x2="650.5" y2="781.491"/>
			
				<line fill="none" stroke="#000000" stroke-width="10" stroke-linecap="round" stroke-linejoin="round" stroke-miterlimit="10" x1="520.324" y1="781.491" x2="520.324" y2="751.5"/>
			
				<line fill="none" stroke="#000000" stroke-width="10" stroke-linecap="round" stroke-linejoin="round" stroke-miterlimit="10" x1="480.324" y1="781.491" x2="480.324" y2="751.5"/>
			
				<line fill="none" stroke="#000000" stroke-width="10" stroke-linecap="round" stroke-linejoin="round" stroke-miterlimit="10" x1="440.324" y1="781.491" x2="440.324" y2="751.5"/>
			
				<line fill="none" stroke="#000000" stroke-width="10" stroke-linecap="round" stroke-linejoin="round" stroke-miterlimit="10" x1="560.324" y1="781.491" x2="560.324" y2="751.5"/>
			
				<line fill="none" stroke="#000000" stroke-width="10" stroke-linecap="round" stroke-linejoin="round" stroke-miterlimit="10" x1="600.324" y1="781.491" x2="600.324" y2="751.5"/>
			
				<line fill="none" stroke="#000000" stroke-width="10" stroke-linecap="round" stroke-linejoin="round" stroke-miterlimit="10" x1="640.324" y1="781.491" x2="640.324" y2="751.5"/>
		</g>
	</g>
	
		<path fill="#A0EAE8" stroke="#000000" stroke-width="7" stroke-linecap="round" stroke-linejoin="round" stroke-miterlimit="10" d="
		M542.085,781.491c-32,49.026-113.614,50.517-113.614,50.517l5.448-11.386C467.636,825,513.5,781.491,513.5,781.491H542.085z"/>
	
		<path fill="#A0EAE8" stroke="#000000" stroke-width="7" stroke-linecap="round" stroke-linejoin="round" stroke-miterlimit="10" d="
		M566.947,781.491c0,0,45.471,43.509,79.188,39.131l5.448,11.386c0,0-77.499-1.489-109.498-50.517H566.947L566.947,781.491z"/>
	<g>
		
			<path fill="#A0EAE8" stroke="#000000" stroke-width="7" stroke-linecap="round" stroke-linejoin="round" stroke-miterlimit="10" d="
			M564.831,1079.804c0,0,82.135,51.986,114.088,38.282c0,0,5.581,16.081-15.46,38.282c-11.85-2.534-64.967-9.552-96.967-58.579
			L564.831,1079.804z"/>
		
			<path fill="#A0EAE8" stroke="#000000" stroke-width="7" stroke-linecap="round" stroke-linejoin="round" stroke-miterlimit="10" d="
			M560.324,911.296c0,0,67.223,63.208,99.176,49.504l2.333,38.814c0,0-66.763-9.552-98.763-58.579L560.324,911.296z"/>
		
			<path fill="#A0EAE8" stroke="#000000" stroke-width="7" stroke-linecap="round" stroke-linejoin="round" stroke-miterlimit="10" d="
			M661.833,978.614c0,0-76.405,83.335-96.192,48.008l-1.7,55.96C563.939,1082.582,643.454,1054.415,661.833,978.614z"/>
		
			<path fill="#A0EAE8" stroke="#000000" stroke-width="7" stroke-linecap="round" stroke-linejoin="round" stroke-miterlimit="10" d="
			M651.609,812c0,0-77.104,101.722-96.893,66.395l7.104,41.688C561.821,920.081,633.229,887.801,651.609,812z"/>
		
			<polygon fill="#FFF200" stroke="#000000" stroke-width="7" stroke-linecap="round" stroke-linejoin="round" stroke-miterlimit="10" points="
			664.099,832.237 653.684,829.201 645.276,836.061 644.946,825.215 635.826,819.34 646.036,815.673 648.806,805.184 
			655.447,813.762 666.28,813.153 660.174,822.122 		"/>
		
			<polygon fill="#FFF200" stroke="#000000" stroke-width="7" stroke-linecap="round" stroke-linejoin="round" stroke-miterlimit="10" points="
			675.902,993.081 665.487,990.045 657.08,996.904 656.75,986.059 647.63,980.184 657.84,976.517 660.609,966.027 667.251,974.605 
			678.084,973.997 671.978,982.966 		"/>
		
			<polygon fill="#FFF200" stroke="#000000" stroke-width="7" stroke-linecap="round" stroke-linejoin="round" stroke-miterlimit="10" points="
			686.678,1147.497 677.184,1142.248 667.475,1147.095 669.534,1136.441 661.927,1128.707 672.693,1127.371 677.698,1117.746 
			682.294,1127.573 692.996,1129.358 685.069,1136.768 		"/>
	</g>
	<g>
		
			<path fill="#A0EAE8" stroke="#000000" stroke-width="7" stroke-linecap="round" stroke-linejoin="round" stroke-miterlimit="10" d="
			M512.223,1097.789c-32,49.027-85.116,56.045-96.967,58.579c-21.041-22.201-15.46-38.282-15.46-38.282
			c31.953,13.704,114.088-38.282,114.088-38.282L512.223,1097.789z"/>
		
			<path fill="#A0EAE8" stroke="#000000" stroke-width="7" stroke-linecap="round" stroke-linejoin="round" stroke-miterlimit="10" d="
			M515.646,941.035c-32,49.026-98.764,58.579-98.764,58.579l2.333-38.814c31.953,13.704,99.176-49.504,99.176-49.504
			L515.646,941.035z"/>
		
			<path fill="#A0EAE8" stroke="#000000" stroke-width="7" stroke-linecap="round" stroke-linejoin="round" stroke-miterlimit="10" d="
			M514.775,1082.582l-1.701-55.96c-19.787,35.327-96.192-48.008-96.192-48.008C435.261,1054.415,514.775,1082.582,514.775,1082.582z
			"/>
		
			<path fill="#A0EAE8" stroke="#000000" stroke-width="7" stroke-linecap="round" stroke-linejoin="round" stroke-miterlimit="10" d="
			M516.894,920.081l7.104-41.688C504.21,913.722,427.105,812,427.105,812C445.484,887.801,516.894,920.081,516.894,920.081z"/>
		
			<polygon fill="#FFF200" stroke="#000000" stroke-width="7" stroke-linecap="round" stroke-linejoin="round" stroke-miterlimit="10" points="
			418.541,822.122 412.435,813.153 423.268,813.762 429.909,805.184 432.679,815.673 442.889,819.34 433.769,825.215 
			433.438,836.061 425.031,829.201 414.616,832.237 		"/>
		
			<polygon fill="#FFF200" stroke="#000000" stroke-width="7" stroke-linecap="round" stroke-linejoin="round" stroke-miterlimit="10" points="
			406.737,982.966 400.631,973.997 411.464,974.605 418.105,966.027 420.875,976.517 431.085,980.184 421.965,986.059 
			421.635,996.904 413.228,990.045 402.813,993.081 		"/>
		
			<polygon fill="#FFF200" stroke="#000000" stroke-width="7" stroke-linecap="round" stroke-linejoin="round" stroke-miterlimit="10" points="
			393.646,1136.768 385.719,1129.358 396.421,1127.573 401.017,1117.746 406.021,1127.371 416.788,1128.707 409.181,1136.441 
			411.24,1147.095 401.531,1142.248 392.037,1147.497 		"/>
	</g>
	
		<polygon fill="#FFF200" stroke="#000000" stroke-width="7" stroke-linecap="round" stroke-linejoin="round" stroke-miterlimit="10" points="
		559.666,791.118 541.509,782.896 524.441,793.188 526.651,773.38 511.586,760.327 531.11,756.308 538.868,737.946 548.724,755.273 
		568.583,756.979 555.149,771.705 	"/>
</g>
</svg>
