<?xml version="1.0" encoding="utf-8"?>
<!-- Generator: Adobe Illustrator 15.1.0, SVG Export Plug-In . SVG Version: 6.00 Build 0)  -->
<!DOCTYPE svg PUBLIC "-//W3C//DTD SVG 1.1//EN" "http://www.w3.org/Graphics/SVG/1.1/DTD/svg11.dtd">
<svg version="1.1" id="Layer_1" xmlns="http://www.w3.org/2000/svg" xmlns:xlink="http://www.w3.org/1999/xlink" x="0px" y="0px"
	 width="504px" height="504px" viewBox="288 438 504 504" enable-background="new 288 438 504 504" xml:space="preserve">
<g>
	<g>
		<g>
			<g>
				
					<path fill="#951DBC" stroke="#000000" stroke-width="10" stroke-linecap="round" stroke-linejoin="round" stroke-miterlimit="10" d="
					M513.275,471.282H652.62c0,0,5.862,17.982,0.259,29.991c-5.603,12.009,4.798,228.911,23.396,319.676
					c7.507,36.631-2.59,47.91-28.5,68.427l-4.285,21.844h-60.354l-0.86-23.938c0,0-26-13.666-19.005-69.134
					c8.469-67.151-0.495-254.369-23.62-246.866"/>
				<g>
					
						<line fill="none" stroke="#000000" stroke-width="10" stroke-linecap="round" stroke-linejoin="round" stroke-miterlimit="10" x1="603.216" y1="889.376" x2="603.216" y2="911.22"/>
					
						<line fill="none" stroke="#000000" stroke-width="10" stroke-linecap="round" stroke-linejoin="round" stroke-miterlimit="10" x1="625.246" y1="891.578" x2="625.246" y2="911.22"/>
					
						<line fill="none" stroke="#000000" stroke-width="10" stroke-linecap="round" stroke-linejoin="round" stroke-miterlimit="10" x1="647.775" y1="889.376" x2="583.125" y2="889.376"/>
				</g>
			</g>
			<g>
				
					<path fill="#951DBC" stroke="#000000" stroke-width="10" stroke-linecap="round" stroke-linejoin="round" stroke-miterlimit="10" d="
					M566.723,471.282H427.378c0,0-5.86,17.982-0.259,29.991c5.604,12.009-4.796,228.911-23.396,319.676
					c-7.507,36.631,2.59,47.91,28.5,68.427l4.285,21.844h60.354l0.86-23.938c0,0,26-13.666,19.005-69.134
					c-8.469-67.151-5.482-256.599,23.62-246.866"/>
				<g>
					
						<line fill="none" stroke="#000000" stroke-width="10" stroke-linecap="round" stroke-linejoin="round" stroke-miterlimit="10" x1="476.782" y1="889.376" x2="476.782" y2="911.22"/>
					
						<line fill="none" stroke="#000000" stroke-width="10" stroke-linecap="round" stroke-linejoin="round" stroke-miterlimit="10" x1="454.752" y1="891.578" x2="454.752" y2="911.22"/>
					
						<line fill="none" stroke="#000000" stroke-width="10" stroke-linecap="round" stroke-linejoin="round" stroke-miterlimit="10" x1="432.223" y1="889.376" x2="496.873" y2="889.376"/>
				</g>
			</g>
		</g>
		<g>
			
				<line fill="none" stroke="#000000" stroke-width="10" stroke-linecap="round" stroke-linejoin="round" stroke-miterlimit="10" x1="427.119" y1="501.273" x2="650.275" y2="501.273"/>
			
				<line fill="none" stroke="#000000" stroke-width="10" stroke-linecap="round" stroke-linejoin="round" stroke-miterlimit="10" x1="520.1" y1="501.273" x2="520.1" y2="471.282"/>
			
				<line fill="none" stroke="#000000" stroke-width="10" stroke-linecap="round" stroke-linejoin="round" stroke-miterlimit="10" x1="480.1" y1="501.273" x2="480.1" y2="471.282"/>
			
				<line fill="none" stroke="#000000" stroke-width="10" stroke-linecap="round" stroke-linejoin="round" stroke-miterlimit="10" x1="440.1" y1="501.273" x2="440.1" y2="471.282"/>
			
				<line fill="none" stroke="#000000" stroke-width="10" stroke-linecap="round" stroke-linejoin="round" stroke-miterlimit="10" x1="560.1" y1="501.273" x2="560.1" y2="471.282"/>
			
				<line fill="none" stroke="#000000" stroke-width="10" stroke-linecap="round" stroke-linejoin="round" stroke-miterlimit="10" x1="600.1" y1="501.273" x2="600.1" y2="471.282"/>
			
				<line fill="none" stroke="#000000" stroke-width="10" stroke-linecap="round" stroke-linejoin="round" stroke-miterlimit="10" x1="640.1" y1="501.273" x2="640.1" y2="471.282"/>
		</g>
	</g>
	<g>
		
			<path fill="#FFF200" stroke="#000000" stroke-width="7" stroke-linecap="round" stroke-linejoin="round" stroke-miterlimit="10" d="
			M440.114,549.738c10.423,8.424,1.246,23.622-9.834,21.267c2.391,9.358,19.577,15.376,28.314,1.222
			C466.518,559.388,454.851,539.54,440.114,549.738z"/>
		
			<polygon fill="#FFF200" stroke="#000000" stroke-width="7" stroke-linecap="round" stroke-linejoin="round" stroke-miterlimit="10" points="
			495.822,539.28 485.204,532.974 473.987,538.146 476.706,526.099 468.317,517.03 480.617,515.888 486.651,505.113 
			491.536,516.456 503.649,518.864 494.37,527.014 		"/>
		
			<polygon fill="#FFF200" stroke="#000000" stroke-width="7" stroke-linecap="round" stroke-linejoin="round" stroke-miterlimit="10" points="
			506.712,607.014 496.094,600.708 484.877,605.881 487.596,593.832 479.207,584.765 491.507,583.622 497.539,572.847 
			502.425,584.19 514.539,586.599 505.26,594.748 		"/>
		
			<polygon fill="#FFF200" stroke="#000000" stroke-width="7" stroke-linecap="round" stroke-linejoin="round" stroke-miterlimit="10" points="
			604.171,883.33 595.029,877.901 585.371,882.354 587.711,871.981 580.492,864.175 591.08,863.192 596.274,853.917 
			600.479,863.682 610.908,865.754 602.918,872.771 		"/>
		
			<polygon fill="#FFF200" stroke="#000000" stroke-width="7" stroke-linecap="round" stroke-linejoin="round" stroke-miterlimit="10" points="
			498.808,684.639 488.189,678.333 476.974,683.506 479.69,671.456 471.305,662.388 483.603,661.247 489.637,650.472 
			494.521,661.814 506.636,664.223 497.354,672.373 		"/>
		
			<polygon fill="#FFF200" stroke="#000000" stroke-width="7" stroke-linecap="round" stroke-linejoin="round" stroke-miterlimit="10" points="
			494.454,883.33 485.313,877.901 475.656,882.354 477.996,871.981 470.775,864.175 481.363,863.192 486.56,853.916 
			490.764,863.682 501.191,865.755 493.203,872.771 		"/>
		
			<polygon fill="#FFF200" stroke="#000000" stroke-width="7" stroke-linecap="round" stroke-linejoin="round" stroke-miterlimit="10" points="
			453.558,723.285 442.938,716.979 431.722,722.151 434.439,710.103 426.053,701.034 438.352,699.893 444.386,689.117 
			449.27,700.461 461.383,702.868 452.104,711.019 		"/>
		
			<path fill="#FFF200" stroke="#000000" stroke-width="7" stroke-linecap="round" stroke-linejoin="round" stroke-miterlimit="10" d="
			M459.222,610.313c-9.845,9.094,0.317,23.65,11.22,20.567c-1.766,9.495-18.518,16.638-28.171,3.089
			C433.516,621.688,443.844,601.111,459.222,610.313z"/>
		
			<path fill="#FFF200" stroke="#000000" stroke-width="7" stroke-linecap="round" stroke-linejoin="round" stroke-miterlimit="10" d="
			M533.875,523.88c8.974,7.252,1.072,20.336-8.468,18.308c2.057,8.058,16.854,13.237,24.375,1.051
			C556.603,532.187,546.56,515.101,533.875,523.88z"/>
		
			<path fill="#FFF200" stroke="#000000" stroke-width="7" stroke-linecap="round" stroke-linejoin="round" stroke-miterlimit="10" d="
			M483.366,724.589c10.422,8.425,1.246,23.622-9.834,21.268c2.391,9.357,19.577,15.376,28.314,1.221
			C509.77,734.238,498.103,714.391,483.366,724.589z"/>
		
			<polygon fill="#FFF200" stroke="#000000" stroke-width="7" stroke-linecap="round" stroke-linejoin="round" stroke-miterlimit="10" points="
			442.063,784.824 431.442,778.518 420.227,783.69 422.944,771.642 414.558,762.573 426.856,761.432 432.89,750.656 437.774,762 
			449.888,764.407 440.609,772.558 		"/>
		
			<polygon fill="#FFF200" stroke="#000000" stroke-width="7" stroke-linecap="round" stroke-linejoin="round" stroke-miterlimit="10" points="
			495.823,827.121 485.203,820.814 473.987,825.987 476.705,813.938 468.318,804.87 480.616,803.729 486.65,792.953 
			491.535,804.297 503.648,806.704 494.37,814.854 		"/>
		
			<path fill="#FFF200" stroke="#000000" stroke-width="7" stroke-linecap="round" stroke-linejoin="round" stroke-miterlimit="10" d="
			M436.691,827.032c-9.843,9.094,0.318,23.651,11.221,20.568c-1.766,9.494-18.518,16.637-28.171,3.089
			C410.986,838.406,421.314,817.83,436.691,827.032z"/>
		
			<path fill="#FFF200" stroke="#000000" stroke-width="7" stroke-linecap="round" stroke-linejoin="round" stroke-miterlimit="10" d="
			M620.835,575.213c8.737,14.155,25.926,8.139,28.314-1.221c-11.081,2.355-20.258-12.843-9.835-21.267
			C624.579,542.527,612.912,562.375,620.835,575.213z"/>
		
			<polygon fill="#FFF200" stroke="#000000" stroke-width="7" stroke-linecap="round" stroke-linejoin="round" stroke-miterlimit="10" points="
			585.059,530.001 575.78,521.852 587.894,519.443 592.777,508.101 598.813,518.875 611.111,520.018 602.724,529.086 
			605.441,541.134 594.226,535.961 583.607,542.268 		"/>
		
			<polygon fill="#FFF200" stroke="#000000" stroke-width="7" stroke-linecap="round" stroke-linejoin="round" stroke-miterlimit="10" points="
			574.171,597.735 564.891,589.586 577.005,587.179 581.891,575.834 587.924,586.609 600.223,587.752 591.834,596.819 
			594.553,608.868 583.336,603.695 572.718,610.001 		"/>
		
			<polygon fill="#FFF200" stroke="#000000" stroke-width="7" stroke-linecap="round" stroke-linejoin="round" stroke-miterlimit="10" points="
			582.075,675.36 572.796,667.21 584.909,664.802 589.793,653.459 595.827,664.234 608.125,665.375 599.74,674.443 602.457,686.493 
			591.24,681.32 580.622,687.626 		"/>
		
			<polygon fill="#FFF200" stroke="#000000" stroke-width="7" stroke-linecap="round" stroke-linejoin="round" stroke-miterlimit="10" points="
			627.325,714.006 618.046,705.855 630.16,703.448 635.044,692.104 641.078,702.88 653.377,704.021 644.99,713.09 647.708,725.139 
			636.491,719.966 625.872,726.272 		"/>
		
			<path fill="#FFF200" stroke="#000000" stroke-width="7" stroke-linecap="round" stroke-linejoin="round" stroke-miterlimit="10" d="
			M637.159,636.958c-9.652,13.548-26.405,6.406-28.171-3.089c10.902,3.083,21.063-11.475,11.22-20.567
			C635.586,604.099,645.914,624.675,637.159,636.958z"/>
		
			<path fill="#FFF200" stroke="#000000" stroke-width="7" stroke-linecap="round" stroke-linejoin="round" stroke-miterlimit="10" d="
			M577.583,750.063c8.737,14.154,25.926,8.138,28.314-1.221c-11.081,2.354-20.257-12.844-9.835-21.268
			C581.327,717.378,569.66,737.226,577.583,750.063z"/>
		
			<polygon fill="#FFF200" stroke="#000000" stroke-width="7" stroke-linecap="round" stroke-linejoin="round" stroke-miterlimit="10" points="
			638.82,775.545 629.542,767.395 641.655,764.987 646.54,753.644 652.573,764.419 664.872,765.561 656.485,774.629 
			659.203,786.679 647.986,781.505 637.367,787.812 		"/>
		
			<polygon fill="#FFF200" stroke="#000000" stroke-width="7" stroke-linecap="round" stroke-linejoin="round" stroke-miterlimit="10" points="
			585.06,817.843 575.781,809.691 587.895,807.284 592.779,795.94 598.813,806.716 611.111,807.857 602.725,816.927 
			605.442,828.975 594.227,823.802 583.606,830.108 		"/>
		
			<path fill="#FFF200" stroke="#000000" stroke-width="7" stroke-linecap="round" stroke-linejoin="round" stroke-miterlimit="10" d="
			M659.688,853.677c-9.653,13.549-26.405,6.406-28.171-3.089c10.901,3.083,21.063-11.475,11.221-20.567
			C658.115,820.817,668.443,841.394,659.688,853.677z"/>
	</g>
</g>
</svg>
