<?xml version="1.0" encoding="utf-8"?>
<!-- Generator: Adobe Illustrator 15.1.0, SVG Export Plug-In . SVG Version: 6.00 Build 0)  -->
<!DOCTYPE svg PUBLIC "-//W3C//DTD SVG 1.1//EN" "http://www.w3.org/Graphics/SVG/1.1/DTD/svg11.dtd">
<svg version="1.1" id="Layer_1" xmlns="http://www.w3.org/2000/svg" xmlns:xlink="http://www.w3.org/1999/xlink" x="0px" y="0px"
	 width="504px" height="504px" viewBox="288 418 504 504" enable-background="new 288 418 504 504" xml:space="preserve">
<g>
	<g>
		<g>
			<g>
				
					<path fill="#4817A5" stroke="#000000" stroke-width="10" stroke-linecap="round" stroke-linejoin="round" stroke-miterlimit="10" d="
					M517.275,450.885H656.62c0,0,5.862,17.982,0.259,29.991c-5.603,12.009,4.798,228.911,23.396,319.676
					c7.507,36.631-2.59,47.91-28.5,68.427l-4.285,21.844h-60.354l-0.86-23.938c0,0-26-13.666-19.005-69.134
					c8.469-67.151-0.495-254.369-23.62-246.866"/>
				<g>
					
						<line fill="none" stroke="#000000" stroke-width="10" stroke-linecap="round" stroke-linejoin="round" stroke-miterlimit="10" x1="607.216" y1="868.979" x2="607.216" y2="890.822"/>
					
						<line fill="none" stroke="#000000" stroke-width="10" stroke-linecap="round" stroke-linejoin="round" stroke-miterlimit="10" x1="629.246" y1="871.181" x2="629.246" y2="890.822"/>
					
						<line fill="none" stroke="#000000" stroke-width="10" stroke-linecap="round" stroke-linejoin="round" stroke-miterlimit="10" x1="651.775" y1="868.979" x2="587.125" y2="868.979"/>
				</g>
			</g>
			<g>
				
					<path fill="#4817A5" stroke="#000000" stroke-width="10" stroke-linecap="round" stroke-linejoin="round" stroke-miterlimit="10" d="
					M570.723,450.885H431.378c0,0-5.86,17.982-0.259,29.991c5.604,12.009-4.796,228.911-23.396,319.676
					c-7.507,36.631,2.59,47.91,28.5,68.427l4.285,21.844h60.354l0.86-23.938c0,0,26-13.666,19.005-69.134
					c-8.469-67.151-5.482-256.599,23.62-246.866"/>
				<g>
					
						<line fill="none" stroke="#000000" stroke-width="10" stroke-linecap="round" stroke-linejoin="round" stroke-miterlimit="10" x1="480.782" y1="868.979" x2="480.782" y2="890.822"/>
					
						<line fill="none" stroke="#000000" stroke-width="10" stroke-linecap="round" stroke-linejoin="round" stroke-miterlimit="10" x1="458.752" y1="871.181" x2="458.752" y2="890.822"/>
					
						<line fill="none" stroke="#000000" stroke-width="10" stroke-linecap="round" stroke-linejoin="round" stroke-miterlimit="10" x1="436.223" y1="868.979" x2="500.873" y2="868.979"/>
				</g>
			</g>
		</g>
		<g>
			
				<line fill="none" stroke="#000000" stroke-width="10" stroke-linecap="round" stroke-linejoin="round" stroke-miterlimit="10" x1="431.119" y1="480.876" x2="654.275" y2="480.876"/>
			
				<line fill="none" stroke="#000000" stroke-width="10" stroke-linecap="round" stroke-linejoin="round" stroke-miterlimit="10" x1="524.1" y1="480.876" x2="524.1" y2="450.885"/>
			
				<line fill="none" stroke="#000000" stroke-width="10" stroke-linecap="round" stroke-linejoin="round" stroke-miterlimit="10" x1="484.1" y1="480.876" x2="484.1" y2="450.885"/>
			
				<line fill="none" stroke="#000000" stroke-width="10" stroke-linecap="round" stroke-linejoin="round" stroke-miterlimit="10" x1="444.1" y1="480.876" x2="444.1" y2="450.885"/>
			
				<line fill="none" stroke="#000000" stroke-width="10" stroke-linecap="round" stroke-linejoin="round" stroke-miterlimit="10" x1="564.1" y1="480.876" x2="564.1" y2="450.885"/>
			
				<line fill="none" stroke="#000000" stroke-width="10" stroke-linecap="round" stroke-linejoin="round" stroke-miterlimit="10" x1="604.1" y1="480.876" x2="604.1" y2="450.885"/>
			
				<line fill="none" stroke="#000000" stroke-width="10" stroke-linecap="round" stroke-linejoin="round" stroke-miterlimit="10" x1="644.1" y1="480.876" x2="644.1" y2="450.885"/>
		</g>
	</g>
	<g>
		
			<path fill="#B3FBFF" stroke="#000000" stroke-width="7" stroke-linecap="round" stroke-linejoin="round" stroke-miterlimit="10" d="
			M444.114,529.341c10.423,8.424,1.246,23.622-9.834,21.267c2.391,9.358,19.577,15.376,28.314,1.222
			C470.518,538.99,458.851,519.143,444.114,529.341z"/>
		
			<polygon fill="#B3FBFF" stroke="#000000" stroke-width="7" stroke-linecap="round" stroke-linejoin="round" stroke-miterlimit="10" points="
			499.822,518.883 489.204,512.576 477.987,517.749 480.706,505.701 472.317,496.633 484.617,495.49 490.651,484.716 
			495.536,496.059 507.649,498.467 498.37,506.616 		"/>
		
			<polygon fill="#B3FBFF" stroke="#000000" stroke-width="7" stroke-linecap="round" stroke-linejoin="round" stroke-miterlimit="10" points="
			510.712,586.616 500.094,580.311 488.877,585.483 491.596,573.435 483.207,564.367 495.507,563.225 501.539,552.449 
			506.425,563.793 518.539,566.201 509.26,574.351 		"/>
		
			<polygon fill="#B3FBFF" stroke="#000000" stroke-width="7" stroke-linecap="round" stroke-linejoin="round" stroke-miterlimit="10" points="
			608.171,862.933 599.029,857.504 589.371,861.957 591.711,851.584 584.492,843.777 595.08,842.795 600.274,833.52 
			604.479,843.284 614.908,845.356 606.918,852.373 		"/>
		
			<polygon fill="#B3FBFF" stroke="#000000" stroke-width="7" stroke-linecap="round" stroke-linejoin="round" stroke-miterlimit="10" points="
			502.808,664.241 492.189,657.936 480.974,663.108 483.69,651.059 475.305,641.99 487.603,640.85 493.637,630.074 498.521,641.417 
			510.636,643.825 501.354,651.976 		"/>
		
			<polygon fill="#B3FBFF" stroke="#000000" stroke-width="7" stroke-linecap="round" stroke-linejoin="round" stroke-miterlimit="10" points="
			498.454,862.933 489.313,857.504 479.656,861.957 481.996,851.584 474.775,843.777 485.363,842.795 490.56,833.519 
			494.764,843.284 505.191,845.357 497.203,852.373 		"/>
		
			<polygon fill="#B3FBFF" stroke="#000000" stroke-width="7" stroke-linecap="round" stroke-linejoin="round" stroke-miterlimit="10" points="
			457.558,702.888 446.938,696.581 435.722,701.754 438.439,689.705 430.053,680.637 442.352,679.495 448.386,668.72 
			453.27,680.063 465.383,682.471 456.104,690.621 		"/>
		
			<path fill="#B3FBFF" stroke="#000000" stroke-width="7" stroke-linecap="round" stroke-linejoin="round" stroke-miterlimit="10" d="
			M463.222,589.916c-9.845,9.094,0.317,23.65,11.22,20.567c-1.766,9.495-18.518,16.638-28.171,3.089
			C437.516,601.29,447.844,580.714,463.222,589.916z"/>
		
			<path fill="#B3FBFF" stroke="#000000" stroke-width="7" stroke-linecap="round" stroke-linejoin="round" stroke-miterlimit="10" d="
			M537.875,503.482c8.974,7.252,1.072,20.336-8.468,18.308c2.057,8.058,16.854,13.237,24.375,1.051
			C560.603,511.789,550.56,494.703,537.875,503.482z"/>
		
			<path fill="#B3FBFF" stroke="#000000" stroke-width="7" stroke-linecap="round" stroke-linejoin="round" stroke-miterlimit="10" d="
			M487.366,704.191c10.422,8.425,1.246,23.622-9.834,21.268c2.391,9.357,19.577,15.376,28.314,1.221
			C513.77,713.841,502.103,693.993,487.366,704.191z"/>
		
			<polygon fill="#B3FBFF" stroke="#000000" stroke-width="7" stroke-linecap="round" stroke-linejoin="round" stroke-miterlimit="10" points="
			446.063,764.427 435.442,758.12 424.227,763.293 426.944,751.244 418.558,742.176 430.856,741.034 436.89,730.259 
			441.774,741.603 453.888,744.01 444.609,752.16 		"/>
		
			<polygon fill="#B3FBFF" stroke="#000000" stroke-width="7" stroke-linecap="round" stroke-linejoin="round" stroke-miterlimit="10" points="
			499.823,806.724 489.203,800.417 477.987,805.59 480.705,793.541 472.318,784.473 484.616,783.331 490.65,772.556 
			495.535,783.899 507.648,786.307 498.37,794.457 		"/>
		
			<path fill="#B3FBFF" stroke="#000000" stroke-width="7" stroke-linecap="round" stroke-linejoin="round" stroke-miterlimit="10" d="
			M440.691,806.635c-9.843,9.094,0.318,23.651,11.221,20.568c-1.766,9.494-18.518,16.637-28.171,3.089
			C414.986,818.009,425.314,797.433,440.691,806.635z"/>
		
			<path fill="#B3FBFF" stroke="#000000" stroke-width="7" stroke-linecap="round" stroke-linejoin="round" stroke-miterlimit="10" d="
			M624.835,554.815c8.737,14.155,25.926,8.139,28.314-1.221c-11.081,2.355-20.258-12.843-9.835-21.267
			C628.579,522.13,616.912,541.978,624.835,554.815z"/>
		
			<polygon fill="#B3FBFF" stroke="#000000" stroke-width="7" stroke-linecap="round" stroke-linejoin="round" stroke-miterlimit="10" points="
			589.059,509.604 579.78,501.454 591.894,499.046 596.777,487.703 602.813,498.478 615.111,499.62 606.724,508.688 
			609.441,520.736 598.226,515.563 587.607,521.87 		"/>
		
			<polygon fill="#B3FBFF" stroke="#000000" stroke-width="7" stroke-linecap="round" stroke-linejoin="round" stroke-miterlimit="10" points="
			578.171,577.338 568.891,569.188 581.005,566.781 585.891,555.437 591.924,566.212 604.223,567.354 595.834,576.422 
			598.553,588.471 587.336,583.298 576.718,589.604 		"/>
		
			<polygon fill="#B3FBFF" stroke="#000000" stroke-width="7" stroke-linecap="round" stroke-linejoin="round" stroke-miterlimit="10" points="
			586.075,654.963 576.796,646.813 588.909,644.404 593.793,633.062 599.827,643.837 612.125,644.978 603.74,654.046 
			606.457,666.096 595.24,660.923 584.622,667.229 		"/>
		
			<polygon fill="#B3FBFF" stroke="#000000" stroke-width="7" stroke-linecap="round" stroke-linejoin="round" stroke-miterlimit="10" points="
			631.325,693.608 622.046,685.458 634.16,683.051 639.044,671.707 645.078,682.482 657.377,683.624 648.99,692.692 
			651.708,704.741 640.491,699.568 629.872,705.875 		"/>
		
			<path fill="#B3FBFF" stroke="#000000" stroke-width="7" stroke-linecap="round" stroke-linejoin="round" stroke-miterlimit="10" d="
			M641.159,616.561c-9.652,13.548-26.405,6.406-28.171-3.089c10.902,3.083,21.063-11.475,11.22-20.567
			C639.586,583.701,649.914,604.277,641.159,616.561z"/>
		
			<path fill="#B3FBFF" stroke="#000000" stroke-width="7" stroke-linecap="round" stroke-linejoin="round" stroke-miterlimit="10" d="
			M581.583,729.666c8.737,14.154,25.926,8.138,28.314-1.221c-11.081,2.354-20.257-12.844-9.835-21.268
			C585.327,696.98,573.66,716.828,581.583,729.666z"/>
		
			<polygon fill="#B3FBFF" stroke="#000000" stroke-width="7" stroke-linecap="round" stroke-linejoin="round" stroke-miterlimit="10" points="
			642.82,755.147 633.542,746.997 645.655,744.59 650.54,733.246 656.573,744.021 668.872,745.163 660.485,754.231 663.203,766.281 
			651.986,761.107 641.367,767.414 		"/>
		
			<polygon fill="#B3FBFF" stroke="#000000" stroke-width="7" stroke-linecap="round" stroke-linejoin="round" stroke-miterlimit="10" points="
			589.06,797.445 579.781,789.294 591.895,786.887 596.779,775.543 602.813,786.318 615.111,787.46 606.725,796.529 
			609.442,808.577 598.227,803.404 587.606,809.711 		"/>
		
			<path fill="#B3FBFF" stroke="#000000" stroke-width="7" stroke-linecap="round" stroke-linejoin="round" stroke-miterlimit="10" d="
			M663.688,833.279c-9.653,13.549-26.405,6.406-28.171-3.089c10.901,3.083,21.063-11.475,11.221-20.567
			C662.115,800.42,672.443,820.996,663.688,833.279z"/>
	</g>
</g>
</svg>
