<?xml version="1.0" encoding="utf-8"?>
<!-- Generator: Adobe Illustrator 15.1.0, SVG Export Plug-In . SVG Version: 6.00 Build 0)  -->
<!DOCTYPE svg PUBLIC "-//W3C//DTD SVG 1.1//EN" "http://www.w3.org/Graphics/SVG/1.1/DTD/svg11.dtd">
<svg version="1.1" id="Layer_1" xmlns="http://www.w3.org/2000/svg" xmlns:xlink="http://www.w3.org/1999/xlink" x="0px" y="0px"
	 width="504px" height="504px" viewBox="288 418 504 504" enable-background="new 288 418 504 504" xml:space="preserve">
<g>
	<g>
		<g>
			<g>
				
					<path fill="#2424D3" stroke="#000000" stroke-width="10" stroke-linecap="round" stroke-linejoin="round" stroke-miterlimit="10" d="
					M511.973,450.031h139.345c0,0,5.862,17.982,0.259,29.991c-5.603,12.009,4.798,228.911,23.396,319.676
					c7.507,36.631-2.59,47.91-28.5,68.427l-4.285,21.844h-60.354l-0.86-23.938c0,0-26-13.666-19.005-69.134
					c8.469-67.151-0.495-254.369-23.62-246.866"/>
				<g>
					
						<line fill="none" stroke="#000000" stroke-width="10" stroke-linecap="round" stroke-linejoin="round" stroke-miterlimit="10" x1="601.913" y1="868.125" x2="601.913" y2="889.969"/>
					
						<line fill="none" stroke="#000000" stroke-width="10" stroke-linecap="round" stroke-linejoin="round" stroke-miterlimit="10" x1="623.943" y1="870.327" x2="623.943" y2="889.969"/>
					
						<line fill="none" stroke="#000000" stroke-width="10" stroke-linecap="round" stroke-linejoin="round" stroke-miterlimit="10" x1="646.473" y1="868.125" x2="581.822" y2="868.125"/>
				</g>
			</g>
			<g>
				
					<path fill="#2424D3" stroke="#000000" stroke-width="10" stroke-linecap="round" stroke-linejoin="round" stroke-miterlimit="10" d="
					M565.42,450.031H426.075c0,0-5.86,17.982-0.259,29.991c5.604,12.009-4.796,228.911-23.396,319.676
					c-7.507,36.631,2.59,47.91,28.5,68.427l4.285,21.844h60.354l0.86-23.938c0,0,26-13.666,19.005-69.134
					c-8.469-67.151-5.482-256.599,23.62-246.866"/>
				<g>
					
						<line fill="none" stroke="#000000" stroke-width="10" stroke-linecap="round" stroke-linejoin="round" stroke-miterlimit="10" x1="475.479" y1="868.125" x2="475.479" y2="889.969"/>
					
						<line fill="none" stroke="#000000" stroke-width="10" stroke-linecap="round" stroke-linejoin="round" stroke-miterlimit="10" x1="453.449" y1="870.327" x2="453.449" y2="889.969"/>
					
						<line fill="none" stroke="#000000" stroke-width="10" stroke-linecap="round" stroke-linejoin="round" stroke-miterlimit="10" x1="430.92" y1="868.125" x2="495.57" y2="868.125"/>
				</g>
			</g>
		</g>
		<g>
			
				<line fill="none" stroke="#000000" stroke-width="10" stroke-linecap="round" stroke-linejoin="round" stroke-miterlimit="10" x1="425.816" y1="480.022" x2="648.973" y2="480.022"/>
			
				<line fill="none" stroke="#000000" stroke-width="10" stroke-linecap="round" stroke-linejoin="round" stroke-miterlimit="10" x1="518.797" y1="480.022" x2="518.797" y2="450.031"/>
			
				<line fill="none" stroke="#000000" stroke-width="10" stroke-linecap="round" stroke-linejoin="round" stroke-miterlimit="10" x1="478.797" y1="480.022" x2="478.797" y2="450.031"/>
			
				<line fill="none" stroke="#000000" stroke-width="10" stroke-linecap="round" stroke-linejoin="round" stroke-miterlimit="10" x1="438.797" y1="480.022" x2="438.797" y2="450.031"/>
			
				<line fill="none" stroke="#000000" stroke-width="10" stroke-linecap="round" stroke-linejoin="round" stroke-miterlimit="10" x1="558.797" y1="480.022" x2="558.797" y2="450.031"/>
			
				<line fill="none" stroke="#000000" stroke-width="10" stroke-linecap="round" stroke-linejoin="round" stroke-miterlimit="10" x1="598.797" y1="480.022" x2="598.797" y2="450.031"/>
			
				<line fill="none" stroke="#000000" stroke-width="10" stroke-linecap="round" stroke-linejoin="round" stroke-miterlimit="10" x1="638.797" y1="480.022" x2="638.797" y2="450.031"/>
		</g>
	</g>
	<g>
		
			<path fill="#FFF200" stroke="#000000" stroke-width="7" stroke-linecap="round" stroke-linejoin="round" stroke-miterlimit="10" d="
			M438.812,528.487c10.423,8.424,1.246,23.622-9.834,21.267c2.391,9.358,19.577,15.376,28.314,1.222
			C465.215,538.137,453.548,518.289,438.812,528.487z"/>
		
			<polygon fill="#FFF200" stroke="#000000" stroke-width="7" stroke-linecap="round" stroke-linejoin="round" stroke-miterlimit="10" points="
			494.52,518.029 483.901,511.723 472.685,516.896 475.403,504.848 467.015,495.779 479.314,494.637 485.349,483.862 
			490.233,495.205 502.347,497.613 493.067,505.763 		"/>
		
			<polygon fill="#FFF200" stroke="#000000" stroke-width="7" stroke-linecap="round" stroke-linejoin="round" stroke-miterlimit="10" points="
			505.409,585.763 494.791,579.457 483.574,584.63 486.293,572.581 477.904,563.514 490.204,562.371 496.236,551.596 
			501.122,562.939 513.236,565.348 503.957,573.497 		"/>
		
			<polygon fill="#FFF200" stroke="#000000" stroke-width="7" stroke-linecap="round" stroke-linejoin="round" stroke-miterlimit="10" points="
			602.868,862.079 593.727,856.65 584.068,861.104 586.408,850.73 579.189,842.924 589.777,841.941 594.972,832.666 
			599.176,842.431 609.605,844.503 601.615,851.52 		"/>
		
			<polygon fill="#FFF200" stroke="#000000" stroke-width="7" stroke-linecap="round" stroke-linejoin="round" stroke-miterlimit="10" points="
			497.505,663.388 486.887,657.082 475.671,662.255 478.388,650.205 470.002,641.137 482.3,639.996 488.334,629.221 
			493.218,640.563 505.333,642.972 496.052,651.122 		"/>
		
			<polygon fill="#FFF200" stroke="#000000" stroke-width="7" stroke-linecap="round" stroke-linejoin="round" stroke-miterlimit="10" points="
			493.151,862.079 484.01,856.65 474.354,861.104 476.693,850.73 469.473,842.924 480.061,841.941 485.257,832.665 489.461,842.431 
			499.889,844.504 491.9,851.52 		"/>
		
			<polygon fill="#FFF200" stroke="#000000" stroke-width="7" stroke-linecap="round" stroke-linejoin="round" stroke-miterlimit="10" points="
			452.255,702.034 441.636,695.728 430.419,700.9 433.137,688.852 424.75,679.783 437.049,678.642 443.083,667.866 447.967,679.21 
			460.08,681.617 450.802,689.768 		"/>
		
			<path fill="#FFF200" stroke="#000000" stroke-width="7" stroke-linecap="round" stroke-linejoin="round" stroke-miterlimit="10" d="
			M457.919,589.063c-9.845,9.094,0.317,23.65,11.22,20.567c-1.766,9.495-18.518,16.638-28.171,3.089
			C432.213,600.437,442.541,579.86,457.919,589.063z"/>
		
			<path fill="#FFF200" stroke="#000000" stroke-width="7" stroke-linecap="round" stroke-linejoin="round" stroke-miterlimit="10" d="
			M532.572,502.629c8.974,7.252,1.072,20.336-8.468,18.308c2.057,8.058,16.854,13.237,24.375,1.051
			C555.3,510.936,545.257,493.85,532.572,502.629z"/>
		
			<path fill="#FFF200" stroke="#000000" stroke-width="7" stroke-linecap="round" stroke-linejoin="round" stroke-miterlimit="10" d="
			M482.063,703.338c10.422,8.425,1.246,23.622-9.834,21.268c2.391,9.357,19.577,15.376,28.314,1.221
			C508.467,712.987,496.8,693.14,482.063,703.338z"/>
		
			<polygon fill="#FFF200" stroke="#000000" stroke-width="7" stroke-linecap="round" stroke-linejoin="round" stroke-miterlimit="10" points="
			440.76,763.573 430.14,757.267 418.924,762.439 421.642,750.391 413.255,741.322 425.554,740.181 431.587,729.405 
			436.472,740.749 448.585,743.156 439.307,751.307 		"/>
		
			<polygon fill="#FFF200" stroke="#000000" stroke-width="7" stroke-linecap="round" stroke-linejoin="round" stroke-miterlimit="10" points="
			494.521,805.87 483.9,799.563 472.685,804.736 475.402,792.688 467.016,783.619 479.313,782.478 485.348,771.702 490.232,783.046 
			502.346,785.453 493.067,793.604 		"/>
		
			<path fill="#FFF200" stroke="#000000" stroke-width="7" stroke-linecap="round" stroke-linejoin="round" stroke-miterlimit="10" d="
			M435.389,805.781c-9.843,9.094,0.318,23.651,11.221,20.568c-1.766,9.494-18.518,16.637-28.171,3.089
			C409.684,817.155,420.012,796.579,435.389,805.781z"/>
		
			<path fill="#FFF200" stroke="#000000" stroke-width="7" stroke-linecap="round" stroke-linejoin="round" stroke-miterlimit="10" d="
			M619.532,553.962c8.737,14.155,25.926,8.139,28.314-1.221c-11.081,2.355-20.258-12.843-9.835-21.267
			C623.276,521.276,611.609,541.124,619.532,553.962z"/>
		
			<polygon fill="#FFF200" stroke="#000000" stroke-width="7" stroke-linecap="round" stroke-linejoin="round" stroke-miterlimit="10" points="
			583.756,508.75 574.478,500.601 586.591,498.192 591.475,486.85 597.51,497.624 609.809,498.767 601.421,507.835 604.139,519.883 
			592.923,514.71 582.305,521.017 		"/>
		
			<polygon fill="#FFF200" stroke="#000000" stroke-width="7" stroke-linecap="round" stroke-linejoin="round" stroke-miterlimit="10" points="
			572.868,576.484 563.588,568.335 575.702,565.928 580.588,554.583 586.621,565.358 598.92,566.501 590.531,575.568 
			593.25,587.617 582.033,582.444 571.415,588.75 		"/>
		
			<polygon fill="#FFF200" stroke="#000000" stroke-width="7" stroke-linecap="round" stroke-linejoin="round" stroke-miterlimit="10" points="
			580.772,654.109 571.493,645.959 583.606,643.551 588.49,632.208 594.524,642.983 606.822,644.124 598.438,653.192 
			601.154,665.242 589.938,660.069 579.319,666.375 		"/>
		
			<polygon fill="#FFF200" stroke="#000000" stroke-width="7" stroke-linecap="round" stroke-linejoin="round" stroke-miterlimit="10" points="
			626.022,692.755 616.743,684.604 628.857,682.197 633.741,670.854 639.775,681.629 652.074,682.771 643.688,691.839 
			646.405,703.888 635.188,698.715 624.569,705.021 		"/>
		
			<path fill="#FFF200" stroke="#000000" stroke-width="7" stroke-linecap="round" stroke-linejoin="round" stroke-miterlimit="10" d="
			M635.856,615.707c-9.652,13.548-26.405,6.406-28.171-3.089c10.902,3.083,21.063-11.475,11.22-20.567
			C634.283,582.848,644.611,603.424,635.856,615.707z"/>
		
			<path fill="#FFF200" stroke="#000000" stroke-width="7" stroke-linecap="round" stroke-linejoin="round" stroke-miterlimit="10" d="
			M576.28,728.813c8.737,14.154,25.926,8.138,28.314-1.221c-11.081,2.354-20.257-12.844-9.835-21.268
			C580.024,696.127,568.357,715.975,576.28,728.813z"/>
		
			<polygon fill="#FFF200" stroke="#000000" stroke-width="7" stroke-linecap="round" stroke-linejoin="round" stroke-miterlimit="10" points="
			637.518,754.294 628.239,746.144 640.353,743.736 645.237,732.393 651.271,743.168 663.569,744.31 655.183,753.378 657.9,765.428 
			646.684,760.254 636.064,766.561 		"/>
		
			<polygon fill="#FFF200" stroke="#000000" stroke-width="7" stroke-linecap="round" stroke-linejoin="round" stroke-miterlimit="10" points="
			583.757,796.592 574.479,788.44 586.592,786.033 591.477,774.689 597.51,785.465 609.809,786.606 601.422,795.676 604.14,807.724 
			592.924,802.551 582.304,808.857 		"/>
		
			<path fill="#FFF200" stroke="#000000" stroke-width="7" stroke-linecap="round" stroke-linejoin="round" stroke-miterlimit="10" d="
			M658.386,832.426c-9.653,13.549-26.405,6.406-28.171-3.089c10.901,3.083,21.063-11.475,11.221-20.567
			C656.813,799.566,667.141,820.143,658.386,832.426z"/>
	</g>
</g>
</svg>
