<?xml version="1.0" encoding="utf-8"?>
<!-- Generator: Adobe Illustrator 15.1.0, SVG Export Plug-In . SVG Version: 6.00 Build 0)  -->
<!DOCTYPE svg PUBLIC "-//W3C//DTD SVG 1.1//EN" "http://www.w3.org/Graphics/SVG/1.1/DTD/svg11.dtd">
<svg version="1.1" id="Layer_1" xmlns="http://www.w3.org/2000/svg" xmlns:xlink="http://www.w3.org/1999/xlink" x="0px" y="0px"
	 width="504px" height="504px" viewBox="288 418 504 504" enable-background="new 288 418 504 504" xml:space="preserve">
<g>
	<g>
		<g>
			<g>
				
					<path fill="#951DBC" stroke="#000000" stroke-width="10" stroke-linecap="round" stroke-linejoin="round" stroke-miterlimit="10" d="
					M513.064,461.5h139.345c0,0,5.862,17.982,0.259,29.991c-5.603,12.009,4.798,228.911,23.396,319.676
					c7.507,36.631-2.59,47.91-28.5,68.427l-4.285,21.844h-60.354l-0.86-23.938c0,0-26-13.666-19.005-69.134
					c8.469-67.151-0.495-254.369-23.62-246.866"/>
				<g>
					
						<line fill="none" stroke="#000000" stroke-width="10" stroke-linecap="round" stroke-linejoin="round" stroke-miterlimit="10" x1="603.005" y1="879.594" x2="603.005" y2="901.438"/>
					
						<line fill="none" stroke="#000000" stroke-width="10" stroke-linecap="round" stroke-linejoin="round" stroke-miterlimit="10" x1="625.035" y1="881.796" x2="625.035" y2="901.438"/>
					
						<line fill="none" stroke="#000000" stroke-width="10" stroke-linecap="round" stroke-linejoin="round" stroke-miterlimit="10" x1="647.564" y1="879.594" x2="582.914" y2="879.594"/>
				</g>
			</g>
			<g>
				
					<path fill="#951DBC" stroke="#000000" stroke-width="10" stroke-linecap="round" stroke-linejoin="round" stroke-miterlimit="10" d="
					M566.512,461.5H427.167c0,0-5.86,17.982-0.259,29.991c5.604,12.009-4.796,228.911-23.396,319.676
					c-7.507,36.631,2.59,47.91,28.5,68.427l4.285,21.844h60.354l0.86-23.938c0,0,26-13.666,19.005-69.134
					c-8.469-67.151-5.482-256.599,23.62-246.866"/>
				<g>
					
						<line fill="none" stroke="#000000" stroke-width="10" stroke-linecap="round" stroke-linejoin="round" stroke-miterlimit="10" x1="476.571" y1="879.594" x2="476.571" y2="901.438"/>
					
						<line fill="none" stroke="#000000" stroke-width="10" stroke-linecap="round" stroke-linejoin="round" stroke-miterlimit="10" x1="454.541" y1="881.796" x2="454.541" y2="901.438"/>
					
						<line fill="none" stroke="#000000" stroke-width="10" stroke-linecap="round" stroke-linejoin="round" stroke-miterlimit="10" x1="432.012" y1="879.594" x2="496.662" y2="879.594"/>
				</g>
			</g>
		</g>
		<g>
			
				<line fill="none" stroke="#000000" stroke-width="10" stroke-linecap="round" stroke-linejoin="round" stroke-miterlimit="10" x1="426.908" y1="491.491" x2="650.064" y2="491.491"/>
			
				<line fill="none" stroke="#000000" stroke-width="10" stroke-linecap="round" stroke-linejoin="round" stroke-miterlimit="10" x1="519.889" y1="491.491" x2="519.889" y2="461.5"/>
			
				<line fill="none" stroke="#000000" stroke-width="10" stroke-linecap="round" stroke-linejoin="round" stroke-miterlimit="10" x1="479.889" y1="491.491" x2="479.889" y2="461.5"/>
			
				<line fill="none" stroke="#000000" stroke-width="10" stroke-linecap="round" stroke-linejoin="round" stroke-miterlimit="10" x1="439.889" y1="491.491" x2="439.889" y2="461.5"/>
			
				<line fill="none" stroke="#000000" stroke-width="10" stroke-linecap="round" stroke-linejoin="round" stroke-miterlimit="10" x1="559.889" y1="491.491" x2="559.889" y2="461.5"/>
			
				<line fill="none" stroke="#000000" stroke-width="10" stroke-linecap="round" stroke-linejoin="round" stroke-miterlimit="10" x1="599.889" y1="491.491" x2="599.889" y2="461.5"/>
			
				<line fill="none" stroke="#000000" stroke-width="10" stroke-linecap="round" stroke-linejoin="round" stroke-miterlimit="10" x1="639.889" y1="491.491" x2="639.889" y2="461.5"/>
		</g>
	</g>
	
		<path fill="#F7CFFF" stroke="#000000" stroke-width="7" stroke-linecap="round" stroke-linejoin="round" stroke-miterlimit="10" d="
		M541.649,491.491c-32,49.026-113.614,50.517-113.614,50.517l5.448-11.386c33.717,4.378,79.581-39.131,79.581-39.131H541.649z"/>
	
		<path fill="#F7CFFF" stroke="#000000" stroke-width="7" stroke-linecap="round" stroke-linejoin="round" stroke-miterlimit="10" d="
		M566.512,491.491c0,0,45.471,43.509,79.188,39.131l5.448,11.386c0,0-77.499-1.489-109.498-50.517H566.512L566.512,491.491z"/>
	<g>
		
			<path fill="#F7CFFF" stroke="#000000" stroke-width="7" stroke-linecap="round" stroke-linejoin="round" stroke-miterlimit="10" d="
			M564.396,789.804c0,0,82.135,51.986,114.088,38.282c0,0,5.581,16.081-15.46,38.282c-11.85-2.534-64.967-9.552-96.967-58.579
			L564.396,789.804z"/>
		
			<path fill="#F7CFFF" stroke="#000000" stroke-width="7" stroke-linecap="round" stroke-linejoin="round" stroke-miterlimit="10" d="
			M559.889,621.296c0,0,67.223,63.208,99.176,49.504l2.333,38.814c0,0-66.763-9.552-98.763-58.579L559.889,621.296z"/>
		
			<path fill="#F7CFFF" stroke="#000000" stroke-width="7" stroke-linecap="round" stroke-linejoin="round" stroke-miterlimit="10" d="
			M661.397,688.614c0,0-76.405,83.335-96.192,48.008l-1.7,55.96C563.504,792.582,643.019,764.415,661.397,688.614z"/>
		
			<path fill="#F7CFFF" stroke="#000000" stroke-width="7" stroke-linecap="round" stroke-linejoin="round" stroke-miterlimit="10" d="
			M651.174,522c0,0-77.104,101.722-96.893,66.395l7.104,41.688C561.386,630.081,632.794,597.801,651.174,522z"/>
		
			<polygon fill="#CAFDFF" stroke="#000000" stroke-width="7" stroke-linecap="round" stroke-linejoin="round" stroke-miterlimit="10" points="
			663.663,542.237 653.248,539.201 644.841,546.061 644.511,535.215 635.391,529.34 645.601,525.673 648.37,515.184 
			655.012,523.762 665.845,523.153 659.738,532.122 		"/>
		
			<polygon fill="#CAFDFF" stroke="#000000" stroke-width="7" stroke-linecap="round" stroke-linejoin="round" stroke-miterlimit="10" points="
			675.467,703.081 665.052,700.045 656.645,706.904 656.314,696.059 647.194,690.184 657.404,686.517 660.174,676.027 
			666.815,684.605 677.648,683.997 671.542,692.966 		"/>
		
			<polygon fill="#CAFDFF" stroke="#000000" stroke-width="7" stroke-linecap="round" stroke-linejoin="round" stroke-miterlimit="10" points="
			686.242,857.497 676.748,852.248 667.039,857.095 669.099,846.441 661.491,838.707 672.258,837.371 677.263,827.746 
			681.858,837.573 692.561,839.358 684.634,846.768 		"/>
	</g>
	<g>
		
			<path fill="#F7CFFF" stroke="#000000" stroke-width="7" stroke-linecap="round" stroke-linejoin="round" stroke-miterlimit="10" d="
			M511.787,807.789c-32,49.027-85.116,56.045-96.967,58.579c-21.041-22.201-15.46-38.282-15.46-38.282
			c31.953,13.704,114.088-38.282,114.088-38.282L511.787,807.789z"/>
		
			<path fill="#F7CFFF" stroke="#000000" stroke-width="7" stroke-linecap="round" stroke-linejoin="round" stroke-miterlimit="10" d="
			M515.21,651.035c-32,49.026-98.764,58.579-98.764,58.579l2.333-38.814c31.953,13.704,99.176-49.504,99.176-49.504L515.21,651.035z
			"/>
		
			<path fill="#F7CFFF" stroke="#000000" stroke-width="7" stroke-linecap="round" stroke-linejoin="round" stroke-miterlimit="10" d="
			M514.34,792.582l-1.701-55.96c-19.787,35.327-96.192-48.008-96.192-48.008C434.825,764.415,514.34,792.582,514.34,792.582z"/>
		
			<path fill="#F7CFFF" stroke="#000000" stroke-width="7" stroke-linecap="round" stroke-linejoin="round" stroke-miterlimit="10" d="
			M516.458,630.081l7.104-41.688C503.774,623.722,426.67,522,426.67,522C445.049,597.801,516.458,630.081,516.458,630.081z"/>
		
			<polygon fill="#CAFDFF" stroke="#000000" stroke-width="7" stroke-linecap="round" stroke-linejoin="round" stroke-miterlimit="10" points="
			418.105,532.122 412,523.153 422.832,523.762 429.474,515.184 432.243,525.673 442.453,529.34 433.333,535.215 433.003,546.061 
			424.596,539.201 414.181,542.237 		"/>
		
			<polygon fill="#CAFDFF" stroke="#000000" stroke-width="7" stroke-linecap="round" stroke-linejoin="round" stroke-miterlimit="10" points="
			406.301,692.966 400.195,683.997 411.028,684.605 417.669,676.027 420.439,686.517 430.649,690.184 421.529,696.059 
			421.199,706.904 412.792,700.045 402.377,703.081 		"/>
		
			<polygon fill="#CAFDFF" stroke="#000000" stroke-width="7" stroke-linecap="round" stroke-linejoin="round" stroke-miterlimit="10" points="
			393.21,846.768 385.283,839.358 395.985,837.573 400.582,827.746 405.585,837.371 416.353,838.707 408.746,846.441 
			410.805,857.095 401.096,852.248 391.602,857.497 		"/>
	</g>
	
		<polygon fill="#FFF200" stroke="#000000" stroke-width="7" stroke-linecap="round" stroke-linejoin="round" stroke-miterlimit="10" points="
		559.23,501.118 541.073,492.896 524.006,503.188 526.216,483.38 511.15,470.327 530.675,466.308 538.433,447.946 548.288,465.273 
		568.147,466.979 554.714,481.705 	"/>
</g>
</svg>
