<?xml version="1.0" encoding="utf-8"?>
<!-- Generator: Adobe Illustrator 15.1.0, SVG Export Plug-In . SVG Version: 6.00 Build 0)  -->
<!DOCTYPE svg PUBLIC "-//W3C//DTD SVG 1.1//EN" "http://www.w3.org/Graphics/SVG/1.1/DTD/svg11.dtd">
<svg version="1.1" id="Layer_1" xmlns="http://www.w3.org/2000/svg" xmlns:xlink="http://www.w3.org/1999/xlink" x="0px" y="0px"
	 width="504px" height="504px" viewBox="288 424 504 504" enable-background="new 288 424 504 504" xml:space="preserve">
<g>
	<g>
		<g>
			<g>
				
					<path fill="#6D0C0C" stroke="#000000" stroke-width="10" stroke-linecap="round" stroke-linejoin="round" stroke-miterlimit="10" d="
					M513.275,462.5H652.62c0,0,5.862,17.982,0.259,29.991c-5.603,12.009,4.798,228.911,23.396,319.676
					c7.507,36.631-2.59,47.91-28.5,68.427l-4.285,21.844h-60.354l-0.86-23.938c0,0-26-13.666-19.005-69.134
					c8.469-67.151-0.495-254.369-23.62-246.866"/>
				<g>
					
						<line fill="none" stroke="#000000" stroke-width="10" stroke-linecap="round" stroke-linejoin="round" stroke-miterlimit="10" x1="603.216" y1="880.594" x2="603.216" y2="902.438"/>
					
						<line fill="none" stroke="#000000" stroke-width="10" stroke-linecap="round" stroke-linejoin="round" stroke-miterlimit="10" x1="625.246" y1="882.796" x2="625.246" y2="902.438"/>
					
						<line fill="none" stroke="#000000" stroke-width="10" stroke-linecap="round" stroke-linejoin="round" stroke-miterlimit="10" x1="647.775" y1="880.594" x2="583.125" y2="880.594"/>
				</g>
			</g>
			<g>
				
					<path fill="#6D0C0C" stroke="#000000" stroke-width="10" stroke-linecap="round" stroke-linejoin="round" stroke-miterlimit="10" d="
					M566.723,462.5H427.378c0,0-5.86,17.982-0.259,29.991c5.604,12.009-4.796,228.911-23.396,319.676
					c-7.507,36.631,2.59,47.91,28.5,68.427l4.285,21.844h60.354l0.86-23.938c0,0,26-13.666,19.005-69.134
					c-8.469-67.151-5.482-256.599,23.62-246.866"/>
				<g>
					
						<line fill="none" stroke="#000000" stroke-width="10" stroke-linecap="round" stroke-linejoin="round" stroke-miterlimit="10" x1="476.782" y1="880.594" x2="476.782" y2="902.438"/>
					
						<line fill="none" stroke="#000000" stroke-width="10" stroke-linecap="round" stroke-linejoin="round" stroke-miterlimit="10" x1="454.752" y1="882.796" x2="454.752" y2="902.438"/>
					
						<line fill="none" stroke="#000000" stroke-width="10" stroke-linecap="round" stroke-linejoin="round" stroke-miterlimit="10" x1="432.223" y1="880.594" x2="496.873" y2="880.594"/>
				</g>
			</g>
		</g>
		<g>
			
				<line fill="none" stroke="#000000" stroke-width="10" stroke-linecap="round" stroke-linejoin="round" stroke-miterlimit="10" x1="427.119" y1="492.491" x2="650.275" y2="492.491"/>
			
				<line fill="none" stroke="#000000" stroke-width="10" stroke-linecap="round" stroke-linejoin="round" stroke-miterlimit="10" x1="520.1" y1="492.491" x2="520.1" y2="462.5"/>
			
				<line fill="none" stroke="#000000" stroke-width="10" stroke-linecap="round" stroke-linejoin="round" stroke-miterlimit="10" x1="480.1" y1="492.491" x2="480.1" y2="462.5"/>
			
				<line fill="none" stroke="#000000" stroke-width="10" stroke-linecap="round" stroke-linejoin="round" stroke-miterlimit="10" x1="440.1" y1="492.491" x2="440.1" y2="462.5"/>
			
				<line fill="none" stroke="#000000" stroke-width="10" stroke-linecap="round" stroke-linejoin="round" stroke-miterlimit="10" x1="560.1" y1="492.491" x2="560.1" y2="462.5"/>
			
				<line fill="none" stroke="#000000" stroke-width="10" stroke-linecap="round" stroke-linejoin="round" stroke-miterlimit="10" x1="600.1" y1="492.491" x2="600.1" y2="462.5"/>
			
				<line fill="none" stroke="#000000" stroke-width="10" stroke-linecap="round" stroke-linejoin="round" stroke-miterlimit="10" x1="640.1" y1="492.491" x2="640.1" y2="462.5"/>
		</g>
	</g>
	
		<path fill="#FFF200" stroke="#000000" stroke-width="7" stroke-linecap="round" stroke-linejoin="round" stroke-miterlimit="10" d="
		M659.796,845.617c-10.265,22.303-36.517,16.564-41.691,3.283c16.656,1.469,27.373-22.437,10.593-32.909
		C648.454,798.413,669.098,825.396,659.796,845.617z"/>
	
		<polygon fill="#FFF200" stroke="#000000" stroke-width="7" stroke-linecap="round" stroke-linejoin="round" stroke-miterlimit="10" points="
		464.739,858.839 446.017,852.002 429.77,863.549 430.485,843.629 414.483,831.745 433.65,826.271 440.008,807.379 451.137,823.917 
		471.067,824.125 458.777,839.819 	"/>
</g>
</svg>
