<?xml version="1.0" encoding="utf-8"?>
<!-- Generator: Adobe Illustrator 15.1.0, SVG Export Plug-In . SVG Version: 6.00 Build 0)  -->
<!DOCTYPE svg PUBLIC "-//W3C//DTD SVG 1.1//EN" "http://www.w3.org/Graphics/SVG/1.1/DTD/svg11.dtd">
<svg version="1.1" id="Layer_1" xmlns="http://www.w3.org/2000/svg" xmlns:xlink="http://www.w3.org/1999/xlink" x="0px" y="0px"
	 width="504px" height="504px" viewBox="288 479 504 504" enable-background="new 288 479 504 504" xml:space="preserve">
<g>
	<g>
		<g>
			<g>
				
					<path fill="#1D1D99" stroke="#000000" stroke-width="10" stroke-linecap="round" stroke-linejoin="round" stroke-miterlimit="10" d="
					M511.228,517.809h139.345c0,0,5.862,17.982,0.259,29.991c-5.603,12.009,4.798,228.911,23.396,319.676
					c7.507,36.631-2.59,47.91-28.5,68.427l-4.285,21.844h-60.354l-0.86-23.938c0,0-26-13.666-19.005-69.134
					c8.469-67.151-0.495-254.369-23.62-246.866"/>
				<g>
					
						<line fill="none" stroke="#000000" stroke-width="10" stroke-linecap="round" stroke-linejoin="round" stroke-miterlimit="10" x1="601.168" y1="935.902" x2="601.168" y2="957.746"/>
					
						<line fill="none" stroke="#000000" stroke-width="10" stroke-linecap="round" stroke-linejoin="round" stroke-miterlimit="10" x1="623.198" y1="938.104" x2="623.198" y2="957.746"/>
					
						<line fill="none" stroke="#000000" stroke-width="10" stroke-linecap="round" stroke-linejoin="round" stroke-miterlimit="10" x1="645.728" y1="935.902" x2="581.077" y2="935.902"/>
				</g>
			</g>
			<g>
				
					<path fill="#1D1D99" stroke="#000000" stroke-width="10" stroke-linecap="round" stroke-linejoin="round" stroke-miterlimit="10" d="
					M564.675,517.809H425.33c0,0-5.86,17.982-0.259,29.991c5.604,12.009-4.796,228.911-23.396,319.676
					c-7.507,36.631,2.59,47.91,28.5,68.427l4.285,21.844h60.354l0.86-23.938c0,0,26-13.666,19.005-69.134
					c-8.469-67.151-5.482-256.599,23.62-246.866"/>
				<g>
					
						<line fill="none" stroke="#000000" stroke-width="10" stroke-linecap="round" stroke-linejoin="round" stroke-miterlimit="10" x1="474.734" y1="935.902" x2="474.734" y2="957.746"/>
					
						<line fill="none" stroke="#000000" stroke-width="10" stroke-linecap="round" stroke-linejoin="round" stroke-miterlimit="10" x1="452.704" y1="938.104" x2="452.704" y2="957.746"/>
					
						<line fill="none" stroke="#000000" stroke-width="10" stroke-linecap="round" stroke-linejoin="round" stroke-miterlimit="10" x1="430.175" y1="935.902" x2="494.825" y2="935.902"/>
				</g>
			</g>
		</g>
		<g>
			
				<line fill="none" stroke="#000000" stroke-width="10" stroke-linecap="round" stroke-linejoin="round" stroke-miterlimit="10" x1="425.071" y1="547.8" x2="648.228" y2="547.8"/>
			
				<line fill="none" stroke="#000000" stroke-width="10" stroke-linecap="round" stroke-linejoin="round" stroke-miterlimit="10" x1="518.052" y1="547.8" x2="518.052" y2="517.809"/>
			
				<line fill="none" stroke="#000000" stroke-width="10" stroke-linecap="round" stroke-linejoin="round" stroke-miterlimit="10" x1="478.052" y1="547.8" x2="478.052" y2="517.809"/>
			
				<line fill="none" stroke="#000000" stroke-width="10" stroke-linecap="round" stroke-linejoin="round" stroke-miterlimit="10" x1="438.052" y1="547.8" x2="438.052" y2="517.809"/>
			
				<line fill="none" stroke="#000000" stroke-width="10" stroke-linecap="round" stroke-linejoin="round" stroke-miterlimit="10" x1="558.052" y1="547.8" x2="558.052" y2="517.809"/>
			
				<line fill="none" stroke="#000000" stroke-width="10" stroke-linecap="round" stroke-linejoin="round" stroke-miterlimit="10" x1="598.052" y1="547.8" x2="598.052" y2="517.809"/>
			
				<line fill="none" stroke="#000000" stroke-width="10" stroke-linecap="round" stroke-linejoin="round" stroke-miterlimit="10" x1="638.052" y1="547.8" x2="638.052" y2="517.809"/>
		</g>
	</g>
	
		<path fill="#A0EAE8" stroke="#000000" stroke-width="7" stroke-linecap="round" stroke-linejoin="round" stroke-miterlimit="10" d="
		M539.813,547.8c-32,49.026-113.614,50.517-113.614,50.517l5.448-11.386c33.717,4.378,79.581-39.131,79.581-39.131H539.813z"/>
	
		<path fill="#A0EAE8" stroke="#000000" stroke-width="7" stroke-linecap="round" stroke-linejoin="round" stroke-miterlimit="10" d="
		M564.675,547.8c0,0,45.471,43.509,79.188,39.131l5.448,11.386c0,0-77.499-1.489-109.498-50.517H564.675L564.675,547.8z"/>
	<g>
		
			<path fill="#A0EAE8" stroke="#000000" stroke-width="7" stroke-linecap="round" stroke-linejoin="round" stroke-miterlimit="10" d="
			M562.559,846.112c0,0,82.135,51.986,114.088,38.282c0,0,5.581,16.081-15.46,38.282c-11.85-2.534-64.967-9.552-96.967-58.579
			L562.559,846.112z"/>
		
			<path fill="#A0EAE8" stroke="#000000" stroke-width="7" stroke-linecap="round" stroke-linejoin="round" stroke-miterlimit="10" d="
			M558.052,677.604c0,0,67.223,63.208,99.176,49.504l2.333,38.814c0,0-66.763-9.552-98.763-58.579L558.052,677.604z"/>
		
			<path fill="#A0EAE8" stroke="#000000" stroke-width="7" stroke-linecap="round" stroke-linejoin="round" stroke-miterlimit="10" d="
			M659.561,744.923c0,0-76.405,83.335-96.192,48.008l-1.7,55.96C561.667,848.891,641.182,820.724,659.561,744.923z"/>
		
			<path fill="#A0EAE8" stroke="#000000" stroke-width="7" stroke-linecap="round" stroke-linejoin="round" stroke-miterlimit="10" d="
			M649.337,578.309c0,0-77.104,101.722-96.893,66.395l7.104,41.688C559.549,686.39,630.957,654.109,649.337,578.309z"/>
		
			<polygon fill="#FFF200" stroke="#000000" stroke-width="7" stroke-linecap="round" stroke-linejoin="round" stroke-miterlimit="10" points="
			661.826,598.546 651.411,595.51 643.004,602.369 642.674,591.523 633.554,585.648 643.764,581.981 646.533,571.492 
			653.175,580.07 664.008,579.462 657.901,588.431 		"/>
		
			<polygon fill="#FFF200" stroke="#000000" stroke-width="7" stroke-linecap="round" stroke-linejoin="round" stroke-miterlimit="10" points="
			673.63,759.39 663.215,756.354 654.808,763.213 654.478,752.367 645.357,746.492 655.567,742.825 658.337,732.336 
			664.979,740.914 675.812,740.306 669.705,749.274 		"/>
		
			<polygon fill="#FFF200" stroke="#000000" stroke-width="7" stroke-linecap="round" stroke-linejoin="round" stroke-miterlimit="10" points="
			684.405,913.806 674.911,908.557 665.202,913.403 667.262,902.75 659.654,895.016 670.421,893.68 675.426,884.055 
			680.021,893.882 690.724,895.667 682.797,903.076 		"/>
	</g>
	<g>
		
			<path fill="#A0EAE8" stroke="#000000" stroke-width="7" stroke-linecap="round" stroke-linejoin="round" stroke-miterlimit="10" d="
			M509.95,864.098c-32,49.027-85.116,56.045-96.967,58.579c-21.041-22.201-15.46-38.282-15.46-38.282
			c31.953,13.704,114.088-38.282,114.088-38.282L509.95,864.098z"/>
		
			<path fill="#A0EAE8" stroke="#000000" stroke-width="7" stroke-linecap="round" stroke-linejoin="round" stroke-miterlimit="10" d="
			M513.373,707.344c-32,49.026-98.764,58.579-98.764,58.579l2.333-38.814c31.953,13.704,99.176-49.504,99.176-49.504
			L513.373,707.344z"/>
		
			<path fill="#A0EAE8" stroke="#000000" stroke-width="7" stroke-linecap="round" stroke-linejoin="round" stroke-miterlimit="10" d="
			M512.503,848.891l-1.701-55.96c-19.787,35.327-96.192-48.008-96.192-48.008C432.988,820.724,512.503,848.891,512.503,848.891z"/>
		
			<path fill="#A0EAE8" stroke="#000000" stroke-width="7" stroke-linecap="round" stroke-linejoin="round" stroke-miterlimit="10" d="
			M514.621,686.39l7.104-41.688c-19.788,35.328-96.893-66.394-96.893-66.394C443.212,654.109,514.621,686.39,514.621,686.39z"/>
		
			<polygon fill="#FFF200" stroke="#000000" stroke-width="7" stroke-linecap="round" stroke-linejoin="round" stroke-miterlimit="10" points="
			416.269,588.431 410.163,579.462 420.995,580.07 427.637,571.492 430.406,581.981 440.616,585.648 431.496,591.523 
			431.166,602.369 422.759,595.51 412.344,598.546 		"/>
		
			<polygon fill="#FFF200" stroke="#000000" stroke-width="7" stroke-linecap="round" stroke-linejoin="round" stroke-miterlimit="10" points="
			404.464,749.274 398.358,740.306 409.191,740.914 415.833,732.336 418.603,742.825 428.813,746.492 419.692,752.367 
			419.362,763.213 410.956,756.354 400.541,759.39 		"/>
		
			<polygon fill="#FFF200" stroke="#000000" stroke-width="7" stroke-linecap="round" stroke-linejoin="round" stroke-miterlimit="10" points="
			391.374,903.076 383.446,895.667 394.148,893.882 398.745,884.055 403.749,893.68 414.516,895.016 406.909,902.75 
			408.968,913.403 399.259,908.557 389.765,913.806 		"/>
	</g>
	
		<polygon fill="#FFF200" stroke="#000000" stroke-width="7" stroke-linecap="round" stroke-linejoin="round" stroke-miterlimit="10" points="
		557.394,557.427 539.236,549.205 522.169,559.496 524.379,539.688 509.313,526.636 528.838,522.616 536.596,504.255 
		546.451,521.582 566.311,523.287 552.877,538.014 	"/>
</g>
</svg>
