<?xml version="1.0" encoding="utf-8"?>
<!-- Generator: Adobe Illustrator 15.1.0, SVG Export Plug-In . SVG Version: 6.00 Build 0)  -->
<!DOCTYPE svg PUBLIC "-//W3C//DTD SVG 1.1//EN" "http://www.w3.org/Graphics/SVG/1.1/DTD/svg11.dtd">
<svg version="1.1" id="Layer_1" xmlns="http://www.w3.org/2000/svg" xmlns:xlink="http://www.w3.org/1999/xlink" x="0px" y="0px"
	 width="1152px" height="1152px" viewBox="-36 94 1152 1152" enable-background="new -36 94 1152 1152" xml:space="preserve">
<g>
	<path fill="#914D39" d="M619.5,196.125c7.208-8.322,15.622-19.61,26.875-22.5c9.843-2.528,21.125-1.458,30.125,4.574
		c12.296,8.242,13,28.301,2,35.301c-12.456,7.927-19.667,6.333-31,4.667c0,0-8.167-3.333-15,10.667
		c-12,40.667-19.324,54.415-21.924,81.762c-2.601,27.348-85.495,899.467-85.495,899.467h-17.999c0,0,87.527-916.095,86.559-905.955
		c-0.968,10.139,2.563-35.999,0-80.997c-1.141-17.444-8.735-17.269-8.735-17.269c-11.32-1.751-18.682-2.357-28.242-13.606
		c-8.446-9.935-1.854-28.894,12.326-33.14c10.381-3.107,15.261-1.233,32.262,8.028C608.843,171.261,616.25,185.199,619.5,196.125"/>
	<path fill="none" stroke="#000000" stroke-width="10" stroke-linecap="round" stroke-miterlimit="10" d="M657.167,200.5
		c-3.667,4.667-16,2.667-16.588-5.96c-1.444-21.19,26.921-22.374,35.921-16.341c12.296,8.242,13,28.301,2,35.301
		c-12.456,7.927-19.667,6.333-31,4.667c0,0-8.167-3.333-15,10.667c-12,40.667-19.324,54.415-21.924,81.762
		c-2.601,27.348-85.495,899.467-85.495,899.467h-17.999c0,0,87.527-916.095,86.559-905.955c-0.968,10.139,2.563-35.999,0-80.997
		c-1.141-17.444-8.735-17.269-8.735-17.269c-11.32-1.751-18.682-2.357-28.242-13.606c-8.446-9.935-1.854-28.894,12.326-33.14
		c10.381-3.107,37.134,6.394,29.501,26.214c-3.108,8.069-15.482,6.34-17.609,0.8"/>
	<path fill="none" stroke="#000000" stroke-width="10" stroke-linecap="round" stroke-miterlimit="10" d="M608.501,167.731
		c0,0,8.333,16.602,9.5,34.935c0,0,12.364-23.187,19.364-28.31"/>
	<path fill="none" stroke="#000000" stroke-width="10" d="M595.328,189.259c0,0,11.422-7.884,18.173,39.575
		c0,0,18.624-38.208,27.932-31.132"/>
	<path fill="#A4FFFD" stroke="#000000" stroke-width="10" d="M661.875,152.25c-3.414,19.136-12.615,31.315-39.927,27.05
		c-27.56-4.304-28.823-28.675-25.274-39.953c2.418-7.683,7.076-14.598,14.992-16.973c12.392-3.718,17.699-8.5,25.699-14.833
		c0,0,5.53,12.087,14.385,20.083C659.5,134.625,663.375,143.842,661.875,152.25z"/>
</g>
</svg>
