<?xml version="1.0" encoding="utf-8"?>
<!-- Generator: Adobe Illustrator 15.1.0, SVG Export Plug-In . SVG Version: 6.00 Build 0)  -->
<!DOCTYPE svg PUBLIC "-//W3C//DTD SVG 1.1//EN" "http://www.w3.org/Graphics/SVG/1.1/DTD/svg11.dtd">
<svg version="1.1" id="Layer_1" xmlns="http://www.w3.org/2000/svg" xmlns:xlink="http://www.w3.org/1999/xlink" x="0px" y="0px"
	 width="1100px" height="1100.46px" viewBox="0 0 1100 1100.46" enable-background="new 0 0 1100 1100.46" xml:space="preserve">
<g>
	<path fill="#65271C" d="M857.396,211.428c-6.5,14.75-6.146,39.072-6.146,39.072c4.25,43.5-0.674,88.095-0.674,88.095
		l-85.495,899.465h-17.999l86.559-905.955c0,0,2.563-35.999,0-80.997c-2.563-44.998-31.276-53.997-22.171-68.997
		c9.108-15,30.107-49.498,67.605-22.499c0,0,24.541,20.999,13.021,46.498c-6.93,15.339-21.633,13.852-31.923,7.293L857.396,211.428z
		"/>
	<path fill="none" stroke="#000000" stroke-width="10" stroke-miterlimit="10" d="M857.396,211.428
		c-6.5,14.75-6.146,39.072-6.146,39.072c4.25,43.5-0.674,88.095-0.674,88.095l-85.495,899.465h-17.999l86.559-905.955
		c0,0,2.563-35.999,0-80.997c-2.563-44.998-31.276-53.997-22.171-68.997c9.108-15,30.107-49.498,67.605-22.499
		c0,0,24.541,20.999,13.021,46.498c-7.92,17.531-25.992,13.083-36.023,4.206c-4.563-4.036-7.462-8.987-6.993-13.205
		c1.5-13.499,6.001-23.999,13.5-17.999c0,0,3.767,3.353,0,0"/>
</g>
</svg>
