<?xml version="1.0" encoding="utf-8"?>
<!-- Generator: Adobe Illustrator 15.1.0, SVG Export Plug-In . SVG Version: 6.00 Build 0)  -->
<!DOCTYPE svg PUBLIC "-//W3C//DTD SVG 1.1//EN" "http://www.w3.org/Graphics/SVG/1.1/DTD/svg11.dtd">
<svg version="1.1" id="Layer_1" xmlns="http://www.w3.org/2000/svg" xmlns:xlink="http://www.w3.org/1999/xlink" x="0px" y="0px"
	 width="1188px" height="1188px" viewBox="-54 76 1188 1188" enable-background="new -54 76 1188 1188" xml:space="preserve">
<g>
	<path fill="#914D39" d="M616.5,222.125c7.208-8.322,15.622-19.61,26.875-22.5c9.843-2.528,21.125-1.458,30.125,4.574
		c12.296,8.242,13,28.301,2,35.301c-12.456,7.927-19.667,6.333-31,4.667c0,0-8.167-3.333-15,10.667
		c-12,40.667-19.324,54.415-21.924,81.762c-2.601,27.348-85.495,899.467-85.495,899.467h-17.999c0,0,87.527-916.095,86.559-905.955
		c-0.968,10.139,2.563-35.999,0-80.997c-1.141-17.444-8.735-17.269-8.735-17.269c-11.32-1.751-18.682-2.357-28.242-13.606
		c-8.446-9.935-1.854-28.894,12.326-33.14c10.381-3.107,15.261-1.233,32.262,8.028C605.843,197.261,613.25,211.199,616.5,222.125"/>
	<path fill="none" stroke="#000000" stroke-width="10" stroke-linecap="round" stroke-miterlimit="10" d="M654.167,226.5
		c-3.667,4.667-16,2.667-16.588-5.96c-1.444-21.19,26.921-22.374,35.921-16.341c12.296,8.242,13,28.301,2,35.301
		c-12.456,7.927-19.667,6.333-31,4.667c0,0-8.167-3.333-15,10.667c-12,40.667-19.324,54.415-21.924,81.762
		c-2.601,27.348-85.495,899.467-85.495,899.467h-17.999c0,0,87.527-916.095,86.559-905.955c-0.968,10.139,2.563-35.999,0-80.997
		c-1.141-17.444-8.735-17.269-8.735-17.269c-11.32-1.751-18.682-2.357-28.242-13.606c-8.446-9.935-1.854-28.894,12.326-33.14
		c10.381-3.107,37.134,6.394,29.501,26.214c-3.108,8.069-15.482,6.34-17.609,0.8"/>
	<g>
		<path fill="#1ED6D6" d="M658.116,171.259c-2.882,13.212-11.355,32.765-38.667,28.5c-27.56-4.304-25.609-35.925-22.609-41.925
			c0,0,1.66-5.208,9.285-7.708s21.5-9.75,24.5-13.625c0,0,8.439,14.013,16.219,17.912
			C655.75,158.875,658.498,169.508,658.116,171.259z"/>
		<path fill="none" stroke="#000000" stroke-width="10" stroke-linecap="round" stroke-miterlimit="10" d="M596.84,155.833
			c-3.59,8.042-4.949,39.622,22.609,43.925c27.312,4.265,35.676-14.509,38.667-30.5"/>
	</g>
	<g>
		<g>
			<path fill="#6B453C" d="M581.422,184.518c0,0,2.569-25.929,24-34.352c10.579-4.158,21.181-5.933,27.167-19.667
				c3.355-7.698,1.167-20.333-0.167-23c0,0-7.458,16.308-19.458,17.308s-50.782,2.215-39.329,54.287"/>
			<path fill="#6B453C" d="M664.086,200.264c0,0,6.516-25.228-10.704-40.515c-8.501-7.546-17.843-12.863-18.733-27.818
				c-0.5-8.382,5.904-19.492,8.074-21.536c0,0,1.389,17.879,12.311,22.95c10.922,5.07,46.914,19.564,18.231,64.509"/>
		</g>
		<g>
			<path fill="none" stroke="#000000" stroke-width="10" stroke-linecap="round" stroke-miterlimit="10" d="M581.167,184.518
				c0,0,2.569-25.929,24-34.352c10.579-4.158,21.181-5.933,27.167-19.667c3.354-7.698,1.167-20.333-0.167-23
				c0,0-7.458,16.308-19.458,17.308s-50.782,2.215-39.329,54.287"/>
			<path fill="none" stroke="#000000" stroke-width="10" stroke-linecap="round" stroke-miterlimit="10" d="M663.831,200.264
				c0,0,6.516-25.228-10.704-40.515c-8.501-7.546-17.843-12.863-18.734-27.818c-0.5-8.382,5.905-19.492,8.075-21.536
				c0,0,1.389,17.879,12.311,22.95c10.922,5.07,46.914,19.564,18.231,64.509"/>
		</g>
	</g>
	<path fill="none" stroke="#000000" stroke-width="10" stroke-linecap="round" stroke-miterlimit="10" d="M605.501,193.731
		c0,0,8.333,16.602,9.5,34.935c0,0,12.364-23.187,19.364-28.31"/>
	<path fill="none" stroke="#000000" stroke-width="10" d="M592.328,215.259c0,0,11.422-7.884,18.173,39.575
		c0,0,18.624-38.208,27.932-31.132"/>
</g>
</svg>
