<?xml version="1.0" encoding="utf-8"?>
<!-- Generator: Adobe Illustrator 15.1.0, SVG Export Plug-In . SVG Version: 6.00 Build 0)  -->
<!DOCTYPE svg PUBLIC "-//W3C//DTD SVG 1.1//EN" "http://www.w3.org/Graphics/SVG/1.1/DTD/svg11.dtd">
<svg version="1.1" id="Layer_1" xmlns="http://www.w3.org/2000/svg" xmlns:xlink="http://www.w3.org/1999/xlink" x="0px" y="0px"
	 width="360px" height="360px" viewBox="-184.473 320.509 360 360" enable-background="new -184.473 320.509 360 360"
	 xml:space="preserve">
<path display="none" fill="#FBF5B9" d="M-1.193,336.13l24.206,10.849l1.236,4.41c0,0,6.892,10.822,1.225,23.989
	c0,0-14.667-10.833-16,0s-30-28.399-30-28.399s6.083-10.183,7.083-10.849S-1.193,336.13-1.193,336.13z"/>
<g>
	
		<path fill="#722A2A" stroke="#000000" stroke-width="10" stroke-linecap="round" stroke-linejoin="round" stroke-miterlimit="10" d="
		M-30.815,511.885c0,0-22.552,29.658-16.798,70.658s14.878,44,10.149,60.666c0,0,49.938,19.001,90.938-6.332
		c0,0-10-18.334-6.333-39.334s3.218-63.666-22.891-93.666"/>
	
		<path fill="#722A2A" stroke="#000000" stroke-width="10" stroke-linecap="round" stroke-linejoin="round" stroke-miterlimit="10" d="
		M19.307,488.377c4.5-10.5,32.538-100.885-3.731-117.692l-49.423,1.693c-32.654-2.5,5.987,127.165,5.987,127.165l10-3.334
		c-1.167-8-23.333-91.332-12.955-110.24h41.773c22.653,11.591-1.651,91.408-1.151,102.408"/>
	
		<path fill="#722A2A" stroke="#000000" stroke-width="10" stroke-linecap="round" stroke-linejoin="round" stroke-miterlimit="10" d="
		M24.249,503.877c0,0-39.762,10.668-51.436,9.334c0,0-25.007-6.668,2.993-20.334c0,0,16.667,3,31,0
		C6.807,492.877,42.691,483.877,24.249,503.877z"/>
</g>
<path display="none" fill="#FBF5B9" stroke="#000000" stroke-width="10" stroke-linecap="round" stroke-linejoin="round" stroke-miterlimit="10" d="
	M-15.552,333.958c0,0-26.347,31.03-9.807,58.753c17.676,12.822,44.194,12.736,39.366-0.15c-5.172-6.947-5.431-20.058,1.569-23.057"
	/>
<path display="none" fill="#FBF5B9" stroke="#000000" stroke-width="10" stroke-linecap="round" stroke-linejoin="round" stroke-miterlimit="10" d="
	M24.249,346.979c0,0,8.51,14.198,4.058,28.399"/>
</svg>
