<?xml version="1.0" encoding="utf-8"?>
<!-- Generator: Adobe Illustrator 15.1.0, SVG Export Plug-In . SVG Version: 6.00 Build 0)  -->
<!DOCTYPE svg PUBLIC "-//W3C//DTD SVG 1.1//EN" "http://www.w3.org/Graphics/SVG/1.1/DTD/svg11.dtd">
<svg version="1.1" id="Layer_1" xmlns="http://www.w3.org/2000/svg" xmlns:xlink="http://www.w3.org/1999/xlink" x="0px" y="0px"
	 width="360px" height="360px" viewBox="-184.473 320.509 360 360" enable-background="new -184.473 320.509 360 360"
	 xml:space="preserve">
<g>
	<path fill="#51296D" d="M-32.122,515.508c0,0-22.552,29.659-16.798,70.659s14.878,43.999,10.149,60.666c0,0,49.938,19,90.938-6.333
		c0,0-10-18.333-6.333-39.333S49.052,537.5,22.943,507.5"/>
	<path fill="none" stroke="#000000" stroke-width="10" stroke-linecap="round" stroke-linejoin="round" stroke-miterlimit="10" d="
		M-32.122,515.508c0,0-22.552,29.659-16.798,70.659s14.878,43.999,10.149,60.666c0,0,49.938,19,90.938-6.333
		c0,0-10-18.333-6.333-39.333S49.052,537.5,22.943,507.5"/>
	<path fill="#51296D" stroke="#000000" stroke-width="10" d="M18,492c4.5-10.5,32.538-100.885-3.731-117.692L-35.154,376
		c-32.654-2.5,5.987,127.167,5.987,127.167l10-3.334c-1.167-8-23.333-91.333-12.955-110.241H9.651C32.304,401.184,8,481,8.5,492"/>
	
		<path fill="#F5CCFF" stroke="#000000" stroke-width="7" stroke-linecap="round" stroke-linejoin="round" stroke-miterlimit="10" d="
		M22.942,507.5c0,0-39.762,10.668-51.436,9.334c0,0-25.007-6.667,2.993-20.334c0,0,16.667,3,31,0
		C5.5,496.5,41.385,487.5,22.942,507.5z"/>
	
		<path fill="#AFB574" stroke="#000000" stroke-width="7" stroke-linecap="round" stroke-linejoin="round" stroke-miterlimit="10" d="
		M46.738,625.236c0,0-57.78,19.475-85.509,4.369l-4.948-16.98c0,0,32.842,16.208,88.864,11.875"/>
	
		<path fill="#AFB574" stroke="#000000" stroke-width="7" stroke-linecap="round" stroke-linejoin="round" stroke-miterlimit="10" d="
		M-47.843,561.167c0,0,63.087-2.202,88.382-22.935l-6.492-14.667C1.26,545.297-47.843,552.9-47.843,552.9"/>
	
		<path fill="#AFB574" stroke="#000000" stroke-width="7" stroke-linecap="round" stroke-linejoin="round" stroke-miterlimit="10" d="
		M-44.407,540.199c0,0,32.864,62.872,89.552,74.253l1.489-18.857c-29.866-4.571-90.353-57.361-90.353-57.361"/>
	
		<path fill="#F5CCFF" stroke="#000000" stroke-width="7" stroke-linecap="round" stroke-linejoin="round" stroke-miterlimit="10" d="
		M-53.167,558.359c0,0-8.436,25.566-22.667,29.474c-20.417,5.604-24.458,3.875-41.792,12.542c0,0-10.167-4.417-6.5-10.75
		c0,0,15.75-7.375,32.292-9.038c7.296-0.733,20.995-3.6,32.662-24.459"/>
	
		<path fill="#F5CCFF" stroke="#000000" stroke-width="7" stroke-linecap="round" stroke-linejoin="round" stroke-miterlimit="10" d="
		M-47.843,558.359c0,0,5.968,37.516-8.991,51.474c-5.066,4.728-10.53,9.226-16.292,18.667c0,0-10.375,0.667-9.375-7.333
		c0,0,2.5-6.715,18.352-18c12.708-9.047,9.162-42.813,8.981-43.683"/>
	
		<ellipse transform="matrix(0.2339 -0.9723 0.9723 0.2339 -570.4086 368.7793)" fill="#567FA8" stroke="#000000" stroke-width="7" stroke-linecap="round" stroke-linejoin="round" stroke-miterlimit="10" cx="-51.199" cy="546.337" rx="13.319" ry="10.656"/>
</g>
</svg>
