<?xml version="1.0" encoding="utf-8"?>
<!-- Generator: Adobe Illustrator 15.1.0, SVG Export Plug-In . SVG Version: 6.00 Build 0)  -->
<!DOCTYPE svg PUBLIC "-//W3C//DTD SVG 1.1//EN" "http://www.w3.org/Graphics/SVG/1.1/DTD/svg11.dtd">
<svg version="1.1" id="Layer_1" xmlns="http://www.w3.org/2000/svg" xmlns:xlink="http://www.w3.org/1999/xlink" x="0px" y="0px"
	 width="1080px" height="1340px" viewBox="0 0 1080 1340" enable-background="new 0 0 1080 1340" xml:space="preserve">
<g>
	<path fill="#FBF5B9" d="M341.5,788.75l24.206,10.85l1.236,4.411c0,0,6.892,10.822,1.225,23.989c0,0-14.667-10.834-16,0
		s-30-28.4-30-28.4s6.083-10.184,7.083-10.85S341.5,788.75,341.5,788.75z"/>
	
		<path fill="#AD0000" stroke="#000000" stroke-width="10" stroke-linecap="round" stroke-linejoin="round" stroke-miterlimit="10" d="
		M406.52,824.525l-133.549,0.093c0,0-2.819,84.033-0.267,86.293c2.97,2.631,132.235,1.963,133.877-0.093
		C408.221,908.763,406.52,824.525,406.52,824.525z"/>
	
		<polygon fill="#FFE048" stroke="#000000" stroke-width="5" stroke-linecap="round" stroke-linejoin="round" stroke-miterlimit="10" points="
		316.394,885.959 325.006,868.941 315.87,852.198 334.714,855.132 347.817,841.27 350.85,860.1 368.081,868.271 351.11,876.977 
		348.663,895.889 335.139,882.442 	"/>
	
		<path fill="#FBF5B9" stroke="#000000" stroke-width="10" stroke-linecap="round" stroke-linejoin="round" stroke-miterlimit="10" d="
		M327.141,786.578c0,0-26.347,31.031-9.807,58.756c17.676,12.822,44.194,12.736,39.366-0.149
		c-5.172-6.947-5.431-20.059,1.569-23.059"/>
	
		<path fill="#FBF5B9" stroke="#000000" stroke-width="10" stroke-linecap="round" stroke-linejoin="round" stroke-miterlimit="10" d="
		M366.942,799.6c0,0,9.799,10.726,5.347,24.926"/>
</g>
</svg>
