<?xml version="1.0" encoding="utf-8"?>
<!-- Generator: Adobe Illustrator 15.1.0, SVG Export Plug-In . SVG Version: 6.00 Build 0)  -->
<!DOCTYPE svg PUBLIC "-//W3C//DTD SVG 1.1//EN" "http://www.w3.org/Graphics/SVG/1.1/DTD/svg11.dtd">
<svg version="1.1" id="Layer_1" xmlns="http://www.w3.org/2000/svg" xmlns:xlink="http://www.w3.org/1999/xlink" x="0px" y="0px"
	 width="1080px" height="1340px" viewBox="0 0 1080 1340" enable-background="new 0 0 1080 1340" xml:space="preserve">
<g>
	<path fill="#FBF5B9" d="M341.5,788.75l24.206,10.85l1.236,4.411c0,0,6.892,10.822,1.225,23.989c0,0-14.667-10.834-16,0
		s-30-28.4-30-28.4s6.083-10.184,7.083-10.85S341.5,788.75,341.5,788.75z"/>
	<g>
		<g>
			
				<path fill="#890000" stroke="#000000" stroke-width="10" stroke-linecap="round" stroke-linejoin="round" stroke-miterlimit="10" d="
				M410.999,823.145l-140.01,0.11c0,0-2.955,98.185-0.281,100.823c3.114,3.073,138.631,2.293,140.353-0.109
				C412.783,921.567,410.999,823.145,410.999,823.145z"/>
			<path fill="#FFEF24" stroke="#000000" stroke-width="6" stroke-linecap="round" stroke-miterlimit="10" d="M303.542,921.813
				c0,0-9.577-2.606-10.75-8.125c-0.629-2.96-1.25-4.25,2.48-5.823c5.965,6.057,16.369-0.703,9.56-10.361
				c1.83-2.74,3.533-6.513,2.825-9.575c-3.569-1.271-10.133,2.244-10.133,2.244c-10.195-6.348-15.368,4.921-10.142,9.574
				c-1.589,2.281-2.839,4.191-6.089,2.566c-5.598-2.799-7.625-7-7.625-7s-8.884,24.524-2.75,29.875
				C275.917,929.55,294.094,922.131,303.542,921.813z"/>
			<path fill="#FFEF24" stroke="#000000" stroke-width="6" stroke-linecap="round" stroke-miterlimit="10" d="M376.567,921.813
				c0,0,9.577-2.606,10.75-8.125c0.629-2.96,1.25-4.25-2.48-5.823c-5.965,6.057-16.369-0.703-9.56-10.361
				c-1.83-2.74-3.533-6.513-2.825-9.575c3.569-1.271,10.133,2.244,10.133,2.244c10.195-6.348,15.368,4.921,10.142,9.574
				c1.589,2.281,2.839,4.191,6.089,2.566c5.598-2.799,7.625-7,7.625-7s8.884,24.524,2.75,29.875
				C404.192,929.55,386.015,922.131,376.567,921.813z"/>
		</g>
		<path fill="none" stroke="#000000" stroke-width="10" stroke-linecap="round" stroke-linejoin="round" stroke-miterlimit="10" d="
			M410.999,823.145l-140.01,0.11c0,0-2.955,98.185-0.281,100.823c3.114,3.073,138.631,2.293,140.353-0.109
			C412.783,921.567,410.999,823.145,410.999,823.145z"/>
	</g>
	
		<path fill="#FBF5B9" stroke="#000000" stroke-width="10" stroke-linecap="round" stroke-linejoin="round" stroke-miterlimit="10" d="
		M327.141,786.578c0,0-26.347,31.031-9.807,58.756c17.676,12.822,44.194,12.736,39.366-0.149
		c-5.172-6.947-5.431-20.059,1.569-23.059"/>
	
		<path fill="#FBF5B9" stroke="#000000" stroke-width="10" stroke-linecap="round" stroke-linejoin="round" stroke-miterlimit="10" d="
		M366.942,799.6c0,0,9.798,9.375,5.346,23.575"/>
</g>
</svg>
