<?xml version="1.0" encoding="utf-8"?>
<!-- Generator: Adobe Illustrator 15.1.0, SVG Export Plug-In . SVG Version: 6.00 Build 0)  -->
<!DOCTYPE svg PUBLIC "-//W3C//DTD SVG 1.1//EN" "http://www.w3.org/Graphics/SVG/1.1/DTD/svg11.dtd">
<svg version="1.1" id="Layer_1" xmlns="http://www.w3.org/2000/svg" xmlns:xlink="http://www.w3.org/1999/xlink" x="0px" y="0px"
	 width="1080px" height="1340px" viewBox="0 0 1080 1340" enable-background="new 0 0 1080 1340" xml:space="preserve">
<g>
	<g>
		<path fill="#51296D" d="M311.878,964.508c0,0-22.552,29.659-16.798,70.659s14.878,43.999,10.149,60.666
			c0,0,49.938,19,90.938-6.333c0,0-10-18.333-6.333-39.333s3.218-63.667-22.891-93.667"/>
		<path fill="none" stroke="#000000" stroke-width="10" stroke-linecap="round" stroke-linejoin="round" stroke-miterlimit="10" d="
			M311.878,964.508c0,0-22.552,29.659-16.798,70.659s14.878,43.999,10.149,60.666c0,0,49.938,19,90.938-6.333
			c0,0-10-18.333-6.333-39.333s3.218-63.667-22.891-93.667"/>
		<path fill="#51296D" stroke="#000000" stroke-width="10" d="M362,941c4.5-10.5,32.538-100.885-3.731-117.692L308.846,825
			c-32.654-2.5,5.987,127.167,5.987,127.167l10-3.334c-1.167-8-23.333-91.333-12.955-110.241h41.773
			C376.304,850.184,352,930,352.5,941"/>
		
			<path fill="#F5CCFF" stroke="#000000" stroke-width="7" stroke-linecap="round" stroke-linejoin="round" stroke-miterlimit="10" d="
			M366.942,956.5c0,0-39.762,10.668-51.436,9.334c0,0-25.007-6.667,2.993-20.334c0,0,16.667,3,31,0
			C349.5,945.5,385.385,936.5,366.942,956.5z"/>
		
			<path fill="#AFB574" stroke="#000000" stroke-width="7" stroke-linecap="round" stroke-linejoin="round" stroke-miterlimit="10" d="
			M390.738,1074.236c0,0-57.78,19.475-85.509,4.369l-4.948-16.98c0,0,32.842,16.208,88.864,11.875"/>
		
			<path fill="#AFB574" stroke="#000000" stroke-width="7" stroke-linecap="round" stroke-linejoin="round" stroke-miterlimit="10" d="
			M296.157,1010.167c0,0,63.087-2.202,88.382-22.935l-6.492-14.667c-32.787,21.731-81.89,29.335-81.89,29.335"/>
		
			<path fill="#AFB574" stroke="#000000" stroke-width="7" stroke-linecap="round" stroke-linejoin="round" stroke-miterlimit="10" d="
			M299.593,989.199c0,0,32.864,62.872,89.552,74.253l1.489-18.857c-29.866-4.571-90.353-57.361-90.353-57.361"/>
		
			<path fill="#F5CCFF" stroke="#000000" stroke-width="7" stroke-linecap="round" stroke-linejoin="round" stroke-miterlimit="10" d="
			M290.833,1007.359c0,0-8.436,25.566-22.667,29.474c-20.417,5.604-24.458,3.875-41.792,12.542c0,0-10.167-4.417-6.5-10.75
			c0,0,15.75-7.375,32.292-9.038c7.296-0.733,20.995-3.6,32.662-24.459"/>
		
			<path fill="#F5CCFF" stroke="#000000" stroke-width="7" stroke-linecap="round" stroke-linejoin="round" stroke-miterlimit="10" d="
			M296.157,1007.359c0,0,5.968,37.516-8.991,51.474c-5.066,4.728-10.53,9.226-16.292,18.667c0,0-10.375,0.667-9.375-7.333
			c0,0,2.5-6.715,18.352-18c12.708-9.047,9.162-42.813,8.981-43.683"/>
		
			<ellipse transform="matrix(0.2339 -0.9723 0.9723 0.2339 -743.4111 1047.2252)" fill="#567FA8" stroke="#000000" stroke-width="7" stroke-linecap="round" stroke-linejoin="round" stroke-miterlimit="10" cx="292.801" cy="995.337" rx="13.319" ry="10.656"/>
	</g>
	<path fill="#FBF5B9" d="M341.5,788.75l24.206,10.85l1.236,4.411c0,0,6.892,10.822,1.225,23.989c0,0-14.667-10.834-16,0
		s-30-28.4-30-28.4s6.083-10.184,7.083-10.85S341.5,788.75,341.5,788.75z"/>
	
		<path fill="#FBF5B9" stroke="#000000" stroke-width="10" stroke-linecap="round" stroke-linejoin="round" stroke-miterlimit="10" d="
		M327.141,786.578c0,0-26.347,31.031-9.807,58.756c17.676,12.822,44.194,12.736,39.366-0.149
		c-5.172-6.947-5.431-20.059,1.569-23.059"/>
	
		<path fill="#FBF5B9" stroke="#000000" stroke-width="10" stroke-linecap="round" stroke-linejoin="round" stroke-miterlimit="10" d="
		M366.942,799.6c0,0,8.51,14.2,4.058,28.4"/>
</g>
</svg>
