<?xml version="1.0" encoding="utf-8"?>
<!-- Generator: Adobe Illustrator 15.1.0, SVG Export Plug-In . SVG Version: 6.00 Build 0)  -->
<!DOCTYPE svg PUBLIC "-//W3C//DTD SVG 1.1//EN" "http://www.w3.org/Graphics/SVG/1.1/DTD/svg11.dtd">
<svg version="1.1" id="Layer_1" xmlns="http://www.w3.org/2000/svg" xmlns:xlink="http://www.w3.org/1999/xlink" x="0px" y="0px"
	 width="1152px" height="1152px" viewBox="-36 94 1152 1152" enable-background="new -36 94 1152 1152" xml:space="preserve">
<g>
	<g>
		<g display="none">
			<path display="inline" fill="#FBF5B9" d="M556.702,531.626c16.021,2.125,27.084,0.884,31.062-0.376
				c5.271-1.671,8.353-2.646,10.439-7.503c2.486-5.746,4.991-25.072,6.438-32.926c1.896-10.304-0.006-18.807-4.567-20.51
				c-11.614-3.086-29.971-3.021-42.553-0.587c-12.652,2.991-19.998,12.336-22.747,23.072c-2.214,8.652-4.8,17.681-10.536,25.66"/>
			
				<path display="inline" fill="none" stroke="#000000" stroke-width="10" stroke-linecap="round" stroke-linejoin="round" stroke-miterlimit="10" d="
				M556.702,531.626c16.021,2.125,27.084,0.884,31.062-0.376c5.271-1.671,8.353-2.646,10.439-7.503
				c2.486-5.746,4.991-25.072,6.438-32.926c1.896-10.304-0.006-18.807-4.567-20.51c-11.614-3.086-29.971-3.021-42.553-0.587
				c-12.652,2.991-19.998,12.336-22.747,23.072c-2.214,8.652-4.691,17.749-10.431,25.729"/>
		</g>
		<path fill="#914D39" d="M612.846,205.671c7.208-8.322,22.457-24.02,24-27.5c6.5-14.667,26.32-20.167,35.32-14.135
			c12.296,8.241,13,28.301,2,35.301c-12.456,7.927-19.667,6.333-31,4.667c0,0-8.167-3.333-15,10.667
			c-12,40.667-19.324,54.415-21.925,81.762c-2.6,27.348-85.494,899.466-85.494,899.466h-17.999c0,0,87.526-916.094,86.559-905.954
			c-0.968,10.139,2.563-35.999,0-80.997c-1.141-17.443-8.736-17.269-8.736-17.269c-11.319-1.751-18.681-2.357-28.241-13.606
			c-8.446-9.935-1.854-28.894,12.325-33.14c10.382-3.107,27.384,2.03,31.793,23.056c1.673,7.976,11.148,27.089,14.398,38.015"/>
		<path fill="none" stroke="#000000" stroke-width="10" stroke-linecap="round" stroke-miterlimit="10" d="M654.179,186.338
			c-3.667,4.667-16,2.667-16.588-5.96c-1.444-21.19,26.921-22.374,35.921-16.341c12.296,8.241,13,28.301,2,35.301
			c-12.456,7.927-19.667,6.333-31,4.667c0,0-8.167-3.333-15,10.667c-12,40.667-19.324,54.415-21.924,81.762
			c-2.601,27.348-85.495,899.467-85.495,899.467h-17.999c0,0,87.527-916.095,86.559-905.955c-0.968,10.139,2.563-35.999,0-80.997
			c-1.141-17.443-8.735-17.269-8.735-17.269c-11.32-1.751-18.682-2.357-28.242-13.606c-8.446-9.935-1.854-28.894,12.326-33.14
			c10.381-3.107,37.134,6.395,29.501,26.214c-3.108,8.069-15.482,6.34-17.609,0.8"/>
		
			<path display="none" fill="#FBF5B9" stroke="#000000" stroke-width="10" stroke-linecap="round" stroke-linejoin="round" stroke-miterlimit="10" d="
			M604.892,477.879c-1.105-3.615-4.046-5.184-6.879-5.584c-6.667-0.417-18.334,2.376-18.334,2.376s-5.324,1.899-6.991,6.733
			s-6.508,26.101-7.175,31.767s0.999,7.333,2.166,9c1.771,1.698,2.5,5.5,21.167,7.333c0,0,3.916,0.333,6.706-1.85
			c2.419-1.895,2.866-3.911,2.866-3.911c2.486-5.746,4.776-25.07,6.225-32.924c0.623-3.388,1.011-6.555,0.854-9.373
			C605.496,481.447,605.6,480.189,604.892,477.879z"/>
		<g display="none">
			<path display="inline" fill="#FBF5B9" d="M556.346,514.171c4.323-5.315,6.354-17.257,6.354-17.257l9.313,5.423
				c3.624,1.938,6.826,1.634,10.137-1.045c4.426-3.58,3.213-7.696,2.312-8.812c-2.342-2.888-7.068-8.734-11.313-12.15
				c-9.337-4.143-14.561-7.413-18.124-7.574c-5.017-0.227-7.095,9.915-7.095,9.915s-8.499,20.083-2.916,28.833
				S555.873,514.753,556.346,514.171z"/>
			
				<path display="inline" fill="none" stroke="#000000" stroke-width="10" stroke-linecap="round" stroke-linejoin="round" stroke-miterlimit="10" d="
				M547.221,474.382c0,0,2.786-1.852,7.803-1.625c3.563,0.161,8.787,3.435,18.124,7.574c4.243,3.416,8.971,9.264,11.313,12.15
				c0.901,1.114,2.114,5.23-2.312,8.812c-3.311,2.679-6.513,2.98-10.137,1.045l-9.313-5.423c0,0-1.854,12.09-6.354,17.257"/>
		</g>
	</g>
	<path fill="none" stroke="#000000" stroke-width="10" d="M592.34,175.097c0,0,11.422-7.884,18.173,39.575
		c0,0,18.624-38.208,27.932-31.132"/>
</g>
</svg>
