<?xml version="1.0" encoding="utf-8"?>
<!-- Generator: Adobe Illustrator 15.1.0, SVG Export Plug-In . SVG Version: 6.00 Build 0)  -->
<!DOCTYPE svg PUBLIC "-//W3C//DTD SVG 1.1//EN" "http://www.w3.org/Graphics/SVG/1.1/DTD/svg11.dtd">
<svg version="1.1" id="Layer_1" xmlns="http://www.w3.org/2000/svg" xmlns:xlink="http://www.w3.org/1999/xlink" x="0px" y="0px"
	 width="360px" height="360px" viewBox="-184.473 320.509 360 360" enable-background="new -184.473 320.509 360 360"
	 xml:space="preserve">
<g>
	<path fill="#2A2A70" d="M-31.122,515.508c0,0-22.552,29.659-16.798,70.659s14.878,43.999,10.149,60.666c0,0,49.938,19,90.938-6.333
		c0,0-10-18.333-6.333-39.333S50.052,537.5,23.943,507.5"/>
	<path fill="none" stroke="#000000" stroke-width="10" stroke-linecap="round" stroke-linejoin="round" stroke-miterlimit="10" d="
		M-31.122,515.508c0,0-22.552,29.659-16.798,70.659s14.878,43.999,10.149,60.666c0,0,49.938,19,90.938-6.333
		c0,0-10-18.333-6.333-39.333S50.052,537.5,23.943,507.5"/>
	<path fill="#525289" stroke="#000000" stroke-width="10" d="M19,492c4.5-10.5,32.538-100.885-3.731-117.692L-34.154,376
		c-32.654-2.5,5.987,127.167,5.987,127.167l10-3.334c-1.167-8-23.333-91.333-12.955-110.241h41.773C33.304,401.184,9,481,9.5,492"/>
	<path fill="#525289" stroke="#000000" stroke-width="10" d="M23.942,507.5c0,0-39.762,10.668-51.436,9.334
		c0,0-25.007-6.667,2.993-20.334c0,0,16.667,3,31,0C6.5,496.5,42.385,487.5,23.942,507.5z"/>
	
		<path fill="#D6BD54" stroke="#000000" stroke-width="7" stroke-linecap="round" stroke-linejoin="round" stroke-miterlimit="10" d="
		M47.738,625.236c0,0-57.78,19.475-85.509,4.369l-4.948-16.98c0,0,32.842,16.208,88.864,11.875"/>
	
		<path fill="#D6BD54" stroke="#000000" stroke-width="7" stroke-linecap="round" stroke-linejoin="round" stroke-miterlimit="10" d="
		M-46.843,561.167c0,0,63.087-2.202,88.382-22.935l-6.492-14.667C2.26,545.297-46.843,552.9-46.843,552.9"/>
	
		<path fill="#D6BD54" stroke="#000000" stroke-width="7" stroke-linecap="round" stroke-linejoin="round" stroke-miterlimit="10" d="
		M-43.407,540.199c0,0,32.864,62.872,89.552,74.253l1.489-18.857c-29.866-4.571-90.353-57.361-90.353-57.361"/>
	
		<path fill="#43B3FF" stroke="#000000" stroke-width="7" stroke-linecap="round" stroke-linejoin="round" stroke-miterlimit="10" d="
		M-43.407,555.684c0,0,5.6,19.149,9.253,30.816c0,0-3.364-3.667-8.565-2c0,0-3.467,2.393-4.124,8.696c0,0-5.658-6.638-7.991,0
		c0,0-5.667-12.029-13-6.696c0,0,1.667-13.454-9-12.061c0,0,17.631-9.905,18.315-18.757"/>
	
		<ellipse transform="matrix(0.2339 -0.9723 0.9723 0.2339 -569.6425 369.7516)" fill="#C2FCFF" stroke="#000000" stroke-width="7" stroke-linecap="round" stroke-linejoin="round" stroke-miterlimit="10" cx="-50.199" cy="546.337" rx="13.319" ry="10.656"/>
</g>
</svg>
