<?xml version="1.0" encoding="utf-8"?>
<!-- Generator: Adobe Illustrator 15.1.0, SVG Export Plug-In . SVG Version: 6.00 Build 0)  -->
<!DOCTYPE svg PUBLIC "-//W3C//DTD SVG 1.1//EN" "http://www.w3.org/Graphics/SVG/1.1/DTD/svg11.dtd">
<svg version="1.1" id="Layer_1" xmlns="http://www.w3.org/2000/svg" xmlns:xlink="http://www.w3.org/1999/xlink" x="0px" y="0px"
	 width="1080px" height="1340px" viewBox="0 0 1080 1340" enable-background="new 0 0 1080 1340" xml:space="preserve">
<path fill="#FBF5B9" d="M341.5,788.75l24.206,10.85l1.236,4.411c0,0,6.892,10.822,1.225,23.989c0,0-14.667-10.834-16,0
	s-30-28.4-30-28.4s6.083-10.184,7.083-10.85S341.5,788.75,341.5,788.75z"/>
<path fill="#4958C4" d="M307.486,965.075c0,0-25.867,31.758-19.268,75.659c6.599,43.9,17.065,47.112,11.641,64.96
	c0,0,57.279,20.345,104.307-6.782c0,0-11.47-19.63-7.264-42.116c4.206-22.485,3.691-68.173-26.256-100.296"/>
<path fill="none" stroke="#000000" stroke-width="10" stroke-linecap="round" stroke-linejoin="round" stroke-miterlimit="10" d="
	M307.486,965.075c0,0-25.867,31.758-19.268,75.659c6.599,43.9,17.065,47.112,11.641,64.96c0,0,57.279,20.345,104.307-6.782
	c0,0-11.47-19.63-7.264-42.116c4.206-22.485,3.691-68.173-26.256-100.296"/>
<path fill="#5858D6" stroke="#000000" stroke-width="10" d="M362,941c4.5-10.5,32.538-100.885-3.731-117.692L308.846,825
	c-32.654-2.5,5.987,127.167,5.987,127.167l10-3.334c-1.167-8-23.333-91.333-12.955-110.241h41.773
	C376.304,850.184,352,930,352.5,941"/>
<path fill="#5858D6" stroke="#000000" stroke-width="10" d="M366.942,956.5c0,0-39.762,10.668-51.436,9.334
	c0,0-25.007-6.667,2.993-20.334c0,0,16.667,3,31,0C349.5,945.5,385.385,936.5,366.942,956.5z"/>
<path fill="#FBF5B9" stroke="#000000" stroke-width="10" stroke-linecap="round" stroke-linejoin="round" stroke-miterlimit="10" d="
	M327.141,786.578c0,0-26.347,31.031-9.807,58.756c17.676,12.822,44.194,12.736,39.366-0.149c-5.172-6.947-5.431-20.059,1.569-23.059
	"/>
<path fill="#CBCAFF" stroke="#000000" stroke-width="7" stroke-linecap="round" stroke-linejoin="round" stroke-miterlimit="10" d="
	M397.94,1082.568c0,0-66.275,20.854-98.081,4.679l-5.675-18.183c0,0,37.671,17.354,101.928,12.717"/>
<path fill="#CBCAFF" stroke="#000000" stroke-width="7" stroke-linecap="round" stroke-linejoin="round" stroke-miterlimit="10" d="
	M289.454,1013.966c0,0,72.363-2.358,101.376-24.559l-7.447-15.704c-37.607,23.27-93.929,31.41-93.929,31.41"/>
<path fill="#CBCAFF" stroke="#000000" stroke-width="7" stroke-linecap="round" stroke-linejoin="round" stroke-miterlimit="10" d="
	M293.395,991.514c0,0,37.695,67.321,102.718,79.508l1.709-20.191c-34.257-4.896-103.637-61.422-103.637-61.422"/>
<path fill="#FBFF64" stroke="#000000" stroke-width="7" stroke-linecap="round" stroke-linejoin="round" stroke-miterlimit="10" d="
	M296.157,1004.025c0,0,5.343,7.808,1.676,27.808c0,0-10.333,10.999-14.333,29.666c0,0-5.333-7-3.667-25c0,0-13,21.584-11.667,39.459
	c0,0-15.333-9.603-10-34.697c0,0-9.333,8.904-10.333,15.238c0,0-9.334-10.334,11.333-37c0,0-5.666,3.333-11.333-1
	c0,0,9.333-4,13.333-9.333c0,0,5.002-9.532,20.834-10.6"/>
<ellipse transform="matrix(0.2339 -0.9723 0.9723 0.2339 -743.4111 1047.2252)" fill="#E21717" stroke="#000000" stroke-width="7" stroke-linecap="round" stroke-linejoin="round" stroke-miterlimit="10" cx="292.801" cy="995.337" rx="13.319" ry="10.656"/>
<path fill="#FBF5B9" stroke="#000000" stroke-width="10" stroke-linecap="round" stroke-linejoin="round" stroke-miterlimit="10" d="
	M366.942,799.6c0,0,8.51,14.2,4.058,28.4"/>
</svg>
