<?xml version="1.0" encoding="utf-8"?>
<!-- Generator: Adobe Illustrator 15.1.0, SVG Export Plug-In . SVG Version: 6.00 Build 0)  -->
<!DOCTYPE svg PUBLIC "-//W3C//DTD SVG 1.1//EN" "http://www.w3.org/Graphics/SVG/1.1/DTD/svg11.dtd">
<svg version="1.1" id="Layer_1" xmlns="http://www.w3.org/2000/svg" xmlns:xlink="http://www.w3.org/1999/xlink" x="0px" y="0px"
	 width="360px" height="360px" viewBox="158 687 360 360" enable-background="new 158 687 360 360" xml:space="preserve">
<g>
	<g>
		
			<path fill="#890000" stroke="#000000" stroke-width="10" stroke-linecap="round" stroke-linejoin="round" stroke-miterlimit="10" d="
			M418.945,809.293l-140.01,0.11c0,0-2.955,98.185-0.281,100.823c3.114,3.073,138.631,2.293,140.353-0.109
			C420.729,907.716,418.945,809.293,418.945,809.293z"/>
		<path fill="#FFEF24" stroke="#000000" stroke-width="6" stroke-linecap="round" stroke-miterlimit="10" d="M311.488,907.961
			c0,0-9.577-2.606-10.75-8.125c-0.629-2.96-1.25-4.25,2.48-5.823c5.965,6.057,16.369-0.703,9.56-10.361
			c1.83-2.74,3.533-6.513,2.825-9.575c-3.569-1.271-10.133,2.244-10.133,2.244c-10.195-6.348-15.368,4.921-10.142,9.574
			c-1.589,2.281-2.839,4.191-6.089,2.566c-5.598-2.799-7.625-7-7.625-7s-8.884,24.524-2.75,29.875
			C283.863,915.698,302.04,908.279,311.488,907.961z"/>
		<path fill="#FFEF24" stroke="#000000" stroke-width="6" stroke-linecap="round" stroke-miterlimit="10" d="M384.513,907.961
			c0,0,9.577-2.606,10.75-8.125c0.629-2.96,1.25-4.25-2.48-5.823c-5.965,6.057-16.369-0.703-9.56-10.361
			c-1.83-2.74-3.533-6.513-2.825-9.575c3.569-1.271,10.133,2.244,10.133,2.244c10.195-6.348,15.368,4.921,10.142,9.574
			c1.589,2.281,2.839,4.191,6.089,2.566c5.598-2.799,7.625-7,7.625-7s8.884,24.524,2.75,29.875
			C412.138,915.698,393.961,908.279,384.513,907.961z"/>
	</g>
	<path fill="none" stroke="#000000" stroke-width="10" stroke-linecap="round" stroke-linejoin="round" stroke-miterlimit="10" d="
		M418.945,809.293l-140.01,0.11c0,0-2.955,98.185-0.281,100.823c3.114,3.073,138.631,2.293,140.353-0.109
		C420.729,907.716,418.945,809.293,418.945,809.293z"/>
</g>
</svg>
