<?xml version="1.0" encoding="utf-8"?>
<!-- Generator: Adobe Illustrator 15.1.0, SVG Export Plug-In . SVG Version: 6.00 Build 0)  -->
<!DOCTYPE svg PUBLIC "-//W3C//DTD SVG 1.1//EN" "http://www.w3.org/Graphics/SVG/1.1/DTD/svg11.dtd">
<svg version="1.1" id="Layer_1" xmlns="http://www.w3.org/2000/svg" xmlns:xlink="http://www.w3.org/1999/xlink" x="0px" y="0px"
	 width="1080px" height="1340px" viewBox="0 0 1080 1340" enable-background="new 0 0 1080 1340" xml:space="preserve">
<g>
	<path fill="#FBF5B9" d="M799.69,573.788c16.021,2.125,27.084,0.884,31.062-0.376c5.271-1.671,8.353-2.646,10.439-7.503
		c2.486-5.746,4.991-25.072,6.438-32.926c1.896-10.304-0.006-18.807-4.567-20.51c-11.614-3.086-29.971-3.021-42.553-0.587
		c-12.652,2.991-19.998,12.336-22.747,23.072c-2.214,8.652-4.8,17.681-10.536,25.66"/>
	<path fill="none" stroke="#000000" stroke-width="10" stroke-linecap="round" stroke-linejoin="round" stroke-miterlimit="10" d="
		M799.69,573.788c16.021,2.125,27.084,0.884,31.062-0.376c5.271-1.671,8.353-2.646,10.439-7.503
		c2.486-5.746,4.991-25.072,6.438-32.926c1.896-10.304-0.006-18.807-4.567-20.51c-11.614-3.086-29.971-3.021-42.553-0.587
		c-12.652,2.991-19.998,12.336-22.747,23.072c-2.214,8.652-4.691,17.749-10.431,25.729"/>
</g>
<path fill="#914D39" d="M859.5,224.125c7.208-8.322,15.622-19.61,26.875-22.5c9.843-2.528,21.125-1.458,30.125,4.574
	c12.296,8.242,13,28.301,2,35.301c-12.456,7.927-19.667,6.333-31,4.667c0,0-8.167-3.333-15,10.667
	c-12,40.667-19.324,54.415-21.924,81.762c-2.601,27.348-85.495,899.467-85.495,899.467h-17.999c0,0,87.527-916.095,86.559-905.955
	c-0.968,10.139,2.563-35.999,0-80.997c-1.141-17.444-8.735-17.269-8.735-17.269c-11.32-1.751-18.682-2.357-28.242-13.606
	c-8.446-9.935-1.854-28.894,12.326-33.14c10.381-3.107,15.261-1.233,32.262,8.028C848.843,199.261,856.25,213.199,859.5,224.125"/>
<path fill="none" stroke="#000000" stroke-width="10" stroke-linecap="round" stroke-miterlimit="10" d="M897.167,228.5
	c-3.667,4.667-16,2.667-16.588-5.96c-1.444-21.19,26.921-22.374,35.921-16.341c12.296,8.242,13,28.301,2,35.301
	c-12.456,7.927-19.667,6.333-31,4.667c0,0-8.167-3.333-15,10.667c-12,40.667-19.324,54.415-21.924,81.762
	c-2.601,27.348-85.495,899.467-85.495,899.467h-17.999c0,0,87.527-916.095,86.559-905.955c-0.968,10.139,2.563-35.999,0-80.997
	c-1.141-17.444-8.735-17.269-8.735-17.269c-11.32-1.751-18.682-2.357-28.242-13.606c-8.446-9.935-1.854-28.894,12.326-33.14
	c10.381-3.107,37.134,6.394,29.501,26.214c-3.108,8.069-15.482,6.34-17.609,0.8"/>
<path fill="#FBF5B9" stroke="#000000" stroke-width="10" stroke-linecap="round" stroke-linejoin="round" stroke-miterlimit="10" d="
	M847.88,520.041c-1.105-3.615-4.046-5.184-6.879-5.584c-6.667-0.417-18.334,2.376-18.334,2.376s-5.324,1.899-6.991,6.733
	s-6.508,26.101-7.175,31.767s0.999,7.333,2.166,9c1.771,1.698,2.5,5.5,21.167,7.333c0,0,3.916,0.333,6.706-1.85
	c2.419-1.895,2.866-3.911,2.866-3.911c2.486-5.746,4.776-25.07,6.225-32.924c0.623-3.388,1.011-6.555,0.854-9.373
	C848.484,523.609,848.588,522.352,847.88,520.041z"/>
<g>
	<path fill="#FBF5B9" d="M799.334,556.333c4.323-5.315,6.354-17.257,6.354-17.257l9.313,5.423c3.624,1.938,6.826,1.634,10.137-1.045
		c4.426-3.58,3.213-7.696,2.312-8.812c-2.342-2.888-7.068-8.734-11.313-12.15c-9.337-4.143-14.561-7.413-18.124-7.574
		c-5.017-0.227-7.095,9.915-7.095,9.915s-8.499,20.083-2.916,28.833S798.861,556.915,799.334,556.333z"/>
	<path fill="none" stroke="#000000" stroke-width="10" stroke-linecap="round" stroke-linejoin="round" stroke-miterlimit="10" d="
		M790.209,516.544c0,0,2.786-1.852,7.803-1.625c3.563,0.161,8.787,3.435,18.124,7.574c4.243,3.416,8.971,9.264,11.313,12.15
		c0.901,1.114,2.114,5.23-2.312,8.812c-3.311,2.679-6.513,2.98-10.137,1.045l-9.313-5.423c0,0-1.854,12.09-6.354,17.257"/>
</g>
<g>
	<g display="none">
		<path display="inline" fill="#6B453C" d="M824.422,186.518c0,0,2.569-25.929,24-34.352c10.579-4.158,21.181-5.933,27.167-19.667
			c3.355-7.698,1.167-20.333-0.167-23c0,0-7.458,16.308-19.458,17.308s-50.782,2.215-39.329,54.287"/>
		<path display="inline" fill="#6B453C" d="M907.086,202.264c0,0,6.516-25.228-10.704-40.515
			c-8.501-7.546-17.843-12.863-18.733-27.818c-0.5-8.382,5.904-19.492,8.074-21.536c0,0,1.389,17.879,12.311,22.95
			c10.922,5.07,46.914,19.564,18.231,64.509"/>
	</g>
	<g display="none">
		<path display="inline" fill="none" stroke="#000000" stroke-width="10" stroke-linecap="round" stroke-miterlimit="10" d="
			M824.167,186.518c0,0,2.569-25.929,24-34.352c10.579-4.158,21.181-5.933,27.167-19.667c3.354-7.698,1.167-20.333-0.167-23
			c0,0-7.458,16.308-19.458,17.308s-50.782,2.215-39.329,54.287"/>
		<path display="inline" fill="none" stroke="#000000" stroke-width="10" stroke-linecap="round" stroke-miterlimit="10" d="
			M906.831,202.264c0,0,6.516-25.228-10.704-40.515c-8.501-7.546-17.843-12.863-18.734-27.818c-0.5-8.382,5.905-19.492,8.075-21.536
			c0,0,1.389,17.879,12.311,22.95c10.922,5.07,46.914,19.564,18.231,64.509"/>
	</g>
</g>
<path fill="none" stroke="#000000" stroke-width="10" stroke-linecap="round" stroke-miterlimit="10" d="M848.501,195.731
	c0,0,8.333,16.602,9.5,34.935c0,0,12.364-23.187,19.364-28.31"/>
<path fill="none" stroke="#000000" stroke-width="10" d="M835.328,217.259c0,0,11.422-7.884,18.173,39.575
	c0,0,18.624-38.208,27.932-31.132"/>
<path fill="#A4FFFD" stroke="#000000" stroke-width="10" d="M901.875,180.25c-3.414,19.136-12.615,31.315-39.927,27.05
	c-27.56-4.304-28.823-28.675-25.274-39.953c2.418-7.683,7.076-14.598,14.992-16.973c12.392-3.718,17.699-8.5,25.699-14.833
	c0,0,5.53,12.087,14.385,20.083C899.5,162.625,903.375,171.842,901.875,180.25z"/>
</svg>
