<?xml version="1.0" encoding="utf-8"?>
<!-- Generator: Adobe Illustrator 15.1.0, SVG Export Plug-In . SVG Version: 6.00 Build 0)  -->
<!DOCTYPE svg PUBLIC "-//W3C//DTD SVG 1.1//EN" "http://www.w3.org/Graphics/SVG/1.1/DTD/svg11.dtd">
<svg version="1.1" id="Layer_1" xmlns="http://www.w3.org/2000/svg" xmlns:xlink="http://www.w3.org/1999/xlink" x="0px" y="0px"
	 width="1100px" height="1100px" viewBox="0 0 1100 1100" enable-background="new 0 0 1100 1100" xml:space="preserve">
<path fill="#F4EB42" d="M895.848,218.988c14.452-12.026,25.985,3.512,25.985,3.512c-13.334-5.667-21.333,13.667-21.333,13.667
	c-16,29.667-40,16.333-40,16.333l-5.765,49.54c-2.325,21.862-4.159,36.555-4.159,36.555l-85.495,899.466h-17.999l86.559-905.954
	l8.65-81.801c0,0-26.536,7.044-34.775-25.64c0,0-3.018-20.704-17.333-18.479c0,0,15.562-11.318,26.624,3.884"/>
<path fill="none" stroke="#000000" stroke-width="10" stroke-linecap="round" stroke-linejoin="round" stroke-miterlimit="10" d="
	M895.848,218.988c14.452-12.026,25.985,3.512,25.985,3.512c-13.334-5.667-21.333,13.667-21.333,13.667
	c-16,29.667-40,16.333-40,16.333l-5.765,49.54c-2.325,21.862-4.159,36.555-4.159,36.555l-85.495,899.466h-17.999l86.559-905.954
	l8.65-81.801c0,0-26.536,7.044-34.775-25.64c0,0-3.018-20.704-17.333-18.479c0,0,15.562-11.318,26.624,3.884"/>
<circle fill="#C40619" stroke="#000000" stroke-width="10" stroke-miterlimit="10" cx="858.564" cy="194.675" r="44.5"/>
</svg>
