<?xml version="1.0" encoding="utf-8"?>
<!-- Generator: Adobe Illustrator 15.1.0, SVG Export Plug-In . SVG Version: 6.00 Build 0)  -->
<!DOCTYPE svg PUBLIC "-//W3C//DTD SVG 1.1//EN" "http://www.w3.org/Graphics/SVG/1.1/DTD/svg11.dtd">
<svg version="1.1" id="Layer_1" xmlns="http://www.w3.org/2000/svg" xmlns:xlink="http://www.w3.org/1999/xlink" x="0px" y="0px"
	 width="360px" height="360px" viewBox="-184.473 320.509 360 360" enable-background="new -184.473 320.509 360 360"
	 xml:space="preserve">
<g>
	<g>
		<path display="none" fill="#FBF5B9" d="M-1.5,337.75l24.206,10.85l1.236,4.411c0,0,6.892,10.822,1.225,23.989
			c0,0-14.667-10.834-16,0s-30-28.4-30-28.4s6.083-10.184,7.083-10.85S-1.5,337.75-1.5,337.75z"/>
		<path fill="#722A2A" d="M-31.122,513.508c0,0-22.552,29.659-16.798,70.659s14.878,43.999,10.149,60.666
			c0,0,49.938,19,90.938-6.333c0,0-10-18.333-6.333-39.333S50.052,535.5,23.943,505.5"/>
		
			<path fill="#722A2A" stroke="#000000" stroke-width="10" stroke-linecap="round" stroke-linejoin="round" stroke-miterlimit="10" d="
			M19,490c4.5-10.5,32.538-100.885-3.731-117.692L-34.154,374c-32.654-2.5,5.987,127.167,5.987,127.167l10-3.334
			c-1.167-8-23.333-91.333-12.955-110.241h41.773C33.304,399.184,9,479,9.5,490"/>
		
			<path fill="#722A2A" stroke="#000000" stroke-width="10" stroke-linecap="round" stroke-linejoin="round" stroke-miterlimit="10" d="
			M23.942,505.5c0,0-39.762,10.668-51.436,9.334c0,0-25.007-6.667,2.993-20.334c0,0,16.667,3,31,0
			C6.5,494.5,42.385,485.5,23.942,505.5z"/>
		
			<path display="none" fill="#FBF5B9" stroke="#000000" stroke-width="10" stroke-linecap="round" stroke-linejoin="round" stroke-miterlimit="10" d="
			M-15.859,335.578c0,0-26.347,31.031-9.807,58.756c17.676,12.822,44.194,12.736,39.366-0.149
			c-5.172-6.947-5.431-20.059,1.569-23.059"/>
		
			<path fill="#D6BD54" stroke="#000000" stroke-width="7" stroke-linecap="round" stroke-linejoin="round" stroke-miterlimit="10" d="
			M47.738,623.236c0,0-57.78,19.475-85.509,4.369l-4.948-16.98c0,0,32.842,16.208,88.864,11.875"/>
		
			<path fill="#D6BD54" stroke="#000000" stroke-width="7" stroke-linecap="round" stroke-linejoin="round" stroke-miterlimit="10" d="
			M-46.843,559.167c0,0,63.087-2.202,88.382-22.935l-6.492-14.667C2.26,543.297-46.843,550.9-46.843,550.9"/>
		
			<path fill="#D6BD54" stroke="#000000" stroke-width="7" stroke-linecap="round" stroke-linejoin="round" stroke-miterlimit="10" d="
			M-43.407,538.199c0,0,32.864,62.872,89.552,74.253l1.489-18.857c-29.866-4.571-90.353-57.361-90.353-57.361"/>
		
			<path display="none" fill="#FBF5B9" stroke="#000000" stroke-width="10" stroke-linecap="round" stroke-linejoin="round" stroke-miterlimit="10" d="
			M23.942,348.6c0,0,8.51,14.2,4.058,28.4"/>
	</g>
	<path fill="none" stroke="#000000" stroke-width="10" stroke-linecap="round" stroke-linejoin="round" stroke-miterlimit="10" d="
		M-31.122,513.508c0,0-22.552,29.659-16.798,70.659s14.878,43.999,10.149,60.666c0,0,49.938,19,90.938-6.333
		c0,0-10-18.333-6.333-39.333S50.052,535.5,23.943,505.5"/>
</g>
</svg>
