<?xml version="1.0" encoding="utf-8"?>
<!-- Generator: Adobe Illustrator 15.1.0, SVG Export Plug-In . SVG Version: 6.00 Build 0)  -->
<!DOCTYPE svg PUBLIC "-//W3C//DTD SVG 1.1//EN" "http://www.w3.org/Graphics/SVG/1.1/DTD/svg11.dtd">
<svg version="1.1" id="Layer_1" xmlns="http://www.w3.org/2000/svg" xmlns:xlink="http://www.w3.org/1999/xlink" x="0px" y="0px"
	 width="432px" height="432px" viewBox="326 926 432 432" enable-background="new 326 926 432 432" xml:space="preserve">
<g>
	<g>
		
			<polyline fill="#2121B5" stroke="#000000" stroke-width="7" stroke-linecap="round" stroke-linejoin="round" stroke-miterlimit="10" points="
			502,1221.779 502,1236.612 472.527,1242.162 469.657,1233.779 		"/>
		
			<path fill="#2121B5" stroke="#000000" stroke-width="7" stroke-linecap="round" stroke-linejoin="round" stroke-miterlimit="10" d="
			M406.833,1085.833c0,0,30.837,47,33.503,103.666c0,0-28.716,9.057-44.553,15.001c0,0-28.284,12.667-49.617-2.5
			c0,0,14.667,34.5,40.795,41.581c0,0,32.071,11.082,72.775-7.666L500.44,1221c0,0,9.726-104.501,15.06-135.167H406.833z"/>
	</g>
	<g>
		
			<polyline fill="#2121B5" stroke="#000000" stroke-width="7" stroke-linecap="round" stroke-linejoin="round" stroke-miterlimit="10" points="
			584.657,1221.779 584.657,1236.612 614.13,1242.162 617,1233.779 		"/>
		
			<path fill="#2121B5" stroke="#000000" stroke-width="7" stroke-linecap="round" stroke-linejoin="round" stroke-miterlimit="10" d="
			M679.832,1085.833c0,0-30.836,47-33.503,103.666c0,0,28.716,9.057,44.554,15.001c0,0,28.283,12.667,49.617-2.5
			c0,0-14.668,34.5-40.796,41.581c0,0-32.071,11.082-72.774-7.666L586.226,1221c0,0-9.726-104.501-15.06-135.167H679.832z"/>
	</g>
	
		<path fill="#FFF200" stroke="#000000" stroke-width="7" stroke-linecap="round" stroke-linejoin="round" stroke-miterlimit="10" d="
		M424.126,1167.839c13.814,8.622,4.988,28.306-8.723,27.099c4.261,10.936,25.879,15.658,34.329-2.704
		C457.393,1175.582,440.396,1153.365,424.126,1167.839z"/>
	
		<polygon fill="#FFF200" stroke="#000000" stroke-width="7" stroke-linecap="round" stroke-linejoin="round" stroke-miterlimit="10" points="
		665.37,1203.925 651.143,1197.92 638.128,1206.236 639.444,1190.849 627.513,1181.042 642.554,1177.535 648.194,1163.16 
		656.175,1176.382 671.591,1177.303 661.482,1188.979 	"/>
</g>
</svg>
