<?xml version="1.0" encoding="utf-8"?>
<!-- Generator: Adobe Illustrator 15.1.0, SVG Export Plug-In . SVG Version: 6.00 Build 0)  -->
<!DOCTYPE svg PUBLIC "-//W3C//DTD SVG 1.1//EN" "http://www.w3.org/Graphics/SVG/1.1/DTD/svg11.dtd">
<svg version="1.1" id="Layer_1" xmlns="http://www.w3.org/2000/svg" xmlns:xlink="http://www.w3.org/1999/xlink" x="0px" y="0px"
	 width="1080px" height="1340px" viewBox="0 0 1080 1340" enable-background="new 0 0 1080 1340" xml:space="preserve">
<g>
	<g>
		
			<polyline fill="#C40000" stroke="#000000" stroke-width="7" stroke-linecap="round" stroke-linejoin="round" stroke-miterlimit="10" points="
			499,1233.779 499,1248.612 469.527,1254.162 466.657,1245.779 		"/>
		
			<path fill="#C40000" stroke="#000000" stroke-width="7" stroke-linecap="round" stroke-linejoin="round" stroke-miterlimit="10" d="
			M403.833,1097.833c0,0,30.837,47,33.503,103.666c0,0-28.716,9.057-44.553,15.001c0,0-28.284,12.667-49.617-2.5
			c0,0,14.667,34.5,40.795,41.581c0,0,32.071,11.082,72.775-7.666L497.44,1233c0,0,9.726-104.501,15.06-135.167H403.833z"/>
	</g>
	<g>
		
			<polyline fill="#C40000" stroke="#000000" stroke-width="7" stroke-linecap="round" stroke-linejoin="round" stroke-miterlimit="10" points="
			581.657,1233.779 581.657,1248.612 611.13,1254.162 614,1245.779 		"/>
		
			<path fill="#C40000" stroke="#000000" stroke-width="7" stroke-linecap="round" stroke-linejoin="round" stroke-miterlimit="10" d="
			M676.832,1097.833c0,0-30.836,47-33.503,103.666c0,0,28.716,9.057,44.554,15.001c0,0,28.283,12.667,49.617-2.5
			c0,0-14.668,34.5-40.796,41.581c0,0-32.071,11.082-72.774-7.666L583.226,1233c0,0-9.726-104.501-15.06-135.167H676.832z"/>
	</g>
	<g>
		
			<polygon fill="#FFF200" stroke="#000000" stroke-width="7" stroke-linecap="round" stroke-linejoin="round" stroke-miterlimit="10" points="
			468.34,1127.247 459.198,1121.818 449.542,1126.271 451.882,1115.899 444.662,1108.093 455.25,1107.109 460.444,1097.833 
			464.649,1107.599 475.077,1109.672 467.089,1116.688 		"/>
		
			<polygon fill="#FFF200" stroke="#000000" stroke-width="7" stroke-linecap="round" stroke-linejoin="round" stroke-miterlimit="10" points="
			437.926,1127.146 428.652,1121.943 419.108,1126.632 421.192,1116.205 413.784,1108.577 424.344,1107.336 429.311,1097.934 
			433.753,1107.595 444.229,1109.411 436.415,1116.622 		"/>
		
			<polygon fill="#FFF200" stroke="#000000" stroke-width="7" stroke-linecap="round" stroke-linejoin="round" stroke-miterlimit="10" points="
			502.211,1128.542 493.07,1123.113 483.414,1127.566 485.753,1117.193 478.534,1109.387 489.121,1108.404 494.315,1099.128 
			498.52,1108.895 508.949,1110.966 500.96,1117.982 		"/>
	</g>
	<g>
		
			<polygon fill="#FFF200" stroke="#000000" stroke-width="7" stroke-linecap="round" stroke-linejoin="round" stroke-miterlimit="10" points="
			626.34,1127.247 617.198,1121.818 607.542,1126.271 609.882,1115.899 602.662,1108.093 613.25,1107.109 618.444,1097.833 
			622.649,1107.599 633.077,1109.672 625.089,1116.688 		"/>
		
			<polygon fill="#FFF200" stroke="#000000" stroke-width="7" stroke-linecap="round" stroke-linejoin="round" stroke-miterlimit="10" points="
			595.926,1127.146 586.652,1121.943 577.107,1126.632 579.192,1116.205 571.784,1108.577 582.344,1107.336 587.311,1097.934 
			591.753,1107.595 602.229,1109.411 594.415,1116.622 		"/>
		
			<polygon fill="#FFF200" stroke="#000000" stroke-width="7" stroke-linecap="round" stroke-linejoin="round" stroke-miterlimit="10" points="
			660.211,1128.542 651.07,1123.113 641.414,1127.566 643.753,1117.193 636.534,1109.387 647.121,1108.404 652.315,1099.128 
			656.52,1108.895 666.949,1110.966 658.96,1117.982 		"/>
	</g>
</g>
</svg>
