<?xml version="1.0" encoding="utf-8"?>
<!-- Generator: Adobe Illustrator 15.1.0, SVG Export Plug-In . SVG Version: 6.00 Build 0)  -->
<!DOCTYPE svg PUBLIC "-//W3C//DTD SVG 1.1//EN" "http://www.w3.org/Graphics/SVG/1.1/DTD/svg11.dtd">
<svg version="1.1" id="Layer_1" xmlns="http://www.w3.org/2000/svg" xmlns:xlink="http://www.w3.org/1999/xlink" x="0px" y="0px"
	 width="432px" height="432px" viewBox="326 926 432 432" enable-background="new 326 926 432 432" xml:space="preserve">
<g id="ciuszki">
	<g>
		
			<polyline fill="#930000" stroke="#000000" stroke-width="7" stroke-linecap="round" stroke-linejoin="round" stroke-miterlimit="10" points="
			499.667,1220.725 499.667,1235.558 470.194,1241.107 467.324,1232.725 		"/>
		
			<path fill="#930000" stroke="#000000" stroke-width="7" stroke-linecap="round" stroke-linejoin="round" stroke-miterlimit="10" d="
			M405.5,1084.778c0,0,30.837,47,33.503,103.666c0,0-28.716,9.057-44.553,15.001c0,0-28.284,12.667-49.617-2.5
			c0,0,14.667,34.5,40.795,41.581c0,0,32.071,11.082,72.775-7.666l40.704-14.915c0,0,9.726-104.501,15.06-135.167H405.5z"/>
	</g>
	<g>
		
			<polyline fill="#930000" stroke="#000000" stroke-width="7" stroke-linecap="round" stroke-linejoin="round" stroke-miterlimit="10" points="
			584.324,1220.725 584.324,1235.558 613.797,1241.107 616.667,1232.725 		"/>
		
			<path fill="#930000" stroke="#000000" stroke-width="7" stroke-linecap="round" stroke-linejoin="round" stroke-miterlimit="10" d="
			M678.499,1084.778c0,0-30.836,47-33.503,103.666c0,0,28.716,9.057,44.554,15.001c0,0,28.283,12.667,49.617-2.5
			c0,0-14.668,34.5-40.796,41.581c0,0-32.071,11.082-72.774-7.666l-40.704-14.915c0,0-9.726-104.501-15.06-135.167H678.499z"/>
	</g>
</g>
</svg>
