<?xml version="1.0" encoding="utf-8"?>
<!-- Generator: Adobe Illustrator 15.1.0, SVG Export Plug-In . SVG Version: 6.00 Build 0)  -->
<!DOCTYPE svg PUBLIC "-//W3C//DTD SVG 1.1//EN" "http://www.w3.org/Graphics/SVG/1.1/DTD/svg11.dtd">
<svg version="1.1" id="Layer_1" xmlns="http://www.w3.org/2000/svg" xmlns:xlink="http://www.w3.org/1999/xlink" x="0px" y="0px"
	 width="432px" height="432px" viewBox="0 0 432 432" enable-background="new 0 0 432 432" xml:space="preserve">
<g>
	<g>
		<g>
			
				<polyline fill="#771B1B" stroke="#000000" stroke-width="7" stroke-linecap="round" stroke-linejoin="round" stroke-miterlimit="10" points="
				173.287,270.832 173.287,285.666 143.814,291.215 140.944,282.832 			"/>
			
				<path fill="#771B1B" stroke="#000000" stroke-width="7" stroke-linecap="round" stroke-linejoin="round" stroke-miterlimit="10" d="
				M78.12,134.886c0,0,30.837,47,33.503,103.667c0,0-28.716,9.057-44.553,15c0,0-28.284,12.668-49.617-2.5
				c0,0,14.667,34.5,40.795,41.582c0,0,32.071,11.082,72.775-7.666l40.704-14.916c0,0,9.726-104.5,15.06-135.167H78.12z"/>
		</g>
		
			<path fill="#465CC6" stroke="#000000" stroke-width="7" stroke-linecap="round" stroke-linejoin="round" stroke-miterlimit="10" d="
			M98.93,178.825c0,0,45.949,28.832,77.903,20.446l-1.063,21.288c0,0-40.482,1.869-72.481-28.131L98.93,178.825z"/>
		
			<path fill="#465CC6" stroke="#000000" stroke-width="7" stroke-linecap="round" stroke-linejoin="round" stroke-miterlimit="10" d="
			M176.833,218.088c0,0-46.62,28.313-66.408,6.697l-28.3,22.35C82.125,247.135,158.454,264.471,176.833,218.088z"/>
		
			<path fill="#FFF200" stroke="#000000" stroke-width="7" stroke-linecap="round" stroke-linejoin="round" stroke-miterlimit="10" d="
			M93.126,212.002c8.824,13.685-7.546,27.732-19.437,20.8c-0.803,11.707,16.742,25.191,32.209,12.178
			C119.924,233.18,114.011,205.839,93.126,212.002z"/>
		
			<path fill="#465CC6" stroke="#000000" stroke-width="7" stroke-linecap="round" stroke-linejoin="round" stroke-miterlimit="10" d="
			M186.787,134.886c0,0-81.051,35.387-100.838,13.771l14.106,32.783C100.056,181.441,168.408,181.268,186.787,134.886z"/>
	</g>
	<g>
		<g>
			
				<polyline fill="#771B1B" stroke="#000000" stroke-width="7" stroke-linecap="round" stroke-linejoin="round" stroke-miterlimit="10" points="
				289.296,282.832 286.426,291.215 256.953,285.666 256.953,270.832 			"/>
			
				<path fill="#771B1B" stroke="#000000" stroke-width="7" stroke-linecap="round" stroke-linejoin="round" stroke-miterlimit="10" d="
				M243.453,134.886c5.334,30.666,15.06,135.167,15.06,135.167l40.704,14.916c40.704,18.748,72.775,7.666,72.775,7.666
				c26.128-7.082,40.795-41.582,40.795-41.582c-21.333,15.168-49.617,2.5-49.617,2.5c-15.837-5.943-44.553-15-44.553-15
				c2.666-56.667,33.503-103.667,33.503-103.667H243.453z"/>
		</g>
		
			<path fill="#465CC6" stroke="#000000" stroke-width="7" stroke-linecap="round" stroke-linejoin="round" stroke-miterlimit="10" d="
			M326.952,192.427c-31.999,30-72.481,28.131-72.481,28.131l-1.063-21.288c31.954,8.386,77.903-20.446,77.903-20.446
			L326.952,192.427z"/>
		
			<path fill="#465CC6" stroke="#000000" stroke-width="7" stroke-linecap="round" stroke-linejoin="round" stroke-miterlimit="10" d="
			M348.115,247.135l-28.3-22.35c-19.788,21.615-66.408-6.697-66.408-6.697C271.786,264.471,348.115,247.135,348.115,247.135z"/>
		
			<path fill="#FFF200" stroke="#000000" stroke-width="7" stroke-linecap="round" stroke-linejoin="round" stroke-miterlimit="10" d="
			M324.342,244.98c15.467,13.014,33.012-0.471,32.209-12.178c-11.891,6.932-28.261-7.115-19.437-20.8
			C316.229,205.839,310.316,233.18,324.342,244.98z"/>
		
			<path fill="#465CC6" stroke="#000000" stroke-width="7" stroke-linecap="round" stroke-linejoin="round" stroke-miterlimit="10" d="
			M330.185,181.44l14.106-32.783c-19.787,21.616-100.838-13.771-100.838-13.771C261.832,181.268,330.185,181.441,330.185,181.44z"/>
	</g>
</g>
</svg>
