<?xml version="1.0" encoding="utf-8"?>
<!-- Generator: Adobe Illustrator 15.1.0, SVG Export Plug-In . SVG Version: 6.00 Build 0)  -->
<!DOCTYPE svg PUBLIC "-//W3C//DTD SVG 1.1//EN" "http://www.w3.org/Graphics/SVG/1.1/DTD/svg11.dtd">
<svg version="1.1" id="Layer_1" xmlns="http://www.w3.org/2000/svg" xmlns:xlink="http://www.w3.org/1999/xlink" x="0px" y="0px"
	 width="432px" height="432px" viewBox="326 926 432 432" enable-background="new 326 926 432 432" xml:space="preserve">
<g>
	<g>
		
			<polyline fill="#930000" stroke="#000000" stroke-width="7" stroke-linecap="round" stroke-linejoin="round" stroke-miterlimit="10" points="
			582.657,1221.779 582.657,1236.612 612.13,1242.162 615,1233.779 		"/>
		
			<path fill="#930000" stroke="#000000" stroke-width="7" stroke-linecap="round" stroke-linejoin="round" stroke-miterlimit="10" d="
			M677.832,1085.833c0,0-30.836,47-33.503,103.666c0,0,28.716,9.057,44.554,15.001c0,0,28.283,12.667,49.617-2.5
			c0,0-14.668,34.5-40.796,41.581c0,0-32.071,11.082-72.774-7.666L584.226,1221c0,0-9.726-104.501-15.06-135.167H677.832z"/>
	</g>
	
		<polygon fill="#FFF200" stroke="#000000" stroke-width="7" stroke-linecap="round" stroke-linejoin="round" stroke-miterlimit="10" points="
		663.37,1203.925 649.143,1197.92 636.128,1206.236 637.444,1190.849 625.513,1181.042 640.554,1177.535 646.194,1163.16 
		654.175,1176.382 669.591,1177.303 659.482,1188.979 	"/>
</g>
<g>
	<g>
		
			<polyline fill="#930000" stroke="#000000" stroke-width="7" stroke-linecap="round" stroke-linejoin="round" stroke-miterlimit="10" points="
			467.666,1233.779 470.536,1242.162 500.009,1236.612 500.009,1221.779 		"/>
		
			<path fill="#930000" stroke="#000000" stroke-width="7" stroke-linecap="round" stroke-linejoin="round" stroke-miterlimit="10" d="
			M513.5,1085.833C508.166,1116.499,498.44,1221,498.44,1221l-40.704,14.915c-40.703,18.748-72.774,7.666-72.774,7.666
			C358.834,1236.5,344.166,1202,344.166,1202c21.334,15.167,49.617,2.5,49.617,2.5c15.838-5.944,44.554-15.001,44.554-15.001
			c-2.667-56.666-33.503-103.666-33.503-103.666H513.5z"/>
	</g>
	
		<polygon fill="#FFF200" stroke="#000000" stroke-width="7" stroke-linecap="round" stroke-linejoin="round" stroke-miterlimit="10" points="
		423.184,1188.979 413.075,1177.303 428.491,1176.382 436.472,1163.16 442.112,1177.535 457.153,1181.042 445.222,1190.849 
		446.538,1206.236 433.523,1197.92 419.296,1203.925 	"/>
</g>
</svg>
