<?xml version="1.0" encoding="utf-8"?>
<!-- Generator: Adobe Illustrator 15.1.0, SVG Export Plug-In . SVG Version: 6.00 Build 0)  -->
<!DOCTYPE svg PUBLIC "-//W3C//DTD SVG 1.1//EN" "http://www.w3.org/Graphics/SVG/1.1/DTD/svg11.dtd">
<svg version="1.1" id="Layer_1" xmlns="http://www.w3.org/2000/svg" xmlns:xlink="http://www.w3.org/1999/xlink" x="0px" y="0px"
	 width="1080px" height="1340px" viewBox="0 0 1080 1340" enable-background="new 0 0 1080 1340" xml:space="preserve">
<g>
	<g>
		<g>
			
				<polyline fill="#413CAA" stroke="#000000" stroke-width="7" stroke-linecap="round" stroke-linejoin="round" stroke-miterlimit="10" points="
				499,1233.779 499,1248.612 469.527,1254.162 466.657,1245.779 			"/>
			
				<path fill="#413CAA" stroke="#000000" stroke-width="7" stroke-linecap="round" stroke-linejoin="round" stroke-miterlimit="10" d="
				M403.833,1097.833c0,0,30.837,47,33.503,103.666c0,0-28.716,9.057-44.553,15.001c0,0-28.284,12.667-49.617-2.5
				c0,0,14.667,34.5,40.795,41.581c0,0,32.071,11.082,72.775-7.666L497.44,1233c0,0,9.726-104.501,15.06-135.167H403.833z"/>
		</g>
		
			<path fill="#A788E5" stroke="#000000" stroke-width="7" stroke-linecap="round" stroke-linejoin="round" stroke-miterlimit="10" d="
			M502.546,1181.035c0,0-68.712,26.799-88.5,5.184l-6.208,23.862C407.838,1210.081,484.167,1227.417,502.546,1181.035z"/>
		
			<polygon fill="#FFF200" stroke="#000000" stroke-width="7" stroke-linecap="round" stroke-linejoin="round" stroke-miterlimit="10" points="
			506.506,1198.213 497.365,1192.784 487.708,1197.237 490.048,1186.864 482.829,1179.058 493.416,1178.075 498.61,1168.799 
			502.815,1178.564 513.244,1180.637 505.255,1187.653 		"/>
	</g>
	<g>
		<g>
			
				<polyline fill="#413CAA" stroke="#000000" stroke-width="7" stroke-linecap="round" stroke-linejoin="round" stroke-miterlimit="10" points="
				613.753,1245.779 610.883,1254.162 581.41,1248.612 581.41,1233.779 			"/>
			
				<path fill="#413CAA" stroke="#000000" stroke-width="7" stroke-linecap="round" stroke-linejoin="round" stroke-miterlimit="10" d="
				M567.91,1097.833c5.334,30.666,15.06,135.167,15.06,135.167l40.704,14.915c40.704,18.748,72.775,7.666,72.775,7.666
				c26.128-7.081,40.795-41.581,40.795-41.581c-21.333,15.167-49.617,2.5-49.617,2.5c-15.837-5.944-44.553-15.001-44.553-15.001
				c2.666-56.666,33.503-103.666,33.503-103.666H567.91z"/>
		</g>
		
			<path fill="#A788E5" stroke="#000000" stroke-width="7" stroke-linecap="round" stroke-linejoin="round" stroke-miterlimit="10" d="
			M672.572,1210.081l-6.208-23.862c-19.788,21.615-88.5-5.184-88.5-5.184C596.243,1227.417,672.572,1210.081,672.572,1210.081z"/>
		
			<polygon fill="#FFF200" stroke="#000000" stroke-width="7" stroke-linecap="round" stroke-linejoin="round" stroke-miterlimit="10" points="
			575.155,1187.653 567.166,1180.637 577.595,1178.564 581.8,1168.799 586.994,1178.075 597.581,1179.058 590.362,1186.864 
			592.702,1197.237 583.045,1192.784 573.904,1198.213 		"/>
	</g>
</g>
</svg>
