<?xml version="1.0" encoding="utf-8"?>
<!-- Generator: Adobe Illustrator 15.1.0, SVG Export Plug-In . SVG Version: 6.00 Build 0)  -->
<!DOCTYPE svg PUBLIC "-//W3C//DTD SVG 1.1//EN" "http://www.w3.org/Graphics/SVG/1.1/DTD/svg11.dtd">
<svg version="1.1" id="Layer_1" xmlns="http://www.w3.org/2000/svg" xmlns:xlink="http://www.w3.org/1999/xlink" x="0px" y="0px"
	 width="1080px" height="1340px" viewBox="0 0 1080 1340" enable-background="new 0 0 1080 1340" xml:space="preserve">
<g>
	<g>
		
			<polyline fill="#2121B5" stroke="#000000" stroke-width="7" stroke-linecap="round" stroke-linejoin="round" stroke-miterlimit="10" points="
			499,1233.779 499,1248.612 469.527,1254.162 466.657,1245.779 		"/>
		
			<path fill="#2121B5" stroke="#000000" stroke-width="7" stroke-linecap="round" stroke-linejoin="round" stroke-miterlimit="10" d="
			M403.833,1097.833c0,0,30.837,47,33.503,103.666c0,0-28.716,9.057-44.553,15.001c0,0-28.284,12.667-49.617-2.5
			c0,0,14.667,34.5,40.795,41.581c0,0,32.071,11.082,72.775-7.666L497.44,1233c0,0,9.726-104.501,15.06-135.167H403.833z"/>
	</g>
	<g>
		
			<polyline fill="#2121B5" stroke="#000000" stroke-width="7" stroke-linecap="round" stroke-linejoin="round" stroke-miterlimit="10" points="
			581.657,1233.779 581.657,1248.612 611.13,1254.162 614,1245.779 		"/>
		
			<path fill="#2121B5" stroke="#000000" stroke-width="7" stroke-linecap="round" stroke-linejoin="round" stroke-miterlimit="10" d="
			M676.832,1097.833c0,0-30.836,47-33.503,103.666c0,0,28.716,9.057,44.554,15.001c0,0,28.283,12.667,49.617-2.5
			c0,0-14.668,34.5-40.796,41.581c0,0-32.071,11.082-72.774-7.666L583.226,1233c0,0-9.726-104.501-15.06-135.167H676.832z"/>
	</g>
	
		<path fill="#FFF200" stroke="#000000" stroke-width="7" stroke-linecap="round" stroke-linejoin="round" stroke-miterlimit="10" d="
		M421.126,1179.839c13.814,8.622,4.988,28.306-8.723,27.099c4.261,10.936,25.879,15.658,34.329-2.704
		C454.393,1187.582,437.396,1165.365,421.126,1179.839z"/>
	
		<polygon fill="#FFF200" stroke="#000000" stroke-width="7" stroke-linecap="round" stroke-linejoin="round" stroke-miterlimit="10" points="
		662.37,1215.925 648.143,1209.92 635.128,1218.236 636.444,1202.849 624.513,1193.042 639.554,1189.535 645.194,1175.16 
		653.175,1188.382 668.591,1189.303 658.482,1200.979 	"/>
</g>
</svg>
