<?xml version="1.0" encoding="utf-8"?>
<!-- Generator: Adobe Illustrator 15.1.0, SVG Export Plug-In . SVG Version: 6.00 Build 0)  -->
<!DOCTYPE svg PUBLIC "-//W3C//DTD SVG 1.1//EN" "http://www.w3.org/Graphics/SVG/1.1/DTD/svg11.dtd">
<svg version="1.1" id="Layer_1" xmlns="http://www.w3.org/2000/svg" xmlns:xlink="http://www.w3.org/1999/xlink" x="0px" y="0px"
	 width="432px" height="432px" viewBox="0 0 432 432" enable-background="new 0 0 432 432" xml:space="preserve">
<g>
	<g>
		<g>
			
				<polyline fill="#413CAA" stroke="#000000" stroke-width="7" stroke-linecap="round" stroke-linejoin="round" stroke-miterlimit="10" points="
				173.659,271.445 173.659,286.279 144.187,291.828 141.316,283.445 			"/>
			
				<path fill="#413CAA" stroke="#000000" stroke-width="7" stroke-linecap="round" stroke-linejoin="round" stroke-miterlimit="10" d="
				M78.492,135.5c0,0,30.837,47,33.503,103.667c0,0-28.716,9.057-44.553,15c0,0-28.284,12.668-49.617-2.5
				c0,0,14.667,34.5,40.795,41.582c0,0,32.071,11.082,72.775-7.666l40.704-14.916c0,0,9.726-104.5,15.06-135.167H78.492z"/>
		</g>
		
			<path fill="#A788E5" stroke="#000000" stroke-width="7" stroke-linecap="round" stroke-linejoin="round" stroke-miterlimit="10" d="
			M177.205,218.701c0,0-68.712,26.799-88.5,5.184l-6.208,23.863C82.497,247.748,158.826,265.084,177.205,218.701z"/>
		
			<polygon fill="#FFF200" stroke="#000000" stroke-width="7" stroke-linecap="round" stroke-linejoin="round" stroke-miterlimit="10" points="
			181.165,235.879 172.024,230.451 162.367,234.904 164.707,224.531 157.488,216.725 168.075,215.742 173.27,206.465 
			177.475,216.231 187.903,218.303 179.914,225.32 		"/>
	</g>
	<g>
		<g>
			
				<polyline fill="#413CAA" stroke="#000000" stroke-width="7" stroke-linecap="round" stroke-linejoin="round" stroke-miterlimit="10" points="
				288.412,283.445 285.542,291.828 256.069,286.279 256.069,271.445 			"/>
			
				<path fill="#413CAA" stroke="#000000" stroke-width="7" stroke-linecap="round" stroke-linejoin="round" stroke-miterlimit="10" d="
				M242.569,135.5c5.334,30.666,15.06,135.167,15.06,135.167l40.704,14.916c40.704,18.748,72.775,7.666,72.775,7.666
				c26.128-7.082,40.795-41.582,40.795-41.582c-21.333,15.168-49.617,2.5-49.617,2.5c-15.837-5.943-44.553-15-44.553-15
				C320.399,182.5,351.236,135.5,351.236,135.5H242.569z"/>
		</g>
		
			<path fill="#A788E5" stroke="#000000" stroke-width="7" stroke-linecap="round" stroke-linejoin="round" stroke-miterlimit="10" d="
			M347.231,247.748l-6.208-23.863c-19.788,21.615-88.5-5.184-88.5-5.184C270.902,265.084,347.231,247.748,347.231,247.748z"/>
		
			<polygon fill="#FFF200" stroke="#000000" stroke-width="7" stroke-linecap="round" stroke-linejoin="round" stroke-miterlimit="10" points="
			249.814,225.32 241.825,218.303 252.254,216.231 256.459,206.465 261.653,215.742 272.24,216.725 265.021,224.531 
			267.361,234.904 257.704,230.451 248.563,235.879 		"/>
	</g>
</g>
</svg>
