<?xml version="1.0" encoding="utf-8"?>
<!-- Generator: Adobe Illustrator 15.1.0, SVG Export Plug-In . SVG Version: 6.00 Build 0)  -->
<!DOCTYPE svg PUBLIC "-//W3C//DTD SVG 1.1//EN" "http://www.w3.org/Graphics/SVG/1.1/DTD/svg11.dtd">
<svg version="1.1" id="Layer_1" xmlns="http://www.w3.org/2000/svg" xmlns:xlink="http://www.w3.org/1999/xlink" x="0px" y="0px"
	 width="1080px" height="1340px" viewBox="0 0 1080 1340" enable-background="new 0 0 1080 1340" xml:space="preserve">
<g>
	<g>
		<g>
			
				<polyline fill="#771B1B" stroke="#000000" stroke-width="7" stroke-linecap="round" stroke-linejoin="round" stroke-miterlimit="10" points="
				499,1233.779 499,1248.612 469.527,1254.162 466.657,1245.779 			"/>
			
				<path fill="#771B1B" stroke="#000000" stroke-width="7" stroke-linecap="round" stroke-linejoin="round" stroke-miterlimit="10" d="
				M403.833,1097.833c0,0,30.837,47,33.503,103.666c0,0-28.716,9.057-44.553,15.001c0,0-28.284,12.667-49.617-2.5
				c0,0,14.667,34.5,40.795,41.581c0,0,32.071,11.082,72.775-7.666L497.44,1233c0,0,9.726-104.501,15.06-135.167H403.833z"/>
		</g>
		
			<path fill="#465CC6" stroke="#000000" stroke-width="7" stroke-linecap="round" stroke-linejoin="round" stroke-miterlimit="10" d="
			M424.643,1141.771c0,0,45.949,28.832,77.903,20.446l-1.063,21.287c0,0-40.482,1.869-72.481-28.131L424.643,1141.771z"/>
		
			<path fill="#465CC6" stroke="#000000" stroke-width="7" stroke-linecap="round" stroke-linejoin="round" stroke-miterlimit="10" d="
			M502.546,1181.035c0,0-46.62,28.313-66.408,6.697l-28.3,22.349C407.838,1210.081,484.167,1227.417,502.546,1181.035z"/>
		
			<path fill="#FFF200" stroke="#000000" stroke-width="7" stroke-linecap="round" stroke-linejoin="round" stroke-miterlimit="10" d="
			M418.839,1174.949c8.824,13.686-7.546,27.732-19.437,20.8c-0.803,11.708,16.742,25.191,32.209,12.178
			C445.637,1196.127,439.724,1168.786,418.839,1174.949z"/>
		
			<path fill="#465CC6" stroke="#000000" stroke-width="7" stroke-linecap="round" stroke-linejoin="round" stroke-miterlimit="10" d="
			M512.5,1097.833c0,0-81.051,35.387-100.838,13.771l14.106,32.783C425.769,1144.388,494.121,1144.215,512.5,1097.833z"/>
	</g>
	<g>
		<g>
			
				<polyline fill="#771B1B" stroke="#000000" stroke-width="7" stroke-linecap="round" stroke-linejoin="round" stroke-miterlimit="10" points="
				615.009,1245.779 612.139,1254.162 582.666,1248.612 582.666,1233.779 			"/>
			
				<path fill="#771B1B" stroke="#000000" stroke-width="7" stroke-linecap="round" stroke-linejoin="round" stroke-miterlimit="10" d="
				M569.166,1097.833c5.334,30.666,15.06,135.167,15.06,135.167l40.704,14.915c40.704,18.748,72.775,7.666,72.775,7.666
				C723.833,1248.5,738.5,1214,738.5,1214c-21.333,15.167-49.617,2.5-49.617,2.5c-15.837-5.944-44.553-15.001-44.553-15.001
				c2.666-56.666,33.503-103.666,33.503-103.666H569.166z"/>
		</g>
		
			<path fill="#465CC6" stroke="#000000" stroke-width="7" stroke-linecap="round" stroke-linejoin="round" stroke-miterlimit="10" d="
			M652.665,1155.374c-31.999,30-72.481,28.131-72.481,28.131l-1.063-21.287c31.954,8.386,77.903-20.446,77.903-20.446
			L652.665,1155.374z"/>
		
			<path fill="#465CC6" stroke="#000000" stroke-width="7" stroke-linecap="round" stroke-linejoin="round" stroke-miterlimit="10" d="
			M673.828,1210.081l-28.3-22.349c-19.788,21.615-66.408-6.697-66.408-6.697C597.499,1227.417,673.828,1210.081,673.828,1210.081z"
			/>
		
			<path fill="#FFF200" stroke="#000000" stroke-width="7" stroke-linecap="round" stroke-linejoin="round" stroke-miterlimit="10" d="
			M650.055,1207.927c15.467,13.014,33.012-0.47,32.209-12.178c-11.891,6.933-28.261-7.114-19.437-20.8
			C641.942,1168.786,636.029,1196.127,650.055,1207.927z"/>
		
			<path fill="#465CC6" stroke="#000000" stroke-width="7" stroke-linecap="round" stroke-linejoin="round" stroke-miterlimit="10" d="
			M655.897,1144.387l14.106-32.783c-19.787,21.616-100.838-13.771-100.838-13.771
			C587.545,1144.215,655.897,1144.388,655.897,1144.387z"/>
	</g>
</g>
</svg>
