<?xml version="1.0" encoding="utf-8"?>
<!-- Generator: Adobe Illustrator 15.1.0, SVG Export Plug-In . SVG Version: 6.00 Build 0)  -->
<!DOCTYPE svg PUBLIC "-//W3C//DTD SVG 1.1//EN" "http://www.w3.org/Graphics/SVG/1.1/DTD/svg11.dtd">
<svg version="1.1" id="Layer_1" xmlns="http://www.w3.org/2000/svg" xmlns:xlink="http://www.w3.org/1999/xlink" x="0px" y="0px"
	 width="432px" height="432px" viewBox="326 926 432 432" enable-background="new 326 926 432 432" xml:space="preserve">
<g>
	<g>
		
			<polyline fill="#C40000" stroke="#000000" stroke-width="7" stroke-linecap="round" stroke-linejoin="round" stroke-miterlimit="10" points="
			503,1221.779 503,1236.612 473.527,1242.162 470.657,1233.779 		"/>
		
			<path fill="#C40000" stroke="#000000" stroke-width="7" stroke-linecap="round" stroke-linejoin="round" stroke-miterlimit="10" d="
			M407.833,1085.833c0,0,30.837,47,33.503,103.666c0,0-28.716,9.057-44.553,15.001c0,0-28.284,12.667-49.617-2.5
			c0,0,14.667,34.5,40.795,41.581c0,0,32.071,11.082,72.775-7.666L501.44,1221c0,0,9.726-104.501,15.06-135.167H407.833z"/>
	</g>
	<g>
		
			<polyline fill="#C40000" stroke="#000000" stroke-width="7" stroke-linecap="round" stroke-linejoin="round" stroke-miterlimit="10" points="
			585.657,1221.779 585.657,1236.612 615.13,1242.162 618,1233.779 		"/>
		
			<path fill="#C40000" stroke="#000000" stroke-width="7" stroke-linecap="round" stroke-linejoin="round" stroke-miterlimit="10" d="
			M680.832,1085.833c0,0-30.836,47-33.503,103.666c0,0,28.716,9.057,44.554,15.001c0,0,28.283,12.667,49.617-2.5
			c0,0-14.668,34.5-40.796,41.581c0,0-32.071,11.082-72.774-7.666L587.226,1221c0,0-9.726-104.501-15.06-135.167H680.832z"/>
	</g>
	<g>
		
			<polygon fill="#FFF200" stroke="#000000" stroke-width="7" stroke-linecap="round" stroke-linejoin="round" stroke-miterlimit="10" points="
			472.34,1115.247 463.198,1109.818 453.542,1114.271 455.882,1103.899 448.662,1096.093 459.25,1095.109 464.444,1085.833 
			468.649,1095.599 479.077,1097.672 471.089,1104.688 		"/>
		
			<polygon fill="#FFF200" stroke="#000000" stroke-width="7" stroke-linecap="round" stroke-linejoin="round" stroke-miterlimit="10" points="
			441.926,1115.146 432.652,1109.943 423.108,1114.632 425.192,1104.205 417.784,1096.577 428.344,1095.336 433.311,1085.934 
			437.753,1095.595 448.229,1097.411 440.415,1104.622 		"/>
		
			<polygon fill="#FFF200" stroke="#000000" stroke-width="7" stroke-linecap="round" stroke-linejoin="round" stroke-miterlimit="10" points="
			506.211,1116.542 497.07,1111.113 487.414,1115.566 489.753,1105.193 482.534,1097.387 493.121,1096.404 498.315,1087.128 
			502.52,1096.895 512.949,1098.966 504.96,1105.982 		"/>
	</g>
	<g>
		
			<polygon fill="#FFF200" stroke="#000000" stroke-width="7" stroke-linecap="round" stroke-linejoin="round" stroke-miterlimit="10" points="
			630.34,1115.247 621.198,1109.818 611.542,1114.271 613.882,1103.899 606.662,1096.093 617.25,1095.109 622.444,1085.833 
			626.649,1095.599 637.077,1097.672 629.089,1104.688 		"/>
		
			<polygon fill="#FFF200" stroke="#000000" stroke-width="7" stroke-linecap="round" stroke-linejoin="round" stroke-miterlimit="10" points="
			599.926,1115.146 590.652,1109.943 581.107,1114.632 583.192,1104.205 575.784,1096.577 586.344,1095.336 591.311,1085.934 
			595.753,1095.595 606.229,1097.411 598.415,1104.622 		"/>
		
			<polygon fill="#FFF200" stroke="#000000" stroke-width="7" stroke-linecap="round" stroke-linejoin="round" stroke-miterlimit="10" points="
			664.211,1116.542 655.07,1111.113 645.414,1115.566 647.753,1105.193 640.534,1097.387 651.121,1096.404 656.315,1087.128 
			660.52,1096.895 670.949,1098.966 662.96,1105.982 		"/>
	</g>
</g>
</svg>
