<?xml version="1.0" encoding="utf-8"?>
<!-- Generator: Adobe Illustrator 15.1.0, SVG Export Plug-In . SVG Version: 6.00 Build 0)  -->
<!DOCTYPE svg PUBLIC "-//W3C//DTD SVG 1.1//EN" "http://www.w3.org/Graphics/SVG/1.1/DTD/svg11.dtd">
<svg version="1.1" id="Layer_1" xmlns="http://www.w3.org/2000/svg" xmlns:xlink="http://www.w3.org/1999/xlink" x="0px" y="0px"
	 width="1080px" height="1340px" viewBox="0 0 1080 1340" enable-background="new 0 0 1080 1340" xml:space="preserve">
<g>
	<path id="kolor_2_" fill="#AAE6F9" d="M497.432,1081.745l-0.027,157.767c0,0-60.438,17.663-76.917,18.825
		c-16.482,1.162-47.056,2.502-43.971-12.41c3.637-24.221,60.821-44.429,60.821-44.429l-4.186-119.766l-1.977-64.462h66.256
		L497.432,1081.745L497.432,1081.745z"/>
	<g id="wzor_2_" display="none">
		<g display="inline">
			
				<line fill="none" stroke="#FEED5E" stroke-width="10" stroke-linecap="round" stroke-linejoin="round" stroke-miterlimit="10" x1="493.73" y1="1046.52" x2="436.865" y2="1046.52"/>
			
				<line fill="none" stroke="#EF4354" stroke-width="10" stroke-linecap="round" stroke-linejoin="round" stroke-miterlimit="10" x1="493.73" y1="1063.508" x2="436.865" y2="1063.508"/>
			
				<line fill="none" stroke="#EA9F31" stroke-width="10" stroke-linecap="round" stroke-linejoin="round" stroke-miterlimit="10" x1="492.73" y1="1079.996" x2="436.865" y2="1079.996"/>
		</g>
		<g display="inline">
			
				<line fill="none" stroke="#FEED5E" stroke-width="10" stroke-linecap="round" stroke-linejoin="round" stroke-miterlimit="10" x1="493.73" y1="1096.734" x2="436.865" y2="1096.734"/>
			
				<line fill="none" stroke="#EF4354" stroke-width="10" stroke-linecap="round" stroke-linejoin="round" stroke-miterlimit="10" x1="493.73" y1="1113.723" x2="436.865" y2="1113.723"/>
			
				<line fill="none" stroke="#EA9F31" stroke-width="10" stroke-linecap="round" stroke-linejoin="round" stroke-miterlimit="10" x1="492.73" y1="1130.212" x2="436.865" y2="1130.212"/>
		</g>
		<g display="inline">
			
				<line fill="none" stroke="#FEED5E" stroke-width="10" stroke-linecap="round" stroke-linejoin="round" stroke-miterlimit="10" x1="493.73" y1="1146.201" x2="436.865" y2="1146.201"/>
			
				<line fill="none" stroke="#EF4354" stroke-width="10" stroke-linecap="round" stroke-linejoin="round" stroke-miterlimit="10" x1="493.73" y1="1163.189" x2="436.865" y2="1163.189"/>
			
				<line fill="none" stroke="#EA9F31" stroke-width="10" stroke-linecap="round" stroke-linejoin="round" stroke-miterlimit="10" x1="492.73" y1="1179.678" x2="436.865" y2="1179.678"/>
		</g>
		
			<line display="inline" fill="none" stroke="#FEED5E" stroke-width="10" stroke-linecap="round" stroke-linejoin="round" stroke-miterlimit="10" x1="493.73" y1="1195.667" x2="436.865" y2="1195.667"/>
		
			<line display="inline" fill="none" stroke="#EF4354" stroke-width="10" stroke-linecap="round" stroke-linejoin="round" stroke-miterlimit="10" x1="493.73" y1="1212.656" x2="438.48" y2="1212.656"/>
		
			<line display="inline" fill="none" stroke="#EA9F31" stroke-width="10" stroke-linecap="round" stroke-linejoin="round" stroke-miterlimit="10" x1="492.73" y1="1229.145" x2="402.23" y2="1229.145"/>
		
			<line display="inline" fill="none" stroke="#FEED5E" stroke-width="10" stroke-linecap="round" stroke-linejoin="round" stroke-miterlimit="10" x1="473.98" y1="1245.133" x2="378.73" y2="1245.133"/>
	</g>
	
		<path id="kontor_2_" fill="none" stroke="#000000" stroke-width="10" stroke-linecap="round" stroke-linejoin="round" stroke-miterlimit="10" d="
		M497.432,1081.745l-0.027,157.767c0,0-60.438,17.663-76.917,18.825c-16.482,1.162-47.056,2.502-43.971-12.41
		c-0.217-23.779,60.821-44.429,60.821-44.429l-4.186-119.766l-1.977-64.462h66.256L497.432,1081.745L497.432,1081.745z"/>
	<g>
		
			<line fill="none" stroke="#000000" stroke-width="10" stroke-linecap="round" stroke-linejoin="round" stroke-miterlimit="10" x1="432.463" y1="1031.779" x2="496.43" y2="1031.779"/>
		
			<line fill="none" stroke="#000000" stroke-width="10" stroke-linecap="round" stroke-linejoin="round" stroke-miterlimit="10" x1="457.847" y1="1018.027" x2="457.847" y2="1031.779"/>
		
			<line fill="none" stroke="#000000" stroke-width="10" stroke-linecap="round" stroke-linejoin="round" stroke-miterlimit="10" x1="444.847" y1="1018.027" x2="444.847" y2="1031.779"/>
		
			<line fill="none" stroke="#000000" stroke-width="10" stroke-linecap="round" stroke-linejoin="round" stroke-miterlimit="10" x1="483.847" y1="1018.027" x2="483.847" y2="1031.779"/>
		
			<line fill="none" stroke="#000000" stroke-width="10" stroke-linecap="round" stroke-linejoin="round" stroke-miterlimit="10" x1="470.847" y1="1018.027" x2="470.847" y2="1031.779"/>
	</g>
</g>
<g>
	<path id="kolor_5_" fill="#AAE6F9" d="M584.3,1081.745v-64.474h66.256l-1.976,64.462l-4.187,119.765
		c0,0,57.185,20.208,60.82,44.429c3.086,14.912-27.488,13.572-43.971,12.41c-16.48-1.162-76.917-18.825-76.917-18.825
		L584.3,1081.745L584.3,1081.745z"/>
	<g id="wzor_3_" display="none">
		<g display="inline">
			
				<line fill="none" stroke="#FEED5E" stroke-width="10" stroke-linecap="round" stroke-linejoin="round" stroke-miterlimit="10" x1="644.865" y1="1046.52" x2="588" y2="1046.52"/>
			
				<line fill="none" stroke="#EF4354" stroke-width="10" stroke-linecap="round" stroke-linejoin="round" stroke-miterlimit="10" x1="644.865" y1="1063.508" x2="588" y2="1063.508"/>
			
				<line fill="none" stroke="#EA9F31" stroke-width="10" stroke-linecap="round" stroke-linejoin="round" stroke-miterlimit="10" x1="644.865" y1="1079.996" x2="589" y2="1079.996"/>
		</g>
		<g display="inline">
			
				<line fill="none" stroke="#FEED5E" stroke-width="10" stroke-linecap="round" stroke-linejoin="round" stroke-miterlimit="10" x1="644.865" y1="1096.734" x2="588" y2="1096.734"/>
			
				<line fill="none" stroke="#EF4354" stroke-width="10" stroke-linecap="round" stroke-linejoin="round" stroke-miterlimit="10" x1="644.865" y1="1113.723" x2="588" y2="1113.723"/>
			
				<line fill="none" stroke="#EA9F31" stroke-width="10" stroke-linecap="round" stroke-linejoin="round" stroke-miterlimit="10" x1="644.865" y1="1130.212" x2="589" y2="1130.212"/>
		</g>
		<g display="inline">
			
				<line fill="none" stroke="#FEED5E" stroke-width="10" stroke-linecap="round" stroke-linejoin="round" stroke-miterlimit="10" x1="644.865" y1="1146.201" x2="588" y2="1146.201"/>
			
				<line fill="none" stroke="#EF4354" stroke-width="10" stroke-linecap="round" stroke-linejoin="round" stroke-miterlimit="10" x1="644.865" y1="1163.189" x2="588" y2="1163.189"/>
			
				<line fill="none" stroke="#EA9F31" stroke-width="10" stroke-linecap="round" stroke-linejoin="round" stroke-miterlimit="10" x1="644.865" y1="1179.678" x2="589" y2="1179.678"/>
		</g>
		
			<line display="inline" fill="none" stroke="#FEED5E" stroke-width="10" stroke-linecap="round" stroke-linejoin="round" stroke-miterlimit="10" x1="644.865" y1="1195.667" x2="588" y2="1195.667"/>
		
			<line display="inline" fill="none" stroke="#EF4354" stroke-width="10" stroke-linecap="round" stroke-linejoin="round" stroke-miterlimit="10" x1="643.25" y1="1212.656" x2="588" y2="1212.656"/>
		
			<line display="inline" fill="none" stroke="#EA9F31" stroke-width="10" stroke-linecap="round" stroke-linejoin="round" stroke-miterlimit="10" x1="679.5" y1="1229.145" x2="589" y2="1229.145"/>
		
			<line display="inline" fill="none" stroke="#FEED5E" stroke-width="10" stroke-linecap="round" stroke-linejoin="round" stroke-miterlimit="10" x1="703" y1="1245.133" x2="607.75" y2="1245.133"/>
	</g>
	
		<path id="kontor_5_" fill="none" stroke="#000000" stroke-width="10" stroke-linecap="round" stroke-linejoin="round" stroke-miterlimit="10" d="
		M584.3,1081.745v-64.474h66.256l-1.976,64.462l-4.187,119.765c0,0,61.037,20.649,60.82,44.429
		c3.086,14.912-27.488,13.572-43.971,12.41c-16.48-1.162-76.917-18.825-76.917-18.825L584.3,1081.745L584.3,1081.745z"/>
	<g>
		
			<line fill="none" stroke="#000000" stroke-width="10" stroke-linecap="round" stroke-linejoin="round" stroke-miterlimit="10" x1="585.301" y1="1031.779" x2="649.268" y2="1031.779"/>
		
			<line fill="none" stroke="#000000" stroke-width="10" stroke-linecap="round" stroke-linejoin="round" stroke-miterlimit="10" x1="623.884" y1="1031.779" x2="623.884" y2="1018.027"/>
		
			<line fill="none" stroke="#000000" stroke-width="10" stroke-linecap="round" stroke-linejoin="round" stroke-miterlimit="10" x1="636.884" y1="1031.779" x2="636.884" y2="1018.027"/>
		
			<line fill="none" stroke="#000000" stroke-width="10" stroke-linecap="round" stroke-linejoin="round" stroke-miterlimit="10" x1="597.884" y1="1031.779" x2="597.884" y2="1018.027"/>
		
			<line fill="none" stroke="#000000" stroke-width="10" stroke-linecap="round" stroke-linejoin="round" stroke-miterlimit="10" x1="610.884" y1="1031.779" x2="610.884" y2="1018.027"/>
	</g>
</g>
<g>
	
		<path fill="#5C3FAA" stroke="#000000" stroke-width="7" stroke-linecap="round" stroke-linejoin="round" stroke-miterlimit="10" d="
		M438.164,1032.33c0,0-9.485,0.93-17.153,8.297c-10.396,9.988-10.883,7.357-20.606,12.432c0,0,5.019,5.248,17.106,0.825
		c0,0-6.495,13.697-26.42,18.819c0,0,20.399,4.84,34.647-5.294c0,0-10.42,8.05-14.11,10.396c0,0,19.336,2.986,28.179-18.869
		c0,0,2.584,9.394,6.56,7.525c0,0-0.991-5.641,0.153-11.612c0,0,2.955-6.117-0.49-13.686"/>
	
		<ellipse transform="matrix(-0.0706 0.9975 -0.9975 -0.0706 1490.3905 664.9186)" fill="#E374E8" stroke="#000000" stroke-width="7" stroke-linecap="round" stroke-linejoin="round" stroke-miterlimit="10" cx="435.44" cy="1026.763" rx="16.954" ry="10.771"/>
</g>
<g>
	
		<path fill="#5C3FAA" stroke="#000000" stroke-width="7" stroke-linecap="round" stroke-linejoin="round" stroke-miterlimit="10" d="
		M635.76,1041.163c-3.445,7.568-0.49,13.686-0.49,13.686c1.145,5.972,0.153,11.612,0.153,11.612c3.976,1.868,6.56-7.525,6.56-7.525
		c8.843,21.855,28.179,18.869,28.179,18.869c-3.69-2.346-14.11-10.396-14.11-10.396c14.248,10.134,34.647,5.294,34.647,5.294
		c-19.925-5.122-26.42-18.819-26.42-18.819c12.087,4.423,17.106-0.825,17.106-0.825c-9.724-5.074-10.211-2.443-20.606-12.432
		c-7.668-7.367-17.153-8.297-17.153-8.297"/>
	
		<ellipse transform="matrix(-0.9975 0.0706 -0.0706 -0.9975 1363.5576 2005.344)" fill="#E374E8" stroke="#000000" stroke-width="7" stroke-linecap="round" stroke-linejoin="round" stroke-miterlimit="10" cx="646.349" cy="1026.763" rx="10.771" ry="16.954"/>
</g>
</svg>
