<?xml version="1.0" encoding="utf-8"?>
<!-- Generator: Adobe Illustrator 15.1.0, SVG Export Plug-In . SVG Version: 6.00 Build 0)  -->
<!DOCTYPE svg PUBLIC "-//W3C//DTD SVG 1.1//EN" "http://www.w3.org/Graphics/SVG/1.1/DTD/svg11.dtd">
<svg version="1.1" id="Layer_1" xmlns="http://www.w3.org/2000/svg" xmlns:xlink="http://www.w3.org/1999/xlink" x="0px" y="0px"
	 width="1080px" height="1340px" viewBox="0 0 1080 1340" enable-background="new 0 0 1080 1340" xml:space="preserve">
<g>
	<g>
		<g>
			<path id="kolor_2_" fill="#7533F2" d="M497.432,1022.501L497.403,1233c0,0-60.437,23.566-76.917,25.117
				c-16.482,1.551-47.056,3.338-43.971-16.559c3.085-19.895,60.784-40.061,60.784-40.061l-4.148-179.014l-1.976-86.008h66.256
				L497.432,1022.501L497.432,1022.501z"/>
			<g id="wzor_2_" display="none">
				<g display="inline">
					
						<line fill="none" stroke="#FEED5E" stroke-width="10" stroke-linecap="round" stroke-linejoin="round" stroke-miterlimit="10" x1="493.73" y1="975.5" x2="436.865" y2="975.5"/>
					
						<line fill="none" stroke="#EF4354" stroke-width="10" stroke-linecap="round" stroke-linejoin="round" stroke-miterlimit="10" x1="493.73" y1="998.167" x2="436.865" y2="998.167"/>
					
						<line fill="none" stroke="#EA9F31" stroke-width="10" stroke-linecap="round" stroke-linejoin="round" stroke-miterlimit="10" x1="492.73" y1="1020.167" x2="436.865" y2="1020.167"/>
				</g>
				<g display="inline">
					
						<line fill="none" stroke="#FEED5E" stroke-width="10" stroke-linecap="round" stroke-linejoin="round" stroke-miterlimit="10" x1="493.73" y1="1042.5" x2="436.865" y2="1042.5"/>
					
						<line fill="none" stroke="#EF4354" stroke-width="10" stroke-linecap="round" stroke-linejoin="round" stroke-miterlimit="10" x1="493.73" y1="1065.167" x2="436.865" y2="1065.167"/>
					
						<line fill="none" stroke="#EA9F31" stroke-width="10" stroke-linecap="round" stroke-linejoin="round" stroke-miterlimit="10" x1="492.73" y1="1087.167" x2="436.865" y2="1087.167"/>
				</g>
				<g display="inline">
					
						<line fill="none" stroke="#FEED5E" stroke-width="10" stroke-linecap="round" stroke-linejoin="round" stroke-miterlimit="10" x1="493.73" y1="1108.5" x2="436.865" y2="1108.5"/>
					
						<line fill="none" stroke="#EF4354" stroke-width="10" stroke-linecap="round" stroke-linejoin="round" stroke-miterlimit="10" x1="493.73" y1="1131.167" x2="436.865" y2="1131.167"/>
					
						<line fill="none" stroke="#EA9F31" stroke-width="10" stroke-linecap="round" stroke-linejoin="round" stroke-miterlimit="10" x1="492.73" y1="1153.167" x2="436.865" y2="1153.167"/>
				</g>
				
					<line display="inline" fill="none" stroke="#FEED5E" stroke-width="10" stroke-linecap="round" stroke-linejoin="round" stroke-miterlimit="10" x1="493.73" y1="1174.5" x2="436.865" y2="1174.5"/>
				
					<line display="inline" fill="none" stroke="#EF4354" stroke-width="10" stroke-linecap="round" stroke-linejoin="round" stroke-miterlimit="10" x1="493.73" y1="1197.167" x2="438.48" y2="1197.167"/>
				
					<line display="inline" fill="none" stroke="#EA9F31" stroke-width="10" stroke-linecap="round" stroke-linejoin="round" stroke-miterlimit="10" x1="492.73" y1="1219.167" x2="402.23" y2="1219.167"/>
				
					<line display="inline" fill="none" stroke="#FEED5E" stroke-width="10" stroke-linecap="round" stroke-linejoin="round" stroke-miterlimit="10" x1="473.98" y1="1240.5" x2="378.73" y2="1240.5"/>
			</g>
			
				<path id="kontor_2_" fill="none" stroke="#000000" stroke-width="10" stroke-linecap="round" stroke-linejoin="round" stroke-miterlimit="10" d="
				M497.432,1022.501L497.403,1233c0,0-60.437,23.566-76.917,25.117c-16.482,1.551-47.056,3.338-43.971-16.559
				c3.085-19.895,60.784-40.061,60.784-40.061l-4.148-179.014l-1.976-86.008h66.256L497.432,1022.501L497.432,1022.501z"/>
			<g display="none">
				
					<line display="inline" fill="none" stroke="#000000" stroke-width="10" stroke-linecap="round" stroke-linejoin="round" stroke-miterlimit="10" x1="432.463" y1="955.834" x2="496.43" y2="955.834"/>
				
					<line display="inline" fill="none" stroke="#000000" stroke-width="10" stroke-linecap="round" stroke-linejoin="round" stroke-miterlimit="10" x1="457.847" y1="937.485" x2="457.847" y2="955.834"/>
				
					<line display="inline" fill="none" stroke="#000000" stroke-width="10" stroke-linecap="round" stroke-linejoin="round" stroke-miterlimit="10" x1="444.847" y1="937.485" x2="444.847" y2="955.834"/>
				
					<line display="inline" fill="none" stroke="#000000" stroke-width="10" stroke-linecap="round" stroke-linejoin="round" stroke-miterlimit="10" x1="483.847" y1="937.485" x2="483.847" y2="955.834"/>
				
					<line display="inline" fill="none" stroke="#000000" stroke-width="10" stroke-linecap="round" stroke-linejoin="round" stroke-miterlimit="10" x1="470.847" y1="937.485" x2="470.847" y2="955.834"/>
			</g>
		</g>
		
			<path fill="#F7CFFF" stroke="#000000" stroke-width="7" stroke-linecap="round" stroke-linejoin="round" stroke-miterlimit="10" d="
			M432.593,998.2c0,0,32.885,35.574,64.839,24.301l0.033,32.418c0,0-33.699,2.685-65.699-37.646L432.593,998.2z"/>
		
			<path fill="#F7CFFF" stroke="#000000" stroke-width="7" stroke-linecap="round" stroke-linejoin="round" stroke-miterlimit="10" d="
			M497.466,1048.038c0,0-43.632,42.183-63.419,13.123l1.066,46.005C435.113,1107.166,479.087,1110.393,497.466,1048.038z"/>
		
			<path fill="#F7CFFF" stroke="#000000" stroke-width="7" stroke-linecap="round" stroke-linejoin="round" stroke-miterlimit="10" d="
			M497.446,935.613c0,0-45.894,55.643-65.681,26.583l0.827,36.004C432.593,998.2,479.067,997.968,497.446,935.613z"/>
		
			<path fill="#FFF200" stroke="#000000" stroke-width="7" stroke-linecap="round" stroke-linejoin="round" stroke-miterlimit="10" d="
			M424.952,983.894c8.973,7.253,1.073,20.337-8.466,18.308c2.057,8.057,16.853,13.238,24.375,1.051
			C447.681,992.2,437.638,975.114,424.952,983.894z"/>
		
			<polygon fill="#FFF200" stroke="#000000" stroke-width="7" stroke-linecap="round" stroke-linejoin="round" stroke-miterlimit="10" points="
			499.862,953.229 490.722,947.799 481.065,952.252 483.405,941.88 476.185,934.073 486.772,933.09 491.967,923.813 
			496.172,933.579 506.601,935.652 498.612,942.668 		"/>
		
			<polygon fill="#FFF200" stroke="#000000" stroke-width="7" stroke-linecap="round" stroke-linejoin="round" stroke-miterlimit="10" points="
			499.862,1065.549 490.722,1060.12 481.065,1064.573 483.405,1054.201 476.185,1046.395 486.772,1045.411 491.967,1036.135 
			496.172,1045.9 506.601,1047.974 498.612,1054.989 		"/>
	</g>
	<g>
		<g>
			<path id="kolor_5_" fill="#7533F2" d="M583.468,1022.501v-86.024h66.256l-1.976,86.008l-4.148,179.014
				c0,0,57.699,20.166,60.783,40.061c3.086,19.896-27.488,18.109-43.971,16.559c-16.48-1.551-76.917-25.117-76.917-25.117
				L583.468,1022.501L583.468,1022.501z"/>
			<g id="wzor_3_" display="none">
				<g display="inline">
					
						<line fill="none" stroke="#FEED5E" stroke-width="10" stroke-linecap="round" stroke-linejoin="round" stroke-miterlimit="10" x1="644.033" y1="975.5" x2="587.168" y2="975.5"/>
					
						<line fill="none" stroke="#EF4354" stroke-width="10" stroke-linecap="round" stroke-linejoin="round" stroke-miterlimit="10" x1="644.033" y1="998.167" x2="587.168" y2="998.167"/>
					
						<line fill="none" stroke="#EA9F31" stroke-width="10" stroke-linecap="round" stroke-linejoin="round" stroke-miterlimit="10" x1="644.033" y1="1020.167" x2="588.168" y2="1020.167"/>
				</g>
				<g display="inline">
					
						<line fill="none" stroke="#FEED5E" stroke-width="10" stroke-linecap="round" stroke-linejoin="round" stroke-miterlimit="10" x1="644.033" y1="1042.5" x2="587.168" y2="1042.5"/>
					
						<line fill="none" stroke="#EF4354" stroke-width="10" stroke-linecap="round" stroke-linejoin="round" stroke-miterlimit="10" x1="644.033" y1="1065.167" x2="587.168" y2="1065.167"/>
					
						<line fill="none" stroke="#EA9F31" stroke-width="10" stroke-linecap="round" stroke-linejoin="round" stroke-miterlimit="10" x1="644.033" y1="1087.167" x2="588.168" y2="1087.167"/>
				</g>
				<g display="inline">
					
						<line fill="none" stroke="#FEED5E" stroke-width="10" stroke-linecap="round" stroke-linejoin="round" stroke-miterlimit="10" x1="644.033" y1="1108.5" x2="587.168" y2="1108.5"/>
					
						<line fill="none" stroke="#EF4354" stroke-width="10" stroke-linecap="round" stroke-linejoin="round" stroke-miterlimit="10" x1="644.033" y1="1131.167" x2="587.168" y2="1131.167"/>
					
						<line fill="none" stroke="#EA9F31" stroke-width="10" stroke-linecap="round" stroke-linejoin="round" stroke-miterlimit="10" x1="644.033" y1="1153.167" x2="588.168" y2="1153.167"/>
				</g>
				
					<line display="inline" fill="none" stroke="#FEED5E" stroke-width="10" stroke-linecap="round" stroke-linejoin="round" stroke-miterlimit="10" x1="644.033" y1="1174.5" x2="587.168" y2="1174.5"/>
				
					<line display="inline" fill="none" stroke="#EF4354" stroke-width="10" stroke-linecap="round" stroke-linejoin="round" stroke-miterlimit="10" x1="642.418" y1="1197.167" x2="587.168" y2="1197.167"/>
				
					<line display="inline" fill="none" stroke="#EA9F31" stroke-width="10" stroke-linecap="round" stroke-linejoin="round" stroke-miterlimit="10" x1="678.668" y1="1219.167" x2="588.168" y2="1219.167"/>
				
					<line display="inline" fill="none" stroke="#FEED5E" stroke-width="10" stroke-linecap="round" stroke-linejoin="round" stroke-miterlimit="10" x1="702.168" y1="1240.5" x2="606.918" y2="1240.5"/>
			</g>
			
				<path id="kontor_5_" fill="none" stroke="#000000" stroke-width="10" stroke-linecap="round" stroke-linejoin="round" stroke-miterlimit="10" d="
				M583.468,1022.501v-86.024h66.256l-1.976,86.008l-4.148,179.014c0,0,57.699,20.166,60.783,40.061
				c3.086,19.896-27.488,18.109-43.971,16.559c-16.48-1.551-76.917-25.117-76.917-25.117L583.468,1022.501L583.468,1022.501z"/>
			<g display="none">
				
					<line display="inline" fill="none" stroke="#000000" stroke-width="10" stroke-linecap="round" stroke-linejoin="round" stroke-miterlimit="10" x1="584.469" y1="955.834" x2="648.436" y2="955.834"/>
				
					<line display="inline" fill="none" stroke="#000000" stroke-width="10" stroke-linecap="round" stroke-linejoin="round" stroke-miterlimit="10" x1="623.052" y1="955.834" x2="623.052" y2="937.485"/>
				
					<line display="inline" fill="none" stroke="#000000" stroke-width="10" stroke-linecap="round" stroke-linejoin="round" stroke-miterlimit="10" x1="636.052" y1="955.834" x2="636.052" y2="937.485"/>
				
					<line display="inline" fill="none" stroke="#000000" stroke-width="10" stroke-linecap="round" stroke-linejoin="round" stroke-miterlimit="10" x1="597.052" y1="955.834" x2="597.052" y2="937.485"/>
				
					<line display="inline" fill="none" stroke="#000000" stroke-width="10" stroke-linecap="round" stroke-linejoin="round" stroke-miterlimit="10" x1="610.052" y1="955.834" x2="610.052" y2="937.485"/>
			</g>
		</g>
		
			<path fill="#F7CFFF" stroke="#000000" stroke-width="7" stroke-linecap="round" stroke-linejoin="round" stroke-miterlimit="10" d="
			M649.133,1017.272c-32,40.331-65.699,37.646-65.699,37.646l0.033-32.418c31.954,11.273,64.839-24.301,64.839-24.301
			L649.133,1017.272z"/>
		
			<path fill="#F7CFFF" stroke="#000000" stroke-width="7" stroke-linecap="round" stroke-linejoin="round" stroke-miterlimit="10" d="
			M645.785,1107.166l1.066-46.005c-19.787,29.06-63.419-13.123-63.419-13.123C601.812,1110.393,645.785,1107.166,645.785,1107.166z"
			/>
		
			<path fill="#F7CFFF" stroke="#000000" stroke-width="7" stroke-linecap="round" stroke-linejoin="round" stroke-miterlimit="10" d="
			M648.306,998.2l0.827-36.004c-19.787,29.06-65.681-26.583-65.681-26.583C601.831,997.968,648.306,998.2,648.306,998.2z"/>
		
			<path fill="#FFF200" stroke="#000000" stroke-width="7" stroke-linecap="round" stroke-linejoin="round" stroke-miterlimit="10" d="
			M640.037,1003.252c7.522,12.188,22.318,7.006,24.375-1.051c-9.539,2.029-17.438-11.055-8.466-18.308
			C643.261,975.114,633.218,992.2,640.037,1003.252z"/>
		
			<polygon fill="#FFF200" stroke="#000000" stroke-width="7" stroke-linecap="round" stroke-linejoin="round" stroke-miterlimit="10" points="
			582.286,942.668 574.298,935.652 584.727,933.579 588.932,923.813 594.126,933.09 604.714,934.073 597.493,941.88 
			599.833,952.252 590.177,947.799 581.036,953.229 		"/>
		
			<polygon fill="#FFF200" stroke="#000000" stroke-width="7" stroke-linecap="round" stroke-linejoin="round" stroke-miterlimit="10" points="
			582.286,1054.989 574.298,1047.974 584.727,1045.9 588.932,1036.135 594.126,1045.411 604.714,1046.395 597.493,1054.201 
			599.833,1064.573 590.177,1060.12 581.036,1065.549 		"/>
	</g>
</g>
</svg>
