<?xml version="1.0" encoding="utf-8"?>
<!-- Generator: Adobe Illustrator 15.1.0, SVG Export Plug-In . SVG Version: 6.00 Build 0)  -->
<!DOCTYPE svg PUBLIC "-//W3C//DTD SVG 1.1//EN" "http://www.w3.org/Graphics/SVG/1.1/DTD/svg11.dtd">
<svg version="1.1" id="Layer_1" xmlns="http://www.w3.org/2000/svg" xmlns:xlink="http://www.w3.org/1999/xlink" x="0px" y="0px"
	 width="432px" height="432px" viewBox="324 868 432 432" enable-background="new 324 868 432 432" xml:space="preserve">
<g>
	<g>
		<g>
			<path id="kolor_2_" fill="#3631F4" d="M497.432,1022.501L497.403,1233c0,0-60.437,23.566-76.917,25.117
				c-16.482,1.551-47.056,3.338-43.971-16.559c3.085-19.895,60.784-40.061,60.784-40.061l-4.148-179.014l-1.976-86.008h66.256
				L497.432,1022.501L497.432,1022.501z"/>
			<g id="wzor_2_" display="none">
				<g display="inline">
					
						<line fill="none" stroke="#FEED5E" stroke-width="10" stroke-linecap="round" stroke-linejoin="round" stroke-miterlimit="10" x1="493.73" y1="975.5" x2="436.865" y2="975.5"/>
					
						<line fill="none" stroke="#EF4354" stroke-width="10" stroke-linecap="round" stroke-linejoin="round" stroke-miterlimit="10" x1="493.73" y1="998.167" x2="436.865" y2="998.167"/>
					
						<line fill="none" stroke="#EA9F31" stroke-width="10" stroke-linecap="round" stroke-linejoin="round" stroke-miterlimit="10" x1="492.73" y1="1020.167" x2="436.865" y2="1020.167"/>
				</g>
				<g display="inline">
					
						<line fill="none" stroke="#FEED5E" stroke-width="10" stroke-linecap="round" stroke-linejoin="round" stroke-miterlimit="10" x1="493.73" y1="1042.5" x2="436.865" y2="1042.5"/>
					
						<line fill="none" stroke="#EF4354" stroke-width="10" stroke-linecap="round" stroke-linejoin="round" stroke-miterlimit="10" x1="493.73" y1="1065.167" x2="436.865" y2="1065.167"/>
					
						<line fill="none" stroke="#EA9F31" stroke-width="10" stroke-linecap="round" stroke-linejoin="round" stroke-miterlimit="10" x1="492.73" y1="1087.167" x2="436.865" y2="1087.167"/>
				</g>
				<g display="inline">
					
						<line fill="none" stroke="#FEED5E" stroke-width="10" stroke-linecap="round" stroke-linejoin="round" stroke-miterlimit="10" x1="493.73" y1="1108.5" x2="436.865" y2="1108.5"/>
					
						<line fill="none" stroke="#EF4354" stroke-width="10" stroke-linecap="round" stroke-linejoin="round" stroke-miterlimit="10" x1="493.73" y1="1131.167" x2="436.865" y2="1131.167"/>
					
						<line fill="none" stroke="#EA9F31" stroke-width="10" stroke-linecap="round" stroke-linejoin="round" stroke-miterlimit="10" x1="492.73" y1="1153.167" x2="436.865" y2="1153.167"/>
				</g>
				
					<line display="inline" fill="none" stroke="#FEED5E" stroke-width="10" stroke-linecap="round" stroke-linejoin="round" stroke-miterlimit="10" x1="493.73" y1="1174.5" x2="436.865" y2="1174.5"/>
				
					<line display="inline" fill="none" stroke="#EF4354" stroke-width="10" stroke-linecap="round" stroke-linejoin="round" stroke-miterlimit="10" x1="493.73" y1="1197.167" x2="438.48" y2="1197.167"/>
				
					<line display="inline" fill="none" stroke="#EA9F31" stroke-width="10" stroke-linecap="round" stroke-linejoin="round" stroke-miterlimit="10" x1="492.73" y1="1219.167" x2="402.23" y2="1219.167"/>
				
					<line display="inline" fill="none" stroke="#FEED5E" stroke-width="10" stroke-linecap="round" stroke-linejoin="round" stroke-miterlimit="10" x1="473.98" y1="1240.5" x2="378.73" y2="1240.5"/>
			</g>
			
				<path id="kontor_2_" fill="none" stroke="#000000" stroke-width="10" stroke-linecap="round" stroke-linejoin="round" stroke-miterlimit="10" d="
				M497.432,1022.501L497.403,1233c0,0-60.437,23.566-76.917,25.117c-16.482,1.551-47.056,3.338-43.971-16.559
				c3.085-19.895,60.784-40.061,60.784-40.061l-4.148-179.014l-1.976-86.008h66.256L497.432,1022.501L497.432,1022.501z"/>
			<g display="none">
				
					<line display="inline" fill="none" stroke="#000000" stroke-width="10" stroke-linecap="round" stroke-linejoin="round" stroke-miterlimit="10" x1="432.463" y1="955.834" x2="496.43" y2="955.834"/>
				
					<line display="inline" fill="none" stroke="#000000" stroke-width="10" stroke-linecap="round" stroke-linejoin="round" stroke-miterlimit="10" x1="457.847" y1="937.485" x2="457.847" y2="955.834"/>
				
					<line display="inline" fill="none" stroke="#000000" stroke-width="10" stroke-linecap="round" stroke-linejoin="round" stroke-miterlimit="10" x1="444.847" y1="937.485" x2="444.847" y2="955.834"/>
				
					<line display="inline" fill="none" stroke="#000000" stroke-width="10" stroke-linecap="round" stroke-linejoin="round" stroke-miterlimit="10" x1="483.847" y1="937.485" x2="483.847" y2="955.834"/>
				
					<line display="inline" fill="none" stroke="#000000" stroke-width="10" stroke-linecap="round" stroke-linejoin="round" stroke-miterlimit="10" x1="470.847" y1="937.485" x2="470.847" y2="955.834"/>
			</g>
		</g>
		<g>
			
				<polygon fill="#FFF200" stroke="#000000" stroke-width="7" stroke-linecap="round" stroke-linejoin="round" stroke-miterlimit="10" points="
				485.196,998.789 476.054,993.36 466.398,997.813 468.738,987.441 461.518,979.635 472.105,978.651 477.3,969.375 
				481.505,979.141 491.933,981.214 483.945,988.229 			"/>
			
				<polygon fill="#FFF200" stroke="#000000" stroke-width="7" stroke-linecap="round" stroke-linejoin="round" stroke-miterlimit="10" points="
				454.78,967.935 445.639,962.506 435.982,966.959 438.322,956.586 431.103,948.779 441.69,947.797 446.884,938.521 
				451.089,948.286 461.518,950.358 453.529,957.375 			"/>
			
				<polygon fill="#FFF200" stroke="#000000" stroke-width="7" stroke-linecap="round" stroke-linejoin="round" stroke-miterlimit="10" points="
				485.195,1062.521 476.055,1057.092 466.398,1061.545 468.738,1051.173 461.518,1043.366 472.105,1042.383 477.3,1033.105 
				481.505,1042.872 491.934,1044.945 483.945,1051.961 			"/>
			
				<polygon fill="#FFF200" stroke="#000000" stroke-width="7" stroke-linecap="round" stroke-linejoin="round" stroke-miterlimit="10" points="
				454.78,1031.666 445.639,1026.237 435.982,1030.689 438.322,1020.317 431.103,1012.511 441.689,1011.528 446.885,1002.252 
				451.089,1012.018 461.518,1014.09 453.529,1021.106 			"/>
			
				<polygon fill="#FFF200" stroke="#000000" stroke-width="7" stroke-linecap="round" stroke-linejoin="round" stroke-miterlimit="10" points="
				488.195,1122.789 479.055,1117.36 469.398,1121.813 471.738,1111.441 464.518,1103.635 475.105,1102.651 480.3,1093.375 
				484.505,1103.141 494.934,1105.214 486.945,1112.229 			"/>
			
				<polygon fill="#FFF200" stroke="#000000" stroke-width="7" stroke-linecap="round" stroke-linejoin="round" stroke-miterlimit="10" points="
				456.78,1091.936 447.639,1086.506 437.982,1090.959 440.322,1080.586 433.103,1072.779 443.689,1071.797 448.885,1062.521 
				453.089,1072.286 463.518,1074.358 455.529,1081.375 			"/>
			
				<polygon fill="#FFF200" stroke="#000000" stroke-width="7" stroke-linecap="round" stroke-linejoin="round" stroke-miterlimit="10" points="
				489.195,1186.521 480.055,1181.092 470.398,1185.545 472.738,1175.173 465.518,1167.366 476.105,1166.383 481.3,1157.105 
				485.505,1166.872 495.934,1168.945 487.945,1175.961 			"/>
			
				<polygon fill="#FFF200" stroke="#000000" stroke-width="7" stroke-linecap="round" stroke-linejoin="round" stroke-miterlimit="10" points="
				457.78,1155.666 448.639,1150.237 438.982,1154.689 441.322,1144.317 434.103,1136.511 444.689,1135.528 449.885,1126.252 
				454.089,1136.018 464.518,1138.09 456.529,1145.105 			"/>
			
				<polygon fill="#FFF200" stroke="#000000" stroke-width="7" stroke-linecap="round" stroke-linejoin="round" stroke-miterlimit="10" points="
				424.365,1248.152 415.224,1242.724 405.567,1247.177 407.907,1236.804 400.688,1228.997 411.274,1228.015 416.47,1218.738 
				420.674,1228.504 431.103,1230.576 423.114,1237.593 			"/>
			
				<polygon fill="#FFF200" stroke="#000000" stroke-width="7" stroke-linecap="round" stroke-linejoin="round" stroke-miterlimit="10" points="
				458.78,1215.936 449.639,1210.506 439.982,1214.959 442.322,1204.586 435.103,1196.779 445.689,1195.797 450.885,1186.521 
				455.089,1196.286 465.518,1198.358 457.529,1205.375 			"/>
		</g>
	</g>
	<g>
		<g>
			<path id="kolor_5_" fill="#3631F4" d="M583.3,1022.501v-86.024h66.256l-1.976,86.008l-4.148,179.014
				c0,0,57.699,20.166,60.783,40.061c3.086,19.896-27.488,18.109-43.971,16.559c-16.48-1.551-76.917-25.117-76.917-25.117
				L583.3,1022.501L583.3,1022.501z"/>
			<g id="wzor_3_" display="none">
				<g display="inline">
					
						<line fill="none" stroke="#FEED5E" stroke-width="10" stroke-linecap="round" stroke-linejoin="round" stroke-miterlimit="10" x1="643.865" y1="975.5" x2="587" y2="975.5"/>
					
						<line fill="none" stroke="#EF4354" stroke-width="10" stroke-linecap="round" stroke-linejoin="round" stroke-miterlimit="10" x1="643.865" y1="998.167" x2="587" y2="998.167"/>
					
						<line fill="none" stroke="#EA9F31" stroke-width="10" stroke-linecap="round" stroke-linejoin="round" stroke-miterlimit="10" x1="643.865" y1="1020.167" x2="588" y2="1020.167"/>
				</g>
				<g display="inline">
					
						<line fill="none" stroke="#FEED5E" stroke-width="10" stroke-linecap="round" stroke-linejoin="round" stroke-miterlimit="10" x1="643.865" y1="1042.5" x2="587" y2="1042.5"/>
					
						<line fill="none" stroke="#EF4354" stroke-width="10" stroke-linecap="round" stroke-linejoin="round" stroke-miterlimit="10" x1="643.865" y1="1065.167" x2="587" y2="1065.167"/>
					
						<line fill="none" stroke="#EA9F31" stroke-width="10" stroke-linecap="round" stroke-linejoin="round" stroke-miterlimit="10" x1="643.865" y1="1087.167" x2="588" y2="1087.167"/>
				</g>
				<g display="inline">
					
						<line fill="none" stroke="#FEED5E" stroke-width="10" stroke-linecap="round" stroke-linejoin="round" stroke-miterlimit="10" x1="643.865" y1="1108.5" x2="587" y2="1108.5"/>
					
						<line fill="none" stroke="#EF4354" stroke-width="10" stroke-linecap="round" stroke-linejoin="round" stroke-miterlimit="10" x1="643.865" y1="1131.167" x2="587" y2="1131.167"/>
					
						<line fill="none" stroke="#EA9F31" stroke-width="10" stroke-linecap="round" stroke-linejoin="round" stroke-miterlimit="10" x1="643.865" y1="1153.167" x2="588" y2="1153.167"/>
				</g>
				
					<line display="inline" fill="none" stroke="#FEED5E" stroke-width="10" stroke-linecap="round" stroke-linejoin="round" stroke-miterlimit="10" x1="643.865" y1="1174.5" x2="587" y2="1174.5"/>
				
					<line display="inline" fill="none" stroke="#EF4354" stroke-width="10" stroke-linecap="round" stroke-linejoin="round" stroke-miterlimit="10" x1="642.25" y1="1197.167" x2="587" y2="1197.167"/>
				
					<line display="inline" fill="none" stroke="#EA9F31" stroke-width="10" stroke-linecap="round" stroke-linejoin="round" stroke-miterlimit="10" x1="678.5" y1="1219.167" x2="588" y2="1219.167"/>
				
					<line display="inline" fill="none" stroke="#FEED5E" stroke-width="10" stroke-linecap="round" stroke-linejoin="round" stroke-miterlimit="10" x1="702" y1="1240.5" x2="606.75" y2="1240.5"/>
			</g>
			
				<path id="kontor_5_" fill="none" stroke="#000000" stroke-width="10" stroke-linecap="round" stroke-linejoin="round" stroke-miterlimit="10" d="
				M583.3,1022.501v-86.024h66.256l-1.976,86.008l-4.148,179.014c0,0,57.699,20.166,60.783,40.061
				c3.086,19.896-27.488,18.109-43.971,16.559c-16.48-1.551-76.917-25.117-76.917-25.117L583.3,1022.501L583.3,1022.501z"/>
			<g display="none">
				
					<line display="inline" fill="none" stroke="#000000" stroke-width="10" stroke-linecap="round" stroke-linejoin="round" stroke-miterlimit="10" x1="584.301" y1="955.834" x2="648.268" y2="955.834"/>
				
					<line display="inline" fill="none" stroke="#000000" stroke-width="10" stroke-linecap="round" stroke-linejoin="round" stroke-miterlimit="10" x1="622.884" y1="955.834" x2="622.884" y2="937.485"/>
				
					<line display="inline" fill="none" stroke="#000000" stroke-width="10" stroke-linecap="round" stroke-linejoin="round" stroke-miterlimit="10" x1="635.884" y1="955.834" x2="635.884" y2="937.485"/>
				
					<line display="inline" fill="none" stroke="#000000" stroke-width="10" stroke-linecap="round" stroke-linejoin="round" stroke-miterlimit="10" x1="596.884" y1="955.834" x2="596.884" y2="937.485"/>
				
					<line display="inline" fill="none" stroke="#000000" stroke-width="10" stroke-linecap="round" stroke-linejoin="round" stroke-miterlimit="10" x1="609.884" y1="955.834" x2="609.884" y2="937.485"/>
			</g>
		</g>
		<g>
			
				<polygon fill="#FFF200" stroke="#000000" stroke-width="7" stroke-linecap="round" stroke-linejoin="round" stroke-miterlimit="10" points="
				596.785,988.229 588.798,981.214 599.226,979.141 603.431,969.375 608.625,978.651 619.213,979.635 611.992,987.441 
				614.332,997.813 604.677,993.36 595.534,998.789 			"/>
			
				<polygon fill="#FFF200" stroke="#000000" stroke-width="7" stroke-linecap="round" stroke-linejoin="round" stroke-miterlimit="10" points="
				627.201,957.375 619.213,950.358 629.642,948.286 633.847,938.521 639.04,947.797 649.628,948.779 642.408,956.586 
				644.748,966.959 635.092,962.506 625.95,967.935 			"/>
			
				<polygon fill="#FFF200" stroke="#000000" stroke-width="7" stroke-linecap="round" stroke-linejoin="round" stroke-miterlimit="10" points="
				596.785,1051.961 588.797,1044.945 599.226,1042.872 603.431,1033.105 608.625,1042.383 619.213,1043.366 611.992,1051.173 
				614.332,1061.545 604.676,1057.092 595.535,1062.521 			"/>
			
				<polygon fill="#FFF200" stroke="#000000" stroke-width="7" stroke-linecap="round" stroke-linejoin="round" stroke-miterlimit="10" points="
				627.201,1021.106 619.213,1014.09 629.642,1012.018 633.846,1002.252 639.041,1011.528 649.628,1012.511 642.408,1020.317 
				644.748,1030.689 635.092,1026.237 625.95,1031.666 			"/>
			
				<polygon fill="#FFF200" stroke="#000000" stroke-width="7" stroke-linecap="round" stroke-linejoin="round" stroke-miterlimit="10" points="
				593.785,1112.229 585.797,1105.214 596.226,1103.141 600.431,1093.375 605.625,1102.651 616.213,1103.635 608.992,1111.441 
				611.332,1121.813 601.676,1117.36 592.535,1122.789 			"/>
			
				<polygon fill="#FFF200" stroke="#000000" stroke-width="7" stroke-linecap="round" stroke-linejoin="round" stroke-miterlimit="10" points="
				625.201,1081.375 617.213,1074.358 627.642,1072.286 631.846,1062.521 637.041,1071.797 647.628,1072.779 640.408,1080.586 
				642.748,1090.959 633.092,1086.506 623.95,1091.936 			"/>
			
				<polygon fill="#FFF200" stroke="#000000" stroke-width="7" stroke-linecap="round" stroke-linejoin="round" stroke-miterlimit="10" points="
				592.785,1175.961 584.797,1168.945 595.226,1166.872 599.431,1157.105 604.625,1166.383 615.213,1167.366 607.992,1175.173 
				610.332,1185.545 600.676,1181.092 591.535,1186.521 			"/>
			
				<polygon fill="#FFF200" stroke="#000000" stroke-width="7" stroke-linecap="round" stroke-linejoin="round" stroke-miterlimit="10" points="
				624.201,1145.105 616.213,1138.09 626.642,1136.018 630.846,1126.252 636.041,1135.528 646.628,1136.511 639.408,1144.317 
				641.748,1154.689 632.092,1150.237 622.95,1155.666 			"/>
			
				<polygon fill="#FFF200" stroke="#000000" stroke-width="7" stroke-linecap="round" stroke-linejoin="round" stroke-miterlimit="10" points="
				657.616,1237.593 649.628,1230.576 660.057,1228.504 664.26,1218.738 669.457,1228.015 680.043,1228.997 672.823,1236.804 
				675.164,1247.177 665.506,1242.724 656.365,1248.152 			"/>
			
				<polygon fill="#FFF200" stroke="#000000" stroke-width="7" stroke-linecap="round" stroke-linejoin="round" stroke-miterlimit="10" points="
				623.201,1205.375 615.213,1198.358 625.642,1196.286 629.846,1186.521 635.041,1195.797 645.628,1196.779 638.408,1204.586 
				640.748,1214.959 631.092,1210.506 621.95,1215.936 			"/>
		</g>
	</g>
</g>
</svg>
