<?xml version="1.0" encoding="utf-8"?>
<!-- Generator: Adobe Illustrator 15.1.0, SVG Export Plug-In . SVG Version: 6.00 Build 0)  -->
<!DOCTYPE svg PUBLIC "-//W3C//DTD SVG 1.1//EN" "http://www.w3.org/Graphics/SVG/1.1/DTD/svg11.dtd">
<svg version="1.1" id="Layer_1" xmlns="http://www.w3.org/2000/svg" xmlns:xlink="http://www.w3.org/1999/xlink" x="0px" y="0px"
	 width="432px" height="432px" viewBox="324 876 432 432" enable-background="new 324 876 432 432" xml:space="preserve">
<g>
	<g>
		<g>
			<path id="kolor_2_" fill="#3631F4" d="M497.432,1081.745l-0.028,157.767c0,0-60.437,17.663-76.917,18.825
				c-16.482,1.162-47.056,2.502-43.971-12.41c3.637-24.221,60.821-44.429,60.821-44.429l-4.186-119.765l-1.976-64.462h66.256
				L497.432,1081.745L497.432,1081.745z"/>
			<g id="wzor_2_" display="none">
				<g display="inline">
					
						<line fill="none" stroke="#FEED5E" stroke-width="10" stroke-linecap="round" stroke-linejoin="round" stroke-miterlimit="10" x1="493.73" y1="1046.519" x2="436.865" y2="1046.519"/>
					
						<line fill="none" stroke="#EF4354" stroke-width="10" stroke-linecap="round" stroke-linejoin="round" stroke-miterlimit="10" x1="493.73" y1="1063.508" x2="436.865" y2="1063.508"/>
					
						<line fill="none" stroke="#EA9F31" stroke-width="10" stroke-linecap="round" stroke-linejoin="round" stroke-miterlimit="10" x1="492.73" y1="1079.996" x2="436.865" y2="1079.996"/>
				</g>
				<g display="inline">
					
						<line fill="none" stroke="#FEED5E" stroke-width="10" stroke-linecap="round" stroke-linejoin="round" stroke-miterlimit="10" x1="493.73" y1="1096.734" x2="436.865" y2="1096.734"/>
					
						<line fill="none" stroke="#EF4354" stroke-width="10" stroke-linecap="round" stroke-linejoin="round" stroke-miterlimit="10" x1="493.73" y1="1113.723" x2="436.865" y2="1113.723"/>
					
						<line fill="none" stroke="#EA9F31" stroke-width="10" stroke-linecap="round" stroke-linejoin="round" stroke-miterlimit="10" x1="492.73" y1="1130.212" x2="436.865" y2="1130.212"/>
				</g>
				<g display="inline">
					
						<line fill="none" stroke="#FEED5E" stroke-width="10" stroke-linecap="round" stroke-linejoin="round" stroke-miterlimit="10" x1="493.73" y1="1146.201" x2="436.865" y2="1146.201"/>
					
						<line fill="none" stroke="#EF4354" stroke-width="10" stroke-linecap="round" stroke-linejoin="round" stroke-miterlimit="10" x1="493.73" y1="1163.189" x2="436.865" y2="1163.189"/>
					
						<line fill="none" stroke="#EA9F31" stroke-width="10" stroke-linecap="round" stroke-linejoin="round" stroke-miterlimit="10" x1="492.73" y1="1179.678" x2="436.865" y2="1179.678"/>
				</g>
				
					<line display="inline" fill="none" stroke="#FEED5E" stroke-width="10" stroke-linecap="round" stroke-linejoin="round" stroke-miterlimit="10" x1="493.73" y1="1195.667" x2="436.865" y2="1195.667"/>
				
					<line display="inline" fill="none" stroke="#EF4354" stroke-width="10" stroke-linecap="round" stroke-linejoin="round" stroke-miterlimit="10" x1="493.73" y1="1212.656" x2="438.48" y2="1212.656"/>
				
					<line display="inline" fill="none" stroke="#EA9F31" stroke-width="10" stroke-linecap="round" stroke-linejoin="round" stroke-miterlimit="10" x1="492.73" y1="1229.145" x2="402.23" y2="1229.145"/>
				
					<line display="inline" fill="none" stroke="#FEED5E" stroke-width="10" stroke-linecap="round" stroke-linejoin="round" stroke-miterlimit="10" x1="473.98" y1="1245.133" x2="378.73" y2="1245.133"/>
			</g>
			
				<path id="kontor_2_" fill="none" stroke="#000000" stroke-width="10" stroke-linecap="round" stroke-linejoin="round" stroke-miterlimit="10" d="
				M497.432,1081.745l-0.028,157.767c0,0-60.437,17.663-76.917,18.825c-16.482,1.162-47.056,2.502-43.971-12.41
				c-0.217-23.779,60.821-44.429,60.821-44.429l-4.186-119.765l-1.976-64.462h66.256L497.432,1081.745L497.432,1081.745z"/>
			<g>
				
					<line fill="none" stroke="#000000" stroke-width="10" stroke-linecap="round" stroke-linejoin="round" stroke-miterlimit="10" x1="432.463" y1="1031.779" x2="496.43" y2="1031.779"/>
				
					<line fill="none" stroke="#000000" stroke-width="10" stroke-linecap="round" stroke-linejoin="round" stroke-miterlimit="10" x1="457.847" y1="1018.027" x2="457.847" y2="1031.779"/>
				
					<line fill="none" stroke="#000000" stroke-width="10" stroke-linecap="round" stroke-linejoin="round" stroke-miterlimit="10" x1="444.847" y1="1018.027" x2="444.847" y2="1031.779"/>
				
					<line fill="none" stroke="#000000" stroke-width="10" stroke-linecap="round" stroke-linejoin="round" stroke-miterlimit="10" x1="483.847" y1="1018.027" x2="483.847" y2="1031.779"/>
				
					<line fill="none" stroke="#000000" stroke-width="10" stroke-linecap="round" stroke-linejoin="round" stroke-miterlimit="10" x1="470.847" y1="1018.027" x2="470.847" y2="1031.779"/>
			</g>
		</g>
		
			<path fill="#FFF200" stroke="#000000" stroke-width="7" stroke-linecap="round" stroke-linejoin="round" stroke-miterlimit="10" d="
			M423.872,1008.823c10.707,8.652,1.281,24.265-10.102,21.844c2.454,9.613,20.109,15.796,29.083,1.254
			C450.992,1018.735,439.009,998.349,423.872,1008.823z"/>
	</g>
	<g>
		<g>
			<path id="kolor_5_" fill="#3631F4" d="M584.3,1081.745v-64.474h66.256l-1.976,64.462l-4.186,119.765
				c0,0,57.184,20.208,60.82,44.429c3.086,14.912-27.488,13.572-43.971,12.41c-16.48-1.162-76.917-18.825-76.917-18.825
				L584.3,1081.745L584.3,1081.745z"/>
			<g id="wzor_3_" display="none">
				<g display="inline">
					
						<line fill="none" stroke="#FEED5E" stroke-width="10" stroke-linecap="round" stroke-linejoin="round" stroke-miterlimit="10" x1="644.865" y1="1046.519" x2="588" y2="1046.519"/>
					
						<line fill="none" stroke="#EF4354" stroke-width="10" stroke-linecap="round" stroke-linejoin="round" stroke-miterlimit="10" x1="644.865" y1="1063.508" x2="588" y2="1063.508"/>
					
						<line fill="none" stroke="#EA9F31" stroke-width="10" stroke-linecap="round" stroke-linejoin="round" stroke-miterlimit="10" x1="644.865" y1="1079.996" x2="589" y2="1079.996"/>
				</g>
				<g display="inline">
					
						<line fill="none" stroke="#FEED5E" stroke-width="10" stroke-linecap="round" stroke-linejoin="round" stroke-miterlimit="10" x1="644.865" y1="1096.734" x2="588" y2="1096.734"/>
					
						<line fill="none" stroke="#EF4354" stroke-width="10" stroke-linecap="round" stroke-linejoin="round" stroke-miterlimit="10" x1="644.865" y1="1113.723" x2="588" y2="1113.723"/>
					
						<line fill="none" stroke="#EA9F31" stroke-width="10" stroke-linecap="round" stroke-linejoin="round" stroke-miterlimit="10" x1="644.865" y1="1130.212" x2="589" y2="1130.212"/>
				</g>
				<g display="inline">
					
						<line fill="none" stroke="#FEED5E" stroke-width="10" stroke-linecap="round" stroke-linejoin="round" stroke-miterlimit="10" x1="644.865" y1="1146.201" x2="588" y2="1146.201"/>
					
						<line fill="none" stroke="#EF4354" stroke-width="10" stroke-linecap="round" stroke-linejoin="round" stroke-miterlimit="10" x1="644.865" y1="1163.189" x2="588" y2="1163.189"/>
					
						<line fill="none" stroke="#EA9F31" stroke-width="10" stroke-linecap="round" stroke-linejoin="round" stroke-miterlimit="10" x1="644.865" y1="1179.678" x2="589" y2="1179.678"/>
				</g>
				
					<line display="inline" fill="none" stroke="#FEED5E" stroke-width="10" stroke-linecap="round" stroke-linejoin="round" stroke-miterlimit="10" x1="644.865" y1="1195.667" x2="588" y2="1195.667"/>
				
					<line display="inline" fill="none" stroke="#EF4354" stroke-width="10" stroke-linecap="round" stroke-linejoin="round" stroke-miterlimit="10" x1="643.25" y1="1212.656" x2="588" y2="1212.656"/>
				
					<line display="inline" fill="none" stroke="#EA9F31" stroke-width="10" stroke-linecap="round" stroke-linejoin="round" stroke-miterlimit="10" x1="679.5" y1="1229.145" x2="589" y2="1229.145"/>
				
					<line display="inline" fill="none" stroke="#FEED5E" stroke-width="10" stroke-linecap="round" stroke-linejoin="round" stroke-miterlimit="10" x1="703" y1="1245.133" x2="607.75" y2="1245.133"/>
			</g>
			
				<path id="kontor_5_" fill="none" stroke="#000000" stroke-width="10" stroke-linecap="round" stroke-linejoin="round" stroke-miterlimit="10" d="
				M584.3,1081.745v-64.474h66.256l-1.976,64.462l-4.186,119.765c0,0,61.037,20.649,60.82,44.429
				c3.086,14.912-27.488,13.572-43.971,12.41c-16.48-1.162-76.917-18.825-76.917-18.825L584.3,1081.745L584.3,1081.745z"/>
			<g>
				
					<line fill="none" stroke="#000000" stroke-width="10" stroke-linecap="round" stroke-linejoin="round" stroke-miterlimit="10" x1="585.301" y1="1031.779" x2="649.268" y2="1031.779"/>
				
					<line fill="none" stroke="#000000" stroke-width="10" stroke-linecap="round" stroke-linejoin="round" stroke-miterlimit="10" x1="623.884" y1="1031.779" x2="623.884" y2="1018.027"/>
				
					<line fill="none" stroke="#000000" stroke-width="10" stroke-linecap="round" stroke-linejoin="round" stroke-miterlimit="10" x1="636.884" y1="1031.779" x2="636.884" y2="1018.027"/>
				
					<line fill="none" stroke="#000000" stroke-width="10" stroke-linecap="round" stroke-linejoin="round" stroke-miterlimit="10" x1="597.884" y1="1031.779" x2="597.884" y2="1018.027"/>
				
					<line fill="none" stroke="#000000" stroke-width="10" stroke-linecap="round" stroke-linejoin="round" stroke-miterlimit="10" x1="610.884" y1="1031.779" x2="610.884" y2="1018.027"/>
			</g>
		</g>
		
			<path fill="#FFF200" stroke="#000000" stroke-width="7" stroke-linecap="round" stroke-linejoin="round" stroke-miterlimit="10" d="
			M638.878,1031.921c8.974,14.542,26.628,8.359,29.083-1.254c-11.384,2.421-20.81-13.191-10.103-21.844
			C642.722,998.349,630.738,1018.735,638.878,1031.921z"/>
	</g>
</g>
</svg>
