<?xml version="1.0" encoding="utf-8"?>
<!-- Generator: Adobe Illustrator 15.1.0, SVG Export Plug-In . SVG Version: 6.00 Build 0)  -->
<!DOCTYPE svg PUBLIC "-//W3C//DTD SVG 1.1//EN" "http://www.w3.org/Graphics/SVG/1.1/DTD/svg11.dtd">
<svg version="1.1" id="Layer_1" xmlns="http://www.w3.org/2000/svg" xmlns:xlink="http://www.w3.org/1999/xlink" x="0px" y="0px"
	 width="1080px" height="1340px" viewBox="0 0 1080 1340" enable-background="new 0 0 1080 1340" xml:space="preserve">
<g>
	<g>
		<path id="kolor_1_" fill="#7533F2" d="M497.432,1022.501L497.403,1233c0,0-60.438,23.566-76.917,25.117
			c-16.482,1.551-47.057,3.338-43.971-16.56c3.084-19.895,60.783-40.061,60.783-40.061l-4.147-179.015l-1.977-86.008h66.256
			L497.432,1022.501L497.432,1022.501z"/>
		<g id="wzor_4_" display="none">
			<g display="inline">
				
					<line fill="none" stroke="#FEED5E" stroke-width="10" stroke-linecap="round" stroke-linejoin="round" stroke-miterlimit="10" x1="493.73" y1="975.5" x2="436.865" y2="975.5"/>
				
					<line fill="none" stroke="#EF4354" stroke-width="10" stroke-linecap="round" stroke-linejoin="round" stroke-miterlimit="10" x1="493.73" y1="998.167" x2="436.865" y2="998.167"/>
				
					<line fill="none" stroke="#EA9F31" stroke-width="10" stroke-linecap="round" stroke-linejoin="round" stroke-miterlimit="10" x1="492.73" y1="1020.167" x2="436.865" y2="1020.167"/>
			</g>
			<g display="inline">
				
					<line fill="none" stroke="#FEED5E" stroke-width="10" stroke-linecap="round" stroke-linejoin="round" stroke-miterlimit="10" x1="493.73" y1="1042.5" x2="436.865" y2="1042.5"/>
				
					<line fill="none" stroke="#EF4354" stroke-width="10" stroke-linecap="round" stroke-linejoin="round" stroke-miterlimit="10" x1="493.73" y1="1065.167" x2="436.865" y2="1065.167"/>
				
					<line fill="none" stroke="#EA9F31" stroke-width="10" stroke-linecap="round" stroke-linejoin="round" stroke-miterlimit="10" x1="492.73" y1="1087.167" x2="436.865" y2="1087.167"/>
			</g>
			<g display="inline">
				
					<line fill="none" stroke="#FEED5E" stroke-width="10" stroke-linecap="round" stroke-linejoin="round" stroke-miterlimit="10" x1="493.73" y1="1108.5" x2="436.865" y2="1108.5"/>
				
					<line fill="none" stroke="#EF4354" stroke-width="10" stroke-linecap="round" stroke-linejoin="round" stroke-miterlimit="10" x1="493.73" y1="1131.167" x2="436.865" y2="1131.167"/>
				
					<line fill="none" stroke="#EA9F31" stroke-width="10" stroke-linecap="round" stroke-linejoin="round" stroke-miterlimit="10" x1="492.73" y1="1153.167" x2="436.865" y2="1153.167"/>
			</g>
			
				<line display="inline" fill="none" stroke="#FEED5E" stroke-width="10" stroke-linecap="round" stroke-linejoin="round" stroke-miterlimit="10" x1="493.73" y1="1174.5" x2="436.865" y2="1174.5"/>
			
				<line display="inline" fill="none" stroke="#EF4354" stroke-width="10" stroke-linecap="round" stroke-linejoin="round" stroke-miterlimit="10" x1="493.73" y1="1197.167" x2="438.48" y2="1197.167"/>
			
				<line display="inline" fill="none" stroke="#EA9F31" stroke-width="10" stroke-linecap="round" stroke-linejoin="round" stroke-miterlimit="10" x1="492.73" y1="1219.167" x2="402.23" y2="1219.167"/>
			
				<line display="inline" fill="none" stroke="#FEED5E" stroke-width="10" stroke-linecap="round" stroke-linejoin="round" stroke-miterlimit="10" x1="473.98" y1="1240.5" x2="378.73" y2="1240.5"/>
		</g>
		
			<path id="kontor_1_" fill="none" stroke="#000000" stroke-width="10" stroke-linecap="round" stroke-linejoin="round" stroke-miterlimit="10" d="
			M497.432,1022.501L497.403,1233c0,0-60.438,23.566-76.917,25.117c-16.482,1.551-47.057,3.338-43.971-16.56
			c3.084-19.895,60.783-40.061,60.783-40.061l-4.147-179.015l-1.977-86.008h66.256L497.432,1022.501L497.432,1022.501z"/>
		<g display="none">
			
				<line display="inline" fill="none" stroke="#000000" stroke-width="10" stroke-linecap="round" stroke-linejoin="round" stroke-miterlimit="10" x1="432.463" y1="955.834" x2="496.43" y2="955.834"/>
			
				<line display="inline" fill="none" stroke="#000000" stroke-width="10" stroke-linecap="round" stroke-linejoin="round" stroke-miterlimit="10" x1="457.847" y1="937.485" x2="457.847" y2="955.834"/>
			
				<line display="inline" fill="none" stroke="#000000" stroke-width="10" stroke-linecap="round" stroke-linejoin="round" stroke-miterlimit="10" x1="444.847" y1="937.485" x2="444.847" y2="955.834"/>
			
				<line display="inline" fill="none" stroke="#000000" stroke-width="10" stroke-linecap="round" stroke-linejoin="round" stroke-miterlimit="10" x1="483.847" y1="937.485" x2="483.847" y2="955.834"/>
			
				<line display="inline" fill="none" stroke="#000000" stroke-width="10" stroke-linecap="round" stroke-linejoin="round" stroke-miterlimit="10" x1="470.847" y1="937.485" x2="470.847" y2="955.834"/>
		</g>
	</g>
	
		<path fill="#FFF200" stroke="#000000" stroke-width="7" stroke-linecap="round" stroke-linejoin="round" stroke-miterlimit="10" d="
		M442.285,983.894c8.973,7.253,1.073,20.337-8.466,18.309c2.057,8.057,16.853,13.237,24.375,1.051
		C465.014,992.2,454.971,975.114,442.285,983.894z"/>
	
		<polygon fill="#FFF200" stroke="#000000" stroke-width="7" stroke-linecap="round" stroke-linejoin="round" stroke-miterlimit="10" points="
		484.655,973.063 475.514,967.634 465.858,972.087 468.198,961.715 460.977,953.908 471.565,952.925 476.759,943.648 
		480.964,953.414 491.393,955.487 483.405,962.503 	"/>
	
		<polygon fill="#FFF200" stroke="#000000" stroke-width="7" stroke-linecap="round" stroke-linejoin="round" stroke-miterlimit="10" points="
		422.78,1245 413.639,1239.571 403.982,1244.024 406.322,1233.651 399.104,1225.845 409.689,1224.862 414.885,1215.586 
		419.089,1225.352 429.518,1227.424 421.529,1234.439 	"/>
	
		<polygon fill="#FFF200" stroke="#000000" stroke-width="7" stroke-linecap="round" stroke-linejoin="round" stroke-miterlimit="10" points="
		484.655,1039.905 475.514,1034.477 465.858,1038.93 468.198,1028.558 460.977,1020.751 471.565,1019.768 476.759,1010.491 
		480.964,1020.257 491.393,1022.33 483.405,1029.346 	"/>
	
		<polygon fill="#FFF200" stroke="#000000" stroke-width="7" stroke-linecap="round" stroke-linejoin="round" stroke-miterlimit="10" points="
		480.447,1235.77 471.306,1230.341 461.649,1234.794 463.989,1224.421 456.77,1216.614 467.356,1215.632 472.552,1206.355 
		476.756,1216.121 487.185,1218.193 479.196,1225.21 	"/>
	
		<polygon fill="#FFF200" stroke="#000000" stroke-width="7" stroke-linecap="round" stroke-linejoin="round" stroke-miterlimit="10" points="
		490.694,1104.297 481.553,1098.868 471.896,1103.321 474.236,1092.948 467.017,1085.142 477.604,1084.159 482.799,1074.883 
		487.003,1084.648 497.432,1086.721 489.443,1093.737 	"/>
	
		<polygon fill="#FFF200" stroke="#000000" stroke-width="7" stroke-linecap="round" stroke-linejoin="round" stroke-miterlimit="10" points="
		461.98,1195.139 452.838,1189.71 443.182,1194.163 445.522,1183.79 438.302,1175.983 448.889,1175.001 454.084,1165.725 
		458.289,1175.49 468.717,1177.563 460.729,1184.579 	"/>
	
		<polygon fill="#FFF200" stroke="#000000" stroke-width="7" stroke-linecap="round" stroke-linejoin="round" stroke-miterlimit="10" points="
		458.625,1136.705 449.484,1131.276 439.828,1135.729 442.167,1125.355 434.948,1117.55 445.535,1116.567 450.73,1107.291 
		454.934,1117.057 465.363,1119.129 457.375,1126.146 	"/>
	
		<path fill="#FFF200" stroke="#000000" stroke-width="7" stroke-linecap="round" stroke-linejoin="round" stroke-miterlimit="10" d="
		M457.357,1048.061c-8.476,7.828,0.272,20.36,9.657,17.707c-1.52,8.175-15.939,14.321-24.252,2.658
		C435.228,1057.852,444.119,1040.138,457.357,1048.061z"/>
	
		<path fill="#FFF200" stroke="#000000" stroke-width="7" stroke-linecap="round" stroke-linejoin="round" stroke-miterlimit="10" d="
		M477.401,1139.127c8.973,7.252,1.071,20.336-8.469,18.307c2.059,8.059,16.854,13.238,24.375,1.053
		C500.13,1147.434,490.087,1130.348,477.401,1139.127z"/>
	<g>
		<path id="kolor_7_" fill="#7533F2" d="M583.757,1022.501v-86.024h66.256l-1.976,86.009l-4.148,179.014
			c0,0,57.698,20.166,60.783,40.062s-27.488,18.108-43.971,16.559c-16.48-1.551-76.917-25.117-76.917-25.117L583.757,1022.501
			L583.757,1022.501z"/>
		<g id="wzor_1_" display="none">
			<g display="inline">
				
					<line fill="none" stroke="#FEED5E" stroke-width="10" stroke-linecap="round" stroke-linejoin="round" stroke-miterlimit="10" x1="644.322" y1="975.5" x2="587.457" y2="975.5"/>
				
					<line fill="none" stroke="#EF4354" stroke-width="10" stroke-linecap="round" stroke-linejoin="round" stroke-miterlimit="10" x1="644.322" y1="998.167" x2="587.457" y2="998.167"/>
				
					<line fill="none" stroke="#EA9F31" stroke-width="10" stroke-linecap="round" stroke-linejoin="round" stroke-miterlimit="10" x1="644.322" y1="1020.167" x2="588.457" y2="1020.167"/>
			</g>
			<g display="inline">
				
					<line fill="none" stroke="#FEED5E" stroke-width="10" stroke-linecap="round" stroke-linejoin="round" stroke-miterlimit="10" x1="644.322" y1="1042.5" x2="587.457" y2="1042.5"/>
				
					<line fill="none" stroke="#EF4354" stroke-width="10" stroke-linecap="round" stroke-linejoin="round" stroke-miterlimit="10" x1="644.322" y1="1065.167" x2="587.457" y2="1065.167"/>
				
					<line fill="none" stroke="#EA9F31" stroke-width="10" stroke-linecap="round" stroke-linejoin="round" stroke-miterlimit="10" x1="644.322" y1="1087.167" x2="588.457" y2="1087.167"/>
			</g>
			<g display="inline">
				
					<line fill="none" stroke="#FEED5E" stroke-width="10" stroke-linecap="round" stroke-linejoin="round" stroke-miterlimit="10" x1="644.322" y1="1108.5" x2="587.457" y2="1108.5"/>
				
					<line fill="none" stroke="#EF4354" stroke-width="10" stroke-linecap="round" stroke-linejoin="round" stroke-miterlimit="10" x1="644.322" y1="1131.167" x2="587.457" y2="1131.167"/>
				
					<line fill="none" stroke="#EA9F31" stroke-width="10" stroke-linecap="round" stroke-linejoin="round" stroke-miterlimit="10" x1="644.322" y1="1153.167" x2="588.457" y2="1153.167"/>
			</g>
			
				<line display="inline" fill="none" stroke="#FEED5E" stroke-width="10" stroke-linecap="round" stroke-linejoin="round" stroke-miterlimit="10" x1="644.322" y1="1174.5" x2="587.457" y2="1174.5"/>
			
				<line display="inline" fill="none" stroke="#EF4354" stroke-width="10" stroke-linecap="round" stroke-linejoin="round" stroke-miterlimit="10" x1="642.707" y1="1197.167" x2="587.457" y2="1197.167"/>
			
				<line display="inline" fill="none" stroke="#EA9F31" stroke-width="10" stroke-linecap="round" stroke-linejoin="round" stroke-miterlimit="10" x1="678.957" y1="1219.167" x2="588.457" y2="1219.167"/>
			
				<line display="inline" fill="none" stroke="#FEED5E" stroke-width="10" stroke-linecap="round" stroke-linejoin="round" stroke-miterlimit="10" x1="702.457" y1="1240.5" x2="607.207" y2="1240.5"/>
		</g>
		
			<path id="kontor_7_" fill="none" stroke="#000000" stroke-width="10" stroke-linecap="round" stroke-linejoin="round" stroke-miterlimit="10" d="
			M583.757,1022.501v-86.024h66.256l-1.976,86.009l-4.148,179.014c0,0,57.698,20.166,60.783,40.062s-27.488,18.108-43.971,16.559
			c-16.48-1.551-76.917-25.117-76.917-25.117L583.757,1022.501L583.757,1022.501z"/>
		<g display="none">
			
				<line display="inline" fill="none" stroke="#000000" stroke-width="10" stroke-linecap="round" stroke-linejoin="round" stroke-miterlimit="10" x1="584.758" y1="955.834" x2="648.725" y2="955.834"/>
			
				<line display="inline" fill="none" stroke="#000000" stroke-width="10" stroke-linecap="round" stroke-linejoin="round" stroke-miterlimit="10" x1="623.341" y1="955.834" x2="623.341" y2="937.485"/>
			
				<line display="inline" fill="none" stroke="#000000" stroke-width="10" stroke-linecap="round" stroke-linejoin="round" stroke-miterlimit="10" x1="636.341" y1="955.834" x2="636.341" y2="937.485"/>
			
				<line display="inline" fill="none" stroke="#000000" stroke-width="10" stroke-linecap="round" stroke-linejoin="round" stroke-miterlimit="10" x1="597.341" y1="955.834" x2="597.341" y2="937.485"/>
			
				<line display="inline" fill="none" stroke="#000000" stroke-width="10" stroke-linecap="round" stroke-linejoin="round" stroke-miterlimit="10" x1="610.341" y1="955.834" x2="610.341" y2="937.485"/>
		</g>
	</g>
	
		<path fill="#FFF200" stroke="#000000" stroke-width="7" stroke-linecap="round" stroke-linejoin="round" stroke-miterlimit="10" d="
		M622.993,1003.252c7.521,12.188,22.317,7.006,24.375-1.051c-9.539,2.029-17.438-11.055-8.466-18.309
		C626.217,975.114,616.174,992.2,622.993,1003.252z"/>
	
		<polygon fill="#FFF200" stroke="#000000" stroke-width="7" stroke-linecap="round" stroke-linejoin="round" stroke-miterlimit="10" points="
		597.782,962.503 589.795,955.487 600.224,953.414 604.429,943.648 609.622,952.925 620.211,953.908 612.989,961.715 
		615.329,972.087 605.674,967.634 596.532,973.063 	"/>
	
		<polygon fill="#FFF200" stroke="#000000" stroke-width="7" stroke-linecap="round" stroke-linejoin="round" stroke-miterlimit="10" points="
		659.658,1234.439 651.67,1227.424 662.099,1225.352 666.303,1215.586 671.498,1224.862 682.084,1225.845 674.865,1233.651 
		677.205,1244.024 667.548,1239.571 658.407,1245 	"/>
	
		<polygon fill="#FFF200" stroke="#000000" stroke-width="7" stroke-linecap="round" stroke-linejoin="round" stroke-miterlimit="10" points="
		597.782,1029.346 589.795,1022.33 600.224,1020.257 604.429,1010.491 609.622,1019.768 620.211,1020.751 612.989,1028.558 
		615.329,1038.93 605.674,1034.477 596.532,1039.905 	"/>
	
		<polygon fill="#FFF200" stroke="#000000" stroke-width="7" stroke-linecap="round" stroke-linejoin="round" stroke-miterlimit="10" points="
		601.991,1225.21 594.003,1218.193 604.432,1216.121 608.636,1206.355 613.831,1215.632 624.418,1216.614 617.198,1224.421 
		619.538,1234.794 609.882,1230.341 600.74,1235.77 	"/>
	
		<polygon fill="#FFF200" stroke="#000000" stroke-width="7" stroke-linecap="round" stroke-linejoin="round" stroke-miterlimit="10" points="
		591.744,1093.737 583.756,1086.721 594.185,1084.648 598.389,1074.883 603.583,1084.159 614.171,1085.142 606.951,1092.948 
		609.292,1103.321 599.635,1098.868 590.493,1104.297 	"/>
	
		<polygon fill="#FFF200" stroke="#000000" stroke-width="7" stroke-linecap="round" stroke-linejoin="round" stroke-miterlimit="10" points="
		620.458,1184.579 612.471,1177.563 622.898,1175.49 627.104,1165.725 632.299,1175.001 642.886,1175.983 635.665,1183.79 
		638.006,1194.163 628.35,1189.71 619.207,1195.139 	"/>
	
		<polygon fill="#FFF200" stroke="#000000" stroke-width="7" stroke-linecap="round" stroke-linejoin="round" stroke-miterlimit="10" points="
		623.813,1126.146 615.824,1119.129 626.254,1117.057 630.457,1107.291 635.652,1116.567 646.239,1117.55 639.021,1125.355 
		641.359,1135.729 631.703,1131.276 622.563,1136.705 	"/>
	
		<path fill="#FFF200" stroke="#000000" stroke-width="7" stroke-linecap="round" stroke-linejoin="round" stroke-miterlimit="10" d="
		M638.424,1068.426c-8.312,11.663-22.731,5.517-24.252-2.658c9.385,2.653,18.133-9.879,9.658-17.707
		C637.068,1040.138,645.96,1057.852,638.424,1068.426z"/>
	
		<path fill="#FFF200" stroke="#000000" stroke-width="7" stroke-linecap="round" stroke-linejoin="round" stroke-miterlimit="10" d="
		M587.879,1158.485c7.521,12.187,22.317,7.006,24.375-1.053c-9.54,2.029-17.439-11.055-8.468-18.307
		C591.101,1130.348,581.058,1147.434,587.879,1158.485z"/>
</g>
</svg>
