<?xml version="1.0" encoding="utf-8"?>
<!-- Generator: Adobe Illustrator 15.1.0, SVG Export Plug-In . SVG Version: 6.00 Build 0)  -->
<!DOCTYPE svg PUBLIC "-//W3C//DTD SVG 1.1//EN" "http://www.w3.org/Graphics/SVG/1.1/DTD/svg11.dtd">
<svg version="1.1" id="Layer_1" xmlns="http://www.w3.org/2000/svg" xmlns:xlink="http://www.w3.org/1999/xlink" x="0px" y="0px"
	 width="1080px" height="1340px" viewBox="0 0 1080 1340" enable-background="new 0 0 1080 1340" xml:space="preserve">
<g>
	
		<path fill="#7A37BC" stroke="#000000" stroke-width="10" stroke-linecap="round" stroke-linejoin="round" stroke-miterlimit="10" d="
		M762.929,566.375l-49.424,66.154c0,0-29.729-119.922-36.28-127.698C648.967,471.283,590.825,466,590.825,466s-4.229,22-50.358,22
		s-50.356-22-50.356-22s-56.107,3.283-84.366,36.831c-14.86,17.642-80.882,274.677-80.882,274.677l47.336,17.55l70.598-237.847
		L429.15,749.662l223.693-0.162l-15.467-192.377c0,0,13.957,51.891,29.047,103.782c5.646,19.416,37.075,80.594,86.104,4.15
		c20.998-32.738,44.15-68.689,44.15-68.689L762.929,566.375z"/>
	
		<polygon fill="#FFF200" stroke="#000000" stroke-width="7" stroke-linecap="round" stroke-linejoin="round" stroke-miterlimit="10" points="
		570.158,641.146 542.688,626.799 515.3,641.288 520.457,610.733 498.211,589.158 528.869,584.621 542.51,556.796 556.298,584.552 
		586.976,588.928 564.84,610.618 	"/>
</g>
</svg>
