<?xml version="1.0" encoding="utf-8"?>
<!-- Generator: Adobe Illustrator 15.1.0, SVG Export Plug-In . SVG Version: 6.00 Build 0)  -->
<!DOCTYPE svg PUBLIC "-//W3C//DTD SVG 1.1//EN" "http://www.w3.org/Graphics/SVG/1.1/DTD/svg11.dtd">
<svg version="1.1" id="Layer_1" xmlns="http://www.w3.org/2000/svg" xmlns:xlink="http://www.w3.org/1999/xlink" x="0px" y="0px"
	 width="504px" height="504px" viewBox="296 418 504 504" enable-background="new 296 418 504 504" xml:space="preserve">
<g>
	
		<path fill="#7A37BC" stroke="#000000" stroke-width="10" stroke-linecap="round" stroke-linejoin="round" stroke-miterlimit="10" d="
		M754.158,605.846L704.734,672c0,0-29.729-119.921-36.279-127.698c-28.258-33.548-86.4-38.831-86.4-38.831s-4.229,22-50.358,22
		c-46.13,0-50.356-22-50.356-22s-56.107,3.283-84.366,36.831c-14.86,17.642-80.882,274.676-80.882,274.676l47.336,17.551
		l70.598-237.847L420.38,789.133l223.694-0.162l-15.467-192.376c0,0,13.957,51.891,29.047,103.783
		c5.646,19.416,37.074,80.594,86.104,4.15c20.998-32.738,44.15-68.69,44.15-68.69L754.158,605.846z"/>
	
		<polygon fill="#FFF200" stroke="#000000" stroke-width="7" stroke-linecap="round" stroke-linejoin="round" stroke-miterlimit="10" points="
		561.389,680.617 533.918,666.27 506.53,680.76 511.687,650.204 489.441,628.629 520.099,624.092 533.74,596.268 547.527,624.023 
		578.205,628.399 556.07,650.089 	"/>
</g>
</svg>
