<?xml version="1.0" encoding="utf-8"?>
<!-- Generator: Adobe Illustrator 15.1.0, SVG Export Plug-In . SVG Version: 6.00 Build 0)  -->
<!DOCTYPE svg PUBLIC "-//W3C//DTD SVG 1.1//EN" "http://www.w3.org/Graphics/SVG/1.1/DTD/svg11.dtd">
<svg version="1.1" id="Layer_1" xmlns="http://www.w3.org/2000/svg" xmlns:xlink="http://www.w3.org/1999/xlink" x="0px" y="0px"
	 width="504px" height="504px" viewBox="288 407 504 504" enable-background="new 288 407 504 504" xml:space="preserve">
<g>
	
		<path fill="#B99AF4" stroke="#000000" stroke-width="10" stroke-linecap="round" stroke-linejoin="round" stroke-miterlimit="10" d="
		M741.08,585.375l-49.424,66.154c0,0-29.729-119.922-36.28-127.698C627.118,490.283,568.977,485,568.977,485s-4.229,22-50.358,22
		s-50.356-22-50.356-22s-56.107,3.283-84.366,36.831c-14.86,17.642-80.882,274.677-80.882,274.677l47.336,17.55l70.598-237.847
		l-13.646,192.451l223.693-0.162l-15.467-192.377c0,0,13.957,51.891,29.047,103.782c5.646,19.416,37.075,80.594,86.104,4.15
		c20.998-32.738,44.15-68.689,44.15-68.689L741.08,585.375z"/>
	
		<path fill="#FFF200" stroke="#000000" stroke-width="7" stroke-linecap="round" stroke-linejoin="round" stroke-miterlimit="10" d="
		M545.209,627.337c-14.663,31.859-52.164,23.663-59.556,4.69c23.793,2.098,39.103-32.052,15.132-47.012
		C529.008,559.907,558.495,598.451,545.209,627.337z"/>
</g>
</svg>
