<?xml version="1.0" encoding="utf-8"?>
<!-- Generator: Adobe Illustrator 15.1.0, SVG Export Plug-In . SVG Version: 6.00 Build 0)  -->
<!DOCTYPE svg PUBLIC "-//W3C//DTD SVG 1.1//EN" "http://www.w3.org/Graphics/SVG/1.1/DTD/svg11.dtd">
<svg version="1.1" id="Layer_1" xmlns="http://www.w3.org/2000/svg" xmlns:xlink="http://www.w3.org/1999/xlink" x="0px" y="0px"
	 width="504px" height="504px" viewBox="309.843 347.25 504 504" enable-background="new 309.843 347.25 504 504"
	 xml:space="preserve">
<path fill="#A03CEF" stroke="#000000" stroke-width="10" stroke-linecap="round" stroke-linejoin="round" stroke-miterlimit="10" d="
	M762.929,553.375l-49.424,66.154c0,0-29.729-119.922-36.28-127.698C648.967,458.283,590.825,453,590.825,453s-4.229,22-50.358,22
	s-50.356-22-50.356-22s-56.107,3.283-84.366,36.831c-14.86,17.642-80.882,274.677-80.882,274.677l47.336,17.55l70.598-237.847
	L429.15,736.662l223.693-0.162l-15.467-192.377c0,0,13.957,51.891,29.047,103.782c5.646,19.416,37.075,80.594,86.104,4.15
	c20.998-32.738,44.15-68.689,44.15-68.689L762.929,553.375z"/>
<path fill="#B3FBFF" stroke="#000000" stroke-width="7" stroke-linecap="round" stroke-linejoin="round" stroke-miterlimit="10" d="
	M541.721,511.588c10.425,8.425,1.246,23.622-9.834,21.269c2.391,9.356,19.576,15.376,28.314,1.221
	C568.123,521.238,556.457,501.39,541.721,511.588z"/>
<polygon fill="#B3FBFF" stroke="#000000" stroke-width="7" stroke-linecap="round" stroke-linejoin="round" stroke-miterlimit="10" points="
	615.173,495.6 604.554,489.293 593.337,494.466 596.056,482.418 587.667,473.35 599.967,472.208 606.001,461.433 610.886,472.776 
	622.999,475.184 613.72,483.333 "/>
<polygon fill="#B3FBFF" stroke="#000000" stroke-width="7" stroke-linecap="round" stroke-linejoin="round" stroke-miterlimit="10" points="
	623.664,564.864 613.046,558.558 601.829,563.731 604.547,551.682 596.16,542.615 608.46,541.472 614.492,530.697 619.376,542.041 
	631.491,544.449 622.212,552.598 "/>
<polygon fill="#B3FBFF" stroke="#000000" stroke-width="7" stroke-linecap="round" stroke-linejoin="round" stroke-miterlimit="10" points="
	613.278,651.696 602.66,645.39 591.444,650.563 594.161,638.513 585.775,629.445 598.073,628.304 604.107,617.529 608.991,628.872 
	621.106,631.28 611.825,639.43 "/>
<polygon fill="#B3FBFF" stroke="#000000" stroke-width="7" stroke-linecap="round" stroke-linejoin="round" stroke-miterlimit="10" points="
	565.854,698.219 555.235,691.912 544.019,697.086 546.736,685.037 538.35,675.969 550.647,674.826 556.683,664.051 561.565,675.395 
	573.68,677.801 564.401,685.953 "/>
<path fill="#B3FBFF" stroke="#000000" stroke-width="7" stroke-linecap="round" stroke-linejoin="round" stroke-miterlimit="10" d="
	M576.174,572.551c-9.845,9.094,0.316,23.651,11.22,20.568c-1.768,9.495-18.52,16.637-28.171,3.089
	C550.468,583.925,560.796,563.349,576.174,572.551z"/>
<path fill="#B3FBFF" stroke="#000000" stroke-width="7" stroke-linecap="round" stroke-linejoin="round" stroke-miterlimit="10" d="
	M617.167,690.802c10.423,8.424,1.246,23.621-9.834,21.267c2.39,9.358,19.577,15.377,28.314,1.221
	C643.57,700.45,631.903,680.604,617.167,690.802z"/>
<polygon fill="#B3FBFF" stroke="#000000" stroke-width="7" stroke-linecap="round" stroke-linejoin="round" stroke-miterlimit="10" points="
	530.164,615.001 519.544,608.694 508.328,613.868 511.046,601.819 502.659,592.751 514.958,591.608 520.991,580.833 
	525.876,592.177 537.989,594.585 528.711,602.735 "/>
<polygon fill="#B3FBFF" stroke="#000000" stroke-width="7" stroke-linecap="round" stroke-linejoin="round" stroke-miterlimit="10" points="
	482.481,567.919 471.862,561.612 460.646,566.785 463.363,554.736 454.977,545.667 467.274,544.526 473.309,533.751 
	478.193,545.095 490.307,547.501 481.028,555.652 "/>
<path fill="#B3FBFF" stroke="#000000" stroke-width="7" stroke-linecap="round" stroke-linejoin="round" stroke-miterlimit="10" d="
	M477.11,620.184c-9.844,9.095,0.317,23.65,11.221,20.567c-1.766,9.495-18.52,16.637-28.171,3.089
	C451.405,631.557,461.733,610.98,477.11,620.184z"/>
<path fill="#B3FBFF" stroke="#000000" stroke-width="7" stroke-linecap="round" stroke-linejoin="round" stroke-miterlimit="10" d="
	M648.541,520.461c8.737,14.154,25.926,8.138,28.314-1.222c-11.081,2.354-20.259-12.843-9.835-21.268
	C652.285,487.775,640.618,507.623,648.541,520.461z"/>
<polygon fill="#B3FBFF" stroke="#000000" stroke-width="7" stroke-linecap="round" stroke-linejoin="round" stroke-miterlimit="10" points="
	478.937,493.12 469.659,484.97 481.772,482.563 486.656,471.219 492.691,481.994 504.99,483.136 496.602,492.205 499.32,504.252 
	488.104,499.08 477.486,505.386 "/>
<polygon fill="#B3FBFF" stroke="#000000" stroke-width="7" stroke-linecap="round" stroke-linejoin="round" stroke-miterlimit="10" points="
	756.917,580.847 747.638,572.697 759.753,570.289 764.638,558.945 770.671,569.721 782.97,570.863 774.581,579.931 777.3,591.979 
	766.083,586.807 755.465,593.112 "/>
<polygon fill="#B3FBFF" stroke="#000000" stroke-width="7" stroke-linecap="round" stroke-linejoin="round" stroke-miterlimit="10" points="
	373.374,639.43 364.094,631.279 376.208,628.871 381.092,617.528 387.126,628.304 399.424,629.444 391.039,638.513 393.756,650.563 
	382.539,645.39 371.921,651.695 "/>
<polygon fill="#B3FBFF" stroke="#000000" stroke-width="7" stroke-linecap="round" stroke-linejoin="round" stroke-miterlimit="10" points="
	685.599,651.077 676.32,642.926 688.434,640.52 693.317,629.175 699.352,639.951 711.65,641.092 703.264,650.161 705.981,662.21 
	694.765,657.036 684.146,663.343 "/>
<path fill="#B3FBFF" stroke="#000000" stroke-width="7" stroke-linecap="round" stroke-linejoin="round" stroke-miterlimit="10" d="
	M500.813,707.448c-9.653,13.548-26.405,6.405-28.172-3.089c10.902,3.082,21.063-11.477,11.221-20.568
	C499.239,674.589,509.567,695.165,500.813,707.448z"/>
<polygon fill="#B3FBFF" stroke="#000000" stroke-width="7" stroke-linecap="round" stroke-linejoin="round" stroke-miterlimit="10" points="
	340.964,750.491 331.686,742.341 343.799,739.934 348.684,728.59 354.717,739.365 367.016,740.507 358.629,749.575 361.347,761.624 
	350.13,756.451 339.511,762.758 "/>
<polygon fill="#B3FBFF" stroke="#000000" stroke-width="7" stroke-linecap="round" stroke-linejoin="round" stroke-miterlimit="10" points="
	660.205,586.798 650.927,578.646 663.04,576.241 667.925,564.896 673.958,575.672 686.257,576.813 677.87,585.882 680.588,597.931 
	669.372,592.758 658.752,599.064 "/>
<path fill="#B3FBFF" stroke="#000000" stroke-width="7" stroke-linecap="round" stroke-linejoin="round" stroke-miterlimit="10" d="
	M437.116,514.003c-9.653,13.548-26.405,6.406-28.171-3.089c10.901,3.083,21.063-11.477,11.221-20.568
	C435.543,481.144,445.871,501.72,437.116,514.003z"/>
<path fill="#B3FBFF" stroke="#000000" stroke-width="7" stroke-linecap="round" stroke-linejoin="round" stroke-miterlimit="10" d="
	M738.475,612.93c10.423,8.424,1.246,23.621-9.835,21.267c2.391,9.358,19.577,15.377,28.314,1.221
	C764.877,622.579,753.21,602.731,738.475,612.93z"/>
<path fill="#B3FBFF" stroke="#000000" stroke-width="7" stroke-linecap="round" stroke-linejoin="round" stroke-miterlimit="10" d="
	M361.179,706.668c8.737,14.156,25.925,8.139,28.314-1.221c-11.081,2.354-20.257-12.842-9.835-21.267
	C364.923,673.982,353.256,693.83,361.179,706.668z"/>
<polygon fill="#B3FBFF" stroke="#000000" stroke-width="7" stroke-linecap="round" stroke-linejoin="round" stroke-miterlimit="10" points="
	403.195,579.846 393.917,571.696 406.03,569.29 410.915,557.945 416.948,568.72 429.247,569.862 420.86,578.93 423.578,590.979 
	412.362,585.806 401.742,592.113 "/>
</svg>
