<?xml version="1.0" encoding="utf-8"?>
<!-- Generator: Adobe Illustrator 15.1.0, SVG Export Plug-In . SVG Version: 6.00 Build 0)  -->
<!DOCTYPE svg PUBLIC "-//W3C//DTD SVG 1.1//EN" "http://www.w3.org/Graphics/SVG/1.1/DTD/svg11.dtd">
<svg version="1.1" id="Layer_1" xmlns="http://www.w3.org/2000/svg" xmlns:xlink="http://www.w3.org/1999/xlink" x="0px" y="0px"
	 width="1080px" height="1340px" viewBox="0 0 1080 1340" enable-background="new 0 0 1080 1340" xml:space="preserve">
<path fill="#2B33C1" stroke="#000000" stroke-width="10" stroke-linecap="round" stroke-linejoin="round" stroke-miterlimit="10" d="
	M762.929,566.375l-49.424,66.154c0,0-29.729-119.922-36.28-127.698C648.967,471.283,590.825,466,590.825,466s-4.229,22-50.358,22
	s-50.356-22-50.356-22s-56.107,3.283-84.366,36.831c-14.86,17.642-80.882,274.677-80.882,274.677l47.336,17.55l70.598-237.847
	L429.15,749.662l223.693-0.162l-15.467-192.377c0,0,13.957,51.891,29.047,103.782c5.646,19.416,37.075,80.594,86.104,4.15
	c20.998-32.738,44.15-68.689,44.15-68.689L762.929,566.375z"/>
<path fill="#B3FBFF" stroke="#000000" stroke-width="7" stroke-linecap="round" stroke-linejoin="round" stroke-miterlimit="10" d="
	M541.721,524.588c10.425,8.425,1.246,23.622-9.834,21.269c2.391,9.356,19.576,15.376,28.314,1.221
	C568.123,534.238,556.457,514.39,541.721,524.588z"/>
<polygon fill="#B3FBFF" stroke="#000000" stroke-width="7" stroke-linecap="round" stroke-linejoin="round" stroke-miterlimit="10" points="
	615.173,508.6 604.554,502.293 593.337,507.466 596.056,495.418 587.667,486.35 599.967,485.208 606.001,474.433 610.886,485.776 
	622.999,488.184 613.72,496.333 "/>
<polygon fill="#B3FBFF" stroke="#000000" stroke-width="7" stroke-linecap="round" stroke-linejoin="round" stroke-miterlimit="10" points="
	623.664,577.864 613.046,571.558 601.829,576.731 604.547,564.682 596.16,555.615 608.46,554.472 614.492,543.697 619.376,555.041 
	631.491,557.449 622.212,565.598 "/>
<polygon fill="#B3FBFF" stroke="#000000" stroke-width="7" stroke-linecap="round" stroke-linejoin="round" stroke-miterlimit="10" points="
	613.278,664.696 602.66,658.39 591.444,663.563 594.161,651.513 585.775,642.445 598.073,641.304 604.107,630.529 608.991,641.872 
	621.106,644.28 611.825,652.43 "/>
<polygon fill="#B3FBFF" stroke="#000000" stroke-width="7" stroke-linecap="round" stroke-linejoin="round" stroke-miterlimit="10" points="
	565.854,711.219 555.235,704.912 544.019,710.086 546.736,698.037 538.35,688.969 550.647,687.826 556.683,677.051 561.565,688.395 
	573.68,690.801 564.401,698.953 "/>
<path fill="#B3FBFF" stroke="#000000" stroke-width="7" stroke-linecap="round" stroke-linejoin="round" stroke-miterlimit="10" d="
	M576.174,585.551c-9.845,9.094,0.316,23.651,11.22,20.568c-1.768,9.495-18.52,16.637-28.171,3.089
	C550.468,596.925,560.796,576.349,576.174,585.551z"/>
<path fill="#B3FBFF" stroke="#000000" stroke-width="7" stroke-linecap="round" stroke-linejoin="round" stroke-miterlimit="10" d="
	M617.167,703.802c10.423,8.424,1.246,23.621-9.834,21.267c2.39,9.358,19.577,15.377,28.314,1.221
	C643.57,713.45,631.903,693.604,617.167,703.802z"/>
<polygon fill="#B3FBFF" stroke="#000000" stroke-width="7" stroke-linecap="round" stroke-linejoin="round" stroke-miterlimit="10" points="
	530.164,628.001 519.544,621.694 508.328,626.868 511.046,614.819 502.659,605.751 514.958,604.608 520.991,593.833 
	525.876,605.177 537.989,607.585 528.711,615.735 "/>
<polygon fill="#B3FBFF" stroke="#000000" stroke-width="7" stroke-linecap="round" stroke-linejoin="round" stroke-miterlimit="10" points="
	482.481,580.919 471.862,574.612 460.646,579.785 463.363,567.736 454.977,558.667 467.274,557.526 473.309,546.751 
	478.193,558.095 490.307,560.501 481.028,568.652 "/>
<path fill="#B3FBFF" stroke="#000000" stroke-width="7" stroke-linecap="round" stroke-linejoin="round" stroke-miterlimit="10" d="
	M477.11,633.184c-9.844,9.095,0.317,23.65,11.221,20.567c-1.766,9.495-18.52,16.637-28.171,3.089
	C451.405,644.557,461.733,623.98,477.11,633.184z"/>
<path fill="#B3FBFF" stroke="#000000" stroke-width="7" stroke-linecap="round" stroke-linejoin="round" stroke-miterlimit="10" d="
	M648.541,533.461c8.737,14.154,25.926,8.138,28.314-1.222c-11.081,2.354-20.259-12.843-9.835-21.268
	C652.285,500.775,640.618,520.623,648.541,533.461z"/>
<polygon fill="#B3FBFF" stroke="#000000" stroke-width="7" stroke-linecap="round" stroke-linejoin="round" stroke-miterlimit="10" points="
	478.937,506.12 469.659,497.97 481.772,495.563 486.656,484.219 492.691,494.994 504.99,496.136 496.602,505.205 499.32,517.252 
	488.104,512.08 477.486,518.386 "/>
<polygon fill="#B3FBFF" stroke="#000000" stroke-width="7" stroke-linecap="round" stroke-linejoin="round" stroke-miterlimit="10" points="
	756.917,593.847 747.638,585.697 759.753,583.289 764.638,571.945 770.671,582.721 782.97,583.863 774.581,592.931 777.3,604.979 
	766.083,599.807 755.465,606.112 "/>
<polygon fill="#B3FBFF" stroke="#000000" stroke-width="7" stroke-linecap="round" stroke-linejoin="round" stroke-miterlimit="10" points="
	373.374,652.43 364.094,644.279 376.208,641.871 381.092,630.528 387.126,641.304 399.424,642.444 391.039,651.513 393.756,663.563 
	382.539,658.39 371.921,664.695 "/>
<polygon fill="#B3FBFF" stroke="#000000" stroke-width="7" stroke-linecap="round" stroke-linejoin="round" stroke-miterlimit="10" points="
	685.599,664.077 676.32,655.926 688.434,653.52 693.317,642.175 699.352,652.951 711.65,654.092 703.264,663.161 705.981,675.21 
	694.765,670.036 684.146,676.343 "/>
<path fill="#B3FBFF" stroke="#000000" stroke-width="7" stroke-linecap="round" stroke-linejoin="round" stroke-miterlimit="10" d="
	M500.813,720.448c-9.653,13.548-26.405,6.405-28.172-3.089c10.902,3.082,21.063-11.477,11.221-20.568
	C499.239,687.589,509.567,708.165,500.813,720.448z"/>
<polygon fill="#B3FBFF" stroke="#000000" stroke-width="7" stroke-linecap="round" stroke-linejoin="round" stroke-miterlimit="10" points="
	340.964,763.491 331.686,755.341 343.799,752.934 348.684,741.59 354.717,752.365 367.016,753.507 358.629,762.575 361.347,774.624 
	350.13,769.451 339.511,775.758 "/>
<polygon fill="#B3FBFF" stroke="#000000" stroke-width="7" stroke-linecap="round" stroke-linejoin="round" stroke-miterlimit="10" points="
	660.205,599.798 650.927,591.646 663.04,589.241 667.925,577.896 673.958,588.672 686.257,589.813 677.87,598.882 680.588,610.931 
	669.372,605.758 658.752,612.064 "/>
<path fill="#B3FBFF" stroke="#000000" stroke-width="7" stroke-linecap="round" stroke-linejoin="round" stroke-miterlimit="10" d="
	M437.116,527.003c-9.653,13.548-26.405,6.406-28.171-3.089c10.901,3.083,21.063-11.477,11.221-20.568
	C435.543,494.144,445.871,514.72,437.116,527.003z"/>
<path fill="#B3FBFF" stroke="#000000" stroke-width="7" stroke-linecap="round" stroke-linejoin="round" stroke-miterlimit="10" d="
	M738.475,625.93c10.423,8.424,1.246,23.621-9.835,21.267c2.391,9.358,19.577,15.377,28.314,1.221
	C764.877,635.579,753.21,615.731,738.475,625.93z"/>
<path fill="#B3FBFF" stroke="#000000" stroke-width="7" stroke-linecap="round" stroke-linejoin="round" stroke-miterlimit="10" d="
	M361.179,719.668c8.737,14.156,25.925,8.139,28.314-1.221c-11.081,2.354-20.257-12.842-9.835-21.267
	C364.923,686.982,353.256,706.83,361.179,719.668z"/>
<polygon fill="#B3FBFF" stroke="#000000" stroke-width="7" stroke-linecap="round" stroke-linejoin="round" stroke-miterlimit="10" points="
	403.195,592.846 393.917,584.696 406.03,582.29 410.915,570.945 416.948,581.72 429.247,582.862 420.86,591.93 423.578,603.979 
	412.362,598.806 401.742,605.113 "/>
</svg>
