<?xml version="1.0" encoding="utf-8"?>
<!-- Generator: Adobe Illustrator 15.1.0, SVG Export Plug-In . SVG Version: 6.00 Build 0)  -->
<!DOCTYPE svg PUBLIC "-//W3C//DTD SVG 1.1//EN" "http://www.w3.org/Graphics/SVG/1.1/DTD/svg11.dtd">
<svg version="1.1" id="Layer_1" xmlns="http://www.w3.org/2000/svg" xmlns:xlink="http://www.w3.org/1999/xlink" x="0px" y="0px"
	 width="540px" height="540px" viewBox="270 400 540 540" enable-background="new 270 400 540 540" xml:space="preserve">
<g>
	
		<path fill="#6328A0" stroke="#000000" stroke-width="10" stroke-linecap="round" stroke-linejoin="round" stroke-miterlimit="10" d="
		M732.774,588.536l-38.995,75.477c0,0-29.729-119.922-36.28-127.698c-28.258-33.548-86.399-38.831-86.399-38.831
		s-4.229,22-50.358,22s-50.356-22-50.356-22s-56.107,3.283-84.366,36.831c-9.219,10.945-38.129,114.028-58.75,190.714
		c-18.896,46.375-42.494,81.955-42.494,81.955l83.5,21.208c0,0,12.167-99.449,11.424-93.379
		c-2.924,10.505,43.371-146.118,43.371-146.118l-13.645,192.451l223.693-0.162l-15.467-192.377c0,0,13.957,51.891,29.047,103.782
		c5.646,19.416,37.075,80.594,86.104,4.15c27.307-25.085,62.424-57.89,62.424-57.89L732.774,588.536z"/>
	<g>
		
			<path fill="#A0EAE8" stroke="#000000" stroke-width="7" stroke-linecap="round" stroke-linejoin="round" stroke-miterlimit="10" d="
			M501.582,519.127c-55.924,38.371-110.848,17.903-110.848,17.903l7.362-8.015c26.697,12.106,81.583-17.764,81.583-17.764
			L501.582,519.127z"/>
		<g>
			
				<path fill="#A0EAE8" stroke="#000000" stroke-width="7" stroke-linecap="round" stroke-linejoin="round" stroke-miterlimit="10" d="
				M376.25,770.983c-38.741,32.361-72.405,22.858-82.814,21.962c10.09-17.962,16.81-30.728,16.81-30.728
				c22.893,19.354,67.574-12.04,67.574-12.04L376.25,770.983z"/>
			
				<path fill="#A0EAE8" stroke="#000000" stroke-width="7" stroke-linecap="round" stroke-linejoin="round" stroke-miterlimit="10" d="
				M405.127,649.348c-38.741,32.359-66.189,22.96-66.189,22.96l11.706-31.416c22.892,19.353,62.918-20.045,62.918-20.045
				L405.127,649.348z"/>
			
				<path fill="#A0EAE8" stroke="#000000" stroke-width="7" stroke-linecap="round" stroke-linejoin="round" stroke-miterlimit="10" d="
				M378.033,748.423l8.257-35.536c-24.016,15.097-42.06-57.896-42.06-57.896C340.279,722.124,378.033,748.423,378.033,748.423z"/>
			
				<path fill="#A0EAE8" stroke="#000000" stroke-width="7" stroke-linecap="round" stroke-linejoin="round" stroke-miterlimit="10" d="
				M414.39,618.046l8.68-29.352c-24.652,3.442-35.418-67.505-35.418-67.505C383.024,586.483,414.39,618.046,414.39,618.046z"/>
			
				<polygon fill="#FFF200" stroke="#000000" stroke-width="7" stroke-linecap="round" stroke-linejoin="round" stroke-miterlimit="10" points="
				385.039,526.377 382.262,517.442 391.042,520.674 398.681,515.275 398.319,524.621 405.814,530.218 396.814,532.764 
				393.809,541.623 388.605,533.85 379.252,533.729 			"/>
			
				<polygon fill="#FFF200" stroke="#000000" stroke-width="7" stroke-linecap="round" stroke-linejoin="round" stroke-miterlimit="10" points="
				334.77,656.022 331.995,647.09 340.773,650.32 348.41,644.921 348.051,654.269 355.545,659.864 346.545,662.41 343.54,671.271 
				338.335,663.495 328.983,663.374 			"/>
			
				<polygon fill="#FFF200" stroke="#000000" stroke-width="7" stroke-linecap="round" stroke-linejoin="round" stroke-miterlimit="10" points="
				290.858,773.511 286.189,765.405 295.463,766.63 301.729,759.685 303.431,768.882 311.971,772.696 303.75,777.157 
				302.762,786.462 295.979,780.017 286.828,781.952 			"/>
		</g>
	</g>
	
		<path fill="#A0EAE8" stroke="#000000" stroke-width="7" stroke-linecap="round" stroke-linejoin="round" stroke-miterlimit="10" d="
		M560.093,511.253c0,0,56.886,29.87,83.582,17.764l7.362,8.015c0,0-55.925,20.468-111.849-17.903L560.093,511.253z"/>
	<g>
		
			<path fill="#A0EAE8" stroke="#000000" stroke-width="7" stroke-linecap="round" stroke-linejoin="round" stroke-miterlimit="10" d="
			M707.101,639.483c48.396-14.354,66.474,5.825,75.676,10.774c-16.383,12.49-25.52,23.708-25.52,23.708
			c-13.347-26.844-59.104-17.717-59.104-17.717L707.101,639.483z"/>
		
			<path fill="#A0EAE8" stroke="#000000" stroke-width="7" stroke-linecap="round" stroke-linejoin="round" stroke-miterlimit="10" d="
			M627.21,620.847c0,0,38.342,41.345,61.232,21.992l5.068,20.686c0,0-20.126,17.183-58.867-15.178L627.21,620.847z"/>
		
			<path fill="#A0EAE8" stroke="#000000" stroke-width="7" stroke-linecap="round" stroke-linejoin="round" stroke-miterlimit="10" d="
			M697.541,654.992c0,0-17.044,72.991-41.06,57.896c0,0,9.96,21.271,29.425,20.682C687.007,734.814,701.491,722.124,697.541,654.992
			z"/>
		
			<path fill="#A0EAE8" stroke="#000000" stroke-width="7" stroke-linecap="round" stroke-linejoin="round" stroke-miterlimit="10" d="
			M654.12,521.189c0,0-10.766,70.947-35.418,67.505l7.681,29.352C626.382,618.046,658.747,586.483,654.12,521.189z"/>
		
			<polygon fill="#FFF200" stroke="#000000" stroke-width="7" stroke-linecap="round" stroke-linejoin="round" stroke-miterlimit="10" points="
			662.52,533.729 653.167,533.85 647.964,541.623 644.958,532.764 635.958,530.218 643.452,524.621 643.091,515.275 
			650.729,520.674 659.509,517.442 656.733,526.377 		"/>
		
			<polygon fill="#FFF200" stroke="#000000" stroke-width="7" stroke-linecap="round" stroke-linejoin="round" stroke-miterlimit="10" points="
			784.303,668.776 774.951,668.53 769.447,676.099 766.792,667.126 757.897,664.228 765.606,658.93 765.614,649.576 
			773.034,655.272 781.934,652.388 778.81,661.205 		"/>
	</g>
</g>
</svg>
