<?xml version="1.0" encoding="utf-8"?>
<!-- Generator: Adobe Illustrator 15.1.0, SVG Export Plug-In . SVG Version: 6.00 Build 0)  -->
<!DOCTYPE svg PUBLIC "-//W3C//DTD SVG 1.1//EN" "http://www.w3.org/Graphics/SVG/1.1/DTD/svg11.dtd">
<svg version="1.1" id="Layer_1" xmlns="http://www.w3.org/2000/svg" xmlns:xlink="http://www.w3.org/1999/xlink" x="0px" y="0px"
	 width="1080px" height="1340px" viewBox="0 0 1080 1340" enable-background="new 0 0 1080 1340" xml:space="preserve">
<g>
	
		<path fill="#6328A0" stroke="#000000" stroke-width="10" stroke-linecap="round" stroke-linejoin="round" stroke-miterlimit="10" d="
		M752.5,557.053l-38.995,75.477c0,0-29.729-119.922-36.28-127.698C648.967,471.283,590.825,466,590.825,466s-4.229,22-50.358,22
		s-50.356-22-50.356-22s-56.107,3.283-84.366,36.831c-9.219,10.945-38.129,114.028-58.75,190.714
		C328.098,739.92,304.5,775.5,304.5,775.5l83.5,21.208c0,0,12.167-99.449,11.424-93.379
		c-2.924,10.505,43.371-146.118,43.371-146.118L429.15,749.662l223.693-0.162l-15.467-192.377c0,0,13.957,51.891,29.047,103.782
		c5.646,19.416,37.075,80.594,86.104,4.15c27.307-25.085,62.424-57.89,62.424-57.89L752.5,557.053z"/>
	<g>
		
			<path fill="#A0EAE8" stroke="#000000" stroke-width="7" stroke-linecap="round" stroke-linejoin="round" stroke-miterlimit="10" d="
			M521.308,487.644c-55.924,38.371-110.848,17.903-110.848,17.903l7.362-8.015c26.697,12.106,81.583-17.764,81.583-17.764
			L521.308,487.644z"/>
		<g>
			
				<path fill="#A0EAE8" stroke="#000000" stroke-width="7" stroke-linecap="round" stroke-linejoin="round" stroke-miterlimit="10" d="
				M395.975,739.5c-38.741,32.361-72.405,22.858-82.814,21.962c10.09-17.962,16.81-30.728,16.81-30.728
				c22.893,19.354,67.574-12.04,67.574-12.04L395.975,739.5z"/>
			
				<path fill="#A0EAE8" stroke="#000000" stroke-width="7" stroke-linecap="round" stroke-linejoin="round" stroke-miterlimit="10" d="
				M424.853,617.864c-38.741,32.359-66.189,22.96-66.189,22.96l11.706-31.416c22.892,19.353,62.918-20.045,62.918-20.045
				L424.853,617.864z"/>
			
				<path fill="#A0EAE8" stroke="#000000" stroke-width="7" stroke-linecap="round" stroke-linejoin="round" stroke-miterlimit="10" d="
				M397.759,716.939l8.257-35.536c-24.016,15.097-42.06-57.896-42.06-57.896C360.005,690.641,397.759,716.939,397.759,716.939z"/>
			
				<path fill="#A0EAE8" stroke="#000000" stroke-width="7" stroke-linecap="round" stroke-linejoin="round" stroke-miterlimit="10" d="
				M434.115,586.563l8.68-29.352c-24.652,3.442-35.418-67.505-35.418-67.505C402.75,555,434.115,586.563,434.115,586.563z"/>
			
				<polygon fill="#FFF200" stroke="#000000" stroke-width="7" stroke-linecap="round" stroke-linejoin="round" stroke-miterlimit="10" points="
				404.764,494.894 401.988,485.959 410.768,489.19 418.406,483.792 418.045,493.138 425.54,498.734 416.54,501.28 413.534,510.14 
				408.331,502.366 398.978,502.245 			"/>
			
				<polygon fill="#FFF200" stroke="#000000" stroke-width="7" stroke-linecap="round" stroke-linejoin="round" stroke-miterlimit="10" points="
				354.495,624.539 351.72,615.606 360.499,618.837 368.136,613.438 367.777,622.785 375.271,628.381 366.271,630.927 
				363.265,639.787 358.061,632.012 348.709,631.891 			"/>
			
				<polygon fill="#FFF200" stroke="#000000" stroke-width="7" stroke-linecap="round" stroke-linejoin="round" stroke-miterlimit="10" points="
				310.584,742.027 305.915,733.922 315.189,735.146 321.455,728.201 323.156,737.398 331.697,741.213 323.475,745.674 
				322.488,754.979 315.705,748.533 306.553,750.469 			"/>
		</g>
	</g>
	
		<path fill="#A0EAE8" stroke="#000000" stroke-width="7" stroke-linecap="round" stroke-linejoin="round" stroke-miterlimit="10" d="
		M579.818,479.77c0,0,56.886,29.87,83.582,17.764l7.362,8.015c0,0-55.925,20.468-111.849-17.903L579.818,479.77z"/>
	<g>
		
			<path fill="#A0EAE8" stroke="#000000" stroke-width="7" stroke-linecap="round" stroke-linejoin="round" stroke-miterlimit="10" d="
			M726.826,608c48.396-14.354,66.474,5.825,75.676,10.774c-16.383,12.49-25.52,23.708-25.52,23.708
			c-13.347-26.844-59.104-17.717-59.104-17.717L726.826,608z"/>
		
			<path fill="#A0EAE8" stroke="#000000" stroke-width="7" stroke-linecap="round" stroke-linejoin="round" stroke-miterlimit="10" d="
			M646.936,589.363c0,0,38.342,41.345,61.232,21.992l5.068,20.686c0,0-20.126,17.183-58.867-15.178L646.936,589.363z"/>
		
			<path fill="#A0EAE8" stroke="#000000" stroke-width="7" stroke-linecap="round" stroke-linejoin="round" stroke-miterlimit="10" d="
			M717.267,623.509c0,0-17.044,72.991-41.06,57.896c0,0,9.96,21.271,29.425,20.682C706.732,703.331,721.217,690.641,717.267,623.509
			z"/>
		
			<path fill="#A0EAE8" stroke="#000000" stroke-width="7" stroke-linecap="round" stroke-linejoin="round" stroke-miterlimit="10" d="
			M673.846,489.706c0,0-10.766,70.947-35.418,67.505l7.681,29.352C646.107,586.563,678.473,555,673.846,489.706z"/>
		
			<polygon fill="#FFF200" stroke="#000000" stroke-width="7" stroke-linecap="round" stroke-linejoin="round" stroke-miterlimit="10" points="
			682.245,502.245 672.893,502.366 667.689,510.14 664.684,501.28 655.684,498.734 663.178,493.138 662.816,483.792 670.455,489.19 
			679.234,485.959 676.459,494.894 		"/>
		
			<polygon fill="#FFF200" stroke="#000000" stroke-width="7" stroke-linecap="round" stroke-linejoin="round" stroke-miterlimit="10" points="
			804.028,637.293 794.677,637.047 789.173,644.615 786.518,635.643 777.623,632.744 785.332,627.446 785.34,618.093 
			792.76,623.789 801.659,620.904 798.535,629.722 		"/>
	</g>
</g>
</svg>
