<?xml version="1.0" encoding="utf-8"?>
<!-- Generator: Adobe Illustrator 15.1.0, SVG Export Plug-In . SVG Version: 6.00 Build 0)  -->
<!DOCTYPE svg PUBLIC "-//W3C//DTD SVG 1.1//EN" "http://www.w3.org/Graphics/SVG/1.1/DTD/svg11.dtd">
<svg version="1.1" id="Layer_1" xmlns="http://www.w3.org/2000/svg" xmlns:xlink="http://www.w3.org/1999/xlink" x="0px" y="0px"
	 width="648px" height="648px" viewBox="0 0 648 648" enable-background="new 0 0 648 648" xml:space="preserve">
<g>
	<g>
		<g>
			<path fill="#232391" d="M318.5,348.969h103.345c0,0,24.655,182,33.655,204c4.487,10.969-66.094,12.74-138.005,11.76"/>
			<path fill="#232391" d="M328.5,564.963c-71.911,0.979-171.288-1.025-166.801-11.994c9-22,33.655-204,33.655-204H308h16.5"/>
		</g>
		<g>
			
				<path fill="none" stroke="#000000" stroke-width="10" stroke-linecap="round" stroke-linejoin="round" stroke-miterlimit="10" d="
				M420.845,350.969c0,0,25.655,183,34.655,205c4.487,10.969-66.094,12.74-138.005,11.76"/>
			
				<path fill="none" stroke="#000000" stroke-width="10" stroke-linecap="round" stroke-linejoin="round" stroke-miterlimit="10" d="
				M318.5,351.969"/>
			
				<path fill="none" stroke="#000000" stroke-width="10" stroke-linecap="round" stroke-linejoin="round" stroke-miterlimit="10" d="
				M318.5,351.969"/>
			
				<path fill="none" stroke="#000000" stroke-width="10" stroke-linecap="round" stroke-linejoin="round" stroke-miterlimit="10" d="
				M308,351.969"/>
			
				<path fill="none" stroke="#000000" stroke-width="10" stroke-linecap="round" stroke-linejoin="round" stroke-miterlimit="10" d="
				M320.5,567.963c-71.911,0.979-163.288-1.025-158.801-11.994c9-22,34.655-205,34.655-205"/>
		</g>
	</g>
	
		<path fill="#232391" stroke="#000000" stroke-width="10" stroke-linecap="round" stroke-linejoin="round" stroke-miterlimit="10" d="
		M420.845,354.656l-15.467-196.377c0,0,13.957,51.892,29.047,103.782c5.646,19.416,37.075,80.593,86.104,4.15
		c27.307-25.085,60.43-56.702,60.43-56.702l-80.988-9.06l-18.465,33.234c0,0-29.729-119.922-36.28-127.698
		c-28.258-33.548-55.755-32.581-55.755-32.581s-28.304,85.564-81.801,63.064c-68.836,23.5-83.861-62.675-83.861-62.675
		s-31.309,4.509-50.063,30.192c-9.22,10.945-38.129,114.028-58.75,190.715c-18.896,46.375-36.879,75.101-36.879,75.101
		l83.973-22.387c0,0,0.343-2.809,3.218-17.779c2.527-17.833,45.489-171.269,45.489-171.269L196.15,354.818"/>
	
		<path fill="#FFE75C" stroke="#000000" stroke-width="7" stroke-linecap="round" stroke-linejoin="round" stroke-miterlimit="10" d="
		M225.325,71.818c0,0,26.579,82.474,80.666,64.651c0,0-28.427,19.941,0,55.5c-11.852-2.535-61.491-9.621-102.321-111.052
		L225.325,71.818z"/>
	
		<path fill="#FFE75C" stroke="#000000" stroke-width="7" stroke-linecap="round" stroke-linejoin="round" stroke-miterlimit="10" d="
		M409.991,80.917c-40.83,101.431-90.471,108.517-102.321,111.052c28.427-35.559,0-55.5,0-55.5
		c54.088,17.821,80.666-64.651,80.666-64.651L409.991,80.917z"/>
	
		<path fill="#FFE75C" stroke="#000000" stroke-width="7" stroke-linecap="round" stroke-linejoin="round" stroke-miterlimit="10" d="
		M161.823,349.582c-46.529,27.887-72.029,25.467-83.708,22.234c41.885-9.348,25.656-49.213,25.656-49.213
		c24.729,33.109,61.533-1.482,61.533-1.482L161.823,349.582z"/>
	
		<path fill="#FFE75C" stroke="#000000" stroke-width="7" stroke-linecap="round" stroke-linejoin="round" stroke-miterlimit="10" d="
		M499.743,199.122c54.738-9.592,73.774,1.957,83.757,9.348c-43.488-6.459-41.823,36.063-41.823,36.063
		c-11.484-40.821-55.292-21.227-55.292-21.227L499.743,199.122z"/>
</g>
</svg>
