<?xml version="1.0" encoding="utf-8"?>
<!-- Generator: Adobe Illustrator 15.1.0, SVG Export Plug-In . SVG Version: 6.00 Build 0)  -->
<!DOCTYPE svg PUBLIC "-//W3C//DTD SVG 1.1//EN" "http://www.w3.org/Graphics/SVG/1.1/DTD/svg11.dtd">
<svg version="1.1" id="Layer_1" xmlns="http://www.w3.org/2000/svg" xmlns:xlink="http://www.w3.org/1999/xlink" x="0px" y="0px"
	 width="1080px" height="1340px" viewBox="0 0 1080 1340" enable-background="new 0 0 1080 1340" xml:space="preserve">
<g>
	<g>
		<g>
			<path fill="#4E2293" d="M550.455,743.5h102.876c0,0,24.544,221.756,33.503,248.562c4.467,13.365-79.416-66.031-151-67.228"/>
			<path fill="#4E2293" d="M556.307,927.167c-71.585,1.192-166.408,78.26-161.941,64.895
				c8.959-26.806,33.503-248.562,33.503-248.562h112.135h10.452"/>
		</g>
		<g>
			
				<path fill="none" stroke="#000000" stroke-width="10" stroke-linecap="round" stroke-linejoin="round" stroke-miterlimit="10" d="
				M652.336,745.937c0,0,25.539,222.975,34.498,249.78c4.467,13.365-74.925-67.02-146.51-68.216"/>
			
				<path fill="none" stroke="#000000" stroke-width="10" stroke-linecap="round" stroke-linejoin="round" stroke-miterlimit="10" d="
				M550.455,747.155"/>
			
				<path fill="none" stroke="#000000" stroke-width="10" stroke-linecap="round" stroke-linejoin="round" stroke-miterlimit="10" d="
				M550.455,747.155"/>
			
				<path fill="none" stroke="#000000" stroke-width="10" stroke-linecap="round" stroke-linejoin="round" stroke-miterlimit="10" d="
				M540.003,747.155"/>
			
				<path fill="none" stroke="#000000" stroke-width="10" stroke-linecap="round" stroke-linejoin="round" stroke-miterlimit="10" d="
				M537.893,928.973c-71.585,1.192-147.994,80.109-143.527,66.744c8.959-26.806,34.499-249.78,34.499-249.78"/>
		</g>
	</g>
	
		<path fill="#4E2293" stroke="#000000" stroke-width="10" stroke-linecap="round" stroke-linejoin="round" stroke-miterlimit="10" d="
		M652.845,750.188L637.378,557.81c0,0,13.957,51.891,29.047,103.782c5.646,19.416,37.075,80.593,86.104,4.15
		c27.307-25.085,60.43-56.702,60.43-56.702l-80.988-9.06l-18.465,33.235c0,0-29.729-119.922-36.28-127.698
		c-28.258-33.548-55.755-32.581-55.755-32.581S593.167,558.5,539.67,536c-68.836,23.5-83.861-62.675-83.861-62.675
		s-31.309,4.509-50.064,30.193c-9.219,10.945-38.129,114.028-58.75,190.714c-18.896,46.375-36.879,75.102-36.879,75.102
		l83.973-22.388c0,0,0.343-2.808,3.217-17.779c2.528-17.833,45.49-171.269,45.49-171.269L428.15,750.35"/>
	
		<path fill="#FFE75C" stroke="#000000" stroke-width="7" stroke-linecap="round" stroke-linejoin="round" stroke-miterlimit="10" d="
		M457.325,471.349c0,0,26.579,82.473,80.666,64.651c0,0-28.427,19.941,0,55.5c-11.851-2.535-61.491-9.621-102.321-111.052
		L457.325,471.349z"/>
	
		<path fill="#FFE75C" stroke="#000000" stroke-width="7" stroke-linecap="round" stroke-linejoin="round" stroke-miterlimit="10" d="
		M641.991,480.448C601.161,581.879,551.521,588.965,539.67,591.5c28.427-35.559,0-55.5,0-55.5
		c54.088,17.821,80.666-64.651,80.666-64.651L641.991,480.448z"/>
	
		<path fill="#FFE75C" stroke="#000000" stroke-width="7" stroke-linecap="round" stroke-linejoin="round" stroke-miterlimit="10" d="
		M393.823,749.113c-46.529,27.887-72.029,25.466-83.708,22.234C352,762,335.771,722.135,335.771,722.135
		c24.729,33.108,61.534-1.483,61.534-1.483L393.823,749.113z"/>
	
		<path fill="#FFE75C" stroke="#000000" stroke-width="7" stroke-linecap="round" stroke-linejoin="round" stroke-miterlimit="10" d="
		M731.743,598.652c54.738-9.591,73.775,1.957,83.757,9.348c-43.488-6.459-41.823,36.062-41.823,36.062
		c-11.485-40.821-55.292-21.226-55.292-21.226L731.743,598.652z"/>
	
		<path fill="#FFE75C" stroke="#000000" stroke-width="7" stroke-linecap="round" stroke-linejoin="round" stroke-miterlimit="10" d="
		M654.656,816.113c0,0-225.303,162.387-250.471,128.188l-10.444,54.59C393.74,998.89,453.942,1045,654.656,816.113z"/>
	
		<path fill="#FFE75C" stroke="#000000" stroke-width="7" stroke-linecap="round" stroke-linejoin="round" stroke-miterlimit="10" d="
		M686.765,998.891l-10.444-54.59C651.153,978.5,425.85,816.113,425.85,816.113C626.563,1045,686.766,998.89,686.765,998.891z"/>
	
		<polygon fill="#FFF200" stroke="#000000" stroke-width="7" stroke-linecap="round" stroke-linejoin="round" stroke-miterlimit="10" points="
		554.34,645.554 538.647,637.024 522.727,645.112 525.988,627.554 513.376,614.909 531.085,612.587 539.213,596.683 
		546.894,612.809 564.529,615.624 551.567,627.911 	"/>
</g>
</svg>
