<?xml version="1.0" encoding="utf-8"?>
<!-- Generator: Adobe Illustrator 15.1.0, SVG Export Plug-In . SVG Version: 6.00 Build 0)  -->
<!DOCTYPE svg PUBLIC "-//W3C//DTD SVG 1.1//EN" "http://www.w3.org/Graphics/SVG/1.1/DTD/svg11.dtd">
<svg version="1.1" id="Layer_1" xmlns="http://www.w3.org/2000/svg" xmlns:xlink="http://www.w3.org/1999/xlink" x="0px" y="0px"
	 width="648px" height="648px" viewBox="216 350 648 648" enable-background="new 216 350 648 648" xml:space="preserve">
<g>
	<g>
		<g>
			<path fill="#232391" d="M550.5,712.5h103.345c0,0,24.655,182,33.655,204c4.487,10.969-66.094,12.74-138.005,11.759"/>
			<path fill="#232391" d="M552.5,928.493c-71.911,0.979-163.288-1.024-158.801-11.993c9-22,33.655-204,33.655-204H540h10.5"/>
		</g>
		<g>
			
				<path fill="none" stroke="#000000" stroke-width="10" stroke-linecap="round" stroke-linejoin="round" stroke-miterlimit="10" d="
				M652.845,714.5c0,0,25.655,183,34.655,205c4.487,10.969-66.094,12.74-138.005,11.759"/>
			
				<path fill="none" stroke="#000000" stroke-width="10" stroke-linecap="round" stroke-linejoin="round" stroke-miterlimit="10" d="
				M550.5,715.5"/>
			
				<path fill="none" stroke="#000000" stroke-width="10" stroke-linecap="round" stroke-linejoin="round" stroke-miterlimit="10" d="
				M550.5,715.5"/>
			
				<path fill="none" stroke="#000000" stroke-width="10" stroke-linecap="round" stroke-linejoin="round" stroke-miterlimit="10" d="
				M540,715.5"/>
			
				<path fill="none" stroke="#000000" stroke-width="10" stroke-linecap="round" stroke-linejoin="round" stroke-miterlimit="10" d="
				M552.5,931.493c-71.911,0.979-163.288-1.024-158.801-11.993c9-22,34.655-205,34.655-205"/>
		</g>
	</g>
	
		<path fill="#232391" stroke="#000000" stroke-width="10" stroke-linecap="round" stroke-linejoin="round" stroke-miterlimit="10" d="
		M652.845,714.188L637.378,521.81c0,0,13.957,51.891,29.047,103.782c5.646,19.416,37.075,80.593,86.104,4.15
		c27.307-25.085,60.43-56.702,60.43-56.702l-80.988-9.06l-18.465,33.235c0,0-29.729-119.922-36.28-127.698
		c-28.258-33.548-55.755-32.581-55.755-32.581S593.167,522.5,539.67,500c-68.836,23.5-83.861-62.675-83.861-62.675
		s-31.309,4.509-50.064,30.193c-9.219,10.945-38.129,114.028-58.75,190.714c-18.896,46.375-36.879,75.102-36.879,75.102
		l83.973-22.388c0,0,0.343-2.808,3.217-17.779c2.528-17.833,45.49-171.269,45.49-171.269L428.15,714.35"/>
	
		<path fill="#FFE75C" stroke="#000000" stroke-width="7" stroke-linecap="round" stroke-linejoin="round" stroke-miterlimit="10" d="
		M457.325,435.349c0,0,26.579,82.473,80.666,64.651c0,0-28.427,19.941,0,55.5c-11.851-2.535-61.491-9.621-102.321-111.052
		L457.325,435.349z"/>
	
		<path fill="#FFE75C" stroke="#000000" stroke-width="7" stroke-linecap="round" stroke-linejoin="round" stroke-miterlimit="10" d="
		M641.991,444.448C601.161,545.879,551.521,552.965,539.67,555.5c28.427-35.559,0-55.5,0-55.5
		c54.088,17.821,80.666-64.651,80.666-64.651L641.991,444.448z"/>
	
		<path fill="#FFE75C" stroke="#000000" stroke-width="7" stroke-linecap="round" stroke-linejoin="round" stroke-miterlimit="10" d="
		M393.823,713.113c-46.529,27.887-72.029,25.466-83.708,22.234C352,726,335.771,686.135,335.771,686.135
		c24.729,33.108,61.534-1.483,61.534-1.483L393.823,713.113z"/>
	
		<path fill="#FFE75C" stroke="#000000" stroke-width="7" stroke-linecap="round" stroke-linejoin="round" stroke-miterlimit="10" d="
		M731.743,562.652c54.738-9.591,73.775,1.957,83.757,9.348c-43.488-6.459-41.823,36.062-41.823,36.062
		c-11.485-40.821-55.292-21.226-55.292-21.226L731.743,562.652z"/>
</g>
</svg>
