<?xml version="1.0" encoding="utf-8"?>
<!-- Generator: Adobe Illustrator 15.1.0, SVG Export Plug-In . SVG Version: 6.00 Build 0)  -->
<!DOCTYPE svg PUBLIC "-//W3C//DTD SVG 1.1//EN" "http://www.w3.org/Graphics/SVG/1.1/DTD/svg11.dtd">
<svg version="1.1" id="Layer_1" xmlns="http://www.w3.org/2000/svg" xmlns:xlink="http://www.w3.org/1999/xlink" x="0px" y="0px"
	 width="648px" height="648px" viewBox="216 387 648 648" enable-background="new 216 387 648 648" xml:space="preserve">
<g>
	<g>
		<g>
			<path fill="#4E2293" d="M548.685,712.002H651.56c0,0,24.545,221.756,33.504,248.563c4.467,13.365-79.416-66.031-151-67.229"/>
			<path fill="#4E2293" d="M554.536,895.67c-71.585,1.191-166.408,78.26-161.941,64.895c8.959-26.807,33.503-248.563,33.503-248.563
				h112.135h10.452"/>
		</g>
		<g>
			
				<path fill="none" stroke="#000000" stroke-width="10" stroke-linecap="round" stroke-linejoin="round" stroke-miterlimit="10" d="
				M650.565,714.439c0,0,25.539,222.975,34.498,249.779c4.467,13.365-74.926-67.02-146.51-68.215"/>
			
				<path fill="none" stroke="#000000" stroke-width="10" stroke-linecap="round" stroke-linejoin="round" stroke-miterlimit="10" d="
				M548.685,715.658"/>
			
				<path fill="none" stroke="#000000" stroke-width="10" stroke-linecap="round" stroke-linejoin="round" stroke-miterlimit="10" d="
				M548.685,715.658"/>
			
				<path fill="none" stroke="#000000" stroke-width="10" stroke-linecap="round" stroke-linejoin="round" stroke-miterlimit="10" d="
				M538.232,715.658"/>
			
				<path fill="none" stroke="#000000" stroke-width="10" stroke-linecap="round" stroke-linejoin="round" stroke-miterlimit="10" d="
				M536.122,897.475c-71.585,1.193-147.994,80.109-143.526,66.744c8.959-26.805,34.499-249.779,34.499-249.779"/>
		</g>
	</g>
	
		<path fill="#4E2293" stroke="#000000" stroke-width="10" stroke-linecap="round" stroke-linejoin="round" stroke-miterlimit="10" d="
		M651.073,718.689l-15.467-192.378c0,0,13.957,51.892,29.047,103.782c5.646,19.416,37.076,80.594,86.105,4.15
		c27.307-25.085,60.43-56.702,60.43-56.702l-80.988-9.06l-18.465,33.234c0,0-29.729-119.922-36.281-127.698
		c-28.258-33.548-55.754-32.581-55.754-32.581s-28.305,85.564-81.801,63.064c-68.836,23.5-83.861-62.675-83.861-62.675
		s-31.309,4.509-50.063,30.192c-9.219,10.945-38.129,114.028-58.75,190.715c-18.896,46.375-36.879,75.102-36.879,75.102
		l83.973-22.387c0,0,0.343-2.809,3.217-17.779c2.528-17.834,45.49-171.27,45.49-171.27l-14.646,192.451"/>
	
		<path fill="#FFE75C" stroke="#000000" stroke-width="7" stroke-linecap="round" stroke-linejoin="round" stroke-miterlimit="10" d="
		M455.554,439.851c0,0,26.579,82.474,80.666,64.651c0,0-28.427,19.941,0,55.5c-11.852-2.535-61.491-9.621-102.321-111.052
		L455.554,439.851z"/>
	
		<path fill="#FFE75C" stroke="#000000" stroke-width="7" stroke-linecap="round" stroke-linejoin="round" stroke-miterlimit="10" d="
		M640.22,448.95c-40.83,101.431-90.471,108.517-102.321,111.052c28.426-35.559,0-55.5,0-55.5
		c54.088,17.821,80.667-64.651,80.667-64.651L640.22,448.95z"/>
	
		<path fill="#FFE75C" stroke="#000000" stroke-width="7" stroke-linecap="round" stroke-linejoin="round" stroke-miterlimit="10" d="
		M392.052,717.615c-46.529,27.887-72.029,25.467-83.708,22.234C350.229,730.502,334,690.637,334,690.637
		c24.729,33.109,61.534-1.482,61.534-1.482L392.052,717.615z"/>
	
		<path fill="#FFE75C" stroke="#000000" stroke-width="7" stroke-linecap="round" stroke-linejoin="round" stroke-miterlimit="10" d="
		M729.972,567.154c54.738-9.592,73.775,1.957,83.758,9.348c-43.488-6.459-41.824,36.063-41.824,36.063
		c-11.484-40.821-55.291-21.227-55.291-21.227L729.972,567.154z"/>
	
		<path fill="#FFE75C" stroke="#000000" stroke-width="7" stroke-linecap="round" stroke-linejoin="round" stroke-miterlimit="10" d="
		M652.886,784.615c0,0-225.304,162.387-250.472,128.188l-10.444,54.59C391.969,967.393,452.171,1013.502,652.886,784.615z"/>
	
		<path fill="#FFE75C" stroke="#000000" stroke-width="7" stroke-linecap="round" stroke-linejoin="round" stroke-miterlimit="10" d="
		M684.993,967.393l-10.443-54.59c-25.168,34.199-250.471-128.188-250.471-128.188C624.792,1013.502,684.995,967.393,684.993,967.393
		z"/>
	
		<polygon fill="#FFF200" stroke="#000000" stroke-width="7" stroke-linecap="round" stroke-linejoin="round" stroke-miterlimit="10" points="
		552.569,614.056 536.876,605.526 520.956,613.614 524.217,596.056 511.605,583.411 529.314,581.089 537.442,565.185 
		545.122,581.311 562.759,584.126 549.796,596.413 	"/>
</g>
</svg>
