<?xml version="1.0" encoding="utf-8"?>
<!-- Generator: Adobe Illustrator 15.1.0, SVG Export Plug-In . SVG Version: 6.00 Build 0)  -->
<!DOCTYPE svg PUBLIC "-//W3C//DTD SVG 1.1//EN" "http://www.w3.org/Graphics/SVG/1.1/DTD/svg11.dtd">
<svg version="1.1" id="Layer_1" xmlns="http://www.w3.org/2000/svg" xmlns:xlink="http://www.w3.org/1999/xlink" x="0px" y="0px"
	 width="648px" height="648px" viewBox="216 352 648 648" enable-background="new 216 352 648 648" xml:space="preserve">
<g>
	<g>
		<g>
			<path fill="#CFFDFF" d="M550.5,714.5h103.345c0,0,24.655,182,33.655,204c4.487,10.969-66.094,12.74-138.005,11.759"/>
			<path fill="#CFFDFF" d="M552.5,930.493c-71.911,0.979-163.288-1.024-158.801-11.993c9-22,33.655-204,33.655-204H540h10.5"/>
		</g>
		<g>
			
				<path fill="none" stroke="#000000" stroke-width="10" stroke-linecap="round" stroke-linejoin="round" stroke-miterlimit="10" d="
				M652.845,716.5c0,0,25.655,183,34.655,205c4.487,10.969-66.094,12.74-138.005,11.759"/>
			
				<path fill="none" stroke="#000000" stroke-width="10" stroke-linecap="round" stroke-linejoin="round" stroke-miterlimit="10" d="
				M550.5,717.5"/>
			
				<path fill="none" stroke="#000000" stroke-width="10" stroke-linecap="round" stroke-linejoin="round" stroke-miterlimit="10" d="
				M550.5,717.5"/>
			
				<path fill="none" stroke="#000000" stroke-width="10" stroke-linecap="round" stroke-linejoin="round" stroke-miterlimit="10" d="
				M540,717.5"/>
			
				<path fill="none" stroke="#000000" stroke-width="10" stroke-linecap="round" stroke-linejoin="round" stroke-miterlimit="10" d="
				M552.5,933.493c-71.911,0.979-163.288-1.024-158.801-11.993c9-22,34.655-205,34.655-205"/>
		</g>
	</g>
	
		<path fill="#CFFDFF" stroke="#000000" stroke-width="10" stroke-linecap="round" stroke-linejoin="round" stroke-miterlimit="10" d="
		M652.845,715.5l-15.467-192.377c0,0,13.957,51.891,29.047,103.782c5.646,19.416,37.075,80.594,86.104,4.15
		c27.307-25.085,62.424-57.89,62.424-57.89L752.5,523.053l-38.995,75.477c0,0-29.729-119.922-36.28-127.698
		C648.967,437.283,590.825,432,590.825,432s-4.229,22-50.358,22s-50.356-22-50.356-22s-56.107,3.283-84.366,36.831
		c-9.219,10.945-38.129,114.028-58.75,190.714C328.098,705.92,304.5,741.5,304.5,741.5l83.5,21.208c0,0,12.167-99.449,11.424-93.379
		c-2.924,10.505,43.371-146.118,43.371-146.118L428.15,715.662"/>
	<g>
		<g>
			
				<path fill="#4D2C96" stroke="#000000" stroke-width="7" stroke-linecap="round" stroke-linejoin="round" stroke-miterlimit="10" d="
				M425.54,735.296c0,0,39.96,166.397,250.667,132.532l8.351,43.832c0,0-202.558,43.885-263.292-150.185L425.54,735.296z"/>
			
				<path fill="#4D2C96" stroke="#000000" stroke-width="7" stroke-linecap="round" stroke-linejoin="round" stroke-miterlimit="10" d="
				M650.562,715.113c0,0-217.274,162.387-241.545,128.188l-10.072,54.59C398.943,897.89,457,944,650.562,715.113z"/>
		</g>
	</g>
	
		<polygon fill="#FFF200" stroke="#000000" stroke-width="10" stroke-linecap="round" stroke-linejoin="round" stroke-miterlimit="10" points="
		513.009,880.021 489.097,869.191 466.623,882.747 469.532,856.66 449.694,839.472 475.405,834.178 485.621,809.998 
		498.599,832.816 524.752,835.061 507.062,854.455 	"/>
</g>
</svg>
