<?xml version="1.0" encoding="utf-8"?>
<!-- Generator: Adobe Illustrator 15.1.0, SVG Export Plug-In . SVG Version: 6.00 Build 0)  -->
<!DOCTYPE svg PUBLIC "-//W3C//DTD SVG 1.1//EN" "http://www.w3.org/Graphics/SVG/1.1/DTD/svg11.dtd">
<svg version="1.1" id="Layer_1" xmlns="http://www.w3.org/2000/svg" xmlns:xlink="http://www.w3.org/1999/xlink" x="0px" y="0px"
	 width="1080px" height="1340px" viewBox="0 0 1080 1340" enable-background="new 0 0 1080 1340" xml:space="preserve">
<g>
	<g>
		<g>
			<path fill="#CFFDFF" d="M550.5,748.5h103.345c0,0,21.137,167.333,30.137,189.333c4.487,10.969-137.481,2.556-200.481-41.666"/>
			<path fill="#CFFDFF" d="M520.833,900.833c-71.139,6.334-124.7,38.358-120.213,27.39c9-22,26.734-179.723,26.734-179.723H540h10.5
				"/>
		</g>
		<g>
			
				<path fill="none" stroke="#000000" stroke-width="10" stroke-linecap="round" stroke-linejoin="round" stroke-miterlimit="10" d="
				M652.845,750.5c0,0,21.95,169.525,30.95,191.525c4.487,10.969-72.962-1.637-137.295-16.192"/>
			
				<path fill="none" stroke="#000000" stroke-width="10" stroke-linecap="round" stroke-linejoin="round" stroke-miterlimit="10" d="
				M550.5,751.5"/>
			
				<path fill="none" stroke="#000000" stroke-width="10" stroke-linecap="round" stroke-linejoin="round" stroke-miterlimit="10" d="
				M550.5,751.5"/>
			
				<path fill="none" stroke="#000000" stroke-width="10" stroke-linecap="round" stroke-linejoin="round" stroke-miterlimit="10" d="
				M540,751.5"/>
			
				<path fill="none" stroke="#000000" stroke-width="10" stroke-linecap="round" stroke-linejoin="round" stroke-miterlimit="10" d="
				M510.925,889.474c-64.092,36.026-113.658,45.398-109.171,34.43c8.079-24.07,26.6-173.403,26.6-173.403"/>
		</g>
	</g>
	
		<path fill="#CFFDFF" stroke="#000000" stroke-width="10" stroke-linecap="round" stroke-linejoin="round" stroke-miterlimit="10" d="
		M652.845,749.5l-15.467-192.377c0,0,13.957,51.891,29.047,103.782c5.646,19.416,37.075,80.594,86.104,4.15
		c27.307-25.085,62.424-57.89,62.424-57.89L752.5,557.053l-38.995,75.477c0,0-27.389-110.029-32.24-118.27
		c-30.504,27.574-91.213,29.701-134.432,13.574c-44.667-16.667-99.982-52.083-99.982-52.083s-23.351,4.75-41.107,27.081
		c-9.219,10.945-38.129,114.028-58.75,190.714C328.098,739.92,304.5,775.5,304.5,775.5l83.5,21.208c0,0,12.167-99.449,11.424-93.379
		c-2.924,10.505,43.371-146.118,43.371-146.118L428.15,749.662"/>
	<g>
		<g>
			
				<path fill="#4D2C96" stroke="#000000" stroke-width="7" stroke-linecap="round" stroke-linejoin="round" stroke-miterlimit="10" d="
				M457.325,471.349c0,0,140.175,101.677,223.417,41.42c0,0,11.538,34.55,17.359,64.02C686.253,574.252,575.75,603,435.67,480.448
				L457.325,471.349z"/>
			
				<path fill="#4D2C96" stroke="#000000" stroke-width="7" stroke-linecap="round" stroke-linejoin="round" stroke-miterlimit="10" d="
				M425.54,769.296c0,0,39.96,166.397,250.667,132.532l8.351,43.832c0,0-202.558,43.885-263.292-150.185L425.54,769.296z"/>
			
				<path fill="#4D2C96" stroke="#000000" stroke-width="7" stroke-linecap="round" stroke-linejoin="round" stroke-miterlimit="10" d="
				M651.562,749.113c0,0-217.274,162.387-241.545,128.188l-10.072,54.59C399.943,931.89,458,978,651.562,749.113z"/>
		</g>
	</g>
	
		<polygon fill="#FFF200" stroke="#000000" stroke-width="10" stroke-linecap="round" stroke-linejoin="round" stroke-miterlimit="10" points="
		513.009,914.021 489.097,903.191 466.623,916.747 469.532,890.66 449.694,873.472 475.405,868.178 485.621,843.998 
		498.599,866.816 524.752,869.061 507.062,888.455 	"/>
</g>
</svg>
