<?xml version="1.0" encoding="utf-8"?>
<!-- Generator: Adobe Illustrator 19.0.0, SVG Export Plug-In . SVG Version: 6.00 Build 0)  -->
<svg version="1.1" id="Layer_1" xmlns="http://www.w3.org/2000/svg" xmlns:xlink="http://www.w3.org/1999/xlink" x="0px" y="0px"
	 viewBox="0 0 1080 1340" enable-background="new 0 0 1080 1340" xml:space="preserve">
<g id="Layer_8">
	<path fill="#070707" d="M144.475,1099.581c-0.957-0.363-2.108-0.15-2.873,0.531c13.633,3.496,28.45,2.178,41.251-3.67
		c5.755,19.435,9.131,39.573,10.027,59.822c0.092,2.089,0.13,4.303-0.907,6.12c-1.785,3.125-5.903,3.834-9.486,4.177
		c-7.335,0.702-14.683,1.27-22.039,1.702c-3.74,0.22-7.6,0.388-11.124-0.885c-5.736-2.073-9.484-7.522-12.439-12.857
		c-1.142-2.062-2.24-4.198-2.656-6.519c-0.465-2.593-0.051-5.254,0.363-7.856c1.993-12.53,3.986-25.06,5.979-37.59L144.475,1099.581
		z"/>
	<path fill="#070707" d="M30.742,1103.485l9.681,54.071c0,0-27.342,22.401-46.133,12.672s-3.79-61.703-3.79-61.703
		s28.955,0,34.478-5.04C30.5,1098.445,30.742,1103.485,30.742,1103.485z"/>
	<path fill="#663300" d="M-13.707,545.798v552.647c0,0,18.207,10.08,38.685,5.04c5.598-1.378,5.522-22.793,5.522-22.793
		s3.63-228.49,15.836-269.907c12.757-43.284,7.878-69.891,28.034-72.447c20.157-2.556,25.041-2.677,25.041-2.677
		s20.742,1.533,26.915,89.687s18.799,146.607,18.402,195.168c-0.397,48.562-3.279,64.147-0.254,79.066
		c3.025,14.919,38.378-3.139,38.378-3.139V955.5c0,0-0.868-197.899,5.889-227.949c6.757-30.051-18.624-112.992-23.691-151.159
		s-12.86-93.443-12.86-93.443s37.029,17.223,37.687,15.378c0.658-1.845,32.734,7.154,47.816-28.229
		c20.805-48.81-16.084-155.922-16.084-155.922l-5.065-106.643L230.069,172l20.449-31.912c0,0-32.852,14.711-47.935,39.062
		C187.5,203.5,153.73,162.478,153.73,162.478L81.82,201.52l-18.289-61.028c0,0-15.722,50.205-10.729,74.147
		s15.998,75.119,15.998,75.119L-13.707,545.798z"/>
	<path fill="#FFFFFF" stroke="#000000" stroke-miterlimit="10" d="M182.976,358.178c7.368,23.818,6.476,38.375,0,48.349
		c-6.476,9.973-8.426,41.552-25.386,40.871c-16.959-0.681-9.31,18.023-4.655,24.57s38.44,47.349,80.122,5.244
		c18.919-19.111,15.37-38.163,0-40.264c-15.37-2.1-43.604-94.499-50.081-109.474C176.5,312.5,175.453,333.856,182.976,358.178z"/>
</g>
<g id="Layer_7">
	<path fill="none" stroke="#000000" stroke-width="10" stroke-linecap="round" stroke-linejoin="round" stroke-miterlimit="10" d="
		M153.73,162.478c16.747,3.04,31.675,12.143,46.165,21.073c12.09-20.838,30.458-37.98,52.081-48.603
		c-2.476,16.428-25.096,27.443-22.043,43.774c1.828,9.778-11.787,26.254-10.721,32.797c5.226,32.085-9.369,72.021,11.288,130.707
		c25.325,71.947,21.772,141.874-21.598,152.074c-43.37,10.2-55.664-16.017-73.069-59.315s-42.145-82.87-64.145-128.86
		c-5.345-11.174-1.214-46.202-8.157-56.46c-21.616-31.938-5.057-86.244-5.136-124.809c10.788,21.814,7.026,58.682,23.425,76.663
		c5.837-10.401,17.419-24.815,28.921-27.966C110.741,173.553,136.983,159.438,153.73,162.478z"/>
	<path fill="none" stroke="#000000" stroke-width="10" stroke-linecap="round" stroke-linejoin="round" stroke-miterlimit="10" d="
		M182.577,451.109c-8.084-7.46-13.168-18.082-13.909-29.057c8.34,7.51,13.59,18.355,14.308,29.555
		c-5.293-3.772-8.344-9.223-8.333-15.722c0.003-1.618-0.222-4.55-1.607-5.386c-1.385-0.836-3.128,1.987-1.522,2.185"/>
	<path fill="none" stroke="#000000" stroke-width="10" stroke-linecap="round" stroke-linejoin="round" stroke-miterlimit="10" d="
		M211.943,452.058c6.914-8.555,10.401-19.804,9.539-30.77c-7.16,8.642-10.779,20.135-9.862,31.321
		c4.688-4.501,7.022-11.332,6.067-17.761c-0.238-1.6-0.548-3.54,0.701-4.568c1.249-1.029,3.383,1.512,1.824,1.941"/>
	<path fill="#302F11" stroke="#000000" stroke-width="10" stroke-miterlimit="10" d="M77.55,190.864
		c-5.624-12.93-4.092-16.898,6.95-25.666c12-9.529,30.198-20.315,44-23.198c12.153-2.539,38.853-4.051,50.495,5.514
		c26.36,21.657,31.503,64.768,10.976,92.018c-2.808-9.228-4.666-18.745-5.535-28.351c2.945,13.635-1.133,28.595-10.59,38.848
		c2.924-20.695-9.081-42.62-28.092-51.304c1.766-2.652,6.084,29.774-7.28,29.774c-3.52-9.173-11.597-23.411-20.285-28
		c-16.714-8.83-28.483,13.377-26.689-5.441L77.55,190.864z"/>
	<path fill="none" stroke="#000000" stroke-width="10" stroke-linecap="round" stroke-linejoin="round" stroke-miterlimit="10" d="
		M106.478,270.54c3.73-7.392,15.465-6.734,21.202-0.765s7.084,14.783,8.153,22.993"/>
	<path fill="none" stroke="#000000" stroke-width="10" stroke-linecap="round" stroke-linejoin="round" stroke-miterlimit="10" d="
		M194.025,282.367c0.367-9.276,4.794-18.321,11.895-24.301c3.027-2.549,9.272-3.3,9.49,0.652"/>
	<path fill="none" stroke="#000000" stroke-width="10" stroke-linecap="round" stroke-linejoin="round" stroke-miterlimit="10" d="
		M157.591,478.515c29.109,5.723,48.833,6.519,75.466-6.547"/>
	<path fill="none" stroke="#000000" stroke-width="10" stroke-linecap="round" stroke-linejoin="round" stroke-miterlimit="10" d="
		M59.094,262.258c-0.847,12.704-1.702,45.465-4.435,57.901c-2.692,12.25-7.171,24.026-11.756,35.7
		C25.325,400.618,5.949,444.672-15.16,487.878c1.22-3.126,2.44-6.252,3.66-9.378"/>
	<path fill="none" stroke="#000000" stroke-width="10" stroke-linecap="round" stroke-linejoin="round" stroke-miterlimit="10" d="
		M-5.71,1170.228c8.194,9.551,35.389-1.303,46.21-7.728c0.15-28.141-9.341-37.458-10-64.055
		c-1.67-67.388,4.762-149.502,10.144-220.599c2.541-33.566,5.522-85.336,14.6-117.752c1.857-6.633,4.099-13.429,8.779-18.482
		c7.581-8.185,20.477,2.388,30.504-5.83c4.244-3.478,10.125,4.519,14.075,8.175c12.138,11.234,17.465,83.682,19.898,100.041
		c2.422,16.291,4.735,33.425,6.819,50.927c7.736,64.962,12.324,134.993,7.697,185.767c-2.642,28.994-10.59,63.013-9.826,64.5
		c2.305,4.487,5.105,17.53,9.826,19.308c14.644,5.515,37.964,9.688,51.593,2c1.782-20.79-12.275-62.543-11.633-85.809
		c1.927-69.798,1.033-150.085,0-208.57c-1.312-74.29,13.903-123.332,0-201.621c-11.008-61.988-18.476-80.281-25.386-156.172
		c-0.959-10.536-5.61-17.539-2.586-27.677"/>
	<path fill="none" stroke="#000000" stroke-width="10" stroke-linecap="round" stroke-linejoin="round" stroke-miterlimit="10" d="
		M103.88,731.736c14.337-11.63,26.737-25.643,36.534-41.29"/>
	<path fill="#302F11" stroke="#000000" stroke-width="10" stroke-miterlimit="10" d="M62.683,265.443
		c1.07,1.495-2.168,0.461-2.162,2.3c0.187,52.638-2.116,125.286-6.898,177.707c-0.816,8.94-1.999,18.56-8.092,25.151
		c-2.597-17.292-5.194-34.584-7.792-51.877C29.72,452.737,21.7,486.75,13.68,520.763c-3.462-14.435-4.661-29.41-3.541-44.212
		c-11.836,21.489-19.942,45.027-23.845,69.247c-21.241-42.275-12.506-93.647,5.161-137.536s58.326-113.328,72.078-158.597"/>
	<path fill="none" stroke="#000000" stroke-width="10" stroke-linecap="round" stroke-linejoin="round" stroke-miterlimit="10" d="
		M140.897,1098.445c0,0,20.556,11.945,42.08,0"/>
	<path fill="none" stroke="#000000" stroke-width="10" stroke-linecap="round" stroke-linejoin="round" stroke-miterlimit="10" d="
		M30.5,1098.445c0,0-14.419,18.562-36.21,5.309"/>
	
		<circle stroke="#000000" stroke-width="10" stroke-linecap="round" stroke-linejoin="round" stroke-miterlimit="10" cx="123.121" cy="281.379" r="6.621"/>
	
		<circle stroke="#000000" stroke-width="10" stroke-linecap="round" stroke-linejoin="round" stroke-miterlimit="10" cx="206.635" cy="271.041" r="6.899"/>
</g>
</svg>
