<?xml version="1.0" encoding="utf-8"?>
<!-- Generator: Adobe Illustrator 15.1.0, SVG Export Plug-In . SVG Version: 6.00 Build 0)  -->
<!DOCTYPE svg PUBLIC "-//W3C//DTD SVG 1.1//EN" "http://www.w3.org/Graphics/SVG/1.1/DTD/svg11.dtd">
<svg version="1.1" id="Layer_1" xmlns="http://www.w3.org/2000/svg" xmlns:xlink="http://www.w3.org/1999/xlink" x="0px" y="0px"
	 width="1080px" height="1340px" viewBox="0 0 1080 1340" enable-background="new 0 0 1080 1340" xml:space="preserve">
<g>
	
		<path fill="#6B5DED" stroke="#000000" stroke-width="5" stroke-linecap="round" stroke-linejoin="round" stroke-miterlimit="10" d="
		M424.193,355.872c0,0-5.38,5.97-5.971,14.913c-0.804,12.129-2.601,10.767-5.773,19.453c0,0,6.107,0.418,11.124-9.205
		c0,0,3.733,12.222-5.768,26.73c0,0,15.458-8.573,18.577-22.98c0,0-1.918,10.934-2.885,14.492c0,0,13.74-9.126,6.834-27.763
		c0,0,6.944,4.382,8.36,0.959c0,0-3.821-2.951-6.5-7.319c0,0-1.637-5.49-8.082-8.248"/>
	
		<ellipse transform="matrix(0.0415 -0.9991 0.9991 0.0415 68.4753 760.3892)" fill="#92DDEA" stroke="#000000" stroke-width="5" stroke-linecap="round" stroke-linejoin="round" stroke-miterlimit="10" cx="430.556" cy="344.505" rx="14.292" ry="9.082"/>
</g>
<g>
	
		<path fill="#6B5DED" stroke="#000000" stroke-width="5" stroke-linecap="round" stroke-linejoin="round" stroke-miterlimit="10" d="
		M644.031,356.905c-6.446,2.758-8.082,8.248-8.082,8.248c-2.679,4.368-6.5,7.319-6.5,7.319c1.416,3.424,8.359-0.959,8.359-0.959
		c-6.905,18.637,6.834,27.763,6.834,27.763c-0.967-3.56-2.885-14.492-2.885-14.492c3.119,14.407,18.577,22.98,18.577,22.98
		c-9.502-14.51-5.768-26.73-5.768-26.73c5.017,9.623,11.124,9.205,11.124,9.205c-3.173-8.687-4.971-7.323-5.773-19.453
		c-0.591-8.942-5.971-14.913-5.971-14.913"/>
	
		<ellipse transform="matrix(-0.9991 0.0415 -0.0415 -0.9991 1308.8732 661.9199)" fill="#92DDEA" stroke="#000000" stroke-width="5" stroke-linecap="round" stroke-linejoin="round" stroke-miterlimit="10" cx="647.565" cy="344.548" rx="9.082" ry="14.291"/>
</g>
</svg>
