<?xml version="1.0" encoding="utf-8"?>
<!-- Generator: Adobe Illustrator 15.1.0, SVG Export Plug-In . SVG Version: 6.00 Build 0)  -->
<!DOCTYPE svg PUBLIC "-//W3C//DTD SVG 1.1//EN" "http://www.w3.org/Graphics/SVG/1.1/DTD/svg11.dtd">
<svg version="1.1" id="Layer_1" xmlns="http://www.w3.org/2000/svg" xmlns:xlink="http://www.w3.org/1999/xlink" x="0px" y="0px"
	 width="1080px" height="1340px" viewBox="0 0 1080 1340" enable-background="new 0 0 1080 1340" xml:space="preserve">
<path fill="#AA611F" d="M418.143,173.5c0,0,50.68,44.697,135.732,37.181C612.5,205.5,627.336,198,661.418,173.5H418.143z"/>
<path fill="#AA611F" stroke="#000000" stroke-width="10" d="M416.877,179c-50.472,10.5-77-0.75-92.956-16
	c-9.365-8.951-36.294-73.5,44.121-15.571c94.19,67.852,172.595,63.184,172.595,63.184s80.759,4.668,174.948-63.184
	C796,89.5,769.071,154.049,759.706,163c-15.956,15.25-42.484,26.5-92.956,16"/>
<path fill="#AA611F" d="M576.75,46.16c-7.569,6.613-33.942,39.434-72.082-1c-31.75-33.66-47.021,16.96-47.021,16.96L419,172h120.234
	h124.184L624.771,62.12c0,0-15.271-50.62-47.021-16.96L576.75,46.16z"/>
<polygon fill="#A52121" points="422.833,170.324 430.833,145.498 654.097,147.5 661.418,171.167 "/>
<path fill="none" stroke="#000000" stroke-width="10" d="M576.75,46.16c-7.569,6.613-33.942,39.434-72.082-1
	c-31.75-33.66-47.021,16.96-47.021,16.96L419,172h120.234h124.184L624.771,62.12c0,0-15.271-50.62-47.021-16.96L576.75,46.16z"/>
<line fill="none" stroke="#000000" stroke-width="10" x1="428.895" y1="145.498" x2="654.097" y2="145.498"/>
</svg>
