<?xml version="1.0" encoding="utf-8"?>
<!-- Generator: Adobe Illustrator 15.1.0, SVG Export Plug-In . SVG Version: 6.00 Build 0)  -->
<!DOCTYPE svg PUBLIC "-//W3C//DTD SVG 1.1//EN" "http://www.w3.org/Graphics/SVG/1.1/DTD/svg11.dtd">
<svg version="1.1" id="Layer_1" xmlns="http://www.w3.org/2000/svg" xmlns:xlink="http://www.w3.org/1999/xlink" x="0px" y="0px"
	 width="288px" height="288px" viewBox="396 478 288 288" enable-background="new 396 478 288 288" xml:space="preserve">
<g>
	<path fill="none" stroke="#000000" stroke-width="7" stroke-linecap="round" stroke-linejoin="round" stroke-miterlimit="10" d="
		M539.834,603.001c-21.688-46.823-36.167-43.449-54.99-77.139"/>
	<path fill="none" stroke="#000000" stroke-width="7" stroke-linecap="round" stroke-linejoin="round" stroke-miterlimit="10" d="
		M597.728,525.862c-18.822,33.689-33.302,30.315-54.989,77.139"/>
	
		<ellipse transform="matrix(-0.998 -0.0625 0.0625 -0.998 1042.1862 1275.557)" fill="#EFEF43" stroke="#000000" stroke-width="7" stroke-linecap="round" stroke-linejoin="round" stroke-miterlimit="10" cx="541.032" cy="621.487" rx="9.021" ry="14.22"/>
	
		<path fill="#EFEF43" stroke="#000000" stroke-width="7" stroke-linecap="round" stroke-linejoin="round" stroke-miterlimit="10" d="
		M536.772,636.918c0,0,1.084,36.458-0.867,53.604"/>
	
		<path fill="#EFEF43" stroke="#000000" stroke-width="7" stroke-linecap="round" stroke-linejoin="round" stroke-miterlimit="10" d="
		M543.853,635.682c0,0,4.215,45.194,9.215,54.84"/>
	
		<path fill="#FDEE27" stroke="#000000" stroke-width="5" stroke-linecap="round" stroke-linejoin="round" stroke-miterlimit="10" d="
		M535.789,692.311c0,0-14.709,24.705-2.383,25.797C545.4,719.17,535.789,692.311,535.789,692.311z"/>
	
		<path fill="#FDEE27" stroke="#000000" stroke-width="5" stroke-linecap="round" stroke-linejoin="round" stroke-miterlimit="10" d="
		M554.21,692.918c0,0-2.054,28.679,9.451,24.121C574.855,712.605,554.21,692.918,554.21,692.918z"/>
</g>
</svg>
