<?xml version="1.0" encoding="utf-8"?>
<!-- Generator: Adobe Illustrator 15.1.0, SVG Export Plug-In . SVG Version: 6.00 Build 0)  -->
<!DOCTYPE svg PUBLIC "-//W3C//DTD SVG 1.1//EN" "http://www.w3.org/Graphics/SVG/1.1/DTD/svg11.dtd">
<svg version="1.1" id="Layer_1" xmlns="http://www.w3.org/2000/svg" xmlns:xlink="http://www.w3.org/1999/xlink" x="0px" y="0px"
	 width="1080px" height="1340px" viewBox="0 0 1080 1340" enable-background="new 0 0 1080 1340" xml:space="preserve">
<g>
	<g>
		<path fill="none" stroke="#000000" stroke-width="7" stroke-linecap="round" stroke-linejoin="round" stroke-miterlimit="10" d="
			M542.178,597c0,0,33.572-66.095,45-132.19"/>
		<path fill="none" stroke="#000000" stroke-width="7" stroke-linecap="round" stroke-linejoin="round" stroke-miterlimit="10" d="
			M538.178,597c0,0-33.568-66.095-45-132.19"/>
	</g>
	
		<path fill="#DD7D3C" stroke="#000000" stroke-width="7" stroke-linecap="round" stroke-linejoin="round" stroke-miterlimit="10" d="
		M530.987,634.499c0,0-7.313,8.116-8.118,20.274c-1.092,16.489-3.535,14.637-7.849,26.445c0,0,8.304,0.569,15.123-12.514
		c0,0,5.076,16.617-7.842,36.343c0,0,21.017-11.656,25.256-31.244c0,0-2.606,14.865-3.921,19.703c0,0,18.681-12.408,9.291-37.744
		c0,0,9.441,5.958,11.366,1.305c0,0-5.196-4.014-8.837-9.952c0,0-2.224-7.464-10.988-11.213"/>
	
		<ellipse transform="matrix(-0.998 -0.0627 0.0627 -0.998 1039.5107 1267.7278)" fill="#EFEF43" stroke="#000000" stroke-width="7" stroke-linecap="round" stroke-linejoin="round" stroke-miterlimit="10" cx="539.652" cy="617.549" rx="12.348" ry="19.431"/>
</g>
</svg>
