<?xml version="1.0" encoding="utf-8"?>
<!-- Generator: Adobe Illustrator 15.1.0, SVG Export Plug-In . SVG Version: 6.00 Build 0)  -->
<!DOCTYPE svg PUBLIC "-//W3C//DTD SVG 1.1//EN" "http://www.w3.org/Graphics/SVG/1.1/DTD/svg11.dtd">
<svg version="1.1" id="Layer_1" xmlns="http://www.w3.org/2000/svg" xmlns:xlink="http://www.w3.org/1999/xlink" x="0px" y="0px"
	 width="1080px" height="1340px" viewBox="0 0 1080 1340" enable-background="new 0 0 1080 1340" xml:space="preserve">
<g>
	<path fill="none" stroke="#000000" stroke-width="7" stroke-linecap="round" stroke-linejoin="round" stroke-miterlimit="10" d="
		M538.381,543.833c-21.688-46.823-36.167-43.449-54.99-77.139"/>
	<path fill="none" stroke="#000000" stroke-width="7" stroke-linecap="round" stroke-linejoin="round" stroke-miterlimit="10" d="
		M596.274,466.694c-18.822,33.689-33.302,30.315-54.989,77.139"/>
	
		<ellipse transform="matrix(-0.998 -0.0625 0.0625 -0.998 1042.9788 1157.2458)" fill="#EFEF43" stroke="#000000" stroke-width="7" stroke-linecap="round" stroke-linejoin="round" stroke-miterlimit="10" cx="539.579" cy="562.319" rx="9.021" ry="14.22"/>
	
		<path fill="#EFEF43" stroke="#000000" stroke-width="7" stroke-linecap="round" stroke-linejoin="round" stroke-miterlimit="10" d="
		M535.319,577.75c0,0,1.084,36.458-0.867,53.604"/>
	
		<path fill="#EFEF43" stroke="#000000" stroke-width="7" stroke-linecap="round" stroke-linejoin="round" stroke-miterlimit="10" d="
		M542.399,576.514c0,0,4.215,45.194,9.215,54.84"/>
	
		<path fill="#FDEE27" stroke="#000000" stroke-width="5" stroke-linecap="round" stroke-linejoin="round" stroke-miterlimit="10" d="
		M534.336,633.143c0,0-14.709,24.705-2.383,25.797C543.947,660.002,534.336,633.143,534.336,633.143z"/>
	
		<path fill="#FDEE27" stroke="#000000" stroke-width="5" stroke-linecap="round" stroke-linejoin="round" stroke-miterlimit="10" d="
		M552.757,633.75c0,0-2.054,28.679,9.451,24.121C573.402,653.438,552.757,633.75,552.757,633.75z"/>
</g>
</svg>
