<?xml version="1.0" encoding="utf-8"?>
<!-- Generator: Adobe Illustrator 15.1.0, SVG Export Plug-In . SVG Version: 6.00 Build 0)  -->
<!DOCTYPE svg PUBLIC "-//W3C//DTD SVG 1.1//EN" "http://www.w3.org/Graphics/SVG/1.1/DTD/svg11.dtd">
<svg version="1.1" id="Layer_1" xmlns="http://www.w3.org/2000/svg" xmlns:xlink="http://www.w3.org/1999/xlink" x="0px" y="0px"
	 width="432px" height="432px" viewBox="36 36 432 432" enable-background="new 36 36 432 432" xml:space="preserve">
<path fill="#474EC6" d="M573.029,1227.631L572.59,965.68c0-29.494-6.326-62.036-26.995-62.036h-10.712
	c-20.674,0-27.871,32.542-27.871,62.036l-0.689,261.03l-80.67-1.655L427.15,814.5h226v408.338L573.029,1227.631z"/>
<polygon fill="#6B4624" points="429.959,812.736 428,844.5 652.989,844.5 649.5,812.736 "/>
<line fill="none" stroke="#000000" stroke-width="10" x1="653.148" y1="847.361" x2="425.65" y2="847.361"/>
<path fill="none" stroke="#000000" stroke-width="10" d="M573.029,1227.631L572.59,965.68c0-29.494-6.326-62.036-26.995-62.036
	h-10.712c-20.674,0-27.871,32.542-27.871,62.036l-0.689,261.03l-80.67-1.655L427.15,814.5h226v408.338L573.029,1227.631z"/>
<ellipse fill="#FFFF5F" stroke="#000000" stroke-width="10" cx="540" cy="831.242" rx="26.25" ry="21.742"/>
<polygon fill="none" stroke="#000000" stroke-width="5" stroke-linecap="round" stroke-linejoin="round" points="539.399,817.475 
	543.547,825.88 552.822,827.229 546.111,833.77 547.695,843.008 539.399,838.646 531.104,843.008 532.688,833.77 525.976,827.229 
	535.251,825.88 "/>
</svg>
