<?xml version="1.0" encoding="utf-8"?>
<!-- Generator: Adobe Illustrator 15.1.0, SVG Export Plug-In . SVG Version: 6.00 Build 0)  -->
<!DOCTYPE svg PUBLIC "-//W3C//DTD SVG 1.1//EN" "http://www.w3.org/Graphics/SVG/1.1/DTD/svg11.dtd">
<svg version="1.1" id="Layer_1" xmlns="http://www.w3.org/2000/svg" xmlns:xlink="http://www.w3.org/1999/xlink" x="0px" y="0px"
	 width="504px" height="504px" viewBox="288 878.375 504 504" enable-background="new 288 878.375 504 504" xml:space="preserve">
<path fill="#474EC6" d="M573.029,1340.631l-0.439-261.951c0-29.494-6.326-62.036-26.995-62.036h-10.712
	c-20.674,0-27.871,32.542-27.871,62.036l-0.69,261.03l-80.67-1.655l1.498-410.555h226v408.338L573.029,1340.631z"/>
<path fill="#684638" d="M506.996,1084.503l-0.676,255.207l-80.67-1.655l1.498-410.555h226v408.338l-80.119,4.793l-0.428-254.382
	c0,0,65.919,24.751,49.397-122.499l-167.332-3.389C454.668,960.361,445.992,1108.006,506.996,1084.503z"/>
<path fill="none" stroke="#000000" stroke-width="10" d="M573.029,1340.631l-0.439-261.951c0-29.494-6.326-62.036-26.995-62.036
	h-10.712c-20.674,0-27.871,32.542-27.871,62.036l-0.69,261.03l-80.67-1.655l1.498-410.555h226v408.338L573.029,1340.631z"/>
<path fill="none" stroke="#000000" stroke-width="10" d="M573.512,1086.831c0,0,63.823,23.336,50.49-125.661h-88.168H456.5
	c-13.333,148.997,50.49,125.661,50.49,125.661"/>
<path fill="#FFF069" stroke="#000000" stroke-width="10" d="M568.715,951.309c0,5.967-5.373,10.803-12,10.803h-31.343
	c-6.627,0-12-4.836-12-10.803v-16.764c0-5.966,5.373-10.802,12-10.802h31.343c6.627,0,12,4.836,12,10.802V951.309z"/>
<path fill="#684638" stroke="#000000" stroke-width="7" d="M555.266,946.146c0,2.294-2.735,4.15-6.109,4.15h-15.958
	c-3.375,0-6.11-1.856-6.11-4.15v-6.44c0-2.293,2.735-4.15,6.11-4.15h15.958c3.374,0,6.109,1.857,6.109,4.15V946.146z"/>
</svg>
