<?xml version="1.0" encoding="utf-8"?>
<!-- Generator: Adobe Illustrator 15.1.0, SVG Export Plug-In . SVG Version: 6.00 Build 0)  -->
<!DOCTYPE svg PUBLIC "-//W3C//DTD SVG 1.1//EN" "http://www.w3.org/Graphics/SVG/1.1/DTD/svg11.dtd">
<svg version="1.1" id="Layer_1" xmlns="http://www.w3.org/2000/svg" xmlns:xlink="http://www.w3.org/1999/xlink" x="0px" y="0px"
	 width="1080px" height="1340px" viewBox="0 0 1080 1340" enable-background="new 0 0 1080 1340" xml:space="preserve">
<path fill="#474EC6" d="M573.029,1169.631L572.59,907.68c0-29.494-6.326-62.036-26.995-62.036h-10.712
	c-20.674,0-27.871,32.542-27.871,62.036l-0.69,261.03l-80.67-1.655l1.498-410.555h226v408.338L573.029,1169.631z"/>
<polygon fill="#6B4624" points="429.959,754.736 428,786.5 652.989,786.5 649.5,754.736 "/>
<line fill="none" stroke="#000000" stroke-width="10" x1="653.148" y1="789.361" x2="425.65" y2="789.361"/>
<path fill="none" stroke="#000000" stroke-width="10" d="M573.029,1169.631L572.59,907.68c0-29.494-6.326-62.036-26.995-62.036
	h-10.712c-20.674,0-27.871,32.542-27.871,62.036l-0.69,261.03l-80.67-1.655l1.498-410.555h226v408.338L573.029,1169.631z"/>
<ellipse fill="#FFFF5F" stroke="#000000" stroke-width="10" cx="540" cy="773.242" rx="26.25" ry="21.742"/>
<polygon fill="none" stroke="#000000" stroke-width="5" stroke-linecap="round" stroke-linejoin="round" points="539.399,759.475 
	543.547,767.88 552.822,769.229 546.111,775.77 547.695,785.008 539.399,780.646 531.104,785.008 532.688,775.77 525.976,769.229 
	535.251,767.88 "/>
</svg>
