<?xml version="1.0" encoding="utf-8"?>
<!-- Generator: Adobe Illustrator 19.0.0, SVG Export Plug-In . SVG Version: 6.00 Build 0)  -->
<svg version="1.1" id="Layer_1" xmlns="http://www.w3.org/2000/svg" xmlns:xlink="http://www.w3.org/1999/xlink" x="0px" y="0px"
	 viewBox="240.437 668.719 600 600" enable-background="new 240.437 668.719 600 600" xml:space="preserve">
<g>
	<g>
		<path fill="none" stroke="#000000" stroke-width="10" stroke-linecap="round" stroke-linejoin="round" stroke-miterlimit="10" d="
			M425.01,778.968c-4.556,11.04-7.947,22.522-10.103,34.214"/>
		<path fill="none" stroke="#000000" stroke-width="10" stroke-linecap="round" stroke-linejoin="round" stroke-miterlimit="10" d="
			M428.374,810.784c-3.329,7.392-6.659,14.785-9.988,22.177c-2.266,5.032-4.582,10.355-3.94,15.802"/>
		<path fill="none" stroke="#000000" stroke-width="10" stroke-linecap="round" stroke-linejoin="round" stroke-miterlimit="10" d="
			M412.925,889.664c6.286-11.012,10.99-22.853,13.935-35.085"/>
		<path fill="none" stroke="#000000" stroke-width="10" stroke-linecap="round" stroke-linejoin="round" stroke-miterlimit="10" d="
			M425.774,894.925c-7.416,11.172-12.053,24.026-13.421,37.202"/>
		<path fill="none" stroke="#000000" stroke-width="10" stroke-linecap="round" stroke-linejoin="round" stroke-miterlimit="10" d="
			M412.353,968.565c1.733-16.01,9.387-26.092,15.547-41.066"/>
		<path fill="none" stroke="#000000" stroke-width="10" stroke-linecap="round" stroke-linejoin="round" stroke-miterlimit="10" d="
			M415.608,1116.198c1.733-16.01,4.146-20.532,10.306-35.506"/>
		<path fill="none" stroke="#000000" stroke-width="10" stroke-linecap="round" stroke-linejoin="round" stroke-miterlimit="10" d="
			M425.817,995.074c-3.34,14.212-11.605,24.208-13.463,38.667"/>
		<path fill="none" stroke="#000000" stroke-width="10" stroke-linecap="round" stroke-linejoin="round" stroke-miterlimit="10" d="
			M413.713,1080.691c-2.326-7.832-0.171-16.232,2.825-23.851c2.996-7.62,6.866-15.043,8.102-23.099"/>
		<path fill="none" stroke="#000000" stroke-width="10" stroke-linecap="round" stroke-linejoin="round" stroke-miterlimit="10" d="
			M427.302,971.004c-6.893,9.74-12.092,20.579-15.318,31.935"/>
		<path fill="none" stroke="#000000" stroke-width="10" stroke-linecap="round" stroke-linejoin="round" stroke-miterlimit="10" d="
			M426.277,1117.097c2.22,10.987-11.972,19.77-11.476,30.951"/>
	</g>
	<g>
		<path fill="none" stroke="#000000" stroke-width="10" stroke-linecap="round" stroke-linejoin="round" stroke-miterlimit="10" d="
			M655.865,778.968c4.556,11.04,7.947,22.522,10.103,34.214"/>
		<path fill="none" stroke="#000000" stroke-width="10" stroke-linecap="round" stroke-linejoin="round" stroke-miterlimit="10" d="
			M652.5,810.784c3.329,7.392,6.659,14.785,9.988,22.177c2.266,5.032,4.582,10.355,3.94,15.802"/>
		<path fill="none" stroke="#000000" stroke-width="10" stroke-linecap="round" stroke-linejoin="round" stroke-miterlimit="10" d="
			M667.949,889.664c-6.286-11.012-10.99-22.853-13.935-35.085"/>
		<path fill="none" stroke="#000000" stroke-width="10" stroke-linecap="round" stroke-linejoin="round" stroke-miterlimit="10" d="
			M655.1,894.925c7.416,11.172,12.053,24.026,13.421,37.202"/>
		<path fill="none" stroke="#000000" stroke-width="10" stroke-linecap="round" stroke-linejoin="round" stroke-miterlimit="10" d="
			M668.521,968.565c-1.733-16.01-9.387-26.092-15.547-41.066"/>
		<path fill="none" stroke="#000000" stroke-width="10" stroke-linecap="round" stroke-linejoin="round" stroke-miterlimit="10" d="
			M665.266,1116.198c-1.733-16.01-4.146-20.532-10.306-35.506"/>
		<path fill="none" stroke="#000000" stroke-width="10" stroke-linecap="round" stroke-linejoin="round" stroke-miterlimit="10" d="
			M655.058,995.074c3.34,14.212,11.605,24.208,13.463,38.667"/>
		<path fill="none" stroke="#000000" stroke-width="10" stroke-linecap="round" stroke-linejoin="round" stroke-miterlimit="10" d="
			M667.162,1080.691c2.326-7.832,0.171-16.232-2.825-23.851c-2.996-7.62-6.865-15.043-8.102-23.099"/>
		<path fill="none" stroke="#000000" stroke-width="10" stroke-linecap="round" stroke-linejoin="round" stroke-miterlimit="10" d="
			M653.573,971.004c6.893,9.74,12.092,20.579,15.318,31.935"/>
		<path fill="none" stroke="#000000" stroke-width="10" stroke-linecap="round" stroke-linejoin="round" stroke-miterlimit="10" d="
			M654.598,1117.097c-2.22,10.987,11.972,19.77,11.476,30.951"/>
	</g>
	<path fill="#A57C20" stroke="#000000" stroke-width="10" stroke-miterlimit="10" d="M573.381,1175.131l-0.44-261.951
		c0-29.494-6.325-62.036-26.994-62.036h-10.713c-20.673,0-27.87,32.542-27.87,62.036l-0.691,261.03l-80.67-1.655L427.5,762h226
		v408.338L573.381,1175.131z"/>
</g>
</svg>
