<?xml version="1.0" encoding="utf-8"?>
<!-- Generator: Adobe Illustrator 15.1.0, SVG Export Plug-In . SVG Version: 6.00 Build 0)  -->
<!DOCTYPE svg PUBLIC "-//W3C//DTD SVG 1.1//EN" "http://www.w3.org/Graphics/SVG/1.1/DTD/svg11.dtd">
<svg version="1.1" id="Layer_1" xmlns="http://www.w3.org/2000/svg" xmlns:xlink="http://www.w3.org/1999/xlink" x="0px" y="0px"
	 width="504px" height="504px" viewBox="288 745.625 504 504" enable-background="new 288 745.625 504 504" xml:space="preserve">
<path fill="#9B853D" d="M581.167,1210.631L572.59,948.68c0-29.494-6.326-62.036-26.995-62.036h-10.712
	c-20.674,0-27.871,32.542-27.871,62.036l-8.544,260.78l-61.634-1.959L427.148,797.5h226l-8.862,409.98L581.167,1210.631z"/>
<polygon fill="#593F29" points="429.959,795.736 428,827.5 652.989,827.5 649.5,795.736 "/>
<line fill="none" stroke="#000000" stroke-width="10" x1="653.148" y1="830.361" x2="425.65" y2="830.361"/>
<path fill="none" stroke="#000000" stroke-width="10" d="M583.097,1210.631L572.59,948.68c0-29.494-6.326-62.036-26.995-62.036
	h-10.712c-20.674,0-27.871,32.542-27.871,62.036l-9.544,260.78l-60.634-1.959L427.148,797.5h226l-8.862,409.98L583.097,1210.631z"/>
<ellipse fill="#FFFF5F" stroke="#000000" stroke-width="10" cx="540" cy="814.242" rx="26.25" ry="21.742"/>
<polygon fill="none" stroke="#000000" stroke-width="5" stroke-linecap="round" stroke-linejoin="round" points="539.399,800.475 
	543.547,808.88 552.822,810.229 546.111,816.77 547.695,826.008 539.399,821.646 531.104,826.008 532.688,816.77 525.976,810.229 
	535.251,808.88 "/>
</svg>
