<?xml version="1.0" encoding="utf-8"?>
<!-- Generator: Adobe Illustrator 15.1.0, SVG Export Plug-In . SVG Version: 6.00 Build 0)  -->
<!DOCTYPE svg PUBLIC "-//W3C//DTD SVG 1.1//EN" "http://www.w3.org/Graphics/SVG/1.1/DTD/svg11.dtd">
<svg version="1.1" id="Layer_1" xmlns="http://www.w3.org/2000/svg" xmlns:xlink="http://www.w3.org/1999/xlink" x="0px" y="0px"
	 width="504px" height="504px" viewBox="288 733.5 504 504" enable-background="new 288 733.5 504 504" xml:space="preserve">
<path fill="#474EC6" d="M581.167,1196.631L572.59,934.68c0-29.494-6.326-62.036-26.995-62.036h-10.712
	c-20.674,0-27.871,32.542-27.871,62.036l-8.544,260.78l-61.634-1.959L427.148,783.5h226l-8.862,409.98L581.167,1196.631z"/>
<polygon fill="#6B4624" points="429.959,781.736 428,813.5 652.989,813.5 649.5,781.736 "/>
<line fill="none" stroke="#000000" stroke-width="10" x1="653.148" y1="816.361" x2="425.65" y2="816.361"/>
<path fill="none" stroke="#000000" stroke-width="10" d="M583.097,1196.631L572.59,934.68c0-29.494-6.326-62.036-26.995-62.036
	h-10.712c-20.674,0-27.871,32.542-27.871,62.036l-9.544,260.78l-60.634-1.959L427.148,783.5h226l-8.862,409.98L583.097,1196.631z"/>
<ellipse fill="#FFFF5F" stroke="#000000" stroke-width="10" cx="540" cy="800.242" rx="26.25" ry="21.742"/>
<polygon fill="none" stroke="#000000" stroke-width="5" stroke-linecap="round" stroke-linejoin="round" points="539.399,786.475 
	543.547,794.88 552.822,796.229 546.111,802.77 547.695,812.008 539.399,807.646 531.104,812.008 532.688,802.77 525.976,796.229 
	535.251,794.88 "/>
</svg>
