<?xml version="1.0" encoding="utf-8"?>
<!-- Generator: Adobe Illustrator 19.0.0, SVG Export Plug-In . SVG Version: 6.00 Build 0)  -->
<svg version="1.1" id="Layer_1" xmlns="http://www.w3.org/2000/svg" xmlns:xlink="http://www.w3.org/1999/xlink" x="0px" y="0px"
	 viewBox="0 0 1080 1340" enable-background="new 0 0 1080 1340" xml:space="preserve">
<g id="Layer_6">
	<path fill="#FBF5B9" d="M770,556.5c1-7.063,17.167-46.39,17.167-46.39l41.616,50.598l-30.296,17.837"/>
	
		<path fill="#FBF5B9" stroke="#000000" stroke-width="10" stroke-linecap="round" stroke-linejoin="round" stroke-miterlimit="10" d="
		M829.751,563.36c0,0-11.431,9.14-22.861,10.063"/>
	
		<path fill="#FBF5B9" stroke="#000000" stroke-width="10" stroke-linecap="round" stroke-linejoin="round" stroke-miterlimit="10" d="
		M826.305,544.735c-11.078,2.64-20.836,1.514-21.797-2.515s7.242-9.435,18.32-12.075c11.078-2.64,20.725-7.634,21.797,2.515
		C845.696,542.809,837.383,542.095,826.305,544.735z"/>
	
		<path fill="#FBF5B9" stroke="#000000" stroke-width="10" stroke-linecap="round" stroke-linejoin="round" stroke-miterlimit="10" d="
		M821.673,528.221c-11.078,2.64-20.836,1.514-21.797-2.515c-0.96-4.029,7.242-9.435,18.32-12.075
		c11.078-2.64,21.181-7.483,21.797,2.515C840.608,526.144,832.751,525.581,821.673,528.221z"/>
	
		<path fill="#FBF5B9" stroke="#000000" stroke-width="10" stroke-linecap="round" stroke-linejoin="round" stroke-miterlimit="10" d="
		M828.783,560.708c-8.737,2.082-16.597,0.503-17.557-3.526s5.344-8.983,14.08-11.065s16.217-6.559,17.557,3.526
		C844.204,559.728,837.519,558.626,828.783,560.708z"/>
	<g>
		<path fill="#6D6354" stroke="#000000" stroke-width="10" stroke-miterlimit="10" d="M1061.058,138.891
			c-10.012,35.766-96.583,43.635-196.149,15.765S695.988,74.575,706,38.808s95.598-41.544,195.164-13.673
			S1071.07,103.125,1061.058,138.891z M896.595,41.456c-85.997-24.072-162.708-22.141-169.271,4.854
			c-6.57,27.026,79.381,74.856,142.153,92.026c86.138,23.562,161.782,21.899,169.271-4.854S982.593,65.528,896.595,41.456z"/>
		<path fill="none" stroke="#000000" stroke-width="10" stroke-linecap="round" stroke-linejoin="round" stroke-miterlimit="10" d="
			M907.395,149.632c4.909,3.91,8.347,9.626,9.499,15.795"/>
		<path fill="none" stroke="#000000" stroke-width="10" stroke-linecap="round" stroke-linejoin="round" stroke-miterlimit="10" d="
			M931.499,152.502c4.333,2.987,6.381,8.916,4.817,13.941"/>
		<path fill="none" stroke="#000000" stroke-width="10" stroke-linecap="round" stroke-linejoin="round" stroke-miterlimit="10" d="
			M954.368,154.769c5.65,2.774,8.917,9.685,7.476,15.812"/>
		<path fill="none" stroke="#000000" stroke-width="10" stroke-linecap="round" stroke-linejoin="round" stroke-miterlimit="10" d="
			M977.453,156.685c5.597,1.437,8.77,8.717,6.011,13.796"/>
		<path fill="none" stroke="#000000" stroke-width="10" stroke-linecap="round" stroke-linejoin="round" stroke-miterlimit="10" d="
			M1001.628,155.208c5.562,2.45,7.636,10.52,3.945,15.348"/>
		<path fill="none" stroke="#000000" stroke-width="10" stroke-linecap="round" stroke-linejoin="round" stroke-miterlimit="10" d="
			M1020.496,150.654c6.032,0.153,10.83,7.092,8.844,12.79"/>
		<path fill="none" stroke="#000000" stroke-width="10" stroke-linecap="round" stroke-linejoin="round" stroke-miterlimit="10" d="
			M1031.731,143.094c8.764-3.406,20.197-3.631,24.268,5.451"/>
		<path fill="none" stroke="#000000" stroke-width="10" stroke-linecap="round" stroke-linejoin="round" stroke-miterlimit="10" d="
			M1040.905,126.698c1.673-2.146,3.408-4.346,5.767-5.702c4.779-2.746,11.623-0.91,14.386,3.86"/>
		<path fill="none" stroke="#000000" stroke-width="10" stroke-linecap="round" stroke-linejoin="round" stroke-miterlimit="10" d="
			M1034.055,114.326c-2.771-6.938,3.637-13.909,10.431-17.017"/>
		<path fill="none" stroke="#000000" stroke-width="10" stroke-linecap="round" stroke-linejoin="round" stroke-miterlimit="10" d="
			M1019.43,99.428c5.099-4.894,5.837-13.664,1.627-19.341"/>
		<path fill="none" stroke="#000000" stroke-width="10" stroke-linecap="round" stroke-linejoin="round" stroke-miterlimit="10" d="
			M1006.215,83.39c2.379-6.184,0.477-13.766-4.538-18.095"/>
		<path fill="none" stroke="#000000" stroke-width="10" stroke-linecap="round" stroke-linejoin="round" stroke-miterlimit="10" d="
			M985.575,75.564c4.756-5.536,3.98-14.928-1.619-19.609"/>
		<path fill="none" stroke="#000000" stroke-width="10" stroke-linecap="round" stroke-linejoin="round" stroke-miterlimit="10" d="
			M966.102,64.292c3.267-6.238,0.832-14.835-5.221-18.434"/>
		<path fill="none" stroke="#000000" stroke-width="10" stroke-linecap="round" stroke-linejoin="round" stroke-miterlimit="10" d="
			M943.629,56.502c2.871-6.008,1.371-13.707-6.293-19.883"/>
		<path fill="none" stroke="#000000" stroke-width="10" stroke-linecap="round" stroke-linejoin="round" stroke-miterlimit="10" d="
			M918.611,45.858c4.389-7.05,1.45-15.049-3.966-16.628"/>
		<path fill="none" stroke="#000000" stroke-width="10" stroke-linecap="round" stroke-linejoin="round" stroke-miterlimit="10" d="
			M896.426,38.808c4.357-4.56-0.374-12.936-5.609-16.454"/>
		<path fill="none" stroke="#000000" stroke-width="10" stroke-linecap="round" stroke-linejoin="round" stroke-miterlimit="10" d="
			M874.45,35.493c0.783-6.005-1.11-12.309-5.07-16.89"/>
		<path fill="none" stroke="#000000" stroke-width="10" stroke-linecap="round" stroke-linejoin="round" stroke-miterlimit="10" d="
			M851.324,29.23c2.432-7.249-1.329-12.682-7.63-17.012"/>
		<path fill="none" stroke="#000000" stroke-width="10" stroke-linecap="round" stroke-linejoin="round" stroke-miterlimit="10" d="
			M883.502,144.496c5.686,2.635,7.713,10.954,3.875,15.909"/>
		<path fill="none" stroke="#000000" stroke-width="10" stroke-linecap="round" stroke-linejoin="round" stroke-miterlimit="10" d="
			M859.545,136.245c4.178,0.732,7.746,4.183,8.615,8.334c0.87,4.152-1.013,8.744-4.546,11.091"/>
		<path fill="none" stroke="#000000" stroke-width="10" stroke-linecap="round" stroke-linejoin="round" stroke-miterlimit="10" d="
			M837.624,129.238c6.908,3.262,10.577,12.115,8.001,19.307"/>
		<path fill="none" stroke="#000000" stroke-width="10" stroke-linecap="round" stroke-linejoin="round" stroke-miterlimit="10" d="
			M815.319,118.499c8.578,3.745,8.25,14.501,6.427,21.993"/>
		<path fill="none" stroke="#000000" stroke-width="10" stroke-linecap="round" stroke-linejoin="round" stroke-miterlimit="10" d="
			M795.228,113.096c3.09,5.568,4.06,12.279,2.674,18.494"/>
		<path fill="none" stroke="#000000" stroke-width="10" stroke-linecap="round" stroke-linejoin="round" stroke-miterlimit="10" d="
			M823.568,12.393c5.394,3.443,4.402,8.58,4.468,14.979"/>
		<path fill="none" stroke="#000000" stroke-width="10" stroke-linecap="round" stroke-linejoin="round" stroke-miterlimit="10" d="
			M800.5,7.791c6.288,2.543,8.779,10.21,7.942,16.941"/>
		<path fill="none" stroke="#000000" stroke-width="10" stroke-linecap="round" stroke-linejoin="round" stroke-miterlimit="10" d="
			M783.498,7.813c3.903,5.85,7.813,7.609,6.629,14.541"/>
		<path fill="none" stroke="#000000" stroke-width="10" stroke-linecap="round" stroke-linejoin="round" stroke-miterlimit="10" d="
			M763.638,10.326c6.362,0.944,9.292,7.35,10.13,14.407"/>
		<path fill="none" stroke="#000000" stroke-width="10" stroke-linecap="round" stroke-linejoin="round" stroke-miterlimit="10" d="
			M736.906,13.535c7.147-1.932,15.881,5.72,14.735,13.034"/>
		<path fill="none" stroke="#000000" stroke-width="10" stroke-linecap="round" stroke-linejoin="round" stroke-miterlimit="10" d="
			M715.51,23.647c8.11-0.572,16.403,3.119,21.406,9.529"/>
		<path fill="none" stroke="#000000" stroke-width="10" stroke-linecap="round" stroke-linejoin="round" stroke-miterlimit="10" d="
			M705.04,50.494c1.388-11.061,14.96-7.909,18.547-4.571"/>
		<path fill="none" stroke="#000000" stroke-width="10" stroke-linecap="round" stroke-linejoin="round" stroke-miterlimit="10" d="
			M726.574,58.755c-7.192,2.094-11.705,10.728-9.32,17.828"/>
		<path fill="none" stroke="#000000" stroke-width="10" stroke-linecap="round" stroke-linejoin="round" stroke-miterlimit="10" d="
			M734.511,72.509c-5.954,7.194-2.213,16.824,4.615,23.196c-5.352-7.39-10.724-16.413-4.442-23.03"/>
		<path fill="none" stroke="#000000" stroke-width="10" stroke-linecap="round" stroke-linejoin="round" stroke-miterlimit="10" d="
			M749.951,85.589c1.127,6.925,2.254,13.85,3.38,20.775"/>
		<path fill="none" stroke="#000000" stroke-width="10" stroke-linecap="round" stroke-linejoin="round" stroke-miterlimit="10" d="
			M769.133,93.985c5.018,6.458,3.91,16.336,3.896,24.515"/>
	</g>
	<g>
		<path fill="#6D6354" stroke="#000000" stroke-width="10" stroke-miterlimit="10" d="M807.229,515.726c0,0,7.207-70.129,3.4-86.726
			c-11.412-49.751-61.2-55.637-43.743-87.123c22.5-40.583,87.453,3.731,127.989-34.174c40.536-37.905-6.663-106.649-65.124-164.245
			l35.158,11.199c52.925,52.51,74.258,108.51,55.46,149.095c-14.217,30.694-52.838,38.837-77.333,39.055
			c-28.843,0.257-47.714-9.322-58.535,7.694c-8.903,14,33.82,24.667,44.283,78.5c3.249,16.715-4.208,81.11-4.208,81.11
			L807.229,515.726z"/>
		<path fill="none" stroke="#000000" stroke-width="10" stroke-linecap="round" stroke-linejoin="round" stroke-miterlimit="10" d="
			M865.775,155.403c2.773,7.893,1.369,17.125-3.625,23.837"/>
		<path fill="none" stroke="#000000" stroke-width="10" stroke-linecap="round" stroke-linejoin="round" stroke-miterlimit="10" d="
			M883.424,175.514c1.422,7.635-2.279,15.966-8.898,20.029"/>
		<path fill="none" stroke="#000000" stroke-width="10" stroke-linecap="round" stroke-linejoin="round" stroke-miterlimit="10" d="
			M896.544,194.503c-0.524,7.164-3.795,14.093-8.993,19.05"/>
		<path fill="none" stroke="#000000" stroke-width="10" stroke-linecap="round" stroke-linejoin="round" stroke-miterlimit="10" d="
			M906.223,215.638c3.371,6.787,0.76,15.939-5.684,19.926"/>
		<path fill="none" stroke="#000000" stroke-width="10" stroke-linecap="round" stroke-linejoin="round" stroke-miterlimit="10" d="
			M922.325,241.52c0.901,8.09-3.43,16.523-10.531,20.504"/>
		<path fill="none" stroke="#000000" stroke-width="10" stroke-linecap="round" stroke-linejoin="round" stroke-miterlimit="10" d="
			M926.704,273.581c-2.571,6.426-9.283,10.961-16.204,10.949"/>
		<path fill="none" stroke="#000000" stroke-width="10" stroke-linecap="round" stroke-linejoin="round" stroke-miterlimit="10" d="
			M920.325,303.372c-4.272,5.838-13.985,6.511-19.022,1.318"/>
		<path fill="none" stroke="#000000" stroke-width="10" stroke-linecap="round" stroke-linejoin="round" stroke-miterlimit="10" d="
			M904.559,324.014c-4.651,0.868-9.39,1.739-14.086,1.166c-4.696-0.573-9.429-2.828-11.829-6.905"/>
		<path fill="none" stroke="#000000" stroke-width="10" stroke-linecap="round" stroke-linejoin="round" stroke-miterlimit="10" d="
			M847.52,327.475c7.182,5.606,15.899,9.223,24.94,10.349"/>
		<path fill="none" stroke="#000000" stroke-width="10" stroke-linecap="round" stroke-linejoin="round" stroke-miterlimit="10" d="
			M820.238,325.59c2.562,7.424,8.793,13.48,16.287,15.829"/>
		<path fill="none" stroke="#000000" stroke-width="10" stroke-linecap="round" stroke-linejoin="round" stroke-miterlimit="10" d="
			M798.661,324.496c0.179,7.094,4.43,13.944,10.708,17.253"/>
		<path fill="none" stroke="#000000" stroke-width="10" stroke-linecap="round" stroke-linejoin="round" stroke-miterlimit="10" d="
			M780.775,333.661c-3.323,5.669-1.143,13.862,4.558,17.13"/>
		<path fill="none" stroke="#000000" stroke-width="10" stroke-linecap="round" stroke-linejoin="round" stroke-miterlimit="10" d="
			M766.04,348.474c-0.34,5.982,2.459,12.056,7.227,15.685c4.768,3.629,11.369,4.707,17.044,2.784"/>
		<path fill="none" stroke="#000000" stroke-width="10" stroke-linecap="round" stroke-linejoin="round" stroke-miterlimit="10" d="
			M783.811,381.914c6.625,3.511,14.296,5.019,21.758,4.276"/>
		<path fill="none" stroke="#000000" stroke-width="10" stroke-linecap="round" stroke-linejoin="round" stroke-miterlimit="10" d="
			M798.797,402.322c1.414,4.112,5.502,6.84,9.737,7.827c4.235,0.986,8.656,0.523,12.979,0.054"/>
		<path fill="none" stroke="#000000" stroke-width="10" stroke-linecap="round" stroke-linejoin="round" stroke-miterlimit="10" d="
			M808.75,426.361c3.937,7.051,13.371,10.444,20.897,7.517"/>
		<path fill="none" stroke="#000000" stroke-width="10" stroke-linecap="round" stroke-linejoin="round" stroke-miterlimit="10" d="
			M811.321,473.56c2.445,7.263,9.511,12.731,17.155,13.276"/>
		<path fill="none" stroke="#000000" stroke-width="10" stroke-linecap="round" stroke-linejoin="round" stroke-miterlimit="10" d="
			M813.5,493.5c0.333,0,0.667,0,1,0"/>
		<path fill="none" stroke="#000000" stroke-width="10" stroke-linecap="round" stroke-linejoin="round" stroke-miterlimit="10" d="
			M813.503,448.5c0.772,6.921,7.033,12.811,13.989,13.159"/>
	</g>
	<g>
		
			<path fill="#6D6354" stroke="#000000" stroke-width="10" stroke-linecap="round" stroke-linejoin="round" stroke-miterlimit="10" d="
			M818.325,566.442c-0.376,45.525,22.032,84.178,47.929,96.48c25.897,12.301,75.393,21.319,74.077,60.207
			c-0.95,28.078-22.427,38.723-22.932,43.547c-0.504,4.824,14.049,7.586,14.049,7.586s11.929,0.196,24.363-36.148
			c0,0,13.862-41.853-27.491-65.07c-38.181-21.436-55.04-20.403-71.754-42.876c-24.569-33.036-21.422-69.872-21.422-69.872
			L818.325,566.442z"/>
		<path fill="none" stroke="#000000" stroke-width="10" stroke-linecap="round" stroke-linejoin="round" stroke-miterlimit="10" d="
			M817.626,576.392c4.639,5.409,10.968,9.348,17.87,11.121"/>
		<path fill="none" stroke="#000000" stroke-width="10" stroke-linecap="round" stroke-linejoin="round" stroke-miterlimit="10" d="
			M821.891,599.757c3.451,8.171,12.749,13.435,21.531,12.189"/>
		<path fill="none" stroke="#000000" stroke-width="10" stroke-linecap="round" stroke-linejoin="round" stroke-miterlimit="10" d="
			M834.24,626.854c5.653,4.162,13.946,4.314,19.747,0.361"/>
		<path fill="none" stroke="#000000" stroke-width="10" stroke-linecap="round" stroke-linejoin="round" stroke-miterlimit="10" d="
			M847.734,648.192c5.334,4.052,13.91,2.787,17.847-2.633"/>
		<path fill="none" stroke="#000000" stroke-width="10" stroke-linecap="round" stroke-linejoin="round" stroke-miterlimit="10" d="
			M869.268,663.413c6.755,1.718,14.478-1.968,17.391-8.3"/>
		<path fill="none" stroke="#000000" stroke-width="10" stroke-linecap="round" stroke-linejoin="round" stroke-miterlimit="10" d="
			M892.505,673.461c6.793,0.798,13.908-2.468,17.731-8.14"/>
		<path fill="none" stroke="#000000" stroke-width="10" stroke-linecap="round" stroke-linejoin="round" stroke-miterlimit="10" d="
			M915.395,681.74c5.426,2.373,12.458,0.071,15.431-5.052"/>
		<path fill="none" stroke="#000000" stroke-width="10" stroke-linecap="round" stroke-linejoin="round" stroke-miterlimit="10" d="
			M930.2,693.159c4.775,2.175,10.438,2.315,15.315,0.379"/>
		<path fill="none" stroke="#000000" stroke-width="10" stroke-linecap="round" stroke-linejoin="round" stroke-miterlimit="10" d="
			M939.267,712.57c2.098,6.954,10.377,11.343,17.31,9.176"/>
		<path fill="none" stroke="#000000" stroke-width="10" stroke-linecap="round" stroke-linejoin="round" stroke-miterlimit="10" d="
			M939.969,732.383c-1.303,5.893,2.094,12.477,7.652,14.831"/>
		<path fill="none" stroke="#000000" stroke-width="10" stroke-linecap="round" stroke-linejoin="round" stroke-miterlimit="10" d="
			M929.67,754.538c-1.513,6.749,3.123,14.276,9.831,15.961"/>
	</g>
	
		<path fill="#FBF5B9" stroke="#000000" stroke-width="10" stroke-linecap="round" stroke-linejoin="round" stroke-miterlimit="10" d="
		M770,556.5c0,0,2.957-9.08,5.597-16.739c2.64-7.659,1.382-21.248,18.255-35.324c13.146-10.966,45.217-6.152,38.986,6.361
		c-3.088,6.202-14.189,1.333-25.609,4.928c-5.722,1.801-6.898,6.672-7.352,9.98"/>
</g>
</svg>
