<?xml version="1.0" encoding="utf-8"?>
<!-- Generator: Adobe Illustrator 15.1.0, SVG Export Plug-In . SVG Version: 6.00 Build 0)  -->
<!DOCTYPE svg PUBLIC "-//W3C//DTD SVG 1.1//EN" "http://www.w3.org/Graphics/SVG/1.1/DTD/svg11.dtd">
<svg version="1.1" id="Layer_1" xmlns="http://www.w3.org/2000/svg" xmlns:xlink="http://www.w3.org/1999/xlink" x="0px" y="0px"
	 width="1080px" height="1340px" viewBox="0 0 1080 1340" enable-background="new 0 0 1080 1340" xml:space="preserve">
<g>
	
		<polyline fill="#560606" stroke="#000000" stroke-width="10" stroke-linecap="round" stroke-linejoin="round" stroke-miterlimit="10" points="
		497.396,1234.778 497.396,1249.611 467.923,1255.161 465.053,1246.778 	"/>
	<path fill="#FFCFFF" d="M407.877,1033.366c0,0,21.29,89.724,23.956,165.884c-27.94,16.243-62.333,30.188-74.333,33.25
		c1.666,4.008,9.403,13.477,12.236,16.385c3.258,0.682,30.237,25.229,86.31-3.849l40.704-20.046c0,0,11.666-143.941,17-185.157
		c0,0-10.466-72.72-69.25,22.667C434,1043.684,407.877,1033.366,407.877,1033.366z"/>
	<path fill="#722C1E" d="M405.833,1027.167l8.178,37.519c0,0,21.335,7.979,30.334,18.143c0,0,43.951-57.17,66.976-27.837v-21
		c0,0-7.488-60.157-66.811,30.333C444.512,1064.323,413.833,1024.834,405.833,1027.167z"/>
	<path fill="#722C1E" d="M355.833,1234.778c0,0,35.667-10.65,41-17.298c0,0,31.83-15.485,39.082-15.566l-2.26-12.747
		c0,0,7.512-2.667,8.845-11.167l18.296,17.833c0,0-19.63,35,35.704,16l-0.78,18.92C495.72,1230.753,396.25,1290.25,355.833,1234.778
		z"/>
	<path fill="none" stroke="#000000" stroke-width="10" stroke-linecap="round" stroke-linejoin="round" stroke-miterlimit="10" d="
		M405.833,1027.167c0,0,25.176,96.84,27.842,173c-27.94,16.243-30.135,15.264-36.175,18.333
		c-12.492,6.348-26.278,12.17-38.278,15.232c1.666,4.008,7.681,12.244,10.514,15.151c3.258,0.682,29.264,24.865,86.764-0.974
		l40.941-17.91c0,0,7.034-148.146,12.368-189.363c0,0,3.94-72.804-65.31,21.863C434,1043.684,405.833,1027.167,405.833,1027.167z"/>
	<path fill="none" stroke="#000000" stroke-width="10" stroke-linecap="round" stroke-linejoin="round" stroke-miterlimit="10" d="
		M415.012,1064.686c0,0,17.155,8.392,29.488,24.392c10.488-8,52-71.576,62.7-26.917"/>
	<path fill="none" stroke="#000000" stroke-width="10" stroke-linecap="round" stroke-linejoin="round" stroke-miterlimit="10" d="
		M434.742,1188.501c0,0,6.258-1.501,10.258-10.501c0,0,5.75,9.693,14.25,14.411c0,0-13.25,30.089,14.75,24.339
		c0,0,9.83,0.962,22.5-8.564"/>
	<g>
		
			<line fill="none" stroke="#000000" stroke-width="10" stroke-linecap="round" stroke-linejoin="round" x1="444.5" y1="1089.913" x2="444.5" y2="1113.354"/>
		
			<line fill="none" stroke="#000000" stroke-width="10" stroke-linecap="round" stroke-linejoin="round" x1="458.577" y1="1078.751" x2="458.577" y2="1102.191"/>
		
			<line fill="none" stroke="#000000" stroke-width="10" stroke-linecap="round" stroke-linejoin="round" x1="471.75" y1="1064.957" x2="471.75" y2="1088.396"/>
		
			<line fill="none" stroke="#000000" stroke-width="10" stroke-linecap="round" stroke-linejoin="round" x1="484" y1="1054.396" x2="484" y2="1077.837"/>
		
			<line fill="none" stroke="#000000" stroke-width="10" stroke-linecap="round" stroke-linejoin="round" x1="497.5" y1="1050.534" x2="497.5" y2="1073.976"/>
		
			<line fill="none" stroke="#000000" stroke-width="10" stroke-linecap="round" stroke-linejoin="round" x1="507.2" y1="1057.737" x2="507.2" y2="1081.178"/>
		
			<line fill="none" stroke="#000000" stroke-width="10" stroke-linecap="round" stroke-linejoin="round" x1="430.25" y1="1078.111" x2="430.25" y2="1101.552"/>
		
			<line fill="none" stroke="#000000" stroke-width="10" stroke-linecap="round" stroke-linejoin="round" x1="415.75" y1="1067.391" x2="415.75" y2="1090.831"/>
	</g>
</g>
<g>
	
		<polyline fill="#560606" stroke="#000000" stroke-width="10" stroke-linecap="round" stroke-linejoin="round" stroke-miterlimit="10" points="
		615.53,1246.778 612.66,1255.161 583.188,1249.611 583.188,1234.778 	"/>
	<path fill="#FFCFFF" d="M636.083,1062.5c-58.784-95.387-69.25-22.667-69.25-22.667c5.334,41.216,17,185.157,17,185.157
		l40.704,20.046c56.072,29.077,83.052,4.53,86.311,3.849c2.832-2.908,10.569-12.377,12.235-16.385
		c-12-3.063-46.394-17.007-74.333-33.25c2.666-76.16,23.956-165.884,23.956-165.884S646.583,1043.684,636.083,1062.5z"/>
	<path fill="#722C1E" d="M636.072,1064.324c-59.322-90.49-66.811-30.333-66.811-30.333v21
		c23.024-29.333,66.976,27.837,66.976,27.837c8.999-10.163,30.335-18.143,30.335-18.143l8.178-37.519
		C666.75,1024.834,636.071,1064.323,636.072,1064.324z"/>
	<path fill="#722C1E" d="M584.863,1230.753l-0.78-18.92c55.334,19,35.704-16,35.704-16L638.083,1178
		c1.333,8.5,8.845,11.167,8.845,11.167l-2.26,12.747c7.252,0.081,39.082,15.566,39.082,15.566c5.333,6.647,41,17.298,41,17.298
		C684.333,1290.25,584.863,1230.753,584.863,1230.753z"/>
	<path fill="none" stroke="#000000" stroke-width="10" stroke-linecap="round" stroke-linejoin="round" stroke-miterlimit="10" d="
		M636.083,1062.5c-69.25-94.667-65.31-21.863-65.31-21.863c5.334,41.217,12.368,189.363,12.368,189.363l40.941,17.91
		c57.5,25.839,83.506,1.655,86.765,0.974c2.832-2.907,8.848-11.144,10.514-15.151c-12-3.063-25.786-8.885-38.278-15.232
		c-6.04-3.069-8.235-2.09-36.175-18.333c2.666-76.16,27.842-173,27.842-173S646.583,1043.684,636.083,1062.5z"/>
	<path fill="none" stroke="#000000" stroke-width="10" stroke-linecap="round" stroke-linejoin="round" stroke-miterlimit="10" d="
		M573.383,1062.16c10.7-44.659,52.212,18.917,62.7,26.917c12.333-16,29.487-24.392,29.487-24.392"/>
	<path fill="none" stroke="#000000" stroke-width="10" stroke-linecap="round" stroke-linejoin="round" stroke-miterlimit="10" d="
		M584.083,1208.186c12.67,9.526,22.5,8.564,22.5,8.564c28,5.75,14.75-24.339,14.75-24.339c8.5-4.718,14.25-14.411,14.25-14.411
		c4,9,10.258,10.501,10.258,10.501"/>
	<g>
		
			<line fill="none" stroke="#000000" stroke-width="10" stroke-linecap="round" stroke-linejoin="round" x1="636.083" y1="1113.354" x2="636.083" y2="1089.913"/>
		
			<line fill="none" stroke="#000000" stroke-width="10" stroke-linecap="round" stroke-linejoin="round" x1="622.006" y1="1102.191" x2="622.006" y2="1078.751"/>
		
			<line fill="none" stroke="#000000" stroke-width="10" stroke-linecap="round" stroke-linejoin="round" x1="608.833" y1="1088.396" x2="608.833" y2="1064.957"/>
		
			<line fill="none" stroke="#000000" stroke-width="10" stroke-linecap="round" stroke-linejoin="round" x1="596.583" y1="1077.837" x2="596.583" y2="1054.396"/>
		
			<line fill="none" stroke="#000000" stroke-width="10" stroke-linecap="round" stroke-linejoin="round" x1="583.083" y1="1073.976" x2="583.083" y2="1050.534"/>
		
			<line fill="none" stroke="#000000" stroke-width="10" stroke-linecap="round" stroke-linejoin="round" x1="573.383" y1="1081.178" x2="573.383" y2="1057.737"/>
		
			<line fill="none" stroke="#000000" stroke-width="10" stroke-linecap="round" stroke-linejoin="round" x1="650.333" y1="1101.552" x2="650.333" y2="1078.111"/>
		
			<line fill="none" stroke="#000000" stroke-width="10" stroke-linecap="round" stroke-linejoin="round" x1="664.833" y1="1090.831" x2="664.833" y2="1067.391"/>
	</g>
</g>
</svg>
