<?xml version="1.0" encoding="utf-8"?>
<!-- Generator: Adobe Illustrator 19.0.0, SVG Export Plug-In . SVG Version: 6.00 Build 0)  -->
<svg version="1.1" id="Layer_1" xmlns="http://www.w3.org/2000/svg" xmlns:xlink="http://www.w3.org/1999/xlink" x="0px" y="0px"
	 viewBox="339.751 1018.524 400 400" enable-background="new 339.751 1018.524 400 400" xml:space="preserve">
<g id="Layer_4_1_">
	<g>
		
			<polygon fill="#FFFF00" stroke="#000000" stroke-width="10" stroke-linecap="round" stroke-linejoin="round" stroke-miterlimit="10" points="
			573.302,1175.504 581.467,1190.897 599.718,1193.361 586.516,1205.346 589.638,1222.266 573.311,1214.28 556.991,1222.272 
			560.102,1205.352 546.894,1193.373 565.143,1190.9 		"/>
		
			<path fill="#662808" stroke="#000000" stroke-width="10" stroke-linecap="round" stroke-linejoin="round" stroke-miterlimit="10" d="
			M642.968,1194.956c0,0,51.339,40.5,80.272,15.5c5.549,42-28.934,56-63.653,49.618c-16.283-2.993-76.916-25.118-76.916-25.118
			l0.83-56.5l61.436-2L642.968,1194.956z"/>
		
			<polygon fill="#FFFF00" stroke="#000000" stroke-width="10" stroke-linecap="round" stroke-linejoin="round" stroke-miterlimit="10" points="
			506.302,1175.504 514.467,1190.897 532.718,1193.361 519.516,1205.346 522.638,1222.266 506.311,1214.28 489.991,1222.272 
			493.102,1205.352 479.894,1193.373 498.143,1190.9 		"/>
		
			<path fill="#662808" stroke="#000000" stroke-width="10" stroke-linecap="round" stroke-linejoin="round" stroke-miterlimit="10" d="
			M436.534,1194.956c0,0-51.339,40.5-80.272,15.5c-5.549,42,28.934,56,63.653,49.618c16.283-2.993,76.916-25.118,76.916-25.118
			l-0.83-56.5l-61.436-2L436.534,1194.956z"/>
	</g>
</g>
</svg>
