<?xml version="1.0" encoding="utf-8"?>
<!-- Generator: Adobe Illustrator 15.1.0, SVG Export Plug-In . SVG Version: 6.00 Build 0)  -->
<!DOCTYPE svg PUBLIC "-//W3C//DTD SVG 1.1//EN" "http://www.w3.org/Graphics/SVG/1.1/DTD/svg11.dtd">
<svg version="1.1" id="Layer_1" xmlns="http://www.w3.org/2000/svg" xmlns:xlink="http://www.w3.org/1999/xlink" x="0px" y="0px"
	 width="504px" height="504px" viewBox="288 902 504 504" enable-background="new 288 902 504 504" xml:space="preserve">
<g>
	
		<polyline fill="#560606" stroke="#000000" stroke-width="10" stroke-linecap="round" stroke-linejoin="round" stroke-miterlimit="10" points="
		497.396,1234.778 497.396,1249.611 467.923,1255.161 465.053,1246.778 	"/>
	
		<path fill="#560606" stroke="#000000" stroke-width="10" stroke-linecap="round" stroke-linejoin="round" stroke-miterlimit="10" d="
		M401.143,1096.583c0,0,32.106,48.665,34.772,105.331c-27.94,12.086-31.918,14.798-39.415,18.336c-11.833,5.584-26,20-34.999,28.602
		c1.666,2.981,11.832,7.981,14.666,10.146c3.258,0.507,36.333,6.253,79.879-10.332l40.704-14.915c0,0,7.726-106.501,13.06-137.167
		c0,0-8.025-46.055-66.81,24.917C432.5,1107.5,401.143,1096.583,401.143,1096.583z"/>
</g>
<g>
	
		<polyline fill="#560606" stroke="#000000" stroke-width="10" stroke-linecap="round" stroke-linejoin="round" stroke-miterlimit="10" points="
		615.258,1246.778 612.388,1255.161 582.915,1249.611 582.915,1234.778 	"/>
	
		<path fill="#560606" stroke="#000000" stroke-width="10" stroke-linecap="round" stroke-linejoin="round" stroke-miterlimit="10" d="
		M637.311,1121.5c-58.784-70.972-66.81-24.917-66.81-24.917c5.334,30.666,13.06,137.167,13.06,137.167l40.704,14.915
		c43.546,16.585,76.621,10.839,79.879,10.332c2.834-2.164,13-7.164,14.666-10.146c-8.999-8.602-23.166-23.018-34.999-28.602
		c-7.497-3.538-11.475-6.25-39.415-18.336c2.666-56.666,34.772-105.331,34.772-105.331S647.811,1107.5,637.311,1121.5z"/>
</g>
</svg>
