<?xml version="1.0" encoding="utf-8"?>
<!-- Generator: Adobe Illustrator 15.1.0, SVG Export Plug-In . SVG Version: 6.00 Build 0)  -->
<!DOCTYPE svg PUBLIC "-//W3C//DTD SVG 1.1//EN" "http://www.w3.org/Graphics/SVG/1.1/DTD/svg11.dtd">
<svg version="1.1" id="Layer_1" xmlns="http://www.w3.org/2000/svg" xmlns:xlink="http://www.w3.org/1999/xlink" x="0px" y="0px"
	 width="1080px" height="1340px" viewBox="0 0 1080 1340" enable-background="new 0 0 1080 1340" xml:space="preserve">
<g>
	<g>
		
			<polyline fill="#560606" stroke="#000000" stroke-width="10" stroke-linecap="round" stroke-linejoin="round" stroke-miterlimit="10" points="
			497.396,1234.778 497.396,1249.611 467.923,1255.161 465.053,1246.778 		"/>
		
			<path fill="#560606" stroke="#000000" stroke-width="10" stroke-linecap="round" stroke-linejoin="round" stroke-miterlimit="10" d="
			M401.143,1096.583c0,0,32.106,48.665,34.772,105.331c-27.94,12.086-31.918,14.798-39.415,18.336c-11.833,5.584-27,12.25-39,14.528
			c1.666,2.981,9.403,14.586,12.236,16.75c3.258,0.507,30.237,18.771,86.31-2.863l40.704-14.915c0,0,7.726-106.501,13.06-137.167
			c0,0-8.025-46.055-66.81,24.917C432.5,1107.5,401.143,1096.583,401.143,1096.583z"/>
	</g>
	<path fill="none" stroke="#000000" stroke-width="10" stroke-linecap="round" stroke-linejoin="round" stroke-miterlimit="10" d="
		M414.391,1121.052c0,0,24.109,10.448,30.109,21.448c0,0,50.4-70.834,62.7-26.917"/>
	<path fill="none" stroke="#000000" stroke-width="10" stroke-linecap="round" stroke-linejoin="round" stroke-miterlimit="10" d="
		M434.742,1188.501c0,0,6.258-1.501,10.258-10.501c0,0,5.75,9.693,14.25,14.411c0,0-13.25,30.089,14.75,24.339
		c0,0,12.16-0.697,24.83-10.224"/>
</g>
<g>
	<g>
		
			<polyline fill="#560606" stroke="#000000" stroke-width="10" stroke-linecap="round" stroke-linejoin="round" stroke-miterlimit="10" points="
			616.257,1246.778 613.387,1255.161 583.914,1249.611 583.914,1234.778 		"/>
		
			<path fill="#560606" stroke="#000000" stroke-width="10" stroke-linecap="round" stroke-linejoin="round" stroke-miterlimit="10" d="
			M638.31,1121.5c-58.784-70.972-66.81-24.917-66.81-24.917c5.334,30.666,13.06,137.167,13.06,137.167l40.704,14.915
			c56.072,21.634,83.052,3.37,86.311,2.863c2.832-2.164,10.569-13.769,12.235-16.75c-12-2.278-27.167-8.944-39-14.528
			c-7.497-3.538-11.476-6.25-39.415-18.336c2.666-56.666,34.771-105.331,34.771-105.331S648.81,1107.5,638.31,1121.5z"/>
	</g>
	<path fill="none" stroke="#000000" stroke-width="10" stroke-linecap="round" stroke-linejoin="round" stroke-miterlimit="10" d="
		M574.109,1115.583c12.3-43.917,62.7,26.917,62.7,26.917c6-11,30.108-21.448,30.108-21.448"/>
	<path fill="none" stroke="#000000" stroke-width="10" stroke-linecap="round" stroke-linejoin="round" stroke-miterlimit="10" d="
		M582.479,1206.526c12.67,9.526,24.83,10.224,24.83,10.224c28,5.75,14.75-24.339,14.75-24.339c8.5-4.718,14.25-14.411,14.25-14.411
		c4,9,10.258,10.501,10.258,10.501"/>
</g>
</svg>
