<?xml version="1.0" encoding="utf-8"?>
<!-- Generator: Adobe Illustrator 15.1.0, SVG Export Plug-In . SVG Version: 6.00 Build 0)  -->
<!DOCTYPE svg PUBLIC "-//W3C//DTD SVG 1.1//EN" "http://www.w3.org/Graphics/SVG/1.1/DTD/svg11.dtd">
<svg version="1.1" id="Layer_1" xmlns="http://www.w3.org/2000/svg" xmlns:xlink="http://www.w3.org/1999/xlink" x="0px" y="0px"
	 width="432px" height="432px" viewBox="36 36 432 432" enable-background="new 36 36 432 432" xml:space="preserve">
<g>
	
		<polyline fill="#560606" stroke="#000000" stroke-width="10" stroke-linecap="round" stroke-linejoin="round" stroke-miterlimit="10" points="
		497.396,1234.778 497.396,1249.611 467.923,1255.161 465.053,1246.778 	"/>
	<path fill="#820808" d="M401.143,1096.583c0,0,32.106,48.665,34.772,105.331c-27.94,12.086-31.918,14.798-39.415,18.336
		c-11.833,5.584-27,12.25-39,14.528c1.666,2.98,9.402,14.586,12.236,16.75c3.258,0.507,30.236,18.771,86.31-2.863l40.704-14.915
		c0,0,7.726-106.501,13.06-137.167c0,0-8.024-46.055-66.81,24.917C432.5,1107.5,401.143,1096.583,401.143,1096.583z"/>
	<path fill="#592417" d="M400.167,1099.167l12.333,22.695c0,0,21.336,7.979,30.335,18.142c0,0,43.951-57.17,66.975-27.837v-21
		c0,0-13.977-32.334-66.81,30.333C443,1121.5,408.167,1096.834,400.167,1099.167z"/>
	<path fill="#592417" d="M355.833,1234.778c0,0,35.667-10.65,41-17.298c0,0,31.83-15.485,39.082-15.566l-2.26-12.747
		c0,0,7.512-2.667,8.845-11.167l18.296,17.833c0,0-19.63,35,35.704,16l-2.556,22.945
		C493.944,1234.778,369.833,1287.39,355.833,1234.778z"/>
	<path fill="none" stroke="#000000" stroke-width="10" stroke-linecap="round" stroke-linejoin="round" stroke-miterlimit="10" d="
		M401.143,1096.583c0,0,32.106,48.665,34.772,105.331c-27.94,12.086-31.918,14.798-39.415,18.336c-11.833,5.584-27,12.25-39,14.528
		c1.666,2.98,9.402,14.586,12.236,16.75c3.258,0.507,30.236,18.771,86.31-2.863l40.704-14.915c0,0,7.726-106.501,13.06-137.167
		c0,0-8.024-46.055-66.81,24.917C432.5,1107.5,401.143,1096.583,401.143,1096.583z"/>
	<path fill="none" stroke="#000000" stroke-width="10" stroke-linecap="round" stroke-linejoin="round" stroke-miterlimit="10" d="
		M414.391,1121.052c0,0,17.776,5.448,30.109,21.448c10.488-8,47.333-66.333,62.7-26.917"/>
	<path fill="none" stroke="#000000" stroke-width="10" stroke-linecap="round" stroke-linejoin="round" stroke-miterlimit="10" d="
		M434.742,1188.501c0,0,6.258-1.501,10.258-10.501c0,0,5.75,9.693,14.25,14.411c0,0-13.25,30.089,14.75,24.339
		c0,0,12.16-0.697,24.83-10.224"/>
	<g>
		
			<line fill="none" stroke="#000000" stroke-width="10" stroke-linecap="round" stroke-linejoin="round" x1="444.5" y1="1140.913" x2="444.5" y2="1164.354"/>
		
			<line fill="none" stroke="#000000" stroke-width="10" stroke-linecap="round" stroke-linejoin="round" x1="456.5" y1="1131.751" x2="456.5" y2="1155.191"/>
		
			<line fill="none" stroke="#000000" stroke-width="10" stroke-linecap="round" stroke-linejoin="round" x1="468.5" y1="1118.73" x2="468.5" y2="1142.171"/>
		
			<line fill="none" stroke="#000000" stroke-width="10" stroke-linecap="round" stroke-linejoin="round" x1="480.5" y1="1108.396" x2="480.5" y2="1131.837"/>
		
			<line fill="none" stroke="#000000" stroke-width="10" stroke-linecap="round" stroke-linejoin="round" x1="492.167" y1="1103.284" x2="492.167" y2="1126.726"/>
		
			<line fill="none" stroke="#000000" stroke-width="10" stroke-linecap="round" stroke-linejoin="round" x1="503.833" y1="1108.982" x2="503.833" y2="1132.423"/>
		
			<line fill="none" stroke="#000000" stroke-width="10" stroke-linecap="round" stroke-linejoin="round" x1="431.833" y1="1134.111" x2="431.833" y2="1157.552"/>
		
			<line fill="none" stroke="#000000" stroke-width="10" stroke-linecap="round" stroke-linejoin="round" x1="418.5" y1="1122.391" x2="418.5" y2="1145.831"/>
	</g>
</g>
<g>
	
		<polyline fill="#560606" stroke="#000000" stroke-width="10" stroke-linecap="round" stroke-linejoin="round" stroke-miterlimit="10" points="
		615.59,1246.778 612.72,1255.161 583.247,1249.611 583.247,1234.778 	"/>
	<path fill="#820808" d="M637.643,1121.5c-58.783-70.972-66.81-24.917-66.81-24.917c5.334,30.666,13.06,137.167,13.06,137.167
		l40.704,14.915c56.073,21.634,83.053,3.37,86.311,2.863c2.834-2.164,10.569-13.77,12.235-16.75c-12-2.278-27.167-8.944-39-14.528
		c-7.497-3.538-11.475-6.25-39.415-18.336c2.666-56.666,34.772-105.331,34.772-105.331S648.143,1107.5,637.643,1121.5z"/>
	<path fill="#592417" d="M637.643,1121.5c-52.833-62.667-66.81-30.333-66.81-30.333v21c23.023-29.333,66.975,27.837,66.975,27.837
		c8.999-10.163,30.335-18.142,30.335-18.142l12.333-22.695C672.476,1096.834,637.643,1121.5,637.643,1121.5z"/>
	<path fill="#592417" d="M586.698,1234.778l-2.557-22.945c55.334,19,35.704-16,35.704-16L638.143,1178
		c1.333,8.5,8.846,11.167,8.846,11.167l-2.261,12.747c7.252,0.081,39.082,15.566,39.082,15.566c5.333,6.646,41,17.298,41,17.298
		C710.81,1287.39,586.698,1234.778,586.698,1234.778z"/>
	<path fill="none" stroke="#000000" stroke-width="10" stroke-linecap="round" stroke-linejoin="round" stroke-miterlimit="10" d="
		M637.643,1121.5c-58.783-70.972-66.81-24.917-66.81-24.917c5.334,30.666,13.06,137.167,13.06,137.167l40.704,14.915
		c56.073,21.634,83.053,3.37,86.311,2.863c2.834-2.164,10.569-13.77,12.235-16.75c-12-2.278-27.167-8.944-39-14.528
		c-7.497-3.538-11.475-6.25-39.415-18.336c2.666-56.666,34.772-105.331,34.772-105.331S648.143,1107.5,637.643,1121.5z"/>
	<path fill="none" stroke="#000000" stroke-width="10" stroke-linecap="round" stroke-linejoin="round" stroke-miterlimit="10" d="
		M573.442,1115.583c15.366-39.416,52.212,18.917,62.699,26.917c12.333-16,30.109-21.448,30.109-21.448"/>
	<path fill="none" stroke="#000000" stroke-width="10" stroke-linecap="round" stroke-linejoin="round" stroke-miterlimit="10" d="
		M581.813,1206.526c12.67,9.525,24.829,10.224,24.829,10.224c28,5.75,14.75-24.339,14.75-24.339
		c8.5-4.718,14.25-14.411,14.25-14.411c4,9,10.259,10.501,10.259,10.501"/>
	<g>
		
			<line fill="none" stroke="#000000" stroke-width="10" stroke-linecap="round" stroke-linejoin="round" x1="636.143" y1="1164.354" x2="636.143" y2="1140.913"/>
		
			<line fill="none" stroke="#000000" stroke-width="10" stroke-linecap="round" stroke-linejoin="round" x1="624.143" y1="1155.191" x2="624.143" y2="1131.751"/>
		
			<line fill="none" stroke="#000000" stroke-width="10" stroke-linecap="round" stroke-linejoin="round" x1="612.143" y1="1142.171" x2="612.143" y2="1118.73"/>
		
			<line fill="none" stroke="#000000" stroke-width="10" stroke-linecap="round" stroke-linejoin="round" x1="600.143" y1="1131.837" x2="600.143" y2="1108.396"/>
		
			<line fill="none" stroke="#000000" stroke-width="10" stroke-linecap="round" stroke-linejoin="round" x1="588.476" y1="1126.726" x2="588.476" y2="1103.284"/>
		
			<line fill="none" stroke="#000000" stroke-width="10" stroke-linecap="round" stroke-linejoin="round" x1="576.81" y1="1132.423" x2="576.81" y2="1108.982"/>
		
			<line fill="none" stroke="#000000" stroke-width="10" stroke-linecap="round" stroke-linejoin="round" x1="648.81" y1="1157.552" x2="648.81" y2="1134.111"/>
		
			<line fill="none" stroke="#000000" stroke-width="10" stroke-linecap="round" stroke-linejoin="round" x1="662.143" y1="1145.831" x2="662.143" y2="1122.391"/>
	</g>
</g>
</svg>
