<?xml version="1.0" encoding="utf-8"?>
<!-- Generator: Adobe Illustrator 15.1.0, SVG Export Plug-In . SVG Version: 6.00 Build 0)  -->
<!DOCTYPE svg PUBLIC "-//W3C//DTD SVG 1.1//EN" "http://www.w3.org/Graphics/SVG/1.1/DTD/svg11.dtd">
<svg version="1.1" id="Layer_1" xmlns="http://www.w3.org/2000/svg" xmlns:xlink="http://www.w3.org/1999/xlink" x="0px" y="0px"
	 width="432px" height="432px" viewBox="324 921 432 432" enable-background="new 324 921 432 432" xml:space="preserve">
<g>
	
		<polyline fill="#560606" stroke="#000000" stroke-width="10" stroke-linecap="round" stroke-linejoin="round" stroke-miterlimit="10" points="
		497.396,1234.778 497.396,1249.611 467.923,1255.161 465.053,1246.778 	"/>
	<path fill="#FFD4FF" d="M407.877,1033.366c0,0,21.29,89.724,23.956,165.884c-27.94,16.243-62.333,30.188-74.333,33.25
		c1.666,4.008,9.403,13.477,12.236,16.385c3.258,0.682,30.237,25.229,86.31-3.849l40.704-20.046c0,0,11.666-143.941,17-185.157
		c0,0-10.466-72.72-69.25,22.667C434,1043.684,407.877,1033.366,407.877,1033.366z"/>
	<path fill="#8E3324" d="M405.833,1027.167l8.178,37.519c0,0,21.335,7.979,30.334,18.143c0,0,43.951-57.17,66.976-27.837v-21
		c0,0-7.488-60.157-66.811,30.333C444.512,1064.323,413.833,1024.834,405.833,1027.167z"/>
	<path fill="#8E3324" d="M355.833,1234.778c0,0,35.667-10.65,41-17.298c0,0,31.83-15.485,39.082-15.566l-2.26-12.747
		c0,0,7.512-2.667,8.845-11.167l18.296,17.833c0,0-19.63,35,35.704,16l-0.78,18.92C495.72,1230.753,396.25,1290.25,355.833,1234.778
		z"/>
	<path fill="none" stroke="#000000" stroke-width="10" stroke-linecap="round" stroke-linejoin="round" stroke-miterlimit="10" d="
		M405.833,1027.167c0,0,25.176,96.84,27.842,173c-27.94,16.243-30.135,15.264-36.175,18.333
		c-12.492,6.348-26.278,12.17-38.278,15.232c1.666,4.008,7.681,12.244,10.514,15.151c3.258,0.682,29.264,24.865,86.764-0.974
		l40.941-17.91c0,0,7.034-148.146,12.368-189.363c0,0,3.94-72.804-65.31,21.863C434,1043.684,405.833,1027.167,405.833,1027.167z"/>
	<path fill="none" stroke="#000000" stroke-width="10" stroke-linecap="round" stroke-linejoin="round" stroke-miterlimit="10" d="
		M415.012,1064.686c0,0,17.155,8.392,29.488,24.392c10.488-8,52-71.576,62.7-26.917"/>
	<path fill="none" stroke="#000000" stroke-width="10" stroke-linecap="round" stroke-linejoin="round" stroke-miterlimit="10" d="
		M434.742,1188.501c0,0,6.258-1.501,10.258-10.501c0,0,5.75,9.693,14.25,14.411c0,0-13.25,30.089,14.75,24.339
		c0,0,9.83,0.962,22.5-8.564"/>
	
		<path fill="#6B5DED" stroke="#000000" stroke-width="7" stroke-linecap="round" stroke-linejoin="round" stroke-miterlimit="10" d="
		M486.328,1041.395c-7.021,5.466-7.254,12.731-7.254,12.731c-1.875,6.224-5.613,11.08-5.613,11.08
		c2.842,3.745,9.95-3.876,9.95-3.876c-2.457,25.1,17.354,31.864,17.354,31.864c-2.334-4.056-8.221-16.855-8.221-16.855
		c8.481,16.675,30.221,22.205,30.221,22.205c-16.347-14.738-15.713-30.942-15.713-30.942c9.265,10.19,16.625,7.703,16.625,7.703
		c-6.697-9.635-8.464-7.382-13.366-22.007c-3.615-10.783-12.146-16.372-12.146-16.372"/>
	
		<ellipse transform="matrix(1 -0.0057 0.0057 1 -5.8407 2.8076)" fill="#92DDEA" stroke="#000000" stroke-width="7" stroke-linecap="round" stroke-linejoin="round" stroke-miterlimit="10" cx="491.598" cy="1030.161" rx="11.525" ry="18.137"/>
</g>
<g>
	
		<polyline fill="#560606" stroke="#000000" stroke-width="10" stroke-linecap="round" stroke-linejoin="round" stroke-miterlimit="10" points="
		615.457,1246.778 612.587,1255.161 583.114,1249.611 583.114,1234.778 	"/>
	<path fill="#FFD4FF" d="M636.01,1062.5c-58.784-95.387-69.25-22.667-69.25-22.667c5.334,41.216,17,185.157,17,185.157
		l40.704,20.046c56.073,29.077,83.052,4.53,86.31,3.849c2.834-2.908,10.57-12.377,12.236-16.385
		c-12-3.063-46.393-17.007-74.333-33.25c2.666-76.16,23.956-165.884,23.956-165.884S646.51,1043.684,636.01,1062.5z"/>
	<path fill="#8E3324" d="M635.999,1064.324c-59.322-90.49-66.811-30.333-66.811-30.333v21
		c23.024-29.333,66.976,27.837,66.976,27.837c8.999-10.163,30.334-18.143,30.334-18.143l8.179-37.519
		C666.677,1024.834,635.998,1064.323,635.999,1064.324z"/>
	<path fill="#8E3324" d="M584.79,1230.753l-0.78-18.92c55.334,19,35.704-16,35.704-16L638.01,1178
		c1.333,8.5,8.845,11.167,8.845,11.167l-2.26,12.747c7.252,0.081,39.082,15.566,39.082,15.566c5.333,6.647,41,17.298,41,17.298
		C684.26,1290.25,584.79,1230.753,584.79,1230.753z"/>
	<path fill="none" stroke="#000000" stroke-width="10" stroke-linecap="round" stroke-linejoin="round" stroke-miterlimit="10" d="
		M636.01,1062.5c-69.25-94.667-65.31-21.863-65.31-21.863c5.334,41.217,12.368,189.363,12.368,189.363l40.941,17.91
		c57.5,25.839,83.506,1.655,86.764,0.974c2.834-2.907,8.848-11.144,10.514-15.151c-12-3.063-25.785-8.885-38.277-15.232
		c-6.04-3.069-8.234-2.09-36.175-18.333c2.666-76.16,27.842-173,27.842-173S646.51,1043.684,636.01,1062.5z"/>
	<path fill="none" stroke="#000000" stroke-width="10" stroke-linecap="round" stroke-linejoin="round" stroke-miterlimit="10" d="
		M573.31,1062.16c10.7-44.659,52.212,18.917,62.7,26.917c12.333-16,29.488-24.392,29.488-24.392"/>
	<path fill="none" stroke="#000000" stroke-width="10" stroke-linecap="round" stroke-linejoin="round" stroke-miterlimit="10" d="
		M584.01,1208.186c12.67,9.526,22.5,8.564,22.5,8.564c28,5.75,14.75-24.339,14.75-24.339c8.5-4.718,14.25-14.411,14.25-14.411
		c4,9,10.258,10.501,10.258,10.501"/>
	
		<path fill="#6B5DED" stroke="#000000" stroke-width="7" stroke-linecap="round" stroke-linejoin="round" stroke-miterlimit="10" d="
		M582.345,1036.926c0,0-8.53,5.589-12.146,16.372c-4.902,14.625-6.669,12.372-13.366,22.007c0,0,7.36,2.487,16.625-7.703
		c0,0,0.634,16.204-15.713,30.942c0,0,21.739-5.53,30.221-22.205c0,0-5.887,12.8-8.221,16.855c0,0,19.811-6.765,17.354-31.864
		c0,0,7.108,7.621,9.95,3.876c0,0-3.738-4.856-5.613-11.08c0,0-0.233-7.266-7.254-12.731"/>
	
		<ellipse transform="matrix(0.0057 -1 1 0.0057 -444.5934 1613.1841)" fill="#92DDEA" stroke="#000000" stroke-width="7" stroke-linecap="round" stroke-linejoin="round" stroke-miterlimit="10" cx="588.912" cy="1030.161" rx="18.137" ry="11.525"/>
</g>
</svg>
