<?xml version="1.0" encoding="utf-8"?>
<!-- Generator: Adobe Illustrator 15.1.0, SVG Export Plug-In . SVG Version: 6.00 Build 0)  -->
<!DOCTYPE svg PUBLIC "-//W3C//DTD SVG 1.1//EN" "http://www.w3.org/Graphics/SVG/1.1/DTD/svg11.dtd">
<svg version="1.1" id="Layer_1" xmlns="http://www.w3.org/2000/svg" xmlns:xlink="http://www.w3.org/1999/xlink" x="0px" y="0px"
	 width="1080px" height="1340px" viewBox="0 0 1080 1340" enable-background="new 0 0 1080 1340" xml:space="preserve">
<g>
	<g>
		<path fill="#59341F" d="M547.863,967.922c-71.912,0.981-129.931-1.434-138.005-6.352c0.975-25.22,17.751-209,17.751-209h119.249"
			/>
		<path fill="#59341F" d="M532.678,748.5h10.5h112.646c0,0,16.227,183.594,18.69,211.023c4.487,10.969-71.926,5.947-143.837,4.97"/>
	</g>
	<g>
		
			<path fill="#C9F6F7" stroke="#000000" stroke-width="10" stroke-linecap="round" stroke-linejoin="round" stroke-miterlimit="10" d="
			M550.5,751.5"/>
		
			<path fill="#C9F6F7" stroke="#000000" stroke-width="10" stroke-linecap="round" stroke-linejoin="round" stroke-miterlimit="10" d="
			M550.5,751.5"/>
		
			<path fill="#C9F6F7" stroke="#000000" stroke-width="10" stroke-linecap="round" stroke-linejoin="round" stroke-miterlimit="10" d="
			M540,751.5"/>
		<path fill="none" stroke="#000000" stroke-width="10" stroke-linecap="round" stroke-linejoin="round" stroke-miterlimit="10" d="
			M552.5,967.493c-71.911,0.979-149.141,1.193-144.654-9.774c0-33.218,20.508-207.219,20.508-207.219H654.93"/>
	</g>
	<g>
		
			<path fill="#C9F6F7" stroke="#000000" stroke-width="10" stroke-linecap="round" stroke-linejoin="round" stroke-miterlimit="10" d="
			M532.678,751.5"/>
		
			<path fill="#C9F6F7" stroke="#000000" stroke-width="10" stroke-linecap="round" stroke-linejoin="round" stroke-miterlimit="10" d="
			M532.678,751.5"/>
		
			<path fill="#C9F6F7" stroke="#000000" stroke-width="10" stroke-linecap="round" stroke-linejoin="round" stroke-miterlimit="10" d="
			M543.178,751.5"/>
		<path fill="none" stroke="#000000" stroke-width="10" stroke-linecap="round" stroke-linejoin="round" stroke-miterlimit="10" d="
			M654.823,750.5c0,0,18.508,174.001,18.508,207.219c4.487,10.969-70.742,10.753-142.653,9.774"/>
	</g>
</g>
<g>
	
		<line fill="none" stroke="#000000" stroke-width="10" stroke-linecap="round" stroke-linejoin="round" x1="490.775" y1="969.334" x2="490.775" y2="1003.06"/>
	
		<line fill="none" stroke="#000000" stroke-width="10" stroke-linecap="round" stroke-linejoin="round" x1="510.5" y1="968.471" x2="510.5" y2="1002.196"/>
	
		<line fill="none" stroke="#000000" stroke-width="10" stroke-linecap="round" stroke-linejoin="round" x1="525.25" y1="969.721" x2="525.25" y2="1003.446"/>
	
		<line fill="none" stroke="#000000" stroke-width="10" stroke-linecap="round" stroke-linejoin="round" x1="540.324" y1="969.721" x2="540.324" y2="1003.446"/>
	
		<line fill="none" stroke="#000000" stroke-width="10" stroke-linecap="round" stroke-linejoin="round" x1="555.5" y1="969.721" x2="555.5" y2="1003.446"/>
	
		<line fill="none" stroke="#000000" stroke-width="10" stroke-linecap="round" stroke-linejoin="round" x1="570.25" y1="969.471" x2="570.25" y2="1003.196"/>
	
		<line fill="none" stroke="#000000" stroke-width="10" stroke-linecap="round" stroke-linejoin="round" x1="476.775" y1="969.345" x2="476.775" y2="1003.07"/>
	
		<line fill="none" stroke="#000000" stroke-width="10" stroke-linecap="round" stroke-linejoin="round" x1="462.775" y1="969.563" x2="462.775" y2="1003.287"/>
	
		<line fill="none" stroke="#000000" stroke-width="10" stroke-linecap="round" stroke-linejoin="round" x1="448.775" y1="968.471" x2="448.775" y2="1002.197"/>
	
		<line fill="none" stroke="#000000" stroke-width="10" stroke-linecap="round" stroke-linejoin="round" x1="434.775" y1="967.529" x2="434.775" y2="1001.256"/>
	
		<line fill="none" stroke="#000000" stroke-width="10" stroke-linecap="round" stroke-linejoin="round" x1="420.837" y1="965.699" x2="420.837" y2="999.424"/>
	
		<line fill="none" stroke="#000000" stroke-width="10" stroke-linecap="round" stroke-linejoin="round" x1="407.858" y1="961.608" x2="407.858" y2="995.334"/>
</g>
<g>
	
		<line fill="none" stroke="#000000" stroke-width="10" stroke-linecap="round" stroke-linejoin="round" x1="589.857" y1="969.334" x2="589.857" y2="1003.06"/>
	
		<line fill="none" stroke="#000000" stroke-width="10" stroke-linecap="round" stroke-linejoin="round" x1="603.857" y1="969.345" x2="603.857" y2="1003.07"/>
	
		<line fill="none" stroke="#000000" stroke-width="10" stroke-linecap="round" stroke-linejoin="round" x1="617.857" y1="969.563" x2="617.857" y2="1003.287"/>
	
		<line fill="none" stroke="#000000" stroke-width="10" stroke-linecap="round" stroke-linejoin="round" x1="631.857" y1="968.471" x2="631.857" y2="1002.197"/>
	
		<line fill="none" stroke="#000000" stroke-width="10" stroke-linecap="round" stroke-linejoin="round" x1="645.857" y1="967.529" x2="645.857" y2="1001.256"/>
	
		<line fill="none" stroke="#000000" stroke-width="10" stroke-linecap="round" stroke-linejoin="round" x1="659.795" y1="965.699" x2="659.795" y2="999.424"/>
	
		<line fill="none" stroke="#000000" stroke-width="10" stroke-linecap="round" stroke-linejoin="round" x1="672.775" y1="961.608" x2="672.775" y2="995.334"/>
</g>
</svg>
