<?xml version="1.0" encoding="utf-8"?>
<!-- Generator: Adobe Illustrator 15.1.0, SVG Export Plug-In . SVG Version: 6.00 Build 0)  -->
<!DOCTYPE svg PUBLIC "-//W3C//DTD SVG 1.1//EN" "http://www.w3.org/Graphics/SVG/1.1/DTD/svg11.dtd">
<svg version="1.1" id="Layer_1" xmlns="http://www.w3.org/2000/svg" xmlns:xlink="http://www.w3.org/1999/xlink" x="0px" y="0px"
	 width="504px" height="504px" viewBox="288 674.07 504 504" enable-background="new 288 674.07 504 504" xml:space="preserve">
<path fill="#562614" d="M539.521,1043c-67.184-21-108.521-43.5-133.477-56.001c-6.124-96.404,21.311-232.067,21.311-232.067H653.32
	c0,0,27.434,135.663,21.31,232.067C649.675,999.5,608.338,1022,541.153,1043"/>
<path fill="none" stroke="#000000" stroke-width="10" stroke-linecap="round" stroke-linejoin="round" stroke-miterlimit="10" d="
	M539.521,1043c-67.184-21-108.521-43.5-133.477-56.001c-6.124-96.404,21.311-232.067,21.311-232.067H653.32
	c0,0,27.434,135.663,21.31,232.067C649.675,999.5,608.338,1022,541.153,1043"/>
<g>
	<line fill="none" stroke="#000000" stroke-width="10" x1="406.707" y1="903.781" x2="539.399" y2="955.021"/>
	<line fill="none" stroke="#000000" stroke-width="10" x1="672.935" y1="903.781" x2="540.239" y2="955.021"/>
	<g>
		<g>
			
				<line fill="none" stroke="#000000" stroke-width="10" stroke-linecap="round" stroke-linejoin="round" x1="557.202" y1="953.417" x2="557.202" y2="1023.146"/>
			
				<line fill="none" stroke="#000000" stroke-width="10" stroke-linecap="round" stroke-linejoin="round" x1="574.577" y1="946.273" x2="574.577" y2="1017.487"/>
			
				<line fill="none" stroke="#000000" stroke-width="10" stroke-linecap="round" stroke-linejoin="round" x1="591.951" y1="937.781" x2="591.951" y2="1011.163"/>
			
				<line fill="none" stroke="#000000" stroke-width="10" stroke-linecap="round" stroke-linejoin="round" x1="609.325" y1="932.126" x2="609.325" y2="1003.339"/>
			
				<line fill="none" stroke="#000000" stroke-width="10" stroke-linecap="round" stroke-linejoin="round" x1="626.699" y1="924.717" x2="626.699" y2="995.588"/>
			
				<line fill="none" stroke="#000000" stroke-width="10" stroke-linecap="round" stroke-linejoin="round" x1="643.996" y1="918.146" x2="643.996" y2="987.019"/>
			
				<line fill="none" stroke="#000000" stroke-width="10" stroke-linecap="round" stroke-linejoin="round" x1="660.104" y1="910.963" x2="660.104" y2="980.019"/>
		</g>
		<g>
			
				<line fill="none" stroke="#000000" stroke-width="10" stroke-linecap="round" stroke-linejoin="round" x1="522.104" y1="1023.146" x2="522.104" y2="951.417"/>
			
				<line fill="none" stroke="#000000" stroke-width="10" stroke-linecap="round" stroke-linejoin="round" x1="540.399" y1="1029.174" x2="540.399" y2="956.445"/>
			
				<line fill="none" stroke="#000000" stroke-width="10" stroke-linecap="round" stroke-linejoin="round" x1="504.729" y1="1017.487" x2="504.729" y2="945.273"/>
			
				<line fill="none" stroke="#000000" stroke-width="10" stroke-linecap="round" stroke-linejoin="round" x1="487.355" y1="1011.163" x2="487.355" y2="937.781"/>
			
				<line fill="none" stroke="#000000" stroke-width="10" stroke-linecap="round" stroke-linejoin="round" x1="469.981" y1="1003.339" x2="469.981" y2="931.126"/>
			
				<line fill="none" stroke="#000000" stroke-width="10" stroke-linecap="round" stroke-linejoin="round" x1="452.607" y1="995.588" x2="452.607" y2="924.717"/>
			
				<line fill="none" stroke="#000000" stroke-width="10" stroke-linecap="round" stroke-linejoin="round" x1="435.311" y1="987.019" x2="435.311" y2="918.146"/>
			
				<line fill="none" stroke="#000000" stroke-width="10" stroke-linecap="round" stroke-linejoin="round" x1="419.202" y1="979" x2="419.202" y2="910.963"/>
		</g>
	</g>
</g>
<g>
	<line fill="none" stroke="#000000" stroke-width="10" x1="416.098" y1="815.3" x2="539.399" y2="863.863"/>
	<line fill="none" stroke="#000000" stroke-width="10" x1="663.545" y1="815.3" x2="540.239" y2="863.863"/>
	<g>
		<g>
			
				<line fill="none" stroke="#000000" stroke-width="10" stroke-linecap="round" stroke-linejoin="round" x1="557.202" y1="861.138" x2="557.202" y2="933.596"/>
			
				<line fill="none" stroke="#000000" stroke-width="10" stroke-linecap="round" stroke-linejoin="round" x1="574.577" y1="854.855" x2="574.577" y2="926.706"/>
			
				<line fill="none" stroke="#000000" stroke-width="10" stroke-linecap="round" stroke-linejoin="round" x1="591.951" y1="851.11" x2="591.951" y2="919.159"/>
			
				<line fill="none" stroke="#000000" stroke-width="10" stroke-linecap="round" stroke-linejoin="round" x1="609.325" y1="843.25" x2="609.325" y2="912.1"/>
			
				<line fill="none" stroke="#000000" stroke-width="10" stroke-linecap="round" stroke-linejoin="round" x1="626.699" y1="835.644" x2="626.699" y2="905.088"/>
			
				<line fill="none" stroke="#000000" stroke-width="10" stroke-linecap="round" stroke-linejoin="round" x1="643.996" y1="825.816" x2="643.996" y2="899.367"/>
			
				<line fill="none" stroke="#000000" stroke-width="10" stroke-linecap="round" stroke-linejoin="round" x1="659.104" y1="818.441" x2="659.104" y2="893.682"/>
		</g>
		<g>
			
				<line fill="none" stroke="#000000" stroke-width="10" stroke-linecap="round" stroke-linejoin="round" x1="522.104" y1="933.596" x2="522.104" y2="861.138"/>
			
				<line fill="none" stroke="#000000" stroke-width="10" stroke-linecap="round" stroke-linejoin="round" x1="540.399" y1="939.813" x2="540.399" y2="866.354"/>
			
				<line fill="none" stroke="#000000" stroke-width="10" stroke-linecap="round" stroke-linejoin="round" x1="504.729" y1="926.706" x2="504.729" y2="855.855"/>
			
				<line fill="none" stroke="#000000" stroke-width="10" stroke-linecap="round" stroke-linejoin="round" x1="487.355" y1="919.159" x2="487.355" y2="847.11"/>
			
				<line fill="none" stroke="#000000" stroke-width="10" stroke-linecap="round" stroke-linejoin="round" x1="469.981" y1="912.1" x2="469.981" y2="843.25"/>
			
				<line fill="none" stroke="#000000" stroke-width="10" stroke-linecap="round" stroke-linejoin="round" x1="452.607" y1="905.088" x2="452.607" y2="835.644"/>
			
				<line fill="none" stroke="#000000" stroke-width="10" stroke-linecap="round" stroke-linejoin="round" x1="435.311" y1="899.367" x2="435.311" y2="825.816"/>
			
				<line fill="none" stroke="#000000" stroke-width="10" stroke-linecap="round" stroke-linejoin="round" x1="420.202" y1="893.682" x2="420.202" y2="818.441"/>
		</g>
	</g>
</g>
<g>
	<g>
		
			<line fill="none" stroke="#000000" stroke-width="10" stroke-linecap="round" stroke-linejoin="round" x1="557.202" y1="1037.57" x2="557.202" y2="1104.829"/>
		
			<line fill="none" stroke="#000000" stroke-width="10" stroke-linecap="round" stroke-linejoin="round" x1="574.577" y1="1033.179" x2="574.577" y2="1097.438"/>
		
			<line fill="none" stroke="#000000" stroke-width="10" stroke-linecap="round" stroke-linejoin="round" x1="594.951" y1="1025.075" x2="594.951" y2="1090.331"/>
		
			<line fill="none" stroke="#000000" stroke-width="10" stroke-linecap="round" stroke-linejoin="round" x1="611.325" y1="1018.54" x2="611.325" y2="1082.798"/>
		
			<line fill="none" stroke="#000000" stroke-width="10" stroke-linecap="round" stroke-linejoin="round" x1="627.699" y1="1012.215" x2="627.699" y2="1074.474"/>
		
			<line fill="none" stroke="#000000" stroke-width="10" stroke-linecap="round" stroke-linejoin="round" x1="643.996" y1="1004.044" x2="643.996" y2="1066.304"/>
		
			<line fill="none" stroke="#000000" stroke-width="10" stroke-linecap="round" stroke-linejoin="round" x1="660.104" y1="996.912" x2="660.104" y2="1058.169"/>
		
			<line fill="none" stroke="#000000" stroke-width="10" stroke-linecap="round" stroke-linejoin="round" x1="674.521" y1="987.586" x2="674.521" y2="1048.843"/>
	</g>
	<g>
		
			<line fill="none" stroke="#000000" stroke-width="10" stroke-linecap="round" stroke-linejoin="round" x1="522.104" y1="1104.829" x2="522.104" y2="1037.57"/>
		
			<line fill="none" stroke="#000000" stroke-width="10" stroke-linecap="round" stroke-linejoin="round" x1="540.399" y1="1110.829" x2="540.399" y2="1043.57"/>
		
			<line fill="none" stroke="#000000" stroke-width="10" stroke-linecap="round" stroke-linejoin="round" x1="504.729" y1="1097.438" x2="504.729" y2="1033.179"/>
		
			<line fill="none" stroke="#000000" stroke-width="10" stroke-linecap="round" stroke-linejoin="round" x1="485.355" y1="1090.331" x2="485.355" y2="1025.075"/>
		
			<line fill="none" stroke="#000000" stroke-width="10" stroke-linecap="round" stroke-linejoin="round" x1="467.981" y1="1082.798" x2="467.981" y2="1018.54"/>
		
			<line fill="none" stroke="#000000" stroke-width="10" stroke-linecap="round" stroke-linejoin="round" x1="450.607" y1="1074.474" x2="450.607" y2="1012.215"/>
		
			<line fill="none" stroke="#000000" stroke-width="10" stroke-linecap="round" stroke-linejoin="round" x1="435.311" y1="1066.304" x2="435.311" y2="1004.044"/>
		
			<line fill="none" stroke="#000000" stroke-width="10" stroke-linecap="round" stroke-linejoin="round" x1="420.202" y1="1058.169" x2="420.202" y2="996.912"/>
		
			<line fill="none" stroke="#000000" stroke-width="10" stroke-linecap="round" stroke-linejoin="round" x1="405.707" y1="1048.843" x2="405.707" y2="987.586"/>
	</g>
</g>
</svg>
