<?xml version="1.0" encoding="utf-8"?>
<!-- Generator: Adobe Illustrator 15.1.0, SVG Export Plug-In . SVG Version: 6.00 Build 0)  -->
<!DOCTYPE svg PUBLIC "-//W3C//DTD SVG 1.1//EN" "http://www.w3.org/Graphics/SVG/1.1/DTD/svg11.dtd">
<svg version="1.1" id="Layer_1" xmlns="http://www.w3.org/2000/svg" xmlns:xlink="http://www.w3.org/1999/xlink" x="0px" y="0px"
	 width="1080px" height="1340px" viewBox="0 0 1080 1340" enable-background="new 0 0 1080 1340" xml:space="preserve">
<path fill="#562614" d="M539.521,991.687C472.337,974.427,431,955.935,406.045,945.66c-6.124-79.231,21.31-190.729,21.31-190.729
	H653.32c0,0,27.434,111.497,21.31,190.729c-24.955,10.274-66.292,28.767-133.477,46.026"/>
<path fill="none" stroke="#000000" stroke-width="10" stroke-linecap="round" stroke-linejoin="round" stroke-miterlimit="10" d="
	M539.521,991.687C472.337,974.427,431,955.935,406.045,945.66c-6.124-79.231,21.31-190.729,21.31-190.729H653.32
	c0,0,27.434,111.497,21.31,190.729c-24.955,10.274-66.292,28.767-133.477,46.026"/>
<line fill="none" stroke="#000000" stroke-width="10" x1="406.707" y1="892.061" x2="539.399" y2="932.923"/>
<line fill="none" stroke="#000000" stroke-width="10" x1="672.935" y1="892.061" x2="540.239" y2="932.923"/>
<g>
	<g>
		
			<line fill="none" stroke="#000000" stroke-width="10" stroke-linecap="round" stroke-linejoin="round" x1="557.202" y1="929.692" x2="557.202" y2="975.108"/>
		
			<line fill="none" stroke="#000000" stroke-width="10" stroke-linecap="round" stroke-linejoin="round" x1="574.577" y1="926.083" x2="574.577" y2="969.032"/>
		
			<line fill="none" stroke="#000000" stroke-width="10" stroke-linecap="round" stroke-linejoin="round" x1="591.951" y1="919.424" x2="591.951" y2="963.192"/>
		
			<line fill="none" stroke="#000000" stroke-width="10" stroke-linecap="round" stroke-linejoin="round" x1="609.325" y1="914.053" x2="609.325" y2="957.002"/>
		
			<line fill="none" stroke="#000000" stroke-width="10" stroke-linecap="round" stroke-linejoin="round" x1="626.699" y1="908.854" x2="626.699" y2="950.16"/>
		
			<line fill="none" stroke="#000000" stroke-width="10" stroke-linecap="round" stroke-linejoin="round" x1="643.996" y1="902.139" x2="643.996" y2="943.445"/>
		
			<line fill="none" stroke="#000000" stroke-width="10" stroke-linecap="round" stroke-linejoin="round" x1="660.104" y1="897.099" x2="660.104" y2="937.582"/>
	</g>
	<g>
		
			<line fill="none" stroke="#000000" stroke-width="10" stroke-linecap="round" stroke-linejoin="round" x1="522.104" y1="975.108" x2="522.104" y2="929.692"/>
		
			<line fill="none" stroke="#000000" stroke-width="10" stroke-linecap="round" stroke-linejoin="round" x1="540.399" y1="980.039" x2="540.399" y2="934.624"/>
		
			<line fill="none" stroke="#000000" stroke-width="10" stroke-linecap="round" stroke-linejoin="round" x1="504.729" y1="969.032" x2="504.729" y2="926.083"/>
		
			<line fill="none" stroke="#000000" stroke-width="10" stroke-linecap="round" stroke-linejoin="round" x1="487.355" y1="963.192" x2="487.355" y2="919.424"/>
		
			<line fill="none" stroke="#000000" stroke-width="10" stroke-linecap="round" stroke-linejoin="round" x1="469.981" y1="957.002" x2="469.981" y2="914.053"/>
		
			<line fill="none" stroke="#000000" stroke-width="10" stroke-linecap="round" stroke-linejoin="round" x1="452.607" y1="950.16" x2="452.607" y2="908.854"/>
		
			<line fill="none" stroke="#000000" stroke-width="10" stroke-linecap="round" stroke-linejoin="round" x1="435.311" y1="943.445" x2="435.311" y2="902.139"/>
		
			<line fill="none" stroke="#000000" stroke-width="10" stroke-linecap="round" stroke-linejoin="round" x1="419.202" y1="937.582" x2="419.202" y2="897.099"/>
	</g>
</g>
<g>
	<g>
		
			<line fill="none" stroke="#000000" stroke-width="10" stroke-linecap="round" stroke-linejoin="round" x1="557.202" y1="987.224" x2="557.202" y2="1032.639"/>
		
			<line fill="none" stroke="#000000" stroke-width="10" stroke-linecap="round" stroke-linejoin="round" x1="574.577" y1="983.614" x2="574.577" y2="1026.563"/>
		
			<line fill="none" stroke="#000000" stroke-width="10" stroke-linecap="round" stroke-linejoin="round" x1="594.951" y1="976.954" x2="594.951" y2="1020.724"/>
		
			<line fill="none" stroke="#000000" stroke-width="10" stroke-linecap="round" stroke-linejoin="round" x1="611.325" y1="971.583" x2="611.325" y2="1014.532"/>
		
			<line fill="none" stroke="#000000" stroke-width="10" stroke-linecap="round" stroke-linejoin="round" x1="627.699" y1="966.385" x2="627.699" y2="1007.69"/>
		
			<line fill="none" stroke="#000000" stroke-width="10" stroke-linecap="round" stroke-linejoin="round" x1="643.996" y1="959.669" x2="643.996" y2="1000.977"/>
		
			<line fill="none" stroke="#000000" stroke-width="10" stroke-linecap="round" stroke-linejoin="round" x1="660.104" y1="953.808" x2="660.104" y2="994.291"/>
		
			<line fill="none" stroke="#000000" stroke-width="10" stroke-linecap="round" stroke-linejoin="round" x1="674.521" y1="946.143" x2="674.521" y2="986.626"/>
	</g>
	<g>
		
			<line fill="none" stroke="#000000" stroke-width="10" stroke-linecap="round" stroke-linejoin="round" x1="522.104" y1="1032.639" x2="522.104" y2="987.224"/>
		
			<line fill="none" stroke="#000000" stroke-width="10" stroke-linecap="round" stroke-linejoin="round" x1="540.399" y1="1037.57" x2="540.399" y2="992.155"/>
		
			<line fill="none" stroke="#000000" stroke-width="10" stroke-linecap="round" stroke-linejoin="round" x1="504.729" y1="1026.563" x2="504.729" y2="983.614"/>
		
			<line fill="none" stroke="#000000" stroke-width="10" stroke-linecap="round" stroke-linejoin="round" x1="485.355" y1="1020.724" x2="485.355" y2="976.954"/>
		
			<line fill="none" stroke="#000000" stroke-width="10" stroke-linecap="round" stroke-linejoin="round" x1="467.981" y1="1014.532" x2="467.981" y2="971.583"/>
		
			<line fill="none" stroke="#000000" stroke-width="10" stroke-linecap="round" stroke-linejoin="round" x1="450.607" y1="1007.69" x2="450.607" y2="966.385"/>
		
			<line fill="none" stroke="#000000" stroke-width="10" stroke-linecap="round" stroke-linejoin="round" x1="435.311" y1="1000.977" x2="435.311" y2="959.669"/>
		
			<line fill="none" stroke="#000000" stroke-width="10" stroke-linecap="round" stroke-linejoin="round" x1="420.202" y1="994.291" x2="420.202" y2="953.808"/>
		
			<line fill="none" stroke="#000000" stroke-width="10" stroke-linecap="round" stroke-linejoin="round" x1="405.707" y1="986.626" x2="405.707" y2="946.143"/>
	</g>
</g>
</svg>
