<?xml version="1.0" encoding="utf-8"?>
<!-- Generator: Adobe Illustrator 15.1.0, SVG Export Plug-In . SVG Version: 6.00 Build 0)  -->
<!DOCTYPE svg PUBLIC "-//W3C//DTD SVG 1.1//EN" "http://www.w3.org/Graphics/SVG/1.1/DTD/svg11.dtd">
<svg version="1.1" id="Layer_1" xmlns="http://www.w3.org/2000/svg" xmlns:xlink="http://www.w3.org/1999/xlink" x="0px" y="0px"
	 width="432px" height="432px" viewBox="324 874.25 432 432" enable-background="new 324 874.25 432 432" xml:space="preserve">
<g>
	<path id="kolor_1_" fill="#533FE0" d="M583.299,1022.501L583.327,1233c0,0,60.436,23.566,76.917,25.117
		c16.479,1.551,47.056,3.338,43.971-16.562c-3.085-19.895-60.784-40.061-60.784-40.061l4.149-179.017l1.975-86.008h-66.256V1022.501
		z"/>
	
		<path id="kontor_1_" fill="none" stroke="#000000" stroke-width="10" stroke-linecap="round" stroke-linejoin="round" stroke-miterlimit="10" d="
		M583.299,1022.501L583.327,1233c0,0,60.436,23.566,76.917,25.117c16.479,1.551,47.056,3.338,43.971-16.562
		c-3.085-19.895-60.784-40.061-60.784-40.061l4.149-179.017l1.975-86.008h-66.256V1022.501z"/>
	<g>
		
			<line fill="none" stroke="#000000" stroke-width="10" stroke-linecap="round" stroke-linejoin="round" stroke-miterlimit="10" x1="648.268" y1="955.834" x2="584.301" y2="955.834"/>
		
			<line fill="none" stroke="#000000" stroke-width="10" stroke-linecap="round" stroke-linejoin="round" stroke-miterlimit="10" x1="622.884" y1="937.485" x2="622.884" y2="955.834"/>
		
			<line fill="none" stroke="#000000" stroke-width="10" stroke-linecap="round" stroke-linejoin="round" stroke-miterlimit="10" x1="635.884" y1="937.485" x2="635.884" y2="955.834"/>
		
			<line fill="none" stroke="#000000" stroke-width="10" stroke-linecap="round" stroke-linejoin="round" stroke-miterlimit="10" x1="596.884" y1="937.485" x2="596.884" y2="955.834"/>
		
			<line fill="none" stroke="#000000" stroke-width="10" stroke-linecap="round" stroke-linejoin="round" stroke-miterlimit="10" x1="609.884" y1="937.485" x2="609.884" y2="955.834"/>
	</g>
</g>
<g>
	<path id="kolor_2_" fill="#533FE0" d="M497.432,1022.501L497.403,1233c0,0-60.438,23.566-76.917,25.117
		c-16.482,1.551-47.056,3.338-43.971-16.562c3.085-19.895,60.784-40.061,60.784-40.061l-4.146-179.017l-1.979-86.008h66.256
		L497.432,1022.501L497.432,1022.501z"/>
	
		<path id="kontor_2_" fill="none" stroke="#000000" stroke-width="10" stroke-linecap="round" stroke-linejoin="round" stroke-miterlimit="10" d="
		M497.432,1022.501L497.403,1233c0,0-60.438,23.566-76.917,25.117c-16.482,1.551-47.056,3.338-43.971-16.562
		c3.085-19.895,60.784-40.061,60.784-40.061l-4.146-179.017l-1.979-86.008h66.256L497.432,1022.501L497.432,1022.501z"/>
	<g>
		
			<line fill="none" stroke="#000000" stroke-width="10" stroke-linecap="round" stroke-linejoin="round" stroke-miterlimit="10" x1="432.463" y1="955.834" x2="496.43" y2="955.834"/>
		
			<line fill="none" stroke="#000000" stroke-width="10" stroke-linecap="round" stroke-linejoin="round" stroke-miterlimit="10" x1="457.847" y1="937.485" x2="457.847" y2="955.834"/>
		
			<line fill="none" stroke="#000000" stroke-width="10" stroke-linecap="round" stroke-linejoin="round" stroke-miterlimit="10" x1="444.847" y1="937.485" x2="444.847" y2="955.834"/>
		
			<line fill="none" stroke="#000000" stroke-width="10" stroke-linecap="round" stroke-linejoin="round" stroke-miterlimit="10" x1="483.847" y1="937.485" x2="483.847" y2="955.834"/>
		
			<line fill="none" stroke="#000000" stroke-width="10" stroke-linecap="round" stroke-linejoin="round" stroke-miterlimit="10" x1="470.847" y1="937.485" x2="470.847" y2="955.834"/>
	</g>
</g>
</svg>
