<?xml version="1.0" encoding="utf-8"?>
<!-- Generator: Adobe Illustrator 15.1.0, SVG Export Plug-In . SVG Version: 6.00 Build 0)  -->
<!DOCTYPE svg PUBLIC "-//W3C//DTD SVG 1.1//EN" "http://www.w3.org/Graphics/SVG/1.1/DTD/svg11.dtd">
<svg version="1.1" id="Layer_1" xmlns="http://www.w3.org/2000/svg" xmlns:xlink="http://www.w3.org/1999/xlink" x="0px" y="0px"
	 width="1080px" height="1340px" viewBox="0 0 1080 1340" enable-background="new 0 0 1080 1340" xml:space="preserve">
<g>
	<g id="kolor">
		<path fill="#C1CFD6" d="M583.299,1022.501L583.327,1233c0,0,60.436,23.566,76.917,25.117c16.479,1.551,47.056,3.338,43.971-16.562
			c-3.085-19.895-60.784-40.061-60.784-40.061l4.149-179.017L653.573,761H540.324L540,830.5c0,0,41.5,4.5,43,62
			S583.299,1022.501,583.299,1022.501z"/>
		<path fill="#C1CFD6" d="M497.133,1022.501L497.104,1233c0,0-60.438,23.566-76.917,25.117
			c-16.482,1.551-47.056,3.338-43.971-16.562c3.085-19.895,60.784-40.061,60.784-40.061l-4.149-179.017L426.858,761h117.249
			l-3.68,69.5c0,0-41.5,4.5-43,62S497.133,1022.501,497.133,1022.501z"/>
	</g>
	
		<path id="kontor" fill="none" stroke="#000000" stroke-width="10" stroke-linecap="round" stroke-linejoin="round" stroke-miterlimit="10" d="
		M540.324,831.704c0,0-41.396,3.296-42.896,60.796s-0.299,130.001-0.299,130.001L497.104,1233c0,0-60.438,23.566-76.917,25.117
		c-16.482,1.551-47.056,3.338-43.971-16.562c3.085-19.895,60.784-40.061,60.784-40.061l-4.149-179.017L426.858,761h113.249h113.466
		l-5.993,261.485l-4.149,179.014c0,0,57.699,20.166,60.784,40.062c3.085,19.896-27.487,18.107-43.971,16.561
		c-16.481-1.551-76.917-25.117-76.917-25.117l-0.028-210.499c0,0,1.201-72.501-0.299-130.001
		c-1.166-44.697-26.503-57.368-37.728-60.796L540.324,831.704L540.324,831.704z"/>
</g>
</svg>
