<?xml version="1.0" encoding="utf-8"?>
<!-- Generator: Adobe Illustrator 19.0.0, SVG Export Plug-In . SVG Version: 6.00 Build 0)  -->
<svg version="1.1" id="Layer_1" xmlns="http://www.w3.org/2000/svg" xmlns:xlink="http://www.w3.org/1999/xlink" x="0px" y="0px"
	 viewBox="497.5 49.5 600 600" style="enable-background:new 497.5 49.5 600 600;" xml:space="preserve">
<style type="text/css">
	.st0{fill:#FF7FB8;stroke:#000000;stroke-width:10;stroke-linecap:round;stroke-linejoin:round;stroke-miterlimit:10;}
	.st1{fill:none;stroke:#000000;stroke-width:10;stroke-linecap:round;stroke-linejoin:round;stroke-miterlimit:10;}
</style>
<g id="Layer_3_1_">
	<path class="st0" d="M944.9,352.5c0,0-4.4-24-9.1-39.3s-9-43.4-17.6-63c-9.6-21.9-29.1-39.9-47.5-47.9
		c-18.9-8.3-72.8-11.2-72.8-11.2l-24,30.1L755.1,194c0,0-10.6-2.1-25.9-1.4c-31.8,1.6-54.5,0.6-84.4,28.6
		c-21.4,20-54.7,156-60.1,184c-5.3,28-16.9,82.8-16.9,82.8l40.4,13.4l68.5-220.1l-14,204l224.5-2l-15.5-201.9
		c0,0,18.1,78.3,28.2,108.6c6,17.9,20.5,32,35.9,32.7c28,1.3,46.4-26.2,81.5-87.5l3.9-13.2l-33.7-17.4L944.9,352.5z"/>
	<polygon class="st0" points="738.3,173.4 773.9,217 746,244.5 731.6,191.8 	"/>
	<line class="st1" x1="774" y1="480.5" x2="773.9" y2="217"/>
	<polygon class="st0" points="809.4,173.4 773.9,217 801.6,244.5 816,191.8 	"/>
	<polygon class="st0" points="561.1,512.6 600.9,525.6 608.3,501.4 567.8,488 	"/>
	<path class="st0" d="M1033.8,309.8c0,0-27.7-12.4-34.6-23.5l-13.8,21.3c6.8,12.9,35.2,24,35.2,24L1033.8,309.8z"/>
	<path class="st0" d="M935.8,368.5c7.8-21.3,38.3-47.1,49.6-60.9"/>
</g>
</svg>
