<?xml version="1.0" encoding="utf-8"?>
<!-- Generator: Adobe Illustrator 19.0.0, SVG Export Plug-In . SVG Version: 6.00 Build 0)  -->
<svg version="1.1" id="Layer_1" xmlns="http://www.w3.org/2000/svg" xmlns:xlink="http://www.w3.org/1999/xlink" x="0px" y="0px"
	 viewBox="0 0 1080 1340" enable-background="new 0 0 1080 1340" xml:space="preserve">
<g id="Layer_3_1_">
	
		<path fill="#009368" stroke="#000000" stroke-width="10" stroke-linecap="round" stroke-linejoin="round" stroke-miterlimit="10" d="
		M710.886,626.5c0,0-4.386-24-9.053-39.333c-4.667-15.333-8.966-43.448-17.585-62.975c-9.649-21.86-29.139-39.883-47.498-47.926
		c-18.917-8.287-72.786-11.185-72.786-11.185L540,495.167l-18.934-27.187c0,0-10.571-2.144-25.876-1.383
		c-31.784,1.58-54.461,0.603-84.401,28.595c-21.43,20.035-54.748,155.976-60.081,183.976c-5.333,28-16.87,82.833-16.87,82.833
		l40.437,13.358l68.512-220.147l-13.996,203.956l224.487-2.009l-15.491-201.947c0,0,18.078,78.289,28.181,108.622
		c5.971,17.926,20.492,31.95,35.866,32.677c28,1.323,46.41-26.205,81.452-87.515l3.881-13.161l-33.744-17.403L710.886,626.5z"/>
	
		<polygon fill="#009368" stroke="#000000" stroke-width="10" stroke-linecap="round" stroke-linejoin="round" stroke-miterlimit="10" points="
		504.25,447.397 539.875,491 512,518.5 497.637,465.776 	"/>
	
		<line fill="#009368" stroke="#000000" stroke-width="10" stroke-linecap="round" stroke-linejoin="round" stroke-miterlimit="10" x1="540" y1="754.5" x2="539.875" y2="491"/>
	
		<polygon fill="#009368" stroke="#000000" stroke-width="10" stroke-linecap="round" stroke-linejoin="round" stroke-miterlimit="10" points="
		575.387,447.397 539.875,491 567.637,518.5 582,465.776 	"/>
	
		<polygon fill="#009368" stroke="#000000" stroke-width="10" stroke-linecap="round" stroke-linejoin="round" stroke-miterlimit="10" points="
		327.141,786.578 366.942,799.6 374.275,775.358 333.838,762 	"/>
	
		<path fill="#009368" stroke="#000000" stroke-width="10" stroke-linecap="round" stroke-linejoin="round" stroke-miterlimit="10" d="
		M799.796,583.822c0,0-27.654-12.398-34.644-23.527l-13.755,21.266c6.764,12.939,35.162,24.026,35.162,24.026L799.796,583.822z"/>
	
		<path fill="#009368" stroke="#000000" stroke-width="10" stroke-linecap="round" stroke-linejoin="round" stroke-miterlimit="10" d="
		M701.833,642.5c7.832-21.316,38.269-47.099,49.564-60.939"/>
</g>
</svg>
