<?xml version="1.0" encoding="utf-8"?>
<!-- Generator: Adobe Illustrator 15.1.0, SVG Export Plug-In . SVG Version: 6.00 Build 0)  -->
<!DOCTYPE svg PUBLIC "-//W3C//DTD SVG 1.1//EN" "http://www.w3.org/Graphics/SVG/1.1/DTD/svg11.dtd">
<svg version="1.1" id="Layer_1" xmlns="http://www.w3.org/2000/svg" xmlns:xlink="http://www.w3.org/1999/xlink" x="0px" y="0px"
	 width="504px" height="504px" viewBox="308.052 365.291 504 504" enable-background="new 308.052 365.291 504 504"
	 xml:space="preserve">
<g>
	<g>
		<path fill="#B29344" d="M712.055,622.07c0,0-4.387-24-9.053-39.333c-4.666-15.334-8.967-43.449-17.586-62.976
			c-9.648-21.859-29.139-39.883-47.498-47.926c-18.916-8.287-72.785-11.185-72.785-11.185l-23.965,30.086l-18.934-27.188
			c0,0-10.571-2.144-25.876-1.383c-31.784,1.58-54.461,0.604-84.401,28.595c-21.43,20.035-54.748,155.977-60.081,183.977
			s-16.87,82.834-16.87,82.834l40.437,13.356l68.512-220.146l-13.996,203.956l224.488-2.009l-15.492-201.947
			c0,0,18.078,78.289,28.182,108.622c5.97,17.925,20.492,31.95,35.865,32.677c28,1.322,46.41-26.206,81.451-87.515l3.883-13.162
			L754.59,574L712.055,622.07z"/>
		<path fill="none" stroke="#000000" stroke-width="10" stroke-linecap="round" stroke-linejoin="round" stroke-miterlimit="10" d="
			M712.055,622.07c0,0-4.387-24-9.053-39.333c-4.666-15.334-8.967-43.449-17.586-62.976c-9.648-21.859-29.139-39.883-47.498-47.926
			c-18.916-8.287-72.785-11.185-72.785-11.185l-23.965,30.086l-18.934-27.188c0,0-10.571-2.144-25.876-1.383
			c-31.784,1.58-54.461,0.604-84.401,28.595c-21.43,20.035-54.748,155.977-60.081,183.977s-16.87,82.834-16.87,82.834l40.437,13.356
			l68.512-220.146l-13.996,203.956l224.488-2.009l-15.492-201.947c0,0,18.078,78.289,28.182,108.622
			c5.97,17.925,20.492,31.95,35.865,32.677c28,1.322,46.41-26.206,81.451-87.515l3.883-13.162L754.59,574L712.055,622.07z"/>
		<polygon fill="#B29344" points="328.309,782.148 368.111,795.17 375.444,770.928 335.007,757.57 		"/>
		
			<polygon fill="none" stroke="#000000" stroke-width="10" stroke-linecap="round" stroke-linejoin="round" stroke-miterlimit="10" points="
			328.309,782.148 368.111,795.17 375.444,770.928 335.007,757.57 		"/>
		<path fill="#B29344" d="M800.965,579.392c0,0-27.653-12.397-34.645-23.526l-13.754,21.266
			c6.764,12.939,35.159,24.026,35.159,24.026L800.965,579.392z"/>
		<path fill="none" stroke="#000000" stroke-width="10" stroke-linecap="round" stroke-linejoin="round" stroke-miterlimit="10" d="
			M800.965,579.392c0,0-27.653-12.397-34.645-23.526l-13.754,21.266c6.764,12.939,35.159,24.026,35.159,24.026L800.965,579.392z"/>
	</g>
	<g>
		<polygon fill="#B29344" points="505.418,442.967 541.043,486.57 513.168,514.07 498.806,461.345 		"/>
		
			<polygon fill="none" stroke="#000000" stroke-width="10" stroke-linecap="round" stroke-linejoin="round" stroke-miterlimit="10" points="
			505.418,442.967 541.043,486.57 513.168,514.07 498.806,461.345 		"/>
		<polygon fill="#B29344" points="576.555,442.967 541.043,486.57 568.805,514.07 583.168,461.345 		"/>
		
			<polygon fill="none" stroke="#000000" stroke-width="10" stroke-linecap="round" stroke-linejoin="round" stroke-miterlimit="10" points="
			576.555,442.967 541.043,486.57 568.805,514.07 583.168,461.345 		"/>
	</g>
	<line fill="none" stroke="#000000" stroke-width="10" x1="541.043" y1="486.57" x2="540" y2="751.5"/>
	<g>
		<polyline fill="none" stroke="#000000" stroke-width="10" points="442.131,473.705 443.956,532.781 540.521,571.5 		"/>
		<polyline fill="none" stroke="#000000" stroke-width="10" points="638.521,473.705 637.697,532.781 541.131,571.5 		"/>
		<g>
			
				<line fill="none" stroke="#000000" stroke-width="10" stroke-linecap="round" stroke-linejoin="round" x1="554.833" y1="567.637" x2="554.833" y2="601.363"/>
			
				<line fill="none" stroke="#000000" stroke-width="10" stroke-linecap="round" stroke-linejoin="round" x1="568.833" y1="561.648" x2="568.833" y2="595.374"/>
			
				<line fill="none" stroke="#000000" stroke-width="10" stroke-linecap="round" stroke-linejoin="round" x1="582.833" y1="555.865" x2="582.833" y2="589.59"/>
			
				<line fill="none" stroke="#000000" stroke-width="10" stroke-linecap="round" stroke-linejoin="round" x1="596.833" y1="549.774" x2="596.833" y2="583.5"/>
			
				<line fill="none" stroke="#000000" stroke-width="10" stroke-linecap="round" stroke-linejoin="round" x1="610.833" y1="543.833" x2="610.833" y2="577.559"/>
			
				<line fill="none" stroke="#000000" stroke-width="10" stroke-linecap="round" stroke-linejoin="round" x1="624.771" y1="538.002" x2="624.771" y2="571.729"/>
			
				<line fill="none" stroke="#000000" stroke-width="10" stroke-linecap="round" stroke-linejoin="round" x1="637.75" y1="532.912" x2="637.75" y2="566.637"/>
		</g>
		<g>
			
				<line fill="none" stroke="#000000" stroke-width="10" stroke-linecap="round" stroke-linejoin="round" x1="526.749" y1="567.637" x2="526.749" y2="601.363"/>
			
				<line fill="none" stroke="#000000" stroke-width="10" stroke-linecap="round" stroke-linejoin="round" x1="512.749" y1="561.648" x2="512.749" y2="595.374"/>
			
				<line fill="none" stroke="#000000" stroke-width="10" stroke-linecap="round" stroke-linejoin="round" x1="498.749" y1="555.865" x2="498.749" y2="589.59"/>
			
				<line fill="none" stroke="#000000" stroke-width="10" stroke-linecap="round" stroke-linejoin="round" x1="484.749" y1="549.774" x2="484.749" y2="583.5"/>
			
				<line fill="none" stroke="#000000" stroke-width="10" stroke-linecap="round" stroke-linejoin="round" x1="470.749" y1="543.833" x2="470.749" y2="577.559"/>
			
				<line fill="none" stroke="#000000" stroke-width="10" stroke-linecap="round" stroke-linejoin="round" x1="456.812" y1="538.002" x2="456.812" y2="571.729"/>
			
				<line fill="none" stroke="#000000" stroke-width="10" stroke-linecap="round" stroke-linejoin="round" x1="443.832" y1="532.912" x2="443.832" y2="566.637"/>
		</g>
	</g>
</g>
</svg>
