<?xml version="1.0" encoding="utf-8"?>
<!-- Generator: Adobe Illustrator 19.0.0, SVG Export Plug-In . SVG Version: 6.00 Build 0)  -->
<svg version="1.1" id="Layer_1" xmlns="http://www.w3.org/2000/svg" xmlns:xlink="http://www.w3.org/1999/xlink" x="0px" y="0px"
	 viewBox="0 0 1080 1340" enable-background="new 0 0 1080 1340" xml:space="preserve">
<g id="Layer_2_copy">
	<g>
		<path fill="#FBF5B9" d="M443,473.726l-13.272,234.218l73.747,35.115c0,0,13.677-41.97,13.087-132.425
			C516.336,575.84,482.5,464.985,482.5,464.985S459.246,467.392,443,473.726z"/>
		<path fill="#FBF5B9" d="M636.372,473.726l13.272,234.218l-73.747,35.115c0,0-13.677-41.97-13.087-132.425
			c0.227-34.794,34.063-145.649,34.063-145.649S620.125,467.392,636.372,473.726z"/>
	</g>
	<g>
		<path fill="#727272" stroke="#000000" stroke-miterlimit="10" d="M443,473.726l-13.272,234.218l73.747,35.115
			c0,0,13.677-41.97,13.087-132.425C516.336,575.84,482.5,464.985,482.5,464.985S459.246,467.392,443,473.726z"/>
		<path fill="#727272" stroke="#000000" stroke-miterlimit="10" d="M636.372,473.726l13.272,234.218l-73.747,35.115
			c0,0-13.677-41.97-13.087-132.425c0.227-34.794,34.063-145.649,34.063-145.649S620.125,467.392,636.372,473.726z"/>
	</g>
	<g>
		<path fill="none" stroke="#000000" stroke-width="10" stroke-linecap="round" stroke-linejoin="round" stroke-miterlimit="10" d="
			M443,473.726l-13.272,234.218l73.747,35.115c0,0,13.677-41.97,13.087-132.425C516.336,575.84,482.5,464.985,482.5,464.985
			S459.246,467.392,443,473.726z"/>
		<path fill="none" stroke="#000000" stroke-width="10" stroke-linecap="round" stroke-linejoin="round" stroke-miterlimit="10" d="
			M636.372,473.726l13.272,234.218l-73.747,35.115c0,0-13.677-41.97-13.087-132.425c0.227-34.794,34.063-145.649,34.063-145.649
			S620.125,467.392,636.372,473.726z"/>
	</g>
</g>
</svg>
